<?xml version="1.0"?>
<!DOCTYPE svg PUBLIC "-//W3C//DTD SVG 1.0//EN" "http://www.w3.org/TR/2001/REC-SVG-20010904/DTD/svg10.dtd">
<!-- Generated by graphviz version 7.1.0 (0)
 -->
<!-- Title: Engines states Pages: 1 -->
<svg xmlns="http://www.w3.org/2000/svg" xmlns:svg="http://www.w3.org/2000/svg" width="751pt" height="370pt" viewBox="0.00 0.00 750.69 370.00" preserveAspectRatio="xMidYMid meet" zoomAndPan="magnify" version="1.1" contentScriptType="application/ecmascript" contentStyleType="text/css"><defs><linearGradient id="white" x1="0%" y1="0%" x2="0%" y2="0%"><stop offset="0%" style="stop-color:rgb(255,255,255);stop-opacity:1"/></linearGradient><linearGradient id="black" x1="0%" y1="0%" x2="0%" y2="0%"><stop offset="0%" style="stop-color:rgb(0,0,0);stop-opacity:1"/></linearGradient><linearGradient id="aquamarine" x1="0%" y1="0%" x2="100%" y2="100%"><stop offset="0%" style="stop-color:rgb(255,255,255);stop-opacity:1"/><stop offset="100%" style="stop-color:rgb(127,255,212);stop-opacity:1"/></linearGradient><linearGradient id="azure" x1="0%" y1="0%" x2="100%" y2="100%"><stop offset="0%" style="stop-color:rgb(255,255,255);stop-opacity:1"/><stop offset="100%" style="stop-color:rgb(240,255,255);stop-opacity:1"/></linearGradient><linearGradient id="blue" x1="0%" y1="0%" x2="100%" y2="100%"><stop offset="0%" style="stop-color:rgb(255,255,255);stop-opacity:1"/><stop offset="100%" style="stop-color:rgb(0,0,255);stop-opacity:1"/></linearGradient><linearGradient id="blueviolet" x1="0%" y1="0%" x2="100%" y2="100%"><stop offset="0%" style="stop-color:rgb(255,255,255);stop-opacity:1"/><stop offset="100%" style="stop-color:rgb(138,43,226);stop-opacity:1"/></linearGradient><linearGradient id="brown" x1="0%" y1="0%" x2="100%" y2="100%"><stop offset="0%" style="stop-color:rgb(255,255,255);stop-opacity:1"/><stop offset="100%" style="stop-color:rgb(165,42,42);stop-opacity:1"/></linearGradient><linearGradient id="cadetblue" x1="0%" y1="0%" x2="100%" y2="100%"><stop offset="0%" style="stop-color:rgb(255,255,255);stop-opacity:1"/><stop offset="100%" style="stop-color:rgb(95,158,160);stop-opacity:1"/></linearGradient><linearGradient id="chocolate" x1="0%" y1="0%" x2="100%" y2="100%"><stop offset="0%" style="stop-color:rgb(255,255,255);stop-opacity:1"/><stop offset="100%" style="stop-color:rgb(210,105,30);stop-opacity:1"/></linearGradient><linearGradient id="cornflowerblue" x1="0%" y1="0%" x2="100%" y2="100%"><stop offset="0%" style="stop-color:rgb(255,255,255);stop-opacity:1"/><stop offset="100%" style="stop-color:rgb(100,149,237);stop-opacity:1"/></linearGradient><linearGradient id="crimson" x1="0%" y1="0%" x2="100%" y2="100%"><stop offset="0%" style="stop-color:rgb(255,255,255);stop-opacity:1"/><stop offset="100%" style="stop-color:rgb(220,20,60);stop-opacity:1"/></linearGradient><linearGradient id="cyan" x1="0%" y1="0%" x2="100%" y2="100%"><stop offset="0%" style="stop-color:rgb(255,255,255);stop-opacity:1"/><stop offset="100%" style="stop-color:rgb(0,255,255);stop-opacity:1"/></linearGradient><linearGradient id="darkgreen" x1="0%" y1="0%" x2="100%" y2="100%"><stop offset="0%" style="stop-color:rgb(255,255,255);stop-opacity:1"/><stop offset="100%" style="stop-color:rgb(0,100,0);stop-opacity:1"/></linearGradient><linearGradient id="darkorange" x1="0%" y1="0%" x2="100%" y2="100%"><stop offset="0%" style="stop-color:rgb(255,255,255);stop-opacity:1"/><stop offset="100%" style="stop-color:rgb(255,140,0);stop-opacity:1"/></linearGradient><linearGradient id="gold" x1="0%" y1="0%" x2="100%" y2="100%"><stop offset="0%" style="stop-color:rgb(255,255,255);stop-opacity:1"/><stop offset="100%" style="stop-color:rgb(255,215,0);stop-opacity:1"/></linearGradient><linearGradient id="gray" x1="0%" y1="0%" x2="100%" y2="100%"><stop offset="0%" style="stop-color:rgb(255,255,255);stop-opacity:1"/><stop offset="100%" style="stop-color:rgb(192,192,192);stop-opacity:1"/></linearGradient><linearGradient id="greenyellow" x1="0%" y1="0%" x2="100%" y2="100%"><stop offset="0%" style="stop-color:rgb(255,255,255);stop-opacity:1"/><stop offset="100%" style="stop-color:rgb(173,255,47);stop-opacity:1"/></linearGradient><linearGradient id="green" x1="0%" y1="0%" x2="100%" y2="100%"><stop offset="0%" style="stop-color:rgb(255,255,255);stop-opacity:1"/><stop offset="100%" style="stop-color:rgb(0,255,0);stop-opacity:1"/></linearGradient><linearGradient id="grey" x1="0%" y1="0%" x2="100%" y2="100%"><stop offset="0%" style="stop-color:rgb(255,255,255);stop-opacity:1"/><stop offset="100%" style="stop-color:rgb(192,192,192);stop-opacity:1"/></linearGradient><linearGradient id="hotpink" x1="0%" y1="0%" x2="100%" y2="100%"><stop offset="0%" style="stop-color:rgb(255,255,255);stop-opacity:1"/><stop offset="100%" style="stop-color:rgb(255,105,180);stop-opacity:1"/></linearGradient><linearGradient id="indianred" x1="0%" y1="0%" x2="100%" y2="100%"><stop offset="0%" style="stop-color:rgb(255,255,255);stop-opacity:1"/><stop offset="100%" style="stop-color:rgb(205,92,92);stop-opacity:1"/></linearGradient><linearGradient id="indigo" x1="0%" y1="0%" x2="100%" y2="100%"><stop offset="0%" style="stop-color:rgb(255,255,255);stop-opacity:1"/><stop offset="100%" style="stop-color:rgb(75,0,130);stop-opacity:1"/></linearGradient><linearGradient id="lavender" x1="0%" y1="0%" x2="100%" y2="100%"><stop offset="0%" style="stop-color:rgb(255,255,255);stop-opacity:1"/><stop offset="100%" style="stop-color:rgb(230,230,250);stop-opacity:1"/></linearGradient><linearGradient id="lightblue" x1="0%" y1="0%" x2="100%" y2="100%"><stop offset="0%" style="stop-color:rgb(255,255,255);stop-opacity:1"/><stop offset="100%" style="stop-color:rgb(173,216,230);stop-opacity:1"/></linearGradient><linearGradient id="lightgray" x1="0%" y1="0%" x2="100%" y2="100%"><stop offset="0%" style="stop-color:rgb(255,255,255);stop-opacity:1"/><stop offset="100%" style="stop-color:rgb(211,211,211);stop-opacity:1"/></linearGradient><linearGradient id="lightgrey" x1="0%" y1="0%" x2="100%" y2="100%"><stop offset="0%" style="stop-color:rgb(255,255,255);stop-opacity:1"/><stop offset="100%" style="stop-color:rgb(211,211,211);stop-opacity:1"/></linearGradient><linearGradient id="magenta" x1="0%" y1="0%" x2="100%" y2="100%"><stop offset="0%" style="stop-color:rgb(255,255,255);stop-opacity:1"/><stop offset="100%" style="stop-color:rgb(255,0,255);stop-opacity:1"/></linearGradient><linearGradient id="maroon" x1="0%" y1="0%" x2="100%" y2="100%"><stop offset="0%" style="stop-color:rgb(255,255,255);stop-opacity:1"/><stop offset="100%" style="stop-color:rgb(176,48,96);stop-opacity:1"/></linearGradient><linearGradient id="mediumblue" x1="0%" y1="0%" x2="100%" y2="100%"><stop offset="0%" style="stop-color:rgb(255,255,255);stop-opacity:1"/><stop offset="100%" style="stop-color:rgb(0,0,205);stop-opacity:1"/></linearGradient><linearGradient id="mediumpurple" x1="0%" y1="0%" x2="100%" y2="100%"><stop offset="0%" style="stop-color:rgb(255,255,255);stop-opacity:1"/><stop offset="100%" style="stop-color:rgb(147,112,219);stop-opacity:1"/></linearGradient><linearGradient id="orange" x1="0%" y1="0%" x2="100%" y2="100%"><stop offset="0%" style="stop-color:rgb(255,255,255);stop-opacity:1"/><stop offset="100%" style="stop-color:rgb(255,165,0);stop-opacity:1"/></linearGradient><linearGradient id="pink" x1="0%" y1="0%" x2="100%" y2="100%"><stop offset="0%" style="stop-color:rgb(255,255,255);stop-opacity:1"/><stop offset="100%" style="stop-color:rgb(255,192,203);stop-opacity:1"/></linearGradient><linearGradient id="purple" x1="0%" y1="0%" x2="100%" y2="100%"><stop offset="0%" style="stop-color:rgb(255,255,255);stop-opacity:1"/><stop offset="100%" style="stop-color:rgb(160,32,240);stop-opacity:1"/></linearGradient><linearGradient id="red" x1="0%" y1="0%" x2="100%" y2="100%"><stop offset="0%" style="stop-color:rgb(255,255,255);stop-opacity:1"/><stop offset="100%" style="stop-color:rgb(255,0,0);stop-opacity:1"/></linearGradient><linearGradient id="steelblue" x1="0%" y1="0%" x2="100%" y2="100%"><stop offset="0%" style="stop-color:rgb(255,255,255);stop-opacity:1"/><stop offset="100%" style="stop-color:rgb(70,130,180);stop-opacity:1"/></linearGradient><linearGradient id="violet" x1="0%" y1="0%" x2="100%" y2="100%"><stop offset="0%" style="stop-color:rgb(255,255,255);stop-opacity:1"/><stop offset="100%" style="stop-color:rgb(238,130,238);stop-opacity:1"/></linearGradient><linearGradient id="yellow" x1="0%" y1="0%" x2="100%" y2="100%"><stop offset="0%" style="stop-color:rgb(255,255,255);stop-opacity:1"/><stop offset="100%" style="stop-color:rgb(255,255,0);stop-opacity:1"/></linearGradient><linearGradient id="none" x1="0%" y1="0%" x2="100%" y2="100%"><stop offset="0%" style="stop-color:rgb(255,255,255);stop-opacity:1"/><stop offset="100%" style="stop-color:rgb(255,255,255);stop-opacity:1"/></linearGradient></defs>
<g id="graph0" class="graph" transform="scale(1 1) rotate(0) translate(4 366)"><polygon fill="white" stroke="none" points="-4,4 -4,-366 746.69,-366 746.69,4 -4,4"/><title>Engines states</title><g id="node1" class="node"><ellipse fill="none" stroke="black" cx="484.76" cy="-236" rx="51.93" ry="18" style="fill: black; stroke: none; fill-opacity:0.3" transform="translate(3,3)"/><ellipse fill="none" stroke="black" cx="484.76" cy="-236" rx="51.93" ry="18" style="fill: url(#none);stroke: black;"/><title>GAME_OVER</title><text text-anchor="middle" x="484.76" y="-233.2" font-family="Times,serif" font-size="11.00" fill="blue">GAME_OVER</text></g><g id="node2" class="node"><ellipse fill="none" stroke="black" cx="693.98" cy="-344" rx="44.5" ry="18" style="fill: black; stroke: none; fill-opacity:0.3" transform="translate(3,3)"/><ellipse fill="none" stroke="black" cx="693.98" cy="-344" rx="44.5" ry="18" style="fill: url(#none);stroke: black;"/><title>REVERTED</title><text text-anchor="middle" x="693.98" y="-341.2" font-family="Times,serif" font-size="11.00" fill="darkorange">REVERTED</text></g><g id="edge1" class="edge"><polygon fill="black" stroke="black" points="644.77,-333.4 655.36,-333.14 646.92,-326.74 644.77,-333.4" style="fill: black; stroke: none; fill-opacity:0.3" transform="translate(3,3)"/><path fill="none" stroke="black" d="M504.06,-253.15C517.67,-265.22 537.12,-281.1 556.27,-292 584.6,-308.11 618.87,-321.14 646.02,-330.12" style="fill: none; stroke: black; stroke-opacity:0.3" transform="translate(3,3)"/><polygon fill="black" stroke="black" points="644.77,-333.4 655.36,-333.14 646.92,-326.74 644.77,-333.4" style="fill: url(#black);stroke: black;"/><path fill="none" stroke="black" d="M504.06,-253.15C517.67,-265.22 537.12,-281.1 556.27,-292 584.6,-308.11 618.87,-321.14 646.02,-330.12"/><title>GAME_OVER-&gt;REVERTED</title><text text-anchor="middle" x="591.77" y="-325.8" font-family="Times,serif" font-size="14.00" fill="darkorange">reverted</text></g><g id="node3" class="node"><ellipse fill="none" stroke="black" cx="693.98" cy="-290" rx="39.17" ry="18" style="fill: black; stroke: none; fill-opacity:0.3" transform="translate(3,3)"/><ellipse fill="none" stroke="black" cx="693.98" cy="-290" rx="39.17" ry="18" style="fill: url(#none);stroke: black;"/><title>SUCCESS</title><text text-anchor="middle" x="693.98" y="-287.2" font-family="Times,serif" font-size="11.00" fill="green">SUCCESS</text></g><g id="edge2" class="edge"><polygon fill="black" stroke="black" points="646.94,-281.98 657.5,-281.04 648.66,-275.19 646.94,-281.98" style="fill: black; stroke: none; fill-opacity:0.3" transform="translate(3,3)"/><path fill="none" stroke="black" d="M526.38,-247.04C536.16,-249.67 546.59,-252.45 556.27,-255 586.86,-263.03 621.35,-271.86 648.04,-278.64" style="fill: none; stroke: black; stroke-opacity:0.3" transform="translate(3,3)"/><polygon fill="black" stroke="black" points="646.94,-281.98 657.5,-281.04 648.66,-275.19 646.94,-281.98" style="fill: url(#black);stroke: black;"/><path fill="none" stroke="black" d="M526.38,-247.04C536.16,-249.67 546.59,-252.45 556.27,-255 586.86,-263.03 621.35,-271.86 648.04,-278.64"/><title>GAME_OVER-&gt;SUCCESS</title><text text-anchor="middle" x="591.77" y="-276.8" font-family="Times,serif" font-size="14.00" fill="green">success</text></g><g id="node4" class="node"><ellipse fill="none" stroke="black" cx="693.98" cy="-236" rx="48.92" ry="18" style="fill: black; stroke: none; fill-opacity:0.3" transform="translate(3,3)"/><ellipse fill="none" stroke="black" cx="693.98" cy="-236" rx="48.92" ry="18" style="fill: url(#none);stroke: black;"/><title>SUSPENDED</title><text text-anchor="middle" x="693.98" y="-233.2" font-family="Times,serif" font-size="11.00">SUSPENDED</text></g><g id="edge3" class="edge"><polygon fill="black" stroke="black" points="633.32,-239.5 643.32,-236 633.32,-232.5 633.32,-239.5" style="fill: black; stroke: none; fill-opacity:0.3" transform="translate(3,3)"/><path fill="none" stroke="black" d="M536.98,-236C566.21,-236 602.98,-236 633.48,-236" style="fill: none; stroke: black; stroke-opacity:0.3" transform="translate(3,3)"/><polygon fill="black" stroke="black" points="633.32,-239.5 643.32,-236 633.32,-232.5 633.32,-239.5" style="fill: url(#black);stroke: black;"/><path fill="none" stroke="black" d="M536.98,-236C566.21,-236 602.98,-236 633.48,-236"/><title>GAME_OVER-&gt;SUSPENDED</title><text text-anchor="middle" x="591.77" y="-239.8" font-family="Times,serif" font-size="14.00">suspended</text></g><g id="node5" class="node"><ellipse fill="none" stroke="black" cx="693.98" cy="-182" rx="37.77" ry="18" style="fill: black; stroke: none; fill-opacity:0.3" transform="translate(3,3)"/><ellipse fill="none" stroke="black" cx="693.98" cy="-182" rx="37.77" ry="18" style="fill: url(#none);stroke: black;"/><title>FAILURE</title><text text-anchor="middle" x="693.98" y="-179.2" font-family="Times,serif" font-size="11.00" fill="red">FAILURE</text></g><g id="edge4" class="edge"><polygon fill="black" stroke="black" points="649.78,-196.52 658.61,-190.67 648.06,-189.74 649.78,-196.52" style="fill: black; stroke: none; fill-opacity:0.3" transform="translate(3,3)"/><path fill="none" stroke="black" d="M526.38,-224.96C536.16,-222.33 546.59,-219.55 556.27,-217 587.27,-208.86 622.29,-199.9 649.12,-193.08" style="fill: none; stroke: black; stroke-opacity:0.3" transform="translate(3,3)"/><polygon fill="black" stroke="black" points="649.78,-196.52 658.61,-190.67 648.06,-189.74 649.78,-196.52" style="fill: url(#black);stroke: black;"/><path fill="none" stroke="black" d="M526.38,-224.96C536.16,-222.33 546.59,-219.55 556.27,-217 587.27,-208.86 622.29,-199.9 649.12,-193.08"/><title>GAME_OVER-&gt;FAILURE</title><text text-anchor="middle" x="591.77" y="-220.8" font-family="Times,serif" font-size="14.00" fill="red">failed</text></g><g id="node6" class="node"><ellipse fill="none" stroke="black" cx="112.91" cy="-18" rx="48.92" ry="18" style="fill: black; stroke: none; fill-opacity:0.3" transform="translate(3,3)"/><ellipse fill="none" stroke="black" cx="112.91" cy="-18" rx="48.92" ry="18" style="fill: url(#none);stroke: black;"/><title>UNDEFINED</title><text text-anchor="middle" x="112.91" y="-15.2" font-family="Times,serif" font-size="11.00" fill="blue">UNDEFINED</text></g><g id="node7" class="node"><ellipse fill="none" stroke="black" cx="270.93" cy="-18" rx="45.2" ry="18" style="fill: black; stroke: none; fill-opacity:0.3" transform="translate(3,3)"/><ellipse fill="none" stroke="black" cx="270.93" cy="-18" rx="45.2" ry="18" style="fill: url(#none);stroke: black;"/><title>RESUMING</title><text text-anchor="middle" x="270.93" y="-15.2" font-family="Times,serif" font-size="11.00">RESUMING</text></g><g id="edge5" class="edge"><polygon fill="black" stroke="black" points="213.94,-21.5 223.94,-18 213.94,-14.5 213.94,-21.5" style="fill: black; stroke: none; fill-opacity:0.3" transform="translate(3,3)"/><path fill="none" stroke="black" d="M161.99,-18C178.43,-18 196.96,-18 213.97,-18" style="fill: none; stroke: black; stroke-opacity:0.3" transform="translate(3,3)"/><polygon fill="black" stroke="black" points="213.94,-21.5 223.94,-18 213.94,-14.5 213.94,-21.5" style="fill: url(#black);stroke: black;"/><path fill="none" stroke="black" d="M161.99,-18C178.43,-18 196.96,-18 213.97,-18"/><title>UNDEFINED-&gt;RESUMING</title><text text-anchor="middle" x="191.62" y="-21.8" font-family="Times,serif" font-size="14.00">start</text></g><g id="node9" class="node"><ellipse fill="none" stroke="black" cx="484.76" cy="-99" rx="53.54" ry="18" style="fill: black; stroke: none; fill-opacity:0.3" transform="translate(3,3)"/><ellipse fill="none" stroke="black" cx="484.76" cy="-99" rx="53.54" ry="18" style="fill: url(#none);stroke: black;"/><title>SCHEDULING</title><text text-anchor="middle" x="484.76" y="-96.2" font-family="Times,serif" font-size="11.00">SCHEDULING</text></g><g id="edge9" class="edge"><polygon fill="black" stroke="black" points="436.25,-84.58 446.84,-84.88 438.75,-78.04 436.25,-84.58" style="fill: black; stroke: none; fill-opacity:0.3" transform="translate(3,3)"/><path fill="none" stroke="black" d="M304.56,-30.48C340.17,-44.1 397.47,-66 437.66,-81.37" style="fill: none; stroke: black; stroke-opacity:0.3" transform="translate(3,3)"/><polygon fill="black" stroke="black" points="436.25,-84.58 446.84,-84.88 438.75,-78.04 436.25,-84.58" style="fill: url(#black);stroke: black;"/><path fill="none" stroke="black" d="M304.56,-30.48C340.17,-44.1 397.47,-66 437.66,-81.37"/><title>RESUMING-&gt;SCHEDULING</title><text text-anchor="middle" x="375.74" y="-73.8" font-family="Times,serif" font-size="14.00">schedule next</text></g><g id="node8" class="node"><ellipse fill="none" stroke="black" cx="270.93" cy="-169" rx="49.12" ry="18" style="fill: black; stroke: none; fill-opacity:0.3" transform="translate(3,3)"/><ellipse fill="none" stroke="black" cx="270.93" cy="-169" rx="49.12" ry="18" style="fill: url(#none);stroke: black;"/><title>ANALYZING</title><text text-anchor="middle" x="270.93" y="-166.2" font-family="Times,serif" font-size="11.00">ANALYZING</text></g><g id="edge6" class="edge"><polygon fill="black" stroke="black" points="423.98,-230.83 434.44,-229.11 425.19,-223.93 423.98,-230.83" style="fill: black; stroke: none; fill-opacity:0.3" transform="translate(3,3)"/><path fill="none" stroke="black" d="M296.63,-184.62C308.77,-191.72 323.86,-199.69 338.24,-205 365.91,-215.21 397.84,-222.48 424.74,-227.4" style="fill: none; stroke: black; stroke-opacity:0.3" transform="translate(3,3)"/><polygon fill="black" stroke="black" points="423.98,-230.83 434.44,-229.11 425.19,-223.93 423.98,-230.83" style="fill: url(#black);stroke: black;"/><path fill="none" stroke="black" d="M296.63,-184.62C308.77,-191.72 323.86,-199.69 338.24,-205 365.91,-215.21 397.84,-222.48 424.74,-227.4"/><title>ANALYZING-&gt;GAME_OVER</title><text text-anchor="middle" x="375.74" y="-228.8" font-family="Times,serif" font-size="14.00">completed</text></g><g id="edge7" class="edge"><polygon fill="black" stroke="black" points="435.84,-118.52 444.24,-112.06 433.64,-111.87 435.84,-118.52" style="fill: black; stroke: none; fill-opacity:0.3" transform="translate(3,3)"/><path fill="none" stroke="black" d="M308.34,-156.97C343.37,-145.39 396.57,-127.81 435.19,-115.05" style="fill: none; stroke: black; stroke-opacity:0.3" transform="translate(3,3)"/><polygon fill="black" stroke="black" points="435.84,-118.52 444.24,-112.06 433.64,-111.87 435.84,-118.52" style="fill: url(#black);stroke: black;"/><path fill="none" stroke="black" d="M308.34,-156.97C343.37,-145.39 396.57,-127.81 435.19,-115.05"/><title>ANALYZING-&gt;SCHEDULING</title><text text-anchor="middle" x="375.74" y="-149.8" font-family="Times,serif" font-size="14.00">schedule next</text></g><g id="node10" class="node"><ellipse fill="none" stroke="black" cx="693.98" cy="-99" rx="39.17" ry="18" style="fill: black; stroke: none; fill-opacity:0.3" transform="translate(3,3)"/><ellipse fill="none" stroke="black" cx="693.98" cy="-99" rx="39.17" ry="18" style="fill: url(#none);stroke: black;"/><title>WAITING</title><text text-anchor="middle" x="693.98" y="-96.2" font-family="Times,serif" font-size="11.00">WAITING</text></g><g id="edge8" class="edge"><polygon fill="black" stroke="black" points="651.02,-115.71 659.67,-109.59 649.09,-108.98 651.02,-115.71" style="fill: black; stroke: none; fill-opacity:0.3" transform="translate(3,3)"/><path fill="none" stroke="black" d="M318.86,-164.37C387.21,-157.14 517.91,-141.54 627.27,-118 634.76,-116.39 642.65,-114.38 650.26,-112.28" style="fill: none; stroke: black; stroke-opacity:0.3" transform="translate(3,3)"/><polygon fill="black" stroke="black" points="651.02,-115.71 659.67,-109.59 649.09,-108.98 651.02,-115.71" style="fill: url(#black);stroke: black;"/><path fill="none" stroke="black" d="M318.86,-164.37C387.21,-157.14 517.91,-141.54 627.27,-118 634.76,-116.39 642.65,-114.38 650.26,-112.28"/><title>ANALYZING-&gt;WAITING</title><text text-anchor="middle" x="484.76" y="-153.8" font-family="Times,serif" font-size="14.00">wait finished</text></g><g id="edge10" class="edge"><polygon fill="black" stroke="black" points="642.81,-102.5 652.81,-99 642.81,-95.5 642.81,-102.5" style="fill: black; stroke: none; fill-opacity:0.3" transform="translate(3,3)"/><path fill="none" stroke="black" d="M538.58,-99C570.73,-99 611.54,-99 643.13,-99" style="fill: none; stroke: black; stroke-opacity:0.3" transform="translate(3,3)"/><polygon fill="black" stroke="black" points="642.81,-102.5 652.81,-99 642.81,-95.5 642.81,-102.5" style="fill: url(#black);stroke: black;"/><path fill="none" stroke="black" d="M538.58,-99C570.73,-99 611.54,-99 643.13,-99"/><title>SCHEDULING-&gt;WAITING</title><text text-anchor="middle" x="591.77" y="-102.8" font-family="Times,serif" font-size="14.00">wait finished</text></g><g id="edge11" class="edge"><polygon fill="black" stroke="black" points="294.45,-141.36 289.66,-150.81 299.3,-146.41 294.45,-141.36" style="fill: black; stroke: none; fill-opacity:0.3" transform="translate(3,3)"/><path fill="none" stroke="black" d="M665.24,-86.32C616.77,-65.97 513.95,-30.83 431.24,-57 377.25,-74.08 325.72,-116.74 296.54,-144.21" style="fill: none; stroke: black; stroke-opacity:0.3" transform="translate(3,3)"/><polygon fill="black" stroke="black" points="294.45,-141.36 289.66,-150.81 299.3,-146.41 294.45,-141.36" style="fill: url(#black);stroke: black;"/><path fill="none" stroke="black" d="M665.24,-86.32C616.77,-65.97 513.95,-30.83 431.24,-57 377.25,-74.08 325.72,-116.74 296.54,-144.21"/><title>WAITING-&gt;ANALYZING</title><text text-anchor="middle" x="484.76" y="-60.8" font-family="Times,serif" font-size="14.00">examine finished</text></g><g id="node11" class="node"><ellipse fill="black" stroke="black" cx="23.6" cy="-18" rx="3.6" ry="3.6" style="fill: black; stroke: none; fill-opacity:0.3" transform="translate(3,3)"/><ellipse fill="black" stroke="black" cx="23.6" cy="-18" rx="3.6" ry="3.6" style="fill: url(#black);stroke: black;"/><title>__start__</title><text text-anchor="middle" x="10" y="-5.6" font-family="Times,serif" font-size="11.00" fill="green">start</text></g><g id="edge12" class="edge"><polygon fill="black" stroke="black" points="52.06,-21.5 62.06,-18 52.06,-14.5 52.06,-21.5" style="fill: black; stroke: none; fill-opacity:0.3" transform="translate(3,3)"/><path fill="none" stroke="black" stroke-dasharray="1,5" d="M27.5,-18C32.03,-18 41.39,-18 52.29,-18" style="fill: none; stroke: black; stroke-opacity:0.3" transform="translate(3,3)"/><polygon fill="black" stroke="black" points="52.06,-21.5 62.06,-18 52.06,-14.5 52.06,-21.5" style="fill: url(#black);stroke: black;"/><path fill="none" stroke="black" stroke-dasharray="1,5" d="M27.5,-18C32.03,-18 41.39,-18 52.29,-18"/><title>__start__-&gt;UNDEFINED</title></g></g>
</svg>
