<?xml version="1.0"?>
<!DOCTYPE svg PUBLIC "-//W3C//DTD SVG 1.0//EN" "http://www.w3.org/TR/2001/REC-SVG-20010904/DTD/svg10.dtd">
<!-- Generated by graphviz version 7.1.0 (0)
 -->
<!-- Title: Flow states Pages: 1 -->
<svg xmlns="http://www.w3.org/2000/svg" xmlns:svg="http://www.w3.org/2000/svg" width="669pt" height="325pt" viewBox="0.00 0.00 668.61 324.56" preserveAspectRatio="xMidYMid meet" zoomAndPan="magnify" version="1.1" contentScriptType="application/ecmascript" contentStyleType="text/css"><defs><linearGradient id="white" x1="0%" y1="0%" x2="0%" y2="0%"><stop offset="0%" style="stop-color:rgb(255,255,255);stop-opacity:1"/></linearGradient><linearGradient id="black" x1="0%" y1="0%" x2="0%" y2="0%"><stop offset="0%" style="stop-color:rgb(0,0,0);stop-opacity:1"/></linearGradient><linearGradient id="aquamarine" x1="0%" y1="0%" x2="100%" y2="100%"><stop offset="0%" style="stop-color:rgb(255,255,255);stop-opacity:1"/><stop offset="100%" style="stop-color:rgb(127,255,212);stop-opacity:1"/></linearGradient><linearGradient id="azure" x1="0%" y1="0%" x2="100%" y2="100%"><stop offset="0%" style="stop-color:rgb(255,255,255);stop-opacity:1"/><stop offset="100%" style="stop-color:rgb(240,255,255);stop-opacity:1"/></linearGradient><linearGradient id="blue" x1="0%" y1="0%" x2="100%" y2="100%"><stop offset="0%" style="stop-color:rgb(255,255,255);stop-opacity:1"/><stop offset="100%" style="stop-color:rgb(0,0,255);stop-opacity:1"/></linearGradient><linearGradient id="blueviolet" x1="0%" y1="0%" x2="100%" y2="100%"><stop offset="0%" style="stop-color:rgb(255,255,255);stop-opacity:1"/><stop offset="100%" style="stop-color:rgb(138,43,226);stop-opacity:1"/></linearGradient><linearGradient id="brown" x1="0%" y1="0%" x2="100%" y2="100%"><stop offset="0%" style="stop-color:rgb(255,255,255);stop-opacity:1"/><stop offset="100%" style="stop-color:rgb(165,42,42);stop-opacity:1"/></linearGradient><linearGradient id="cadetblue" x1="0%" y1="0%" x2="100%" y2="100%"><stop offset="0%" style="stop-color:rgb(255,255,255);stop-opacity:1"/><stop offset="100%" style="stop-color:rgb(95,158,160);stop-opacity:1"/></linearGradient><linearGradient id="chocolate" x1="0%" y1="0%" x2="100%" y2="100%"><stop offset="0%" style="stop-color:rgb(255,255,255);stop-opacity:1"/><stop offset="100%" style="stop-color:rgb(210,105,30);stop-opacity:1"/></linearGradient><linearGradient id="cornflowerblue" x1="0%" y1="0%" x2="100%" y2="100%"><stop offset="0%" style="stop-color:rgb(255,255,255);stop-opacity:1"/><stop offset="100%" style="stop-color:rgb(100,149,237);stop-opacity:1"/></linearGradient><linearGradient id="crimson" x1="0%" y1="0%" x2="100%" y2="100%"><stop offset="0%" style="stop-color:rgb(255,255,255);stop-opacity:1"/><stop offset="100%" style="stop-color:rgb(220,20,60);stop-opacity:1"/></linearGradient><linearGradient id="cyan" x1="0%" y1="0%" x2="100%" y2="100%"><stop offset="0%" style="stop-color:rgb(255,255,255);stop-opacity:1"/><stop offset="100%" style="stop-color:rgb(0,255,255);stop-opacity:1"/></linearGradient><linearGradient id="darkgreen" x1="0%" y1="0%" x2="100%" y2="100%"><stop offset="0%" style="stop-color:rgb(255,255,255);stop-opacity:1"/><stop offset="100%" style="stop-color:rgb(0,100,0);stop-opacity:1"/></linearGradient><linearGradient id="darkorange" x1="0%" y1="0%" x2="100%" y2="100%"><stop offset="0%" style="stop-color:rgb(255,255,255);stop-opacity:1"/><stop offset="100%" style="stop-color:rgb(255,140,0);stop-opacity:1"/></linearGradient><linearGradient id="gold" x1="0%" y1="0%" x2="100%" y2="100%"><stop offset="0%" style="stop-color:rgb(255,255,255);stop-opacity:1"/><stop offset="100%" style="stop-color:rgb(255,215,0);stop-opacity:1"/></linearGradient><linearGradient id="gray" x1="0%" y1="0%" x2="100%" y2="100%"><stop offset="0%" style="stop-color:rgb(255,255,255);stop-opacity:1"/><stop offset="100%" style="stop-color:rgb(192,192,192);stop-opacity:1"/></linearGradient><linearGradient id="greenyellow" x1="0%" y1="0%" x2="100%" y2="100%"><stop offset="0%" style="stop-color:rgb(255,255,255);stop-opacity:1"/><stop offset="100%" style="stop-color:rgb(173,255,47);stop-opacity:1"/></linearGradient><linearGradient id="green" x1="0%" y1="0%" x2="100%" y2="100%"><stop offset="0%" style="stop-color:rgb(255,255,255);stop-opacity:1"/><stop offset="100%" style="stop-color:rgb(0,255,0);stop-opacity:1"/></linearGradient><linearGradient id="grey" x1="0%" y1="0%" x2="100%" y2="100%"><stop offset="0%" style="stop-color:rgb(255,255,255);stop-opacity:1"/><stop offset="100%" style="stop-color:rgb(192,192,192);stop-opacity:1"/></linearGradient><linearGradient id="hotpink" x1="0%" y1="0%" x2="100%" y2="100%"><stop offset="0%" style="stop-color:rgb(255,255,255);stop-opacity:1"/><stop offset="100%" style="stop-color:rgb(255,105,180);stop-opacity:1"/></linearGradient><linearGradient id="indianred" x1="0%" y1="0%" x2="100%" y2="100%"><stop offset="0%" style="stop-color:rgb(255,255,255);stop-opacity:1"/><stop offset="100%" style="stop-color:rgb(205,92,92);stop-opacity:1"/></linearGradient><linearGradient id="indigo" x1="0%" y1="0%" x2="100%" y2="100%"><stop offset="0%" style="stop-color:rgb(255,255,255);stop-opacity:1"/><stop offset="100%" style="stop-color:rgb(75,0,130);stop-opacity:1"/></linearGradient><linearGradient id="lavender" x1="0%" y1="0%" x2="100%" y2="100%"><stop offset="0%" style="stop-color:rgb(255,255,255);stop-opacity:1"/><stop offset="100%" style="stop-color:rgb(230,230,250);stop-opacity:1"/></linearGradient><linearGradient id="lightblue" x1="0%" y1="0%" x2="100%" y2="100%"><stop offset="0%" style="stop-color:rgb(255,255,255);stop-opacity:1"/><stop offset="100%" style="stop-color:rgb(173,216,230);stop-opacity:1"/></linearGradient><linearGradient id="lightgray" x1="0%" y1="0%" x2="100%" y2="100%"><stop offset="0%" style="stop-color:rgb(255,255,255);stop-opacity:1"/><stop offset="100%" style="stop-color:rgb(211,211,211);stop-opacity:1"/></linearGradient><linearGradient id="lightgrey" x1="0%" y1="0%" x2="100%" y2="100%"><stop offset="0%" style="stop-color:rgb(255,255,255);stop-opacity:1"/><stop offset="100%" style="stop-color:rgb(211,211,211);stop-opacity:1"/></linearGradient><linearGradient id="magenta" x1="0%" y1="0%" x2="100%" y2="100%"><stop offset="0%" style="stop-color:rgb(255,255,255);stop-opacity:1"/><stop offset="100%" style="stop-color:rgb(255,0,255);stop-opacity:1"/></linearGradient><linearGradient id="maroon" x1="0%" y1="0%" x2="100%" y2="100%"><stop offset="0%" style="stop-color:rgb(255,255,255);stop-opacity:1"/><stop offset="100%" style="stop-color:rgb(176,48,96);stop-opacity:1"/></linearGradient><linearGradient id="mediumblue" x1="0%" y1="0%" x2="100%" y2="100%"><stop offset="0%" style="stop-color:rgb(255,255,255);stop-opacity:1"/><stop offset="100%" style="stop-color:rgb(0,0,205);stop-opacity:1"/></linearGradient><linearGradient id="mediumpurple" x1="0%" y1="0%" x2="100%" y2="100%"><stop offset="0%" style="stop-color:rgb(255,255,255);stop-opacity:1"/><stop offset="100%" style="stop-color:rgb(147,112,219);stop-opacity:1"/></linearGradient><linearGradient id="orange" x1="0%" y1="0%" x2="100%" y2="100%"><stop offset="0%" style="stop-color:rgb(255,255,255);stop-opacity:1"/><stop offset="100%" style="stop-color:rgb(255,165,0);stop-opacity:1"/></linearGradient><linearGradient id="pink" x1="0%" y1="0%" x2="100%" y2="100%"><stop offset="0%" style="stop-color:rgb(255,255,255);stop-opacity:1"/><stop offset="100%" style="stop-color:rgb(255,192,203);stop-opacity:1"/></linearGradient><linearGradient id="purple" x1="0%" y1="0%" x2="100%" y2="100%"><stop offset="0%" style="stop-color:rgb(255,255,255);stop-opacity:1"/><stop offset="100%" style="stop-color:rgb(160,32,240);stop-opacity:1"/></linearGradient><linearGradient id="red" x1="0%" y1="0%" x2="100%" y2="100%"><stop offset="0%" style="stop-color:rgb(255,255,255);stop-opacity:1"/><stop offset="100%" style="stop-color:rgb(255,0,0);stop-opacity:1"/></linearGradient><linearGradient id="steelblue" x1="0%" y1="0%" x2="100%" y2="100%"><stop offset="0%" style="stop-color:rgb(255,255,255);stop-opacity:1"/><stop offset="100%" style="stop-color:rgb(70,130,180);stop-opacity:1"/></linearGradient><linearGradient id="violet" x1="0%" y1="0%" x2="100%" y2="100%"><stop offset="0%" style="stop-color:rgb(255,255,255);stop-opacity:1"/><stop offset="100%" style="stop-color:rgb(238,130,238);stop-opacity:1"/></linearGradient><linearGradient id="yellow" x1="0%" y1="0%" x2="100%" y2="100%"><stop offset="0%" style="stop-color:rgb(255,255,255);stop-opacity:1"/><stop offset="100%" style="stop-color:rgb(255,255,0);stop-opacity:1"/></linearGradient><linearGradient id="none" x1="0%" y1="0%" x2="100%" y2="100%"><stop offset="0%" style="stop-color:rgb(255,255,255);stop-opacity:1"/><stop offset="100%" style="stop-color:rgb(255,255,255);stop-opacity:1"/></linearGradient></defs>
<g id="graph0" class="graph" transform="scale(1 1) rotate(0) translate(4 320.56)"><polygon fill="white" stroke="none" points="-4,4 -4,-320.56 664.61,-320.56 664.61,4 -4,4"/><title>Flow states</title><g id="node1" class="node"><ellipse fill="none" stroke="black" cx="102.89" cy="-26.56" rx="39.88" ry="18" style="fill: black; stroke: none; fill-opacity:0.3" transform="translate(3,3)"/><ellipse fill="none" stroke="black" cx="102.89" cy="-26.56" rx="39.88" ry="18" style="fill: url(#none);stroke: black;"/><title>PENDING</title><text text-anchor="middle" x="102.89" y="-23.76" font-family="Times,serif" font-size="11.00">PENDING</text></g><g id="node2" class="node"><ellipse fill="none" stroke="black" cx="220.07" cy="-158.56" rx="41.48" ry="18" style="fill: black; stroke: none; fill-opacity:0.3" transform="translate(3,3)"/><ellipse fill="none" stroke="black" cx="220.07" cy="-158.56" rx="41.48" ry="18" style="fill: url(#none);stroke: black;"/><title>RUNNING</title><text text-anchor="middle" x="220.07" y="-155.76" font-family="Times,serif" font-size="11.00">RUNNING</text></g><g id="edge1" class="edge"><polygon fill="black" stroke="black" points="194.1,-135.27 203.31,-140.5 199.37,-130.67 194.1,-135.27" style="fill: black; stroke: none; fill-opacity:0.3" transform="translate(3,3)"/><path fill="none" stroke="black" d="M118.71,-43.55C138.58,-66.32 174.01,-106.93 197.02,-133.29" style="fill: none; stroke: black; stroke-opacity:0.3" transform="translate(3,3)"/><polygon fill="black" stroke="black" points="194.1,-135.27 203.31,-140.5 199.37,-130.67 194.1,-135.27" style="fill: url(#black);stroke: black;"/><path fill="none" stroke="black" d="M118.71,-43.55C138.58,-66.32 174.01,-106.93 197.02,-133.29"/><title>PENDING-&gt;RUNNING</title></g><g id="node3" class="node"><ellipse fill="none" stroke="black" cx="349.28" cy="-298.56" rx="51.93" ry="18" style="fill: black; stroke: none; fill-opacity:0.3" transform="translate(3,3)"/><ellipse fill="none" stroke="black" cx="349.28" cy="-298.56" rx="51.93" ry="18" style="fill: url(#none);stroke: black;"/><title>SUSPENDING</title><text text-anchor="middle" x="349.28" y="-295.76" font-family="Times,serif" font-size="11.00">SUSPENDING</text></g><g id="edge10" class="edge"><polygon fill="black" stroke="black" points="308.23,-279.79 318.49,-282.44 312.12,-273.97 308.23,-279.79" style="fill: black; stroke: none; fill-opacity:0.3" transform="translate(3,3)"/><path fill="none" stroke="black" d="M230.66,-176.24C243.64,-199.05 268.55,-239.06 297.56,-266.56 301.46,-270.26 305.86,-273.77 310.38,-277.02" style="fill: none; stroke: black; stroke-opacity:0.3" transform="translate(3,3)"/><polygon fill="black" stroke="black" points="308.23,-279.79 318.49,-282.44 312.12,-273.97 308.23,-279.79" style="fill: url(#black);stroke: black;"/><path fill="none" stroke="black" d="M230.66,-176.24C243.64,-199.05 268.55,-239.06 297.56,-266.56 301.46,-270.26 305.86,-273.77 310.38,-277.02"/><title>RUNNING-&gt;SUSPENDING</title></g><g id="node4" class="node"><ellipse fill="none" stroke="black" cx="482.09" cy="-204.56" rx="45.2" ry="18" style="fill: black; stroke: none; fill-opacity:0.3" transform="translate(3,3)"/><ellipse fill="none" stroke="black" cx="482.09" cy="-204.56" rx="45.2" ry="18" style="fill: url(#none);stroke: black;"/><title>RESUMING</title><text text-anchor="middle" x="482.09" y="-201.76" font-family="Times,serif" font-size="11.00">RESUMING</text></g><g id="edge9" class="edge"><polygon fill="black" stroke="black" points="427.95,-198.97 438.4,-197.22 429.14,-192.07 427.95,-198.97" style="fill: black; stroke: none; fill-opacity:0.3" transform="translate(3,3)"/><path fill="none" stroke="black" d="M258.8,-165.53C271.15,-167.8 284.94,-170.31 297.56,-172.56 341.85,-180.48 392.2,-189.24 428.95,-195.59" style="fill: none; stroke: black; stroke-opacity:0.3" transform="translate(3,3)"/><polygon fill="black" stroke="black" points="427.95,-198.97 438.4,-197.22 429.14,-192.07 427.95,-198.97" style="fill: url(#black);stroke: black;"/><path fill="none" stroke="black" d="M258.8,-165.53C271.15,-167.8 284.94,-170.31 297.56,-172.56 341.85,-180.48 392.2,-189.24 428.95,-195.59"/><title>RUNNING-&gt;RESUMING</title></g><g id="node6" class="node"><ellipse fill="none" stroke="black" cx="482.09" cy="-112.56" rx="44.5" ry="18" style="fill: black; stroke: none; fill-opacity:0.3" transform="translate(3,3)"/><ellipse fill="none" stroke="black" cx="482.09" cy="-112.56" rx="44.5" ry="18" style="fill: url(#none);stroke: black;"/><title>REVERTED</title><text text-anchor="middle" x="482.09" y="-109.76" font-family="Times,serif" font-size="11.00" fill="darkorange">REVERTED</text></g><g id="edge11" class="edge"><polygon fill="black" stroke="black" points="429.87,-124.93 439.12,-119.78 428.67,-118.03 429.87,-124.93" style="fill: black; stroke: none; fill-opacity:0.3" transform="translate(3,3)"/><path fill="none" stroke="black" d="M258.8,-151.59C271.15,-149.33 284.94,-146.82 297.56,-144.56 342.14,-136.6 392.86,-127.77 429.66,-121.41" style="fill: none; stroke: black; stroke-opacity:0.3" transform="translate(3,3)"/><polygon fill="black" stroke="black" points="429.87,-124.93 439.12,-119.78 428.67,-118.03 429.87,-124.93" style="fill: url(#black);stroke: black;"/><path fill="none" stroke="black" d="M258.8,-151.59C271.15,-149.33 284.94,-146.82 297.56,-144.56 342.14,-136.6 392.86,-127.77 429.66,-121.41"/><title>RUNNING-&gt;REVERTED</title></g><g id="node7" class="node"><ellipse fill="none" stroke="black" cx="482.09" cy="-58.56" rx="39.17" ry="18" style="fill: black; stroke: none; fill-opacity:0.3" transform="translate(3,3)"/><ellipse fill="none" stroke="black" cx="482.09" cy="-58.56" rx="39.17" ry="18" style="fill: url(#none);stroke: black;"/><title>SUCCESS</title><text text-anchor="middle" x="482.09" y="-55.76" font-family="Times,serif" font-size="11.00" fill="green">SUCCESS</text></g><g id="edge12" class="edge"><polygon fill="black" stroke="black" points="433.93,-69.82 442.65,-63.8 432.08,-63.07 433.93,-69.82" style="fill: black; stroke: none; fill-opacity:0.3" transform="translate(3,3)"/><path fill="none" stroke="black" d="M239.07,-142.25C254.42,-132.82 277.18,-121.89 297.56,-113.56 342.86,-95.07 395.72,-76.99 433.05,-66.43" style="fill: none; stroke: black; stroke-opacity:0.3" transform="translate(3,3)"/><polygon fill="black" stroke="black" points="433.93,-69.82 442.65,-63.8 432.08,-63.07 433.93,-69.82" style="fill: url(#black);stroke: black;"/><path fill="none" stroke="black" d="M239.07,-142.25C254.42,-132.82 277.18,-121.89 297.56,-113.56 342.86,-95.07 395.72,-76.99 433.05,-66.43"/><title>RUNNING-&gt;SUCCESS</title></g><g id="node8" class="node"><ellipse fill="none" stroke="black" cx="482.09" cy="-258.56" rx="37.77" ry="18" style="fill: black; stroke: none; fill-opacity:0.3" transform="translate(3,3)"/><ellipse fill="none" stroke="black" cx="482.09" cy="-258.56" rx="37.77" ry="18" style="fill: url(#none);stroke: black;"/><title>FAILURE</title><text text-anchor="middle" x="482.09" y="-255.76" font-family="Times,serif" font-size="11.00" fill="red">FAILURE</text></g><g id="edge8" class="edge"><polygon fill="black" stroke="black" points="444.45,-244 455.04,-244.4 447.01,-237.48 444.45,-244" style="fill: black; stroke: none; fill-opacity:0.3" transform="translate(3,3)"/><path fill="none" stroke="black" d="M256.53,-167.73C269.33,-173.31 283.97,-180.02 297.56,-185.56 348.46,-206.35 408.9,-226.6 446.13,-240.9" style="fill: none; stroke: black; stroke-opacity:0.3" transform="translate(3,3)"/><polygon fill="black" stroke="black" points="444.45,-244 455.04,-244.4 447.01,-237.48 444.45,-244" style="fill: url(#black);stroke: black;"/><path fill="none" stroke="black" d="M256.53,-167.73C269.33,-173.31 283.97,-180.02 297.56,-185.56 348.46,-206.35 408.9,-226.6 446.13,-240.9"/><title>RUNNING-&gt;FAILURE</title></g><g id="edge2" class="edge"><polygon fill="black" stroke="black" points="447.73,-228.62 454.32,-220.33 444,-222.7 447.73,-228.62" style="fill: black; stroke: none; fill-opacity:0.3" transform="translate(3,3)"/><path fill="none" stroke="black" d="M370.48,-281.95C387.76,-267.98 413.5,-247.76 436.99,-231.56 439.86,-229.59 442.86,-227.59 445.9,-225.63" style="fill: none; stroke: black; stroke-opacity:0.3" transform="translate(3,3)"/><polygon fill="black" stroke="black" points="447.73,-228.62 454.32,-220.33 444,-222.7 447.73,-228.62" style="fill: url(#black);stroke: black;"/><path fill="none" stroke="black" d="M370.48,-281.95C387.76,-267.98 413.5,-247.76 436.99,-231.56 439.86,-229.59 442.86,-227.59 445.9,-225.63"/><title>SUSPENDING-&gt;RESUMING</title></g><g id="node5" class="node"><ellipse fill="none" stroke="black" cx="611.9" cy="-204.56" rx="48.92" ry="18" style="fill: black; stroke: none; fill-opacity:0.3" transform="translate(3,3)"/><ellipse fill="none" stroke="black" cx="611.9" cy="-204.56" rx="48.92" ry="18" style="fill: url(#none);stroke: black;"/><title>SUSPENDED</title><text text-anchor="middle" x="611.9" y="-201.76" font-family="Times,serif" font-size="11.00">SUSPENDED</text></g><g id="edge3" class="edge"><polygon fill="black" stroke="black" points="594.45,-233.36 597.83,-223.32 588.92,-229.06 594.45,-233.36" style="fill: black; stroke: none; fill-opacity:0.3" transform="translate(3,3)"/><path fill="none" stroke="black" d="M399.38,-303.71C436.15,-305.53 486.86,-303.63 527.19,-285.56 553.56,-273.75 576.57,-249.9 591.75,-231.12" style="fill: none; stroke: black; stroke-opacity:0.3" transform="translate(3,3)"/><polygon fill="black" stroke="black" points="594.45,-233.36 597.83,-223.32 588.92,-229.06 594.45,-233.36" style="fill: url(#black);stroke: black;"/><path fill="none" stroke="black" d="M399.38,-303.71C436.15,-305.53 486.86,-303.63 527.19,-285.56 553.56,-273.75 576.57,-249.9 591.75,-231.12"/><title>SUSPENDING-&gt;SUSPENDED</title></g><g id="edge4" class="edge"><polygon fill="black" stroke="black" points="465.02,-141.5 467.91,-131.31 459.29,-137.48 465.02,-141.5" style="fill: black; stroke: none; fill-opacity:0.3" transform="translate(3,3)"/><path fill="none" stroke="black" d="M362.82,-280.73C385.93,-247.87 435.34,-177.62 462.41,-139.13" style="fill: none; stroke: black; stroke-opacity:0.3" transform="translate(3,3)"/><polygon fill="black" stroke="black" points="465.02,-141.5 467.91,-131.31 459.29,-137.48 465.02,-141.5" style="fill: url(#black);stroke: black;"/><path fill="none" stroke="black" d="M362.82,-280.73C385.93,-247.87 435.34,-177.62 462.41,-139.13"/><title>SUSPENDING-&gt;REVERTED</title></g><g id="edge5" class="edge"><polygon fill="black" stroke="black" points="446.5,-81.1 452.58,-72.42 442.42,-75.41 446.5,-81.1" style="fill: black; stroke: none; fill-opacity:0.3" transform="translate(3,3)"/><path fill="none" stroke="black" d="M353.67,-280.3C361.81,-240.76 385.69,-145.97 436.99,-85.56 439.24,-82.91 441.82,-80.45 444.58,-78.17" style="fill: none; stroke: black; stroke-opacity:0.3" transform="translate(3,3)"/><polygon fill="black" stroke="black" points="446.5,-81.1 452.58,-72.42 442.42,-75.41 446.5,-81.1" style="fill: url(#black);stroke: black;"/><path fill="none" stroke="black" d="M353.67,-280.3C361.81,-240.76 385.69,-145.97 436.99,-85.56 439.24,-82.91 441.82,-80.45 444.58,-78.17"/><title>SUSPENDING-&gt;SUCCESS</title></g><g id="edge6" class="edge"><polygon fill="black" stroke="black" points="439.6,-274.91 448.14,-268.64 437.56,-268.22 439.6,-274.91" style="fill: black; stroke: none; fill-opacity:0.3" transform="translate(3,3)"/><path fill="none" stroke="black" d="M389.17,-286.67C404.84,-281.88 422.94,-276.34 438.92,-271.46" style="fill: none; stroke: black; stroke-opacity:0.3" transform="translate(3,3)"/><polygon fill="black" stroke="black" points="439.6,-274.91 448.14,-268.64 437.56,-268.22 439.6,-274.91" style="fill: url(#black);stroke: black;"/><path fill="none" stroke="black" d="M389.17,-286.67C404.84,-281.88 422.94,-276.34 438.92,-271.46"/><title>SUSPENDING-&gt;FAILURE</title></g><g id="edge7" class="edge"><polygon fill="black" stroke="black" points="551.01,-208.06 561.01,-204.56 551.01,-201.06 551.01,-208.06" style="fill: black; stroke: none; fill-opacity:0.3" transform="translate(3,3)"/><path fill="none" stroke="black" d="M527.79,-204.56C535.34,-204.56 543.28,-204.56 551.13,-204.56" style="fill: none; stroke: black; stroke-opacity:0.3" transform="translate(3,3)"/><polygon fill="black" stroke="black" points="551.01,-208.06 561.01,-204.56 551.01,-201.06 551.01,-208.06" style="fill: url(#black);stroke: black;"/><path fill="none" stroke="black" d="M527.79,-204.56C535.34,-204.56 543.28,-204.56 551.13,-204.56"/><title>RESUMING-&gt;SUSPENDED</title></g><g id="edge14" class="edge"><polygon fill="black" stroke="black" points="273.09,-154.36 263.09,-157.88 273.1,-161.36 273.09,-154.36" style="fill: black; stroke: none; fill-opacity:0.3" transform="translate(3,3)"/><path fill="none" stroke="black" d="M577.19,-191.56C562.12,-186.31 544,-180.74 527.19,-177.56 438.96,-160.87 334.14,-157.93 272.87,-157.86" style="fill: none; stroke: black; stroke-opacity:0.3" transform="translate(3,3)"/><polygon fill="black" stroke="black" points="273.09,-154.36 263.09,-157.88 273.1,-161.36 273.09,-154.36" style="fill: url(#black);stroke: black;"/><path fill="none" stroke="black" d="M577.19,-191.56C562.12,-186.31 544,-180.74 527.19,-177.56 438.96,-160.87 334.14,-157.93 272.87,-157.86"/><title>SUSPENDED-&gt;RUNNING</title></g><g id="edge15" class="edge"><polygon fill="black" stroke="black" points="151.04,-33.72 140.51,-34.91 149.48,-40.55 151.04,-33.72" style="fill: black; stroke: none; fill-opacity:0.3" transform="translate(3,3)"/><path fill="none" stroke="black" d="M442.54,-103.77C372.61,-87.83 225.16,-54.21 150.02,-37.08" style="fill: none; stroke: black; stroke-opacity:0.3" transform="translate(3,3)"/><polygon fill="black" stroke="black" points="151.04,-33.72 140.51,-34.91 149.48,-40.55 151.04,-33.72" style="fill: url(#black);stroke: black;"/><path fill="none" stroke="black" d="M442.54,-103.77C372.61,-87.83 225.16,-54.21 150.02,-37.08"/><title>REVERTED-&gt;PENDING</title></g><g id="edge17" class="edge"><polygon fill="black" stroke="black" points="149.04,-12.49 139.95,-17.94 150.46,-19.34 149.04,-12.49" style="fill: black; stroke: none; fill-opacity:0.3" transform="translate(3,3)"/><path fill="none" stroke="black" d="M461,-43.04C445.55,-32.13 423.15,-18.47 400.99,-12.56 314.46,10.52 208.81,-4.1 149.66,-15.93" style="fill: none; stroke: black; stroke-opacity:0.3" transform="translate(3,3)"/><polygon fill="black" stroke="black" points="149.04,-12.49 139.95,-17.94 150.46,-19.34 149.04,-12.49" style="fill: url(#black);stroke: black;"/><path fill="none" stroke="black" d="M461,-43.04C445.55,-32.13 423.15,-18.47 400.99,-12.56 314.46,10.52 208.81,-4.1 149.66,-15.93"/><title>SUCCESS-&gt;PENDING</title></g><g id="edge16" class="edge"><polygon fill="black" stroke="black" points="265.65,-141.55 257.91,-148.79 268.48,-147.96 265.65,-141.55" style="fill: black; stroke: none; fill-opacity:0.3" transform="translate(3,3)"/><path fill="none" stroke="black" d="M455.85,-72.42C420.18,-86.78 353.17,-108.86 297.56,-131.56 287.48,-135.68 276.81,-140.44 266.75,-144.9" style="fill: none; stroke: black; stroke-opacity:0.3" transform="translate(3,3)"/><polygon fill="black" stroke="black" points="265.65,-141.55 257.91,-148.79 268.48,-147.96 265.65,-141.55" style="fill: url(#black);stroke: black;"/><path fill="none" stroke="black" d="M455.85,-72.42C420.18,-86.78 353.17,-108.86 297.56,-131.56 287.48,-135.68 276.81,-140.44 266.75,-144.9"/><title>SUCCESS-&gt;RUNNING</title></g><g id="edge13" class="edge"><polygon fill="black" stroke="black" points="250.78,-177.63 240.38,-175.64 247.27,-183.68 250.78,-177.63" style="fill: black; stroke: none; fill-opacity:0.3" transform="translate(3,3)"/><path fill="none" stroke="black" d="M445.15,-254C407.85,-244.25 348.01,-224.17 297.56,-203.56 281.16,-196.87 263.22,-188.48 248.84,-180.55" style="fill: none; stroke: black; stroke-opacity:0.3" transform="translate(3,3)"/><polygon fill="black" stroke="black" points="250.78,-177.63 240.38,-175.64 247.27,-183.68 250.78,-177.63" style="fill: url(#black);stroke: black;"/><path fill="none" stroke="black" d="M445.15,-254C407.85,-244.25 348.01,-224.17 297.56,-203.56 281.16,-196.87 263.22,-188.48 248.84,-180.55"/><title>FAILURE-&gt;RUNNING</title></g><g id="node9" class="node"><ellipse fill="black" stroke="black" cx="23.6" cy="-26.56" rx="3.6" ry="3.6" style="fill: black; stroke: none; fill-opacity:0.3" transform="translate(3,3)"/><ellipse fill="black" stroke="black" cx="23.6" cy="-26.56" rx="3.6" ry="3.6" style="fill: url(#black);stroke: black;"/><title>__start__</title><text text-anchor="middle" x="10" y="-14.16" font-family="Times,serif" font-size="11.00" fill="green">start</text></g><g id="edge18" class="edge"><polygon fill="black" stroke="black" points="51.33,-30.06 61.33,-26.56 51.33,-23.06 51.33,-30.06" style="fill: black; stroke: none; fill-opacity:0.3" transform="translate(3,3)"/><path fill="none" stroke="black" stroke-dasharray="1,5" d="M27.54,-26.56C31.99,-26.56 41.04,-26.56 51.33,-26.56" style="fill: none; stroke: black; stroke-opacity:0.3" transform="translate(3,3)"/><polygon fill="black" stroke="black" points="51.33,-30.06 61.33,-26.56 51.33,-23.06 51.33,-30.06" style="fill: url(#black);stroke: black;"/><path fill="none" stroke="black" stroke-dasharray="1,5" d="M27.54,-26.56C31.99,-26.56 41.04,-26.56 51.33,-26.56"/><title>__start__-&gt;PENDING</title></g></g>
</svg>
