<?xml version="1.0"?>
<!DOCTYPE svg PUBLIC "-//W3C//DTD SVG 1.0//EN" "http://www.w3.org/TR/2001/REC-SVG-20010904/DTD/svg10.dtd">
<!-- Generated by graphviz version 2.36.0 (20140111.2315)
 -->
<!-- Title: Flow states Pages: 1 -->
<svg xmlns="http://www.w3.org/2000/svg" xmlns:svg="http://www.w3.org/2000/svg" width="672pt" height="346pt" viewBox="0.00 0.00 671.60 346.35" preserveAspectRatio="xMidYMid meet" zoomAndPan="magnify" version="1.1" contentScriptType="application/ecmascript" contentStyleType="text/css"><defs><linearGradient id="white" x1="0%" y1="0%" x2="0%" y2="0%"><stop offset="0%" style="stop-color:rgb(255,255,255);stop-opacity:1"/></linearGradient><linearGradient id="black" x1="0%" y1="0%" x2="0%" y2="0%"><stop offset="0%" style="stop-color:rgb(0,0,0);stop-opacity:1"/></linearGradient><linearGradient id="aquamarine" x1="0%" y1="0%" x2="100%" y2="100%"><stop offset="0%" style="stop-color:rgb(255,255,255);stop-opacity:1"/><stop offset="100%" style="stop-color:rgb(127,255,212);stop-opacity:1"/></linearGradient><linearGradient id="azure" x1="0%" y1="0%" x2="100%" y2="100%"><stop offset="0%" style="stop-color:rgb(255,255,255);stop-opacity:1"/><stop offset="100%" style="stop-color:rgb(240,255,255);stop-opacity:1"/></linearGradient><linearGradient id="blue" x1="0%" y1="0%" x2="100%" y2="100%"><stop offset="0%" style="stop-color:rgb(255,255,255);stop-opacity:1"/><stop offset="100%" style="stop-color:rgb(0,0,255);stop-opacity:1"/></linearGradient><linearGradient id="blueviolet" x1="0%" y1="0%" x2="100%" y2="100%"><stop offset="0%" style="stop-color:rgb(255,255,255);stop-opacity:1"/><stop offset="100%" style="stop-color:rgb(138,43,226);stop-opacity:1"/></linearGradient><linearGradient id="brown" x1="0%" y1="0%" x2="100%" y2="100%"><stop offset="0%" style="stop-color:rgb(255,255,255);stop-opacity:1"/><stop offset="100%" style="stop-color:rgb(165,42,42);stop-opacity:1"/></linearGradient><linearGradient id="cadetblue" x1="0%" y1="0%" x2="100%" y2="100%"><stop offset="0%" style="stop-color:rgb(255,255,255);stop-opacity:1"/><stop offset="100%" style="stop-color:rgb(95,158,160);stop-opacity:1"/></linearGradient><linearGradient id="chocolate" x1="0%" y1="0%" x2="100%" y2="100%"><stop offset="0%" style="stop-color:rgb(255,255,255);stop-opacity:1"/><stop offset="100%" style="stop-color:rgb(210,105,30);stop-opacity:1"/></linearGradient><linearGradient id="cornflowerblue" x1="0%" y1="0%" x2="100%" y2="100%"><stop offset="0%" style="stop-color:rgb(255,255,255);stop-opacity:1"/><stop offset="100%" style="stop-color:rgb(100,149,237);stop-opacity:1"/></linearGradient><linearGradient id="crimson" x1="0%" y1="0%" x2="100%" y2="100%"><stop offset="0%" style="stop-color:rgb(255,255,255);stop-opacity:1"/><stop offset="100%" style="stop-color:rgb(220,20,60);stop-opacity:1"/></linearGradient><linearGradient id="cyan" x1="0%" y1="0%" x2="100%" y2="100%"><stop offset="0%" style="stop-color:rgb(255,255,255);stop-opacity:1"/><stop offset="100%" style="stop-color:rgb(0,255,255);stop-opacity:1"/></linearGradient><linearGradient id="darkgreen" x1="0%" y1="0%" x2="100%" y2="100%"><stop offset="0%" style="stop-color:rgb(255,255,255);stop-opacity:1"/><stop offset="100%" style="stop-color:rgb(0,100,0);stop-opacity:1"/></linearGradient><linearGradient id="darkorange" x1="0%" y1="0%" x2="100%" y2="100%"><stop offset="0%" style="stop-color:rgb(255,255,255);stop-opacity:1"/><stop offset="100%" style="stop-color:rgb(255,140,0);stop-opacity:1"/></linearGradient><linearGradient id="gold" x1="0%" y1="0%" x2="100%" y2="100%"><stop offset="0%" style="stop-color:rgb(255,255,255);stop-opacity:1"/><stop offset="100%" style="stop-color:rgb(255,215,0);stop-opacity:1"/></linearGradient><linearGradient id="gray" x1="0%" y1="0%" x2="100%" y2="100%"><stop offset="0%" style="stop-color:rgb(255,255,255);stop-opacity:1"/><stop offset="100%" style="stop-color:rgb(192,192,192);stop-opacity:1"/></linearGradient><linearGradient id="greenyellow" x1="0%" y1="0%" x2="100%" y2="100%"><stop offset="0%" style="stop-color:rgb(255,255,255);stop-opacity:1"/><stop offset="100%" style="stop-color:rgb(173,255,47);stop-opacity:1"/></linearGradient><linearGradient id="green" x1="0%" y1="0%" x2="100%" y2="100%"><stop offset="0%" style="stop-color:rgb(255,255,255);stop-opacity:1"/><stop offset="100%" style="stop-color:rgb(0,255,0);stop-opacity:1"/></linearGradient><linearGradient id="grey" x1="0%" y1="0%" x2="100%" y2="100%"><stop offset="0%" style="stop-color:rgb(255,255,255);stop-opacity:1"/><stop offset="100%" style="stop-color:rgb(192,192,192);stop-opacity:1"/></linearGradient><linearGradient id="hotpink" x1="0%" y1="0%" x2="100%" y2="100%"><stop offset="0%" style="stop-color:rgb(255,255,255);stop-opacity:1"/><stop offset="100%" style="stop-color:rgb(255,105,180);stop-opacity:1"/></linearGradient><linearGradient id="indianred" x1="0%" y1="0%" x2="100%" y2="100%"><stop offset="0%" style="stop-color:rgb(255,255,255);stop-opacity:1"/><stop offset="100%" style="stop-color:rgb(205,92,92);stop-opacity:1"/></linearGradient><linearGradient id="indigo" x1="0%" y1="0%" x2="100%" y2="100%"><stop offset="0%" style="stop-color:rgb(255,255,255);stop-opacity:1"/><stop offset="100%" style="stop-color:rgb(75,0,130);stop-opacity:1"/></linearGradient><linearGradient id="lavender" x1="0%" y1="0%" x2="100%" y2="100%"><stop offset="0%" style="stop-color:rgb(255,255,255);stop-opacity:1"/><stop offset="100%" style="stop-color:rgb(230,230,250);stop-opacity:1"/></linearGradient><linearGradient id="lightblue" x1="0%" y1="0%" x2="100%" y2="100%"><stop offset="0%" style="stop-color:rgb(255,255,255);stop-opacity:1"/><stop offset="100%" style="stop-color:rgb(173,216,230);stop-opacity:1"/></linearGradient><linearGradient id="lightgray" x1="0%" y1="0%" x2="100%" y2="100%"><stop offset="0%" style="stop-color:rgb(255,255,255);stop-opacity:1"/><stop offset="100%" style="stop-color:rgb(211,211,211);stop-opacity:1"/></linearGradient><linearGradient id="lightgrey" x1="0%" y1="0%" x2="100%" y2="100%"><stop offset="0%" style="stop-color:rgb(255,255,255);stop-opacity:1"/><stop offset="100%" style="stop-color:rgb(211,211,211);stop-opacity:1"/></linearGradient><linearGradient id="magenta" x1="0%" y1="0%" x2="100%" y2="100%"><stop offset="0%" style="stop-color:rgb(255,255,255);stop-opacity:1"/><stop offset="100%" style="stop-color:rgb(255,0,255);stop-opacity:1"/></linearGradient><linearGradient id="maroon" x1="0%" y1="0%" x2="100%" y2="100%"><stop offset="0%" style="stop-color:rgb(255,255,255);stop-opacity:1"/><stop offset="100%" style="stop-color:rgb(176,48,96);stop-opacity:1"/></linearGradient><linearGradient id="mediumblue" x1="0%" y1="0%" x2="100%" y2="100%"><stop offset="0%" style="stop-color:rgb(255,255,255);stop-opacity:1"/><stop offset="100%" style="stop-color:rgb(0,0,205);stop-opacity:1"/></linearGradient><linearGradient id="mediumpurple" x1="0%" y1="0%" x2="100%" y2="100%"><stop offset="0%" style="stop-color:rgb(255,255,255);stop-opacity:1"/><stop offset="100%" style="stop-color:rgb(147,112,219);stop-opacity:1"/></linearGradient><linearGradient id="orange" x1="0%" y1="0%" x2="100%" y2="100%"><stop offset="0%" style="stop-color:rgb(255,255,255);stop-opacity:1"/><stop offset="100%" style="stop-color:rgb(255,165,0);stop-opacity:1"/></linearGradient><linearGradient id="pink" x1="0%" y1="0%" x2="100%" y2="100%"><stop offset="0%" style="stop-color:rgb(255,255,255);stop-opacity:1"/><stop offset="100%" style="stop-color:rgb(255,192,203);stop-opacity:1"/></linearGradient><linearGradient id="purple" x1="0%" y1="0%" x2="100%" y2="100%"><stop offset="0%" style="stop-color:rgb(255,255,255);stop-opacity:1"/><stop offset="100%" style="stop-color:rgb(160,32,240);stop-opacity:1"/></linearGradient><linearGradient id="red" x1="0%" y1="0%" x2="100%" y2="100%"><stop offset="0%" style="stop-color:rgb(255,255,255);stop-opacity:1"/><stop offset="100%" style="stop-color:rgb(255,0,0);stop-opacity:1"/></linearGradient><linearGradient id="steelblue" x1="0%" y1="0%" x2="100%" y2="100%"><stop offset="0%" style="stop-color:rgb(255,255,255);stop-opacity:1"/><stop offset="100%" style="stop-color:rgb(70,130,180);stop-opacity:1"/></linearGradient><linearGradient id="violet" x1="0%" y1="0%" x2="100%" y2="100%"><stop offset="0%" style="stop-color:rgb(255,255,255);stop-opacity:1"/><stop offset="100%" style="stop-color:rgb(238,130,238);stop-opacity:1"/></linearGradient><linearGradient id="yellow" x1="0%" y1="0%" x2="100%" y2="100%"><stop offset="0%" style="stop-color:rgb(255,255,255);stop-opacity:1"/><stop offset="100%" style="stop-color:rgb(255,255,0);stop-opacity:1"/></linearGradient><linearGradient id="none" x1="0%" y1="0%" x2="100%" y2="100%"><stop offset="0%" style="stop-color:rgb(255,255,255);stop-opacity:1"/><stop offset="100%" style="stop-color:rgb(255,255,255);stop-opacity:1"/></linearGradient></defs>
<g id="graph0" class="graph" transform="scale(1 1) rotate(0) translate(4 342.348)"><polygon fill="white" stroke="none" points="-4,4 -4,-342.348 667.6,-342.348 667.6,4 -4,4"/><title>Flow states</title><g id="node1" class="node"><ellipse fill="none" stroke="black" cx="103.6" cy="-36.3479" rx="39.8775" ry="18" style="fill: black; stroke: none; fill-opacity:0.3" transform="translate(3,3)"/><ellipse fill="none" stroke="black" cx="103.6" cy="-36.3479" rx="39.8775" ry="18" style="fill: url(#none);stroke: black;"/><text text-anchor="middle" x="103.6" y="-33.5479" font-family="Times,serif" font-size="11.00" style="font-size:10px; font-family:sans-serif;">PENDING</text></g><g id="node2" class="node"><ellipse fill="none" stroke="black" cx="221.6" cy="-213.348" rx="41.4846" ry="18" style="fill: black; stroke: none; fill-opacity:0.3" transform="translate(3,3)"/><ellipse fill="none" stroke="black" cx="221.6" cy="-213.348" rx="41.4846" ry="18" style="fill: url(#none);stroke: black;"/><text text-anchor="middle" x="221.6" y="-210.548" font-family="Times,serif" font-size="11.00" style="font-size:10px; font-family:sans-serif;">RUNNING</text></g><g id="edge1" class="edge"><polygon fill="black" stroke="black" points="200.811,-189.539 209.22,-195.984 206.666,-185.702 200.811,-189.539" style="fill: black; stroke: none; fill-opacity:0.3" transform="translate(3,3)"/><path fill="none" stroke="black" d="M115.934,-53.6417C136.378,-84.8364 179.53,-150.68 203.551,-187.333" style="fill: none; stroke: black; stroke-opacity:0.3" transform="translate(3,3)"/><polygon fill="black" stroke="black" points="200.811,-189.539 209.22,-195.984 206.666,-185.702 200.811,-189.539" style="fill: url(#black);stroke: black;"/><path fill="none" stroke="black" d="M115.934,-53.6417C136.378,-84.8364 179.53,-150.68 203.551,-187.333"/></g><g id="node3" class="node"><ellipse fill="none" stroke="black" cx="484.6" cy="-320.348" rx="38.4712" ry="18" style="fill: black; stroke: none; fill-opacity:0.3" transform="translate(3,3)"/><ellipse fill="none" stroke="black" cx="484.6" cy="-320.348" rx="38.4712" ry="18" style="fill: url(#none);stroke: black;"/><text text-anchor="middle" x="484.6" y="-317.548" font-family="Times,serif" font-size="11.00" fill="red" style="font-size:10px; font-family:sans-serif;">FAILURE</text></g><g id="edge4" class="edge"><polygon fill="black" stroke="black" points="449.2,-305.752 459.773,-306.422 451.926,-299.305 449.2,-305.752" style="fill: black; stroke: none; fill-opacity:0.3" transform="translate(3,3)"/><path fill="none" stroke="black" d="M257.137,-222.892C270.293,-228.904 285.51,-236.247 299.6,-242.348 351.475,-264.809 413.28,-287.1 450.43,-302.472" style="fill: none; stroke: black; stroke-opacity:0.3" transform="translate(3,3)"/><polygon fill="black" stroke="black" points="449.2,-305.752 459.773,-306.422 451.926,-299.305 449.2,-305.752" style="fill: url(#black);stroke: black;"/><path fill="none" stroke="black" d="M257.137,-222.892C270.293,-228.904 285.51,-236.247 299.6,-242.348 351.475,-264.809 413.28,-287.1 450.43,-302.472"/></g><g id="node4" class="node"><ellipse fill="none" stroke="black" cx="351.6" cy="-120.348" rx="51.931" ry="18" style="fill: black; stroke: none; fill-opacity:0.3" transform="translate(3,3)"/><ellipse fill="none" stroke="black" cx="351.6" cy="-120.348" rx="51.931" ry="18" style="fill: url(#none);stroke: black;"/><text text-anchor="middle" x="351.6" y="-117.548" font-family="Times,serif" font-size="11.00" style="font-size:10px; font-family:sans-serif;">SUSPENDING</text></g><g id="edge3" class="edge"><polygon fill="black" stroke="black" points="318.238,-144.064 324.819,-135.761 314.496,-138.148 318.238,-144.064" style="fill: black; stroke: none; fill-opacity:0.3" transform="translate(3,3)"/><path fill="none" stroke="black" d="M241.455,-197.458C256.776,-184.782 279.126,-166.816 299.6,-152.348 304.866,-148.627 310.555,-144.841 316.158,-141.238" style="fill: none; stroke: black; stroke-opacity:0.3" transform="translate(3,3)"/><polygon fill="black" stroke="black" points="318.238,-144.064 324.819,-135.761 314.496,-138.148 318.238,-144.064" style="fill: url(#black);stroke: black;"/><path fill="none" stroke="black" d="M241.455,-197.458C256.776,-184.782 279.126,-166.816 299.6,-152.348 304.866,-148.627 310.555,-144.841 316.158,-141.238"/></g><g id="node5" class="node"><ellipse fill="none" stroke="black" cx="484.6" cy="-120.348" rx="45.2009" ry="18" style="fill: black; stroke: none; fill-opacity:0.3" transform="translate(3,3)"/><ellipse fill="none" stroke="black" cx="484.6" cy="-120.348" rx="45.2009" ry="18" style="fill: url(#none);stroke: black;"/><text text-anchor="middle" x="484.6" y="-117.548" font-family="Times,serif" font-size="11.00" fill="darkorange" style="font-size:10px; font-family:sans-serif;">REVERTED</text></g><g id="edge5" class="edge"><polygon fill="black" stroke="black" points="441.381,-138.298 449.736,-131.784 439.142,-131.666 441.381,-138.298" style="fill: black; stroke: none; fill-opacity:0.3" transform="translate(3,3)"/><path fill="none" stroke="black" d="M252.061,-201.02C266.34,-195.165 283.783,-188.188 299.6,-182.348 345.351,-165.456 357.384,-162.923 403.6,-147.348 415.429,-143.361 428.24,-139.039 440.072,-135.046" style="fill: none; stroke: black; stroke-opacity:0.3" transform="translate(3,3)"/><polygon fill="black" stroke="black" points="441.381,-138.298 449.736,-131.784 439.142,-131.666 441.381,-138.298" style="fill: url(#black);stroke: black;"/><path fill="none" stroke="black" d="M252.061,-201.02C266.34,-195.165 283.783,-188.188 299.6,-182.348 345.351,-165.456 357.384,-162.923 403.6,-147.348 415.429,-143.361 428.24,-139.039 440.072,-135.046"/></g><g id="node6" class="node"><ellipse fill="none" stroke="black" cx="484.6" cy="-174.348" rx="39.1741" ry="18" style="fill: black; stroke: none; fill-opacity:0.3" transform="translate(3,3)"/><ellipse fill="none" stroke="black" cx="484.6" cy="-174.348" rx="39.1741" ry="18" style="fill: url(#none);stroke: black;"/><text text-anchor="middle" x="484.6" y="-171.548" font-family="Times,serif" font-size="11.00" fill="green" style="font-size:10px; font-family:sans-serif;">SUCCESS</text></g><g id="edge6" class="edge"><polygon fill="black" stroke="black" points="435.566,-179.676 445.141,-175.142 434.828,-172.715 435.566,-179.676" style="fill: black; stroke: none; fill-opacity:0.3" transform="translate(3,3)"/><path fill="none" stroke="black" d="M256.454,-203.573C301.971,-194.306 383.175,-181.949 435.154,-176.2" style="fill: none; stroke: black; stroke-opacity:0.3" transform="translate(3,3)"/><polygon fill="black" stroke="black" points="435.566,-179.676 445.141,-175.142 434.828,-172.715 435.566,-179.676" style="fill: url(#black);stroke: black;"/><path fill="none" stroke="black" d="M256.454,-203.573C301.971,-194.306 383.175,-181.949 435.154,-176.2"/></g><g id="node7" class="node"><ellipse fill="none" stroke="black" cx="484.6" cy="-228.348" rx="45.2009" ry="18" style="fill: black; stroke: none; fill-opacity:0.3" transform="translate(3,3)"/><ellipse fill="none" stroke="black" cx="484.6" cy="-228.348" rx="45.2009" ry="18" style="fill: url(#none);stroke: black;"/><text text-anchor="middle" x="484.6" y="-225.548" font-family="Times,serif" font-size="11.00" style="font-size:10px; font-family:sans-serif;">RESUMING</text></g><g id="edge7" class="edge"><polygon fill="black" stroke="black" points="432.555,-239.21 442.085,-234.582 431.749,-232.257 432.555,-239.21" style="fill: black; stroke: none; fill-opacity:0.3" transform="translate(3,3)"/><path fill="none" stroke="black" d="M253.605,-224.848C267.467,-229.403 284.138,-234.088 299.6,-236.348 343.991,-242.836 394.995,-239.809 432.028,-235.748" style="fill: none; stroke: black; stroke-opacity:0.3" transform="translate(3,3)"/><polygon fill="black" stroke="black" points="432.555,-239.21 442.085,-234.582 431.749,-232.257 432.555,-239.21" style="fill: url(#black);stroke: black;"/><path fill="none" stroke="black" d="M253.605,-224.848C267.467,-229.403 284.138,-234.088 299.6,-236.348 343.991,-242.836 394.995,-239.809 432.028,-235.748"/></g><g id="edge2" class="edge"><polygon fill="black" stroke="black" points="250.157,-231.761 239.799,-229.53 246.504,-237.733 250.157,-231.761" style="fill: black; stroke: none; fill-opacity:0.3" transform="translate(3,3)"/><path fill="none" stroke="black" d="M447.909,-314.872C410.53,-304.106 350.319,-282.308 299.6,-260.348 282.267,-252.843 263.229,-243.459 248.421,-234.802" style="fill: none; stroke: black; stroke-opacity:0.3" transform="translate(3,3)"/><polygon fill="black" stroke="black" points="250.157,-231.761 239.799,-229.53 246.504,-237.733 250.157,-231.761" style="fill: url(#black);stroke: black;"/><path fill="none" stroke="black" d="M447.909,-314.872C410.53,-304.106 350.319,-282.308 299.6,-260.348 282.267,-252.843 263.229,-243.459 248.421,-234.802"/></g><g id="edge9" class="edge"><polygon fill="black" stroke="black" points="449.903,-302.981 459.993,-306.213 454.12,-297.394 449.903,-302.981" style="fill: black; stroke: none; fill-opacity:0.3" transform="translate(3,3)"/><path fill="none" stroke="black" d="M358.762,-138.394C370.555,-171.035 398.818,-240.893 439.6,-288.348 443.217,-292.557 447.491,-296.519 451.93,-300.126" style="fill: none; stroke: black; stroke-opacity:0.3" transform="translate(3,3)"/><polygon fill="black" stroke="black" points="449.903,-302.981 459.993,-306.213 454.12,-297.394 449.903,-302.981" style="fill: url(#black);stroke: black;"/><path fill="none" stroke="black" d="M358.762,-138.394C370.555,-171.035 398.818,-240.893 439.6,-288.348 443.217,-292.557 447.491,-296.519 451.93,-300.126"/></g><g id="edge11" class="edge"><polygon fill="black" stroke="black" points="429.312,-123.848 439.312,-120.348 429.312,-116.848 429.312,-123.848" style="fill: black; stroke: none; fill-opacity:0.3" transform="translate(3,3)"/><path fill="none" stroke="black" d="M403.623,-120.348C411.999,-120.348 420.708,-120.348 429.163,-120.348" style="fill: none; stroke: black; stroke-opacity:0.3" transform="translate(3,3)"/><polygon fill="black" stroke="black" points="429.312,-123.848 439.312,-120.348 429.312,-116.848 429.312,-123.848" style="fill: url(#black);stroke: black;"/><path fill="none" stroke="black" d="M403.623,-120.348C411.999,-120.348 420.708,-120.348 429.163,-120.348"/></g><g id="edge8" class="edge"><polygon fill="black" stroke="black" points="444.424,-161.985 455.003,-162.56 447.092,-155.513 444.424,-161.985" style="fill: black; stroke: none; fill-opacity:0.3" transform="translate(3,3)"/><path fill="none" stroke="black" d="M385.657,-133.974C403.942,-141.512 426.74,-150.91 445.739,-158.741" style="fill: none; stroke: black; stroke-opacity:0.3" transform="translate(3,3)"/><polygon fill="black" stroke="black" points="444.424,-161.985 455.003,-162.56 447.092,-155.513 444.424,-161.985" style="fill: url(#black);stroke: black;"/><path fill="none" stroke="black" d="M385.657,-133.974C403.942,-141.512 426.74,-150.91 445.739,-158.741"/></g><g id="edge10" class="edge"><polygon fill="black" stroke="black" points="447.593,-211.303 457.898,-213.763 451.377,-205.414 447.593,-211.303" style="fill: black; stroke: none; fill-opacity:0.3" transform="translate(3,3)"/><path fill="none" stroke="black" d="M369.038,-137.546C385.902,-154.719 413.315,-181.364 439.6,-201.348 442.721,-203.721 446.061,-206.072 449.453,-208.338" style="fill: none; stroke: black; stroke-opacity:0.3" transform="translate(3,3)"/><polygon fill="black" stroke="black" points="447.593,-211.303 457.898,-213.763 451.377,-205.414 447.593,-211.303" style="fill: url(#black);stroke: black;"/><path fill="none" stroke="black" d="M369.038,-137.546C385.902,-154.719 413.315,-181.364 439.6,-201.348 442.721,-203.721 446.061,-206.072 449.453,-208.338"/></g><g id="node8" class="node"><ellipse fill="none" stroke="black" cx="614.6" cy="-228.348" rx="48.9176" ry="18" style="fill: black; stroke: none; fill-opacity:0.3" transform="translate(3,3)"/><ellipse fill="none" stroke="black" cx="614.6" cy="-228.348" rx="48.9176" ry="18" style="fill: url(#none);stroke: black;"/><text text-anchor="middle" x="614.6" y="-225.548" font-family="Times,serif" font-size="11.00" style="font-size:10px; font-family:sans-serif;">SUSPENDED</text></g><g id="edge12" class="edge"><polygon fill="black" stroke="black" points="577.792,-250.086 585.543,-242.863 574.98,-243.676 577.792,-250.086" style="fill: black; stroke: none; fill-opacity:0.3" transform="translate(3,3)"/><path fill="none" stroke="black" d="M358.012,-138.552C368.23,-169.211 393.576,-230.255 439.6,-255.348 482.347,-278.655 539.253,-262.511 576.154,-246.983" style="fill: none; stroke: black; stroke-opacity:0.3" transform="translate(3,3)"/><polygon fill="black" stroke="black" points="577.792,-250.086 585.543,-242.863 574.98,-243.676 577.792,-250.086" style="fill: url(#black);stroke: black;"/><path fill="none" stroke="black" d="M358.012,-138.552C368.23,-169.211 393.576,-230.255 439.6,-255.348 482.347,-278.655 539.253,-262.511 576.154,-246.983"/></g><g id="edge17" class="edge"><polygon fill="black" stroke="black" points="144.325,-19.5222 135.74,-25.7319 146.323,-26.2307 144.325,-19.5222" style="fill: black; stroke: none; fill-opacity:0.3" transform="translate(3,3)"/><path fill="none" stroke="black" d="M475.276,-102.474C463.239,-79.0261 438.522,-38.9205 403.6,-22.3479 319.055,17.774 205.5,-5.47896 145.584,-22.799" style="fill: none; stroke: black; stroke-opacity:0.3" transform="translate(3,3)"/><polygon fill="black" stroke="black" points="144.325,-19.5222 135.74,-25.7319 146.323,-26.2307 144.325,-19.5222" style="fill: url(#black);stroke: black;"/><path fill="none" stroke="black" d="M475.276,-102.474C463.239,-79.0261 438.522,-38.9205 403.6,-22.3479 319.055,17.774 205.5,-5.47896 145.584,-22.799"/></g><g id="edge14" class="edge"><polygon fill="black" stroke="black" points="153.489,-31.0042 143.515,-34.5781 153.541,-38.0041 153.489,-31.0042" style="fill: black; stroke: none; fill-opacity:0.3" transform="translate(3,3)"/><path fill="none" stroke="black" d="M457.588,-160.949C451.31,-157.048 444.893,-152.446 439.6,-147.348 418.824,-127.339 427.639,-109.29 403.6,-93.3479 327.048,-42.5803 216.603,-34.4757 153.585,-34.5037" style="fill: none; stroke: black; stroke-opacity:0.3" transform="translate(3,3)"/><polygon fill="black" stroke="black" points="153.489,-31.0042 143.515,-34.5781 153.541,-38.0041 153.489,-31.0042" style="fill: url(#black);stroke: black;"/><path fill="none" stroke="black" d="M457.588,-160.949C451.31,-157.048 444.893,-152.446 439.6,-147.348 418.824,-127.339 427.639,-109.29 403.6,-93.3479 327.048,-42.5803 216.603,-34.4757 153.585,-34.5037"/></g><g id="edge13" class="edge"><polygon fill="black" stroke="black" points="272.661,-207.793 263.095,-212.346 273.413,-214.752 272.661,-207.793" style="fill: black; stroke: none; fill-opacity:0.3" transform="translate(3,3)"/><path fill="none" stroke="black" d="M451.258,-183.814C406.667,-192.986 325.862,-205.339 273.227,-211.252" style="fill: none; stroke: black; stroke-opacity:0.3" transform="translate(3,3)"/><polygon fill="black" stroke="black" points="272.661,-207.793 263.095,-212.346 273.413,-214.752 272.661,-207.793" style="fill: url(#black);stroke: black;"/><path fill="none" stroke="black" d="M451.258,-183.814C406.667,-192.986 325.862,-205.339 273.227,-211.252"/></g><g id="edge15" class="edge"><polygon fill="black" stroke="black" points="555.778,-231.848 565.778,-228.348 555.778,-224.848 555.778,-231.848" style="fill: black; stroke: none; fill-opacity:0.3" transform="translate(3,3)"/><path fill="none" stroke="black" d="M530.009,-228.348C538.313,-228.348 547.103,-228.348 555.743,-228.348" style="fill: none; stroke: black; stroke-opacity:0.3" transform="translate(3,3)"/><polygon fill="black" stroke="black" points="555.778,-231.848 565.778,-228.348 555.778,-224.848 555.778,-231.848" style="fill: url(#black);stroke: black;"/><path fill="none" stroke="black" d="M530.009,-228.348C538.313,-228.348 547.103,-228.348 555.743,-228.348"/></g><g id="edge16" class="edge"><polygon fill="black" stroke="black" points="228.025,-184.799 227.962,-195.394 234.618,-187.151 228.025,-184.799" style="fill: black; stroke: none; fill-opacity:0.3" transform="translate(3,3)"/><path fill="none" stroke="black" d="M608.571,-210.167C599.002,-179.543 574.965,-118.551 529.6,-93.3479 440.242,-43.7044 389.301,-44.3264 299.6,-93.3479 263.848,-112.886 242.239,-156.906 231.366,-185.85" style="fill: none; stroke: black; stroke-opacity:0.3" transform="translate(3,3)"/><polygon fill="black" stroke="black" points="228.025,-184.799 227.962,-195.394 234.618,-187.151 228.025,-184.799" style="fill: url(#black);stroke: black;"/><path fill="none" stroke="black" d="M608.571,-210.167C599.002,-179.543 574.965,-118.551 529.6,-93.3479 440.242,-43.7044 389.301,-44.3264 299.6,-93.3479 263.848,-112.886 242.239,-156.906 231.366,-185.85"/></g><g id="node9" class="node"><ellipse fill="black" stroke="black" cx="23.6" cy="-36.3479" rx="3.6" ry="3.6" style="fill: black; stroke: none; fill-opacity:0.3" transform="translate(3,3)"/><ellipse fill="black" stroke="black" cx="23.6" cy="-36.3479" rx="3.6" ry="3.6" style="fill: url(#black);stroke: black;"/><text text-anchor="middle" x="10" y="-23.9479" font-family="Times,serif" font-size="11.00" fill="green" style="font-size:10px; font-family:sans-serif;">start</text></g><g id="edge18" class="edge"><polygon fill="black" stroke="black" points="53.5965,-39.848 63.5964,-36.3479 53.5964,-32.848 53.5965,-39.848" style="fill: black; stroke: none; fill-opacity:0.3" transform="translate(3,3)"/><path fill="none" stroke="black" stroke-dasharray="1,5" d="M27.5624,-36.3479C32.3405,-36.3479 42.3529,-36.3479 53.5516,-36.3479" style="fill: none; stroke: black; stroke-opacity:0.3" transform="translate(3,3)"/><polygon fill="black" stroke="black" points="53.5965,-39.848 63.5964,-36.3479 53.5964,-32.848 53.5965,-39.848" style="fill: url(#black);stroke: black;"/><path fill="none" stroke="black" stroke-dasharray="1,5" d="M27.5624,-36.3479C32.3405,-36.3479 42.3529,-36.3479 53.5516,-36.3479"/></g></g>
</svg>
