<?xml version="1.0"?>
<!DOCTYPE svg PUBLIC "-//W3C//DTD SVG 1.0//EN" "http://www.w3.org/TR/2001/REC-SVG-20010904/DTD/svg10.dtd">
<!-- Generated by graphviz version 7.1.0 (0)
 -->
<!-- Title: Retries states Pages: 1 -->
<svg xmlns="http://www.w3.org/2000/svg" xmlns:svg="http://www.w3.org/2000/svg" width="685pt" height="160pt" viewBox="0.00 0.00 685.45 160.24" preserveAspectRatio="xMidYMid meet" zoomAndPan="magnify" version="1.1" contentScriptType="application/ecmascript" contentStyleType="text/css"><defs><linearGradient id="white" x1="0%" y1="0%" x2="0%" y2="0%"><stop offset="0%" style="stop-color:rgb(255,255,255);stop-opacity:1"/></linearGradient><linearGradient id="black" x1="0%" y1="0%" x2="0%" y2="0%"><stop offset="0%" style="stop-color:rgb(0,0,0);stop-opacity:1"/></linearGradient><linearGradient id="aquamarine" x1="0%" y1="0%" x2="100%" y2="100%"><stop offset="0%" style="stop-color:rgb(255,255,255);stop-opacity:1"/><stop offset="100%" style="stop-color:rgb(127,255,212);stop-opacity:1"/></linearGradient><linearGradient id="azure" x1="0%" y1="0%" x2="100%" y2="100%"><stop offset="0%" style="stop-color:rgb(255,255,255);stop-opacity:1"/><stop offset="100%" style="stop-color:rgb(240,255,255);stop-opacity:1"/></linearGradient><linearGradient id="blue" x1="0%" y1="0%" x2="100%" y2="100%"><stop offset="0%" style="stop-color:rgb(255,255,255);stop-opacity:1"/><stop offset="100%" style="stop-color:rgb(0,0,255);stop-opacity:1"/></linearGradient><linearGradient id="blueviolet" x1="0%" y1="0%" x2="100%" y2="100%"><stop offset="0%" style="stop-color:rgb(255,255,255);stop-opacity:1"/><stop offset="100%" style="stop-color:rgb(138,43,226);stop-opacity:1"/></linearGradient><linearGradient id="brown" x1="0%" y1="0%" x2="100%" y2="100%"><stop offset="0%" style="stop-color:rgb(255,255,255);stop-opacity:1"/><stop offset="100%" style="stop-color:rgb(165,42,42);stop-opacity:1"/></linearGradient><linearGradient id="cadetblue" x1="0%" y1="0%" x2="100%" y2="100%"><stop offset="0%" style="stop-color:rgb(255,255,255);stop-opacity:1"/><stop offset="100%" style="stop-color:rgb(95,158,160);stop-opacity:1"/></linearGradient><linearGradient id="chocolate" x1="0%" y1="0%" x2="100%" y2="100%"><stop offset="0%" style="stop-color:rgb(255,255,255);stop-opacity:1"/><stop offset="100%" style="stop-color:rgb(210,105,30);stop-opacity:1"/></linearGradient><linearGradient id="cornflowerblue" x1="0%" y1="0%" x2="100%" y2="100%"><stop offset="0%" style="stop-color:rgb(255,255,255);stop-opacity:1"/><stop offset="100%" style="stop-color:rgb(100,149,237);stop-opacity:1"/></linearGradient><linearGradient id="crimson" x1="0%" y1="0%" x2="100%" y2="100%"><stop offset="0%" style="stop-color:rgb(255,255,255);stop-opacity:1"/><stop offset="100%" style="stop-color:rgb(220,20,60);stop-opacity:1"/></linearGradient><linearGradient id="cyan" x1="0%" y1="0%" x2="100%" y2="100%"><stop offset="0%" style="stop-color:rgb(255,255,255);stop-opacity:1"/><stop offset="100%" style="stop-color:rgb(0,255,255);stop-opacity:1"/></linearGradient><linearGradient id="darkgreen" x1="0%" y1="0%" x2="100%" y2="100%"><stop offset="0%" style="stop-color:rgb(255,255,255);stop-opacity:1"/><stop offset="100%" style="stop-color:rgb(0,100,0);stop-opacity:1"/></linearGradient><linearGradient id="darkorange" x1="0%" y1="0%" x2="100%" y2="100%"><stop offset="0%" style="stop-color:rgb(255,255,255);stop-opacity:1"/><stop offset="100%" style="stop-color:rgb(255,140,0);stop-opacity:1"/></linearGradient><linearGradient id="gold" x1="0%" y1="0%" x2="100%" y2="100%"><stop offset="0%" style="stop-color:rgb(255,255,255);stop-opacity:1"/><stop offset="100%" style="stop-color:rgb(255,215,0);stop-opacity:1"/></linearGradient><linearGradient id="gray" x1="0%" y1="0%" x2="100%" y2="100%"><stop offset="0%" style="stop-color:rgb(255,255,255);stop-opacity:1"/><stop offset="100%" style="stop-color:rgb(192,192,192);stop-opacity:1"/></linearGradient><linearGradient id="greenyellow" x1="0%" y1="0%" x2="100%" y2="100%"><stop offset="0%" style="stop-color:rgb(255,255,255);stop-opacity:1"/><stop offset="100%" style="stop-color:rgb(173,255,47);stop-opacity:1"/></linearGradient><linearGradient id="green" x1="0%" y1="0%" x2="100%" y2="100%"><stop offset="0%" style="stop-color:rgb(255,255,255);stop-opacity:1"/><stop offset="100%" style="stop-color:rgb(0,255,0);stop-opacity:1"/></linearGradient><linearGradient id="grey" x1="0%" y1="0%" x2="100%" y2="100%"><stop offset="0%" style="stop-color:rgb(255,255,255);stop-opacity:1"/><stop offset="100%" style="stop-color:rgb(192,192,192);stop-opacity:1"/></linearGradient><linearGradient id="hotpink" x1="0%" y1="0%" x2="100%" y2="100%"><stop offset="0%" style="stop-color:rgb(255,255,255);stop-opacity:1"/><stop offset="100%" style="stop-color:rgb(255,105,180);stop-opacity:1"/></linearGradient><linearGradient id="indianred" x1="0%" y1="0%" x2="100%" y2="100%"><stop offset="0%" style="stop-color:rgb(255,255,255);stop-opacity:1"/><stop offset="100%" style="stop-color:rgb(205,92,92);stop-opacity:1"/></linearGradient><linearGradient id="indigo" x1="0%" y1="0%" x2="100%" y2="100%"><stop offset="0%" style="stop-color:rgb(255,255,255);stop-opacity:1"/><stop offset="100%" style="stop-color:rgb(75,0,130);stop-opacity:1"/></linearGradient><linearGradient id="lavender" x1="0%" y1="0%" x2="100%" y2="100%"><stop offset="0%" style="stop-color:rgb(255,255,255);stop-opacity:1"/><stop offset="100%" style="stop-color:rgb(230,230,250);stop-opacity:1"/></linearGradient><linearGradient id="lightblue" x1="0%" y1="0%" x2="100%" y2="100%"><stop offset="0%" style="stop-color:rgb(255,255,255);stop-opacity:1"/><stop offset="100%" style="stop-color:rgb(173,216,230);stop-opacity:1"/></linearGradient><linearGradient id="lightgray" x1="0%" y1="0%" x2="100%" y2="100%"><stop offset="0%" style="stop-color:rgb(255,255,255);stop-opacity:1"/><stop offset="100%" style="stop-color:rgb(211,211,211);stop-opacity:1"/></linearGradient><linearGradient id="lightgrey" x1="0%" y1="0%" x2="100%" y2="100%"><stop offset="0%" style="stop-color:rgb(255,255,255);stop-opacity:1"/><stop offset="100%" style="stop-color:rgb(211,211,211);stop-opacity:1"/></linearGradient><linearGradient id="magenta" x1="0%" y1="0%" x2="100%" y2="100%"><stop offset="0%" style="stop-color:rgb(255,255,255);stop-opacity:1"/><stop offset="100%" style="stop-color:rgb(255,0,255);stop-opacity:1"/></linearGradient><linearGradient id="maroon" x1="0%" y1="0%" x2="100%" y2="100%"><stop offset="0%" style="stop-color:rgb(255,255,255);stop-opacity:1"/><stop offset="100%" style="stop-color:rgb(176,48,96);stop-opacity:1"/></linearGradient><linearGradient id="mediumblue" x1="0%" y1="0%" x2="100%" y2="100%"><stop offset="0%" style="stop-color:rgb(255,255,255);stop-opacity:1"/><stop offset="100%" style="stop-color:rgb(0,0,205);stop-opacity:1"/></linearGradient><linearGradient id="mediumpurple" x1="0%" y1="0%" x2="100%" y2="100%"><stop offset="0%" style="stop-color:rgb(255,255,255);stop-opacity:1"/><stop offset="100%" style="stop-color:rgb(147,112,219);stop-opacity:1"/></linearGradient><linearGradient id="orange" x1="0%" y1="0%" x2="100%" y2="100%"><stop offset="0%" style="stop-color:rgb(255,255,255);stop-opacity:1"/><stop offset="100%" style="stop-color:rgb(255,165,0);stop-opacity:1"/></linearGradient><linearGradient id="pink" x1="0%" y1="0%" x2="100%" y2="100%"><stop offset="0%" style="stop-color:rgb(255,255,255);stop-opacity:1"/><stop offset="100%" style="stop-color:rgb(255,192,203);stop-opacity:1"/></linearGradient><linearGradient id="purple" x1="0%" y1="0%" x2="100%" y2="100%"><stop offset="0%" style="stop-color:rgb(255,255,255);stop-opacity:1"/><stop offset="100%" style="stop-color:rgb(160,32,240);stop-opacity:1"/></linearGradient><linearGradient id="red" x1="0%" y1="0%" x2="100%" y2="100%"><stop offset="0%" style="stop-color:rgb(255,255,255);stop-opacity:1"/><stop offset="100%" style="stop-color:rgb(255,0,0);stop-opacity:1"/></linearGradient><linearGradient id="steelblue" x1="0%" y1="0%" x2="100%" y2="100%"><stop offset="0%" style="stop-color:rgb(255,255,255);stop-opacity:1"/><stop offset="100%" style="stop-color:rgb(70,130,180);stop-opacity:1"/></linearGradient><linearGradient id="violet" x1="0%" y1="0%" x2="100%" y2="100%"><stop offset="0%" style="stop-color:rgb(255,255,255);stop-opacity:1"/><stop offset="100%" style="stop-color:rgb(238,130,238);stop-opacity:1"/></linearGradient><linearGradient id="yellow" x1="0%" y1="0%" x2="100%" y2="100%"><stop offset="0%" style="stop-color:rgb(255,255,255);stop-opacity:1"/><stop offset="100%" style="stop-color:rgb(255,255,0);stop-opacity:1"/></linearGradient><linearGradient id="none" x1="0%" y1="0%" x2="100%" y2="100%"><stop offset="0%" style="stop-color:rgb(255,255,255);stop-opacity:1"/><stop offset="100%" style="stop-color:rgb(255,255,255);stop-opacity:1"/></linearGradient></defs>
<g id="graph0" class="graph" transform="scale(1 1) rotate(0) translate(4 156.24)"><polygon fill="white" stroke="none" points="-4,4 -4,-156.24 681.45,-156.24 681.45,4 -4,4"/><title>Retries states</title><g id="node1" class="node"><ellipse fill="none" stroke="black" cx="102.89" cy="-88.24" rx="39.88" ry="18" style="fill: black; stroke: none; fill-opacity:0.3" transform="translate(3,3)"/><ellipse fill="none" stroke="black" cx="102.89" cy="-88.24" rx="39.88" ry="18" style="fill: url(#none);stroke: black;"/><title>PENDING</title><text text-anchor="middle" x="102.89" y="-85.44" font-family="Times,serif" font-size="11.00">PENDING</text></g><g id="node2" class="node"><ellipse fill="none" stroke="black" cx="220.07" cy="-115.24" rx="35.46" ry="18" style="fill: black; stroke: none; fill-opacity:0.3" transform="translate(3,3)"/><ellipse fill="none" stroke="black" cx="220.07" cy="-115.24" rx="35.46" ry="18" style="fill: url(#none);stroke: black;"/><title>IGNORE</title><text text-anchor="middle" x="220.07" y="-112.44" font-family="Times,serif" font-size="11.00">IGNORE</text></g><g id="edge1" class="edge"><polygon fill="black" stroke="black" points="180.63,-103.44 191.21,-102.85 182.56,-96.72 180.63,-103.44" style="fill: black; stroke: none; fill-opacity:0.3" transform="translate(3,3)"/><path fill="none" stroke="black" d="M142.56,-90.89C155.17,-93.38 169.14,-96.67 181.66,-100.1" style="fill: none; stroke: black; stroke-opacity:0.3" transform="translate(3,3)"/><polygon fill="black" stroke="black" points="180.63,-103.44 191.21,-102.85 182.56,-96.72 180.63,-103.44" style="fill: url(#black);stroke: black;"/><path fill="none" stroke="black" d="M142.56,-90.89C155.17,-93.38 169.14,-96.67 181.66,-100.1"/><title>PENDING-&gt;IGNORE</title></g><g id="node3" class="node"><ellipse fill="none" stroke="black" cx="220.07" cy="-61.24" rx="41.48" ry="18" style="fill: black; stroke: none; fill-opacity:0.3" transform="translate(3,3)"/><ellipse fill="none" stroke="black" cx="220.07" cy="-61.24" rx="41.48" ry="18" style="fill: url(#none);stroke: black;"/><title>RUNNING</title><text text-anchor="middle" x="220.07" y="-58.44" font-family="Times,serif" font-size="11.00">RUNNING</text></g><g id="edge2" class="edge"><polygon fill="black" stroke="black" points="172.71,-75.7 181.65,-70.01 171.11,-68.88 172.71,-75.7" style="fill: black; stroke: none; fill-opacity:0.3" transform="translate(3,3)"/><path fill="none" stroke="black" d="M138.76,-80.06C149.29,-77.59 161.02,-74.84 172.2,-72.22" style="fill: none; stroke: black; stroke-opacity:0.3" transform="translate(3,3)"/><polygon fill="black" stroke="black" points="172.71,-75.7 181.65,-70.01 171.11,-68.88 172.71,-75.7" style="fill: url(#black);stroke: black;"/><path fill="none" stroke="black" d="M138.76,-80.06C149.29,-77.59 161.02,-74.84 172.2,-72.22"/><title>PENDING-&gt;RUNNING</title></g><g id="edge11" class="edge"><polygon fill="black" stroke="black" points="144.39,-100.59 133.82,-101.24 142.49,-107.33 144.39,-100.59" style="fill: black; stroke: none; fill-opacity:0.3" transform="translate(3,3)"/><path fill="none" stroke="black" d="M184.35,-113.35C171.37,-110.9 156.53,-107.49 143.17,-103.88" style="fill: none; stroke: black; stroke-opacity:0.3" transform="translate(3,3)"/><polygon fill="black" stroke="black" points="144.39,-100.59 133.82,-101.24 142.49,-107.33 144.39,-100.59" style="fill: url(#black);stroke: black;"/><path fill="none" stroke="black" d="M184.35,-113.35C171.37,-110.9 156.53,-107.49 143.17,-103.88"/><title>IGNORE-&gt;PENDING</title></g><g id="node4" class="node"><ellipse fill="none" stroke="black" cx="336.65" cy="-134.24" rx="37.77" ry="18" style="fill: black; stroke: none; fill-opacity:0.3" transform="translate(3,3)"/><ellipse fill="none" stroke="black" cx="336.65" cy="-134.24" rx="37.77" ry="18" style="fill: url(#none);stroke: black;"/><title>FAILURE</title><text text-anchor="middle" x="336.65" y="-131.44" font-family="Times,serif" font-size="11.00" fill="red">FAILURE</text></g><g id="edge3" class="edge"><polygon fill="black" stroke="black" points="301.41,-116.57 311.72,-118.99 305.17,-110.67 301.41,-116.57" style="fill: black; stroke: none; fill-opacity:0.3" transform="translate(3,3)"/><path fill="none" stroke="black" d="M244.53,-76.19C261.51,-87 284.68,-101.76 303.4,-113.69" style="fill: none; stroke: black; stroke-opacity:0.3" transform="translate(3,3)"/><polygon fill="black" stroke="black" points="301.41,-116.57 311.72,-118.99 305.17,-110.67 301.41,-116.57" style="fill: url(#black);stroke: black;"/><path fill="none" stroke="black" d="M244.53,-76.19C261.51,-87 284.68,-101.76 303.4,-113.69"/><title>RUNNING-&gt;FAILURE</title></g><g id="node5" class="node"><ellipse fill="none" stroke="black" cx="336.65" cy="-80.24" rx="39.17" ry="18" style="fill: black; stroke: none; fill-opacity:0.3" transform="translate(3,3)"/><ellipse fill="none" stroke="black" cx="336.65" cy="-80.24" rx="39.17" ry="18" style="fill: url(#none);stroke: black;"/><title>SUCCESS</title><text text-anchor="middle" x="336.65" y="-77.44" font-family="Times,serif" font-size="11.00" fill="green">SUCCESS</text></g><g id="edge4" class="edge"><polygon fill="black" stroke="black" points="287.28,-75.76 297.72,-73.95 288.43,-68.86 287.28,-75.76" style="fill: black; stroke: none; fill-opacity:0.3" transform="translate(3,3)"/><path fill="none" stroke="black" d="M259.22,-67.56C268.49,-69.1 278.51,-70.76 288.14,-72.36" style="fill: none; stroke: black; stroke-opacity:0.3" transform="translate(3,3)"/><polygon fill="black" stroke="black" points="287.28,-75.76 297.72,-73.95 288.43,-68.86 287.28,-75.76" style="fill: url(#black);stroke: black;"/><path fill="none" stroke="black" d="M259.22,-67.56C268.49,-69.1 278.51,-70.76 288.14,-72.36"/><title>RUNNING-&gt;SUCCESS</title></g><g id="node6" class="node"><ellipse fill="none" stroke="black" cx="459.84" cy="-96.24" rx="48.21" ry="18" style="fill: black; stroke: none; fill-opacity:0.3" transform="translate(3,3)"/><ellipse fill="none" stroke="black" cx="459.84" cy="-96.24" rx="48.21" ry="18" style="fill: url(#none);stroke: black;"/><title>REVERTING</title><text text-anchor="middle" x="459.84" y="-93.44" font-family="Times,serif" font-size="11.00">REVERTING</text></g><g id="edge5" class="edge"><polygon fill="black" stroke="black" points="412.2,-114.53 420.7,-108.2 410.11,-107.85 412.2,-114.53" style="fill: black; stroke: none; fill-opacity:0.3" transform="translate(3,3)"/><path fill="none" stroke="black" d="M368.86,-124.45C381.82,-120.38 397.16,-115.58 411.46,-111.09" style="fill: none; stroke: black; stroke-opacity:0.3" transform="translate(3,3)"/><polygon fill="black" stroke="black" points="412.2,-114.53 420.7,-108.2 410.11,-107.85 412.2,-114.53" style="fill: url(#black);stroke: black;"/><path fill="none" stroke="black" d="M368.86,-124.45C381.82,-120.38 397.16,-115.58 411.46,-111.09"/><title>FAILURE-&gt;REVERTING</title></g><g id="edge9" class="edge"><polygon fill="black" stroke="black" points="402.06,-92.27 412.43,-90.11 402.98,-85.33 402.06,-92.27" style="fill: black; stroke: none; fill-opacity:0.3" transform="translate(3,3)"/><path fill="none" stroke="black" d="M374.67,-85.12C383.48,-86.29 393.07,-87.55 402.53,-88.8" style="fill: none; stroke: black; stroke-opacity:0.3" transform="translate(3,3)"/><polygon fill="black" stroke="black" points="402.06,-92.27 412.43,-90.11 402.98,-85.33 402.06,-92.27" style="fill: url(#black);stroke: black;"/><path fill="none" stroke="black" d="M374.67,-85.12C383.48,-86.29 393.07,-87.55 402.53,-88.8"/><title>SUCCESS-&gt;REVERTING</title></g><g id="node9" class="node"><ellipse fill="none" stroke="black" cx="459.84" cy="-42.24" rx="43.8" ry="18" style="fill: black; stroke: none; fill-opacity:0.3" transform="translate(3,3)"/><ellipse fill="none" stroke="black" cx="459.84" cy="-42.24" rx="43.8" ry="18" style="fill: url(#none);stroke: black;"/><title>RETRYING</title><text text-anchor="middle" x="459.84" y="-39.44" font-family="Times,serif" font-size="11.00">RETRYING</text></g><g id="edge8" class="edge"><polygon fill="black" stroke="black" points="414.47,-59.82 422.96,-53.49 412.37,-53.14 414.47,-59.82" style="fill: black; stroke: none; fill-opacity:0.3" transform="translate(3,3)"/><path fill="none" stroke="black" d="M369.81,-70.15C383.22,-65.95 399.03,-60.99 413.59,-56.43" style="fill: none; stroke: black; stroke-opacity:0.3" transform="translate(3,3)"/><polygon fill="black" stroke="black" points="414.47,-59.82 422.96,-53.49 412.37,-53.14 414.47,-59.82" style="fill: url(#black);stroke: black;"/><path fill="none" stroke="black" d="M369.81,-70.15C383.22,-65.95 399.03,-60.99 413.59,-56.43"/><title>SUCCESS-&gt;RETRYING</title></g><g id="node7" class="node"><ellipse fill="none" stroke="black" cx="610.7" cy="-96.24" rx="67" ry="18" style="fill: black; stroke: none; fill-opacity:0.3" transform="translate(3,3)"/><ellipse fill="none" stroke="black" cx="610.7" cy="-96.24" rx="67" ry="18" style="fill: url(#none);stroke: black;"/><title>REVERT_FAILURE</title><text text-anchor="middle" x="610.7" y="-93.44" font-family="Times,serif" font-size="11.00" fill="red">REVERT_FAILURE</text></g><g id="edge6" class="edge"><polygon fill="black" stroke="black" points="531.86,-99.74 541.86,-96.24 531.86,-92.74 531.86,-99.74" style="fill: black; stroke: none; fill-opacity:0.3" transform="translate(3,3)"/><path fill="none" stroke="black" d="M508.35,-96.24C515.93,-96.24 523.93,-96.24 531.99,-96.24" style="fill: none; stroke: black; stroke-opacity:0.3" transform="translate(3,3)"/><polygon fill="black" stroke="black" points="531.86,-99.74 541.86,-96.24 531.86,-92.74 531.86,-99.74" style="fill: url(#black);stroke: black;"/><path fill="none" stroke="black" d="M508.35,-96.24C515.93,-96.24 523.93,-96.24 531.99,-96.24"/><title>REVERTING-&gt;REVERT_FAILURE</title></g><g id="node8" class="node"><ellipse fill="none" stroke="black" cx="610.7" cy="-19.24" rx="44.5" ry="18" style="fill: black; stroke: none; fill-opacity:0.3" transform="translate(3,3)"/><ellipse fill="none" stroke="black" cx="610.7" cy="-19.24" rx="44.5" ry="18" style="fill: url(#none);stroke: black;"/><title>REVERTED</title><text text-anchor="middle" x="610.7" y="-16.44" font-family="Times,serif" font-size="11.00" fill="darkorange">REVERTED</text></g><g id="edge7" class="edge"><polygon fill="black" stroke="black" points="573.59,-41.85 580.86,-34.15 570.37,-35.64 573.59,-41.85" style="fill: black; stroke: none; fill-opacity:0.3" transform="translate(3,3)"/><path fill="none" stroke="black" d="M489.19,-81.57C512.69,-69.41 546.3,-52.03 572.06,-38.71" style="fill: none; stroke: black; stroke-opacity:0.3" transform="translate(3,3)"/><polygon fill="black" stroke="black" points="573.59,-41.85 580.86,-34.15 570.37,-35.64 573.59,-41.85" style="fill: url(#black);stroke: black;"/><path fill="none" stroke="black" d="M489.19,-81.57C512.69,-69.41 546.3,-52.03 572.06,-38.71"/><title>REVERTING-&gt;REVERTED</title></g><g id="edge12" class="edge"><polygon fill="black" stroke="black" points="127.14,-61.73 121.84,-70.91 131.7,-67.04 127.14,-61.73" style="fill: black; stroke: none; fill-opacity:0.3" transform="translate(3,3)"/><path fill="none" stroke="black" d="M569.16,-12.46C490.81,-1.12 314.35,15.89 178.58,-34.24 160.53,-40.9 142.95,-53.22 129.39,-64.41" style="fill: none; stroke: black; stroke-opacity:0.3" transform="translate(3,3)"/><polygon fill="black" stroke="black" points="127.14,-61.73 121.84,-70.91 131.7,-67.04 127.14,-61.73" style="fill: url(#black);stroke: black;"/><path fill="none" stroke="black" d="M569.16,-12.46C490.81,-1.12 314.35,15.89 178.58,-34.24 160.53,-40.9 142.95,-53.22 129.39,-64.41"/><title>REVERTED-&gt;PENDING</title></g><g id="edge10" class="edge"><polygon fill="black" stroke="black" points="271.84,-52.15 262.25,-56.66 272.56,-59.11 271.84,-52.15" style="fill: black; stroke: none; fill-opacity:0.3" transform="translate(3,3)"/><path fill="none" stroke="black" d="M416.02,-44.73C383.5,-46.73 337.69,-49.77 297.56,-53.24 289.33,-53.95 280.61,-54.78 272.12,-55.64" style="fill: none; stroke: black; stroke-opacity:0.3" transform="translate(3,3)"/><polygon fill="black" stroke="black" points="271.84,-52.15 262.25,-56.66 272.56,-59.11 271.84,-52.15" style="fill: url(#black);stroke: black;"/><path fill="none" stroke="black" d="M416.02,-44.73C383.5,-46.73 337.69,-49.77 297.56,-53.24 289.33,-53.95 280.61,-54.78 272.12,-55.64"/><title>RETRYING-&gt;RUNNING</title></g><g id="node10" class="node"><ellipse fill="black" stroke="black" cx="23.6" cy="-88.24" rx="3.6" ry="3.6" style="fill: black; stroke: none; fill-opacity:0.3" transform="translate(3,3)"/><ellipse fill="black" stroke="black" cx="23.6" cy="-88.24" rx="3.6" ry="3.6" style="fill: url(#black);stroke: black;"/><title>__start__</title><text text-anchor="middle" x="10" y="-75.84" font-family="Times,serif" font-size="11.00" fill="green">start</text></g><g id="edge13" class="edge"><polygon fill="black" stroke="black" points="51.33,-91.74 61.33,-88.24 51.33,-84.74 51.33,-91.74" style="fill: black; stroke: none; fill-opacity:0.3" transform="translate(3,3)"/><path fill="none" stroke="black" stroke-dasharray="1,5" d="M27.54,-88.24C31.99,-88.24 41.04,-88.24 51.33,-88.24" style="fill: none; stroke: black; stroke-opacity:0.3" transform="translate(3,3)"/><polygon fill="black" stroke="black" points="51.33,-91.74 61.33,-88.24 51.33,-84.74 51.33,-91.74" style="fill: url(#black);stroke: black;"/><path fill="none" stroke="black" stroke-dasharray="1,5" d="M27.54,-88.24C31.99,-88.24 41.04,-88.24 51.33,-88.24"/><title>__start__-&gt;PENDING</title></g></g>
</svg>
