<?xml version="1.0"?>
<!DOCTYPE svg PUBLIC "-//W3C//DTD SVG 1.0//EN" "http://www.w3.org/TR/2001/REC-SVG-20010904/DTD/svg10.dtd">
<!-- Generated by graphviz version 7.1.0 (0)
 -->
<!-- Title: Tasks states Pages: 1 -->
<svg xmlns="http://www.w3.org/2000/svg" xmlns:svg="http://www.w3.org/2000/svg" width="685pt" height="144pt" viewBox="0.00 0.00 685.45 144.00" preserveAspectRatio="xMidYMid meet" zoomAndPan="magnify" version="1.1" contentScriptType="application/ecmascript" contentStyleType="text/css"><defs><linearGradient id="white" x1="0%" y1="0%" x2="0%" y2="0%"><stop offset="0%" style="stop-color:rgb(255,255,255);stop-opacity:1"/></linearGradient><linearGradient id="black" x1="0%" y1="0%" x2="0%" y2="0%"><stop offset="0%" style="stop-color:rgb(0,0,0);stop-opacity:1"/></linearGradient><linearGradient id="aquamarine" x1="0%" y1="0%" x2="100%" y2="100%"><stop offset="0%" style="stop-color:rgb(255,255,255);stop-opacity:1"/><stop offset="100%" style="stop-color:rgb(127,255,212);stop-opacity:1"/></linearGradient><linearGradient id="azure" x1="0%" y1="0%" x2="100%" y2="100%"><stop offset="0%" style="stop-color:rgb(255,255,255);stop-opacity:1"/><stop offset="100%" style="stop-color:rgb(240,255,255);stop-opacity:1"/></linearGradient><linearGradient id="blue" x1="0%" y1="0%" x2="100%" y2="100%"><stop offset="0%" style="stop-color:rgb(255,255,255);stop-opacity:1"/><stop offset="100%" style="stop-color:rgb(0,0,255);stop-opacity:1"/></linearGradient><linearGradient id="blueviolet" x1="0%" y1="0%" x2="100%" y2="100%"><stop offset="0%" style="stop-color:rgb(255,255,255);stop-opacity:1"/><stop offset="100%" style="stop-color:rgb(138,43,226);stop-opacity:1"/></linearGradient><linearGradient id="brown" x1="0%" y1="0%" x2="100%" y2="100%"><stop offset="0%" style="stop-color:rgb(255,255,255);stop-opacity:1"/><stop offset="100%" style="stop-color:rgb(165,42,42);stop-opacity:1"/></linearGradient><linearGradient id="cadetblue" x1="0%" y1="0%" x2="100%" y2="100%"><stop offset="0%" style="stop-color:rgb(255,255,255);stop-opacity:1"/><stop offset="100%" style="stop-color:rgb(95,158,160);stop-opacity:1"/></linearGradient><linearGradient id="chocolate" x1="0%" y1="0%" x2="100%" y2="100%"><stop offset="0%" style="stop-color:rgb(255,255,255);stop-opacity:1"/><stop offset="100%" style="stop-color:rgb(210,105,30);stop-opacity:1"/></linearGradient><linearGradient id="cornflowerblue" x1="0%" y1="0%" x2="100%" y2="100%"><stop offset="0%" style="stop-color:rgb(255,255,255);stop-opacity:1"/><stop offset="100%" style="stop-color:rgb(100,149,237);stop-opacity:1"/></linearGradient><linearGradient id="crimson" x1="0%" y1="0%" x2="100%" y2="100%"><stop offset="0%" style="stop-color:rgb(255,255,255);stop-opacity:1"/><stop offset="100%" style="stop-color:rgb(220,20,60);stop-opacity:1"/></linearGradient><linearGradient id="cyan" x1="0%" y1="0%" x2="100%" y2="100%"><stop offset="0%" style="stop-color:rgb(255,255,255);stop-opacity:1"/><stop offset="100%" style="stop-color:rgb(0,255,255);stop-opacity:1"/></linearGradient><linearGradient id="darkgreen" x1="0%" y1="0%" x2="100%" y2="100%"><stop offset="0%" style="stop-color:rgb(255,255,255);stop-opacity:1"/><stop offset="100%" style="stop-color:rgb(0,100,0);stop-opacity:1"/></linearGradient><linearGradient id="darkorange" x1="0%" y1="0%" x2="100%" y2="100%"><stop offset="0%" style="stop-color:rgb(255,255,255);stop-opacity:1"/><stop offset="100%" style="stop-color:rgb(255,140,0);stop-opacity:1"/></linearGradient><linearGradient id="gold" x1="0%" y1="0%" x2="100%" y2="100%"><stop offset="0%" style="stop-color:rgb(255,255,255);stop-opacity:1"/><stop offset="100%" style="stop-color:rgb(255,215,0);stop-opacity:1"/></linearGradient><linearGradient id="gray" x1="0%" y1="0%" x2="100%" y2="100%"><stop offset="0%" style="stop-color:rgb(255,255,255);stop-opacity:1"/><stop offset="100%" style="stop-color:rgb(192,192,192);stop-opacity:1"/></linearGradient><linearGradient id="greenyellow" x1="0%" y1="0%" x2="100%" y2="100%"><stop offset="0%" style="stop-color:rgb(255,255,255);stop-opacity:1"/><stop offset="100%" style="stop-color:rgb(173,255,47);stop-opacity:1"/></linearGradient><linearGradient id="green" x1="0%" y1="0%" x2="100%" y2="100%"><stop offset="0%" style="stop-color:rgb(255,255,255);stop-opacity:1"/><stop offset="100%" style="stop-color:rgb(0,255,0);stop-opacity:1"/></linearGradient><linearGradient id="grey" x1="0%" y1="0%" x2="100%" y2="100%"><stop offset="0%" style="stop-color:rgb(255,255,255);stop-opacity:1"/><stop offset="100%" style="stop-color:rgb(192,192,192);stop-opacity:1"/></linearGradient><linearGradient id="hotpink" x1="0%" y1="0%" x2="100%" y2="100%"><stop offset="0%" style="stop-color:rgb(255,255,255);stop-opacity:1"/><stop offset="100%" style="stop-color:rgb(255,105,180);stop-opacity:1"/></linearGradient><linearGradient id="indianred" x1="0%" y1="0%" x2="100%" y2="100%"><stop offset="0%" style="stop-color:rgb(255,255,255);stop-opacity:1"/><stop offset="100%" style="stop-color:rgb(205,92,92);stop-opacity:1"/></linearGradient><linearGradient id="indigo" x1="0%" y1="0%" x2="100%" y2="100%"><stop offset="0%" style="stop-color:rgb(255,255,255);stop-opacity:1"/><stop offset="100%" style="stop-color:rgb(75,0,130);stop-opacity:1"/></linearGradient><linearGradient id="lavender" x1="0%" y1="0%" x2="100%" y2="100%"><stop offset="0%" style="stop-color:rgb(255,255,255);stop-opacity:1"/><stop offset="100%" style="stop-color:rgb(230,230,250);stop-opacity:1"/></linearGradient><linearGradient id="lightblue" x1="0%" y1="0%" x2="100%" y2="100%"><stop offset="0%" style="stop-color:rgb(255,255,255);stop-opacity:1"/><stop offset="100%" style="stop-color:rgb(173,216,230);stop-opacity:1"/></linearGradient><linearGradient id="lightgray" x1="0%" y1="0%" x2="100%" y2="100%"><stop offset="0%" style="stop-color:rgb(255,255,255);stop-opacity:1"/><stop offset="100%" style="stop-color:rgb(211,211,211);stop-opacity:1"/></linearGradient><linearGradient id="lightgrey" x1="0%" y1="0%" x2="100%" y2="100%"><stop offset="0%" style="stop-color:rgb(255,255,255);stop-opacity:1"/><stop offset="100%" style="stop-color:rgb(211,211,211);stop-opacity:1"/></linearGradient><linearGradient id="magenta" x1="0%" y1="0%" x2="100%" y2="100%"><stop offset="0%" style="stop-color:rgb(255,255,255);stop-opacity:1"/><stop offset="100%" style="stop-color:rgb(255,0,255);stop-opacity:1"/></linearGradient><linearGradient id="maroon" x1="0%" y1="0%" x2="100%" y2="100%"><stop offset="0%" style="stop-color:rgb(255,255,255);stop-opacity:1"/><stop offset="100%" style="stop-color:rgb(176,48,96);stop-opacity:1"/></linearGradient><linearGradient id="mediumblue" x1="0%" y1="0%" x2="100%" y2="100%"><stop offset="0%" style="stop-color:rgb(255,255,255);stop-opacity:1"/><stop offset="100%" style="stop-color:rgb(0,0,205);stop-opacity:1"/></linearGradient><linearGradient id="mediumpurple" x1="0%" y1="0%" x2="100%" y2="100%"><stop offset="0%" style="stop-color:rgb(255,255,255);stop-opacity:1"/><stop offset="100%" style="stop-color:rgb(147,112,219);stop-opacity:1"/></linearGradient><linearGradient id="orange" x1="0%" y1="0%" x2="100%" y2="100%"><stop offset="0%" style="stop-color:rgb(255,255,255);stop-opacity:1"/><stop offset="100%" style="stop-color:rgb(255,165,0);stop-opacity:1"/></linearGradient><linearGradient id="pink" x1="0%" y1="0%" x2="100%" y2="100%"><stop offset="0%" style="stop-color:rgb(255,255,255);stop-opacity:1"/><stop offset="100%" style="stop-color:rgb(255,192,203);stop-opacity:1"/></linearGradient><linearGradient id="purple" x1="0%" y1="0%" x2="100%" y2="100%"><stop offset="0%" style="stop-color:rgb(255,255,255);stop-opacity:1"/><stop offset="100%" style="stop-color:rgb(160,32,240);stop-opacity:1"/></linearGradient><linearGradient id="red" x1="0%" y1="0%" x2="100%" y2="100%"><stop offset="0%" style="stop-color:rgb(255,255,255);stop-opacity:1"/><stop offset="100%" style="stop-color:rgb(255,0,0);stop-opacity:1"/></linearGradient><linearGradient id="steelblue" x1="0%" y1="0%" x2="100%" y2="100%"><stop offset="0%" style="stop-color:rgb(255,255,255);stop-opacity:1"/><stop offset="100%" style="stop-color:rgb(70,130,180);stop-opacity:1"/></linearGradient><linearGradient id="violet" x1="0%" y1="0%" x2="100%" y2="100%"><stop offset="0%" style="stop-color:rgb(255,255,255);stop-opacity:1"/><stop offset="100%" style="stop-color:rgb(238,130,238);stop-opacity:1"/></linearGradient><linearGradient id="yellow" x1="0%" y1="0%" x2="100%" y2="100%"><stop offset="0%" style="stop-color:rgb(255,255,255);stop-opacity:1"/><stop offset="100%" style="stop-color:rgb(255,255,0);stop-opacity:1"/></linearGradient><linearGradient id="none" x1="0%" y1="0%" x2="100%" y2="100%"><stop offset="0%" style="stop-color:rgb(255,255,255);stop-opacity:1"/><stop offset="100%" style="stop-color:rgb(255,255,255);stop-opacity:1"/></linearGradient></defs>
<g id="graph0" class="graph" transform="scale(1 1) rotate(0) translate(4 140)"><polygon fill="white" stroke="none" points="-4,4 -4,-140 681.45,-140 681.45,4 -4,4"/><title>Tasks states</title><g id="node1" class="node"><ellipse fill="none" stroke="black" cx="102.89" cy="-91" rx="39.88" ry="18" style="fill: black; stroke: none; fill-opacity:0.3" transform="translate(3,3)"/><ellipse fill="none" stroke="black" cx="102.89" cy="-91" rx="39.88" ry="18" style="fill: url(#none);stroke: black;"/><title>PENDING</title><text text-anchor="middle" x="102.89" y="-88.2" font-family="Times,serif" font-size="11.00">PENDING</text></g><g id="node2" class="node"><ellipse fill="none" stroke="black" cx="220.07" cy="-118" rx="35.46" ry="18" style="fill: black; stroke: none; fill-opacity:0.3" transform="translate(3,3)"/><ellipse fill="none" stroke="black" cx="220.07" cy="-118" rx="35.46" ry="18" style="fill: url(#none);stroke: black;"/><title>IGNORE</title><text text-anchor="middle" x="220.07" y="-115.2" font-family="Times,serif" font-size="11.00">IGNORE</text></g><g id="edge1" class="edge"><polygon fill="black" stroke="black" points="180.63,-106.21 191.21,-105.61 182.56,-99.48 180.63,-106.21" style="fill: black; stroke: none; fill-opacity:0.3" transform="translate(3,3)"/><path fill="none" stroke="black" d="M142.56,-93.65C155.17,-96.14 169.14,-99.44 181.66,-102.86" style="fill: none; stroke: black; stroke-opacity:0.3" transform="translate(3,3)"/><polygon fill="black" stroke="black" points="180.63,-106.21 191.21,-105.61 182.56,-99.48 180.63,-106.21" style="fill: url(#black);stroke: black;"/><path fill="none" stroke="black" d="M142.56,-93.65C155.17,-96.14 169.14,-99.44 181.66,-102.86"/><title>PENDING-&gt;IGNORE</title></g><g id="node3" class="node"><ellipse fill="none" stroke="black" cx="220.07" cy="-64" rx="41.48" ry="18" style="fill: black; stroke: none; fill-opacity:0.3" transform="translate(3,3)"/><ellipse fill="none" stroke="black" cx="220.07" cy="-64" rx="41.48" ry="18" style="fill: url(#none);stroke: black;"/><title>RUNNING</title><text text-anchor="middle" x="220.07" y="-61.2" font-family="Times,serif" font-size="11.00">RUNNING</text></g><g id="edge2" class="edge"><polygon fill="black" stroke="black" points="172.71,-78.46 181.65,-72.77 171.11,-71.65 172.71,-78.46" style="fill: black; stroke: none; fill-opacity:0.3" transform="translate(3,3)"/><path fill="none" stroke="black" d="M138.76,-82.83C149.29,-80.36 161.02,-77.61 172.2,-74.99" style="fill: none; stroke: black; stroke-opacity:0.3" transform="translate(3,3)"/><polygon fill="black" stroke="black" points="172.71,-78.46 181.65,-72.77 171.11,-71.65 172.71,-78.46" style="fill: url(#black);stroke: black;"/><path fill="none" stroke="black" d="M138.76,-82.83C149.29,-80.36 161.02,-77.61 172.2,-74.99"/><title>PENDING-&gt;RUNNING</title></g><g id="edge8" class="edge"><polygon fill="black" stroke="black" points="144.39,-103.35 133.82,-104 142.49,-110.09 144.39,-103.35" style="fill: black; stroke: none; fill-opacity:0.3" transform="translate(3,3)"/><path fill="none" stroke="black" d="M184.35,-116.11C171.37,-113.67 156.53,-110.25 143.17,-106.64" style="fill: none; stroke: black; stroke-opacity:0.3" transform="translate(3,3)"/><polygon fill="black" stroke="black" points="144.39,-103.35 133.82,-104 142.49,-110.09 144.39,-103.35" style="fill: url(#black);stroke: black;"/><path fill="none" stroke="black" d="M184.35,-116.11C171.37,-113.67 156.53,-110.25 143.17,-106.64"/><title>IGNORE-&gt;PENDING</title></g><g id="node4" class="node"><ellipse fill="none" stroke="black" cx="336.65" cy="-118" rx="37.77" ry="18" style="fill: black; stroke: none; fill-opacity:0.3" transform="translate(3,3)"/><ellipse fill="none" stroke="black" cx="336.65" cy="-118" rx="37.77" ry="18" style="fill: url(#none);stroke: black;"/><title>FAILURE</title><text text-anchor="middle" x="336.65" y="-115.2" font-family="Times,serif" font-size="11.00" fill="red">FAILURE</text></g><g id="edge3" class="edge"><polygon fill="black" stroke="black" points="297.18,-103.74 307.72,-104.84 300.17,-97.41 297.18,-103.74" style="fill: black; stroke: none; fill-opacity:0.3" transform="translate(3,3)"/><path fill="none" stroke="black" d="M249.1,-77.21C264.1,-84.28 282.76,-93.07 298.9,-100.68" style="fill: none; stroke: black; stroke-opacity:0.3" transform="translate(3,3)"/><polygon fill="black" stroke="black" points="297.18,-103.74 307.72,-104.84 300.17,-97.41 297.18,-103.74" style="fill: url(#black);stroke: black;"/><path fill="none" stroke="black" d="M249.1,-77.21C264.1,-84.28 282.76,-93.07 298.9,-100.68"/><title>RUNNING-&gt;FAILURE</title></g><g id="node5" class="node"><ellipse fill="none" stroke="black" cx="336.65" cy="-64" rx="39.17" ry="18" style="fill: black; stroke: none; fill-opacity:0.3" transform="translate(3,3)"/><ellipse fill="none" stroke="black" cx="336.65" cy="-64" rx="39.17" ry="18" style="fill: url(#none);stroke: black;"/><title>SUCCESS</title><text text-anchor="middle" x="336.65" y="-61.2" font-family="Times,serif" font-size="11.00" fill="green">SUCCESS</text></g><g id="edge4" class="edge"><polygon fill="black" stroke="black" points="285.47,-67.5 295.47,-64 285.47,-60.5 285.47,-67.5" style="fill: black; stroke: none; fill-opacity:0.3" transform="translate(3,3)"/><path fill="none" stroke="black" d="M261.79,-64C269.48,-64 277.61,-64 285.55,-64" style="fill: none; stroke: black; stroke-opacity:0.3" transform="translate(3,3)"/><polygon fill="black" stroke="black" points="285.47,-67.5 295.47,-64 285.47,-60.5 285.47,-67.5" style="fill: url(#black);stroke: black;"/><path fill="none" stroke="black" d="M261.79,-64C269.48,-64 277.61,-64 285.55,-64"/><title>RUNNING-&gt;SUCCESS</title></g><g id="node6" class="node"><ellipse fill="none" stroke="black" cx="459.84" cy="-68" rx="48.21" ry="18" style="fill: black; stroke: none; fill-opacity:0.3" transform="translate(3,3)"/><ellipse fill="none" stroke="black" cx="459.84" cy="-68" rx="48.21" ry="18" style="fill: url(#none);stroke: black;"/><title>REVERTING</title><text text-anchor="middle" x="459.84" y="-65.2" font-family="Times,serif" font-size="11.00">REVERTING</text></g><g id="edge5" class="edge"><polygon fill="black" stroke="black" points="417.01,-89.04 424.92,-81.99 414.35,-82.57 417.01,-89.04" style="fill: black; stroke: none; fill-opacity:0.3" transform="translate(3,3)"/><path fill="none" stroke="black" d="M366.06,-106.28C380.87,-100.17 399.29,-92.57 415.8,-85.76" style="fill: none; stroke: black; stroke-opacity:0.3" transform="translate(3,3)"/><polygon fill="black" stroke="black" points="417.01,-89.04 424.92,-81.99 414.35,-82.57 417.01,-89.04" style="fill: url(#black);stroke: black;"/><path fill="none" stroke="black" d="M366.06,-106.28C380.87,-100.17 399.29,-92.57 415.8,-85.76"/><title>FAILURE-&gt;REVERTING</title></g><g id="edge10" class="edge"><polygon fill="black" stroke="black" points="399.76,-69.55 409.87,-66.38 399.99,-62.56 399.76,-69.55" style="fill: black; stroke: none; fill-opacity:0.3" transform="translate(3,3)"/><path fill="none" stroke="black" d="M375.99,-65.27C383.63,-65.52 391.81,-65.79 399.96,-66.06" style="fill: none; stroke: black; stroke-opacity:0.3" transform="translate(3,3)"/><polygon fill="black" stroke="black" points="399.76,-69.55 409.87,-66.38 399.99,-62.56 399.76,-69.55" style="fill: url(#black);stroke: black;"/><path fill="none" stroke="black" d="M375.99,-65.27C383.63,-65.52 391.81,-65.79 399.96,-66.06"/><title>SUCCESS-&gt;REVERTING</title></g><g id="node7" class="node"><ellipse fill="none" stroke="black" cx="610.7" cy="-72" rx="67" ry="18" style="fill: black; stroke: none; fill-opacity:0.3" transform="translate(3,3)"/><ellipse fill="none" stroke="black" cx="610.7" cy="-72" rx="67" ry="18" style="fill: url(#none);stroke: black;"/><title>REVERT_FAILURE</title><text text-anchor="middle" x="610.7" y="-69.2" font-family="Times,serif" font-size="11.00" fill="red">REVERT_FAILURE</text></g><g id="edge6" class="edge"><polygon fill="black" stroke="black" points="532.04,-73.41 542.13,-70.18 532.23,-66.42 532.04,-73.41" style="fill: black; stroke: none; fill-opacity:0.3" transform="translate(3,3)"/><path fill="none" stroke="black" d="M508.35,-69.28C515.98,-69.48 524.05,-69.7 532.17,-69.92" style="fill: none; stroke: black; stroke-opacity:0.3" transform="translate(3,3)"/><polygon fill="black" stroke="black" points="532.04,-73.41 542.13,-70.18 532.23,-66.42 532.04,-73.41" style="fill: url(#black);stroke: black;"/><path fill="none" stroke="black" d="M508.35,-69.28C515.98,-69.48 524.05,-69.7 532.17,-69.92"/><title>REVERTING-&gt;REVERT_FAILURE</title></g><g id="node8" class="node"><ellipse fill="none" stroke="black" cx="610.7" cy="-18" rx="44.5" ry="18" style="fill: black; stroke: none; fill-opacity:0.3" transform="translate(3,3)"/><ellipse fill="none" stroke="black" cx="610.7" cy="-18" rx="44.5" ry="18" style="fill: url(#none);stroke: black;"/><title>REVERTED</title><text text-anchor="middle" x="610.7" y="-15.2" font-family="Times,serif" font-size="11.00" fill="darkorange">REVERTED</text></g><g id="edge7" class="edge"><polygon fill="black" stroke="black" points="565.81,-36.43 574.18,-29.93 563.58,-29.8 565.81,-36.43" style="fill: black; stroke: none; fill-opacity:0.3" transform="translate(3,3)"/><path fill="none" stroke="black" d="M496.5,-56.02C517.03,-49.13 543.01,-40.4 564.91,-33.04" style="fill: none; stroke: black; stroke-opacity:0.3" transform="translate(3,3)"/><polygon fill="black" stroke="black" points="565.81,-36.43 574.18,-29.93 563.58,-29.8 565.81,-36.43" style="fill: url(#black);stroke: black;"/><path fill="none" stroke="black" d="M496.5,-56.02C517.03,-49.13 543.01,-40.4 564.91,-33.04"/><title>REVERTING-&gt;REVERTED</title></g><g id="edge9" class="edge"><polygon fill="black" stroke="black" points="127,-64.24 121.75,-73.44 131.6,-69.52 127,-64.24" style="fill: black; stroke: none; fill-opacity:0.3" transform="translate(3,3)"/><path fill="none" stroke="black" d="M568.11,-12.14C489.46,-2.7 314.6,10.36 178.58,-37 160.41,-43.33 142.83,-55.62 129.29,-66.89" style="fill: none; stroke: black; stroke-opacity:0.3" transform="translate(3,3)"/><polygon fill="black" stroke="black" points="127,-64.24 121.75,-73.44 131.6,-69.52 127,-64.24" style="fill: url(#black);stroke: black;"/><path fill="none" stroke="black" d="M568.11,-12.14C489.46,-2.7 314.6,10.36 178.58,-37 160.41,-43.33 142.83,-55.62 129.29,-66.89"/><title>REVERTED-&gt;PENDING</title></g><g id="node9" class="node"><ellipse fill="black" stroke="black" cx="23.6" cy="-91" rx="3.6" ry="3.6" style="fill: black; stroke: none; fill-opacity:0.3" transform="translate(3,3)"/><ellipse fill="black" stroke="black" cx="23.6" cy="-91" rx="3.6" ry="3.6" style="fill: url(#black);stroke: black;"/><title>__start__</title><text text-anchor="middle" x="10" y="-78.6" font-family="Times,serif" font-size="11.00" fill="green">start</text></g><g id="edge11" class="edge"><polygon fill="black" stroke="black" points="51.33,-94.5 61.33,-91 51.33,-87.5 51.33,-94.5" style="fill: black; stroke: none; fill-opacity:0.3" transform="translate(3,3)"/><path fill="none" stroke="black" stroke-dasharray="1,5" d="M27.54,-91C31.99,-91 41.04,-91 51.33,-91" style="fill: none; stroke: black; stroke-opacity:0.3" transform="translate(3,3)"/><polygon fill="black" stroke="black" points="51.33,-94.5 61.33,-91 51.33,-87.5 51.33,-94.5" style="fill: url(#black);stroke: black;"/><path fill="none" stroke="black" stroke-dasharray="1,5" d="M27.54,-91C31.99,-91 41.04,-91 51.33,-91"/><title>__start__-&gt;PENDING</title></g></g>
</svg>
