<?xml version="1.0"?>
<!DOCTYPE svg PUBLIC "-//W3C//DTD SVG 1.0//EN" "http://www.w3.org/TR/2001/REC-SVG-20010904/DTD/svg10.dtd">
<!-- Generated by graphviz version 2.36.0 (20140111.2315)
 -->
<!-- Title: Engines states Pages: 1 -->
<svg xmlns="http://www.w3.org/2000/svg" xmlns:svg="http://www.w3.org/2000/svg" width="692pt" height="180pt" viewBox="0.00 0.00 691.60 180.21" preserveAspectRatio="xMidYMid meet" zoomAndPan="magnify" version="1.1" contentScriptType="application/ecmascript" contentStyleType="text/css"><defs><linearGradient id="white" x1="0%" y1="0%" x2="0%" y2="0%"><stop offset="0%" style="stop-color:rgb(255,255,255);stop-opacity:1"/></linearGradient><linearGradient id="black" x1="0%" y1="0%" x2="0%" y2="0%"><stop offset="0%" style="stop-color:rgb(0,0,0);stop-opacity:1"/></linearGradient><linearGradient id="aquamarine" x1="0%" y1="0%" x2="100%" y2="100%"><stop offset="0%" style="stop-color:rgb(255,255,255);stop-opacity:1"/><stop offset="100%" style="stop-color:rgb(127,255,212);stop-opacity:1"/></linearGradient><linearGradient id="azure" x1="0%" y1="0%" x2="100%" y2="100%"><stop offset="0%" style="stop-color:rgb(255,255,255);stop-opacity:1"/><stop offset="100%" style="stop-color:rgb(240,255,255);stop-opacity:1"/></linearGradient><linearGradient id="blue" x1="0%" y1="0%" x2="100%" y2="100%"><stop offset="0%" style="stop-color:rgb(255,255,255);stop-opacity:1"/><stop offset="100%" style="stop-color:rgb(0,0,255);stop-opacity:1"/></linearGradient><linearGradient id="blueviolet" x1="0%" y1="0%" x2="100%" y2="100%"><stop offset="0%" style="stop-color:rgb(255,255,255);stop-opacity:1"/><stop offset="100%" style="stop-color:rgb(138,43,226);stop-opacity:1"/></linearGradient><linearGradient id="brown" x1="0%" y1="0%" x2="100%" y2="100%"><stop offset="0%" style="stop-color:rgb(255,255,255);stop-opacity:1"/><stop offset="100%" style="stop-color:rgb(165,42,42);stop-opacity:1"/></linearGradient><linearGradient id="cadetblue" x1="0%" y1="0%" x2="100%" y2="100%"><stop offset="0%" style="stop-color:rgb(255,255,255);stop-opacity:1"/><stop offset="100%" style="stop-color:rgb(95,158,160);stop-opacity:1"/></linearGradient><linearGradient id="chocolate" x1="0%" y1="0%" x2="100%" y2="100%"><stop offset="0%" style="stop-color:rgb(255,255,255);stop-opacity:1"/><stop offset="100%" style="stop-color:rgb(210,105,30);stop-opacity:1"/></linearGradient><linearGradient id="cornflowerblue" x1="0%" y1="0%" x2="100%" y2="100%"><stop offset="0%" style="stop-color:rgb(255,255,255);stop-opacity:1"/><stop offset="100%" style="stop-color:rgb(100,149,237);stop-opacity:1"/></linearGradient><linearGradient id="crimson" x1="0%" y1="0%" x2="100%" y2="100%"><stop offset="0%" style="stop-color:rgb(255,255,255);stop-opacity:1"/><stop offset="100%" style="stop-color:rgb(220,20,60);stop-opacity:1"/></linearGradient><linearGradient id="cyan" x1="0%" y1="0%" x2="100%" y2="100%"><stop offset="0%" style="stop-color:rgb(255,255,255);stop-opacity:1"/><stop offset="100%" style="stop-color:rgb(0,255,255);stop-opacity:1"/></linearGradient><linearGradient id="darkgreen" x1="0%" y1="0%" x2="100%" y2="100%"><stop offset="0%" style="stop-color:rgb(255,255,255);stop-opacity:1"/><stop offset="100%" style="stop-color:rgb(0,100,0);stop-opacity:1"/></linearGradient><linearGradient id="darkorange" x1="0%" y1="0%" x2="100%" y2="100%"><stop offset="0%" style="stop-color:rgb(255,255,255);stop-opacity:1"/><stop offset="100%" style="stop-color:rgb(255,140,0);stop-opacity:1"/></linearGradient><linearGradient id="gold" x1="0%" y1="0%" x2="100%" y2="100%"><stop offset="0%" style="stop-color:rgb(255,255,255);stop-opacity:1"/><stop offset="100%" style="stop-color:rgb(255,215,0);stop-opacity:1"/></linearGradient><linearGradient id="gray" x1="0%" y1="0%" x2="100%" y2="100%"><stop offset="0%" style="stop-color:rgb(255,255,255);stop-opacity:1"/><stop offset="100%" style="stop-color:rgb(192,192,192);stop-opacity:1"/></linearGradient><linearGradient id="greenyellow" x1="0%" y1="0%" x2="100%" y2="100%"><stop offset="0%" style="stop-color:rgb(255,255,255);stop-opacity:1"/><stop offset="100%" style="stop-color:rgb(173,255,47);stop-opacity:1"/></linearGradient><linearGradient id="green" x1="0%" y1="0%" x2="100%" y2="100%"><stop offset="0%" style="stop-color:rgb(255,255,255);stop-opacity:1"/><stop offset="100%" style="stop-color:rgb(0,255,0);stop-opacity:1"/></linearGradient><linearGradient id="grey" x1="0%" y1="0%" x2="100%" y2="100%"><stop offset="0%" style="stop-color:rgb(255,255,255);stop-opacity:1"/><stop offset="100%" style="stop-color:rgb(192,192,192);stop-opacity:1"/></linearGradient><linearGradient id="hotpink" x1="0%" y1="0%" x2="100%" y2="100%"><stop offset="0%" style="stop-color:rgb(255,255,255);stop-opacity:1"/><stop offset="100%" style="stop-color:rgb(255,105,180);stop-opacity:1"/></linearGradient><linearGradient id="indianred" x1="0%" y1="0%" x2="100%" y2="100%"><stop offset="0%" style="stop-color:rgb(255,255,255);stop-opacity:1"/><stop offset="100%" style="stop-color:rgb(205,92,92);stop-opacity:1"/></linearGradient><linearGradient id="indigo" x1="0%" y1="0%" x2="100%" y2="100%"><stop offset="0%" style="stop-color:rgb(255,255,255);stop-opacity:1"/><stop offset="100%" style="stop-color:rgb(75,0,130);stop-opacity:1"/></linearGradient><linearGradient id="lavender" x1="0%" y1="0%" x2="100%" y2="100%"><stop offset="0%" style="stop-color:rgb(255,255,255);stop-opacity:1"/><stop offset="100%" style="stop-color:rgb(230,230,250);stop-opacity:1"/></linearGradient><linearGradient id="lightblue" x1="0%" y1="0%" x2="100%" y2="100%"><stop offset="0%" style="stop-color:rgb(255,255,255);stop-opacity:1"/><stop offset="100%" style="stop-color:rgb(173,216,230);stop-opacity:1"/></linearGradient><linearGradient id="lightgray" x1="0%" y1="0%" x2="100%" y2="100%"><stop offset="0%" style="stop-color:rgb(255,255,255);stop-opacity:1"/><stop offset="100%" style="stop-color:rgb(211,211,211);stop-opacity:1"/></linearGradient><linearGradient id="lightgrey" x1="0%" y1="0%" x2="100%" y2="100%"><stop offset="0%" style="stop-color:rgb(255,255,255);stop-opacity:1"/><stop offset="100%" style="stop-color:rgb(211,211,211);stop-opacity:1"/></linearGradient><linearGradient id="magenta" x1="0%" y1="0%" x2="100%" y2="100%"><stop offset="0%" style="stop-color:rgb(255,255,255);stop-opacity:1"/><stop offset="100%" style="stop-color:rgb(255,0,255);stop-opacity:1"/></linearGradient><linearGradient id="maroon" x1="0%" y1="0%" x2="100%" y2="100%"><stop offset="0%" style="stop-color:rgb(255,255,255);stop-opacity:1"/><stop offset="100%" style="stop-color:rgb(176,48,96);stop-opacity:1"/></linearGradient><linearGradient id="mediumblue" x1="0%" y1="0%" x2="100%" y2="100%"><stop offset="0%" style="stop-color:rgb(255,255,255);stop-opacity:1"/><stop offset="100%" style="stop-color:rgb(0,0,205);stop-opacity:1"/></linearGradient><linearGradient id="mediumpurple" x1="0%" y1="0%" x2="100%" y2="100%"><stop offset="0%" style="stop-color:rgb(255,255,255);stop-opacity:1"/><stop offset="100%" style="stop-color:rgb(147,112,219);stop-opacity:1"/></linearGradient><linearGradient id="orange" x1="0%" y1="0%" x2="100%" y2="100%"><stop offset="0%" style="stop-color:rgb(255,255,255);stop-opacity:1"/><stop offset="100%" style="stop-color:rgb(255,165,0);stop-opacity:1"/></linearGradient><linearGradient id="pink" x1="0%" y1="0%" x2="100%" y2="100%"><stop offset="0%" style="stop-color:rgb(255,255,255);stop-opacity:1"/><stop offset="100%" style="stop-color:rgb(255,192,203);stop-opacity:1"/></linearGradient><linearGradient id="purple" x1="0%" y1="0%" x2="100%" y2="100%"><stop offset="0%" style="stop-color:rgb(255,255,255);stop-opacity:1"/><stop offset="100%" style="stop-color:rgb(160,32,240);stop-opacity:1"/></linearGradient><linearGradient id="red" x1="0%" y1="0%" x2="100%" y2="100%"><stop offset="0%" style="stop-color:rgb(255,255,255);stop-opacity:1"/><stop offset="100%" style="stop-color:rgb(255,0,0);stop-opacity:1"/></linearGradient><linearGradient id="steelblue" x1="0%" y1="0%" x2="100%" y2="100%"><stop offset="0%" style="stop-color:rgb(255,255,255);stop-opacity:1"/><stop offset="100%" style="stop-color:rgb(70,130,180);stop-opacity:1"/></linearGradient><linearGradient id="violet" x1="0%" y1="0%" x2="100%" y2="100%"><stop offset="0%" style="stop-color:rgb(255,255,255);stop-opacity:1"/><stop offset="100%" style="stop-color:rgb(238,130,238);stop-opacity:1"/></linearGradient><linearGradient id="yellow" x1="0%" y1="0%" x2="100%" y2="100%"><stop offset="0%" style="stop-color:rgb(255,255,255);stop-opacity:1"/><stop offset="100%" style="stop-color:rgb(255,255,0);stop-opacity:1"/></linearGradient><linearGradient id="none" x1="0%" y1="0%" x2="100%" y2="100%"><stop offset="0%" style="stop-color:rgb(255,255,255);stop-opacity:1"/><stop offset="100%" style="stop-color:rgb(255,255,255);stop-opacity:1"/></linearGradient></defs>
<g id="graph0" class="graph" transform="scale(1 1) rotate(0) translate(4 176.208)"><polygon fill="white" stroke="none" points="-4,4 -4,-176.208 687.6,-176.208 687.6,4 -4,4"/><title>Engines states</title><g id="node1" class="node"><ellipse fill="none" stroke="black" cx="108.6" cy="-80.2084" rx="45.2009" ry="18" style="fill: black; stroke: none; fill-opacity:0.3" transform="translate(3,3)"/><ellipse fill="none" stroke="black" cx="108.6" cy="-80.2084" rx="45.2009" ry="18" style="fill:url(#none);stroke:black;"/><text text-anchor="middle" x="108.6" y="-77.4084" font-family="Times,serif" font-size="11.00" style="font-size:10px; font-family:Verdana">RESUMING</text></g><g id="node2" class="node"><ellipse fill="none" stroke="black" cx="243.6" cy="-80.2084" rx="53.5381" ry="18" style="fill: black; stroke: none; fill-opacity:0.3" transform="translate(3,3)"/><ellipse fill="none" stroke="black" cx="243.6" cy="-80.2084" rx="53.5381" ry="18" style="fill:url(#none);stroke:black;"/><text text-anchor="middle" x="243.6" y="-77.4084" font-family="Times,serif" font-size="11.00" style="font-size:10px; font-family:Verdana">SCHEDULING</text></g><g id="edge1" class="edge"><polygon fill="black" stroke="black" points="179.736,-83.7085 189.736,-80.2084 179.736,-76.7085 179.736,-83.7085" style="fill: black; stroke: none; fill-opacity:0.3" transform="translate(3,3)"/><path fill="none" stroke="black" d="M153.887,-80.2084C162.143,-80.2084 170.914,-80.2084 179.606,-80.2084" style="fill: none; stroke: black; stroke-opacity:0.3" transform="translate(3,3)"/><polygon fill="black" stroke="black" points="179.736,-83.7085 189.736,-80.2084 179.736,-76.7085 179.736,-83.7085" style="fill:url(#black);stroke:black;"/><path fill="none" stroke="black" d="M153.887,-80.2084C162.143,-80.2084 170.914,-80.2084 179.606,-80.2084"/></g><g id="node3" class="node"><ellipse fill="none" stroke="black" cx="373.6" cy="-34.2084" rx="39.8775" ry="18" style="fill: black; stroke: none; fill-opacity:0.3" transform="translate(3,3)"/><ellipse fill="none" stroke="black" cx="373.6" cy="-34.2084" rx="39.8775" ry="18" style="fill:url(#none);stroke:black;"/><text text-anchor="middle" x="373.6" y="-31.4084" font-family="Times,serif" font-size="11.00" style="font-size:10px; font-family:Verdana">WAITING</text></g><g id="edge2" class="edge"><polygon fill="black" stroke="black" points="333.581,-51.95 341.808,-45.2741 331.214,-45.3624 333.581,-51.95" style="fill: black; stroke: none; fill-opacity:0.3" transform="translate(3,3)"/><path fill="none" stroke="black" d="M280.937,-67.1497C296.851,-61.4307 315.591,-54.6961 331.965,-48.8116" style="fill: none; stroke: black; stroke-opacity:0.3" transform="translate(3,3)"/><polygon fill="black" stroke="black" points="333.581,-51.95 341.808,-45.2741 331.214,-45.3624 333.581,-51.95" style="fill:url(#black);stroke:black;"/><path fill="none" stroke="black" d="M280.937,-67.1497C296.851,-61.4307 315.591,-54.6961 331.965,-48.8116"/></g><g id="node4" class="node"><ellipse fill="none" stroke="black" cx="634.6" cy="-154.208" rx="39.1741" ry="18" style="fill: black; stroke: none; fill-opacity:0.3" transform="translate(3,3)"/><ellipse fill="none" stroke="black" cx="634.6" cy="-154.208" rx="39.1741" ry="18" style="fill:url(#none);stroke:black;"/><text text-anchor="middle" x="634.6" y="-151.408" font-family="Times,serif" font-size="11.00" style="font-size:10px; font-family:Verdana">SUCCESS</text></g><g id="edge3" class="edge"><polygon fill="black" stroke="black" points="585.475,-153.356 595.772,-150.859 586.166,-146.39 585.475,-153.356" style="fill: black; stroke: none; fill-opacity:0.3" transform="translate(3,3)"/><path fill="none" stroke="black" d="M279.687,-93.6583C295.898,-99.4503 315.524,-105.874 333.6,-110.208 421.246,-131.228 525.851,-143.813 585.523,-149.843" style="fill: none; stroke: black; stroke-opacity:0.3" transform="translate(3,3)"/><polygon fill="black" stroke="black" points="585.475,-153.356 595.772,-150.859 586.166,-146.39 585.475,-153.356" style="fill:url(#black);stroke:black;"/><path fill="none" stroke="black" d="M279.687,-93.6583C295.898,-99.4503 315.524,-105.874 333.6,-110.208 421.246,-131.228 525.851,-143.813 585.523,-149.843"/></g><g id="node5" class="node"><ellipse fill="none" stroke="black" cx="634.6" cy="-98.2084" rx="48.9176" ry="18" style="fill: black; stroke: none; fill-opacity:0.3" transform="translate(3,3)"/><ellipse fill="none" stroke="black" cx="634.6" cy="-98.2084" rx="48.9176" ry="18" style="fill:url(#none);stroke:black;"/><text text-anchor="middle" x="634.6" y="-95.4084" font-family="Times,serif" font-size="11.00" style="font-size:10px; font-family:Verdana">SUSPENDED</text></g><g id="edge4" class="edge"><polygon fill="black" stroke="black" points="576.031,-103.373 585.955,-99.6641 575.884,-96.3742 576.031,-103.373" style="fill: black; stroke: none; fill-opacity:0.3" transform="translate(3,3)"/><path fill="none" stroke="black" d="M291.1,-88.8055C304.746,-90.9802 319.729,-93.0311 333.6,-94.2084 417.62,-101.34 515.343,-101.052 575.84,-99.8758" style="fill: none; stroke: black; stroke-opacity:0.3" transform="translate(3,3)"/><polygon fill="black" stroke="black" points="576.031,-103.373 585.955,-99.6641 575.884,-96.3742 576.031,-103.373" style="fill:url(#black);stroke:black;"/><path fill="none" stroke="black" d="M291.1,-88.8055C304.746,-90.9802 319.729,-93.0311 333.6,-94.2084 417.62,-101.34 515.343,-101.052 575.84,-99.8758"/></g><g id="node6" class="node"><ellipse fill="none" stroke="black" cx="634.6" cy="-41.2084" rx="45.2009" ry="18" style="fill: black; stroke: none; fill-opacity:0.3" transform="translate(3,3)"/><ellipse fill="none" stroke="black" cx="634.6" cy="-41.2084" rx="45.2009" ry="18" style="fill:url(#none);stroke:black;"/><text text-anchor="middle" x="634.6" y="-38.4084" font-family="Times,serif" font-size="11.00" style="font-size:10px; font-family:Verdana">REVERTED</text></g><g id="edge5" class="edge"><polygon fill="black" stroke="black" points="588.182,-57.1198 597.066,-51.3481 586.522,-50.3195 588.182,-57.1198" style="fill: black; stroke: none; fill-opacity:0.3" transform="translate(3,3)"/><path fill="none" stroke="black" d="M297.237,-79.6639C358.257,-78.4014 461.706,-74.3107 549.6,-61.2084 561.879,-59.3781 575.004,-56.639 587.142,-53.7707" style="fill: none; stroke: black; stroke-opacity:0.3" transform="translate(3,3)"/><polygon fill="black" stroke="black" points="588.182,-57.1198 597.066,-51.3481 586.522,-50.3195 588.182,-57.1198" style="fill:url(#black);stroke:black;"/><path fill="none" stroke="black" d="M297.237,-79.6639C358.257,-78.4014 461.706,-74.3107 549.6,-61.2084 561.879,-59.3781 575.004,-56.639 587.142,-53.7707"/></g><g id="node7" class="node"><ellipse fill="none" stroke="black" cx="499.6" cy="-34.2084" rx="49.8222" ry="18" style="fill: black; stroke: none; fill-opacity:0.3" transform="translate(3,3)"/><ellipse fill="none" stroke="black" cx="499.6" cy="-34.2084" rx="49.8222" ry="18" style="fill:url(#none);stroke:black;"/><text text-anchor="middle" x="499.6" y="-31.4084" font-family="Times,serif" font-size="11.00" style="font-size:10px; font-family:Verdana">ANALYZING</text></g><g id="edge6" class="edge"><polygon fill="black" stroke="black" points="443.025,-30.9924 453.087,-27.6752 443.153,-23.9936 443.025,-30.9924" style="fill: black; stroke: none; fill-opacity:0.3" transform="translate(3,3)"/><path fill="none" stroke="black" d="M411.133,-27.9924C421.095,-27.5508 432.118,-27.3831 442.885,-27.4894" style="fill: none; stroke: black; stroke-opacity:0.3" transform="translate(3,3)"/><polygon fill="black" stroke="black" points="443.025,-30.9924 453.087,-27.6752 443.153,-23.9936 443.025,-30.9924" style="fill:url(#black);stroke:black;"/><path fill="none" stroke="black" d="M411.133,-27.9924C421.095,-27.5508 432.118,-27.3831 442.885,-27.4894"/></g><g id="edge7" class="edge"><polygon fill="black" stroke="black" points="263.406,-52.9427 259.159,-62.6492 268.532,-57.7096 263.406,-52.9427" style="fill: black; stroke: none; fill-opacity:0.3" transform="translate(3,3)"/><path fill="none" stroke="black" d="M467.663,-20.1636C433.869,-6.86217 378.56,8.87165 333.6,-7.20844 307.002,-16.7213 282.643,-37.9848 266.159,-55.1225" style="fill: none; stroke: black; stroke-opacity:0.3" transform="translate(3,3)"/><polygon fill="black" stroke="black" points="263.406,-52.9427 259.159,-62.6492 268.532,-57.7096 263.406,-52.9427" style="fill:url(#black);stroke:black;"/><path fill="none" stroke="black" d="M467.663,-20.1636C433.869,-6.86217 378.56,8.87165 333.6,-7.20844 307.002,-16.7213 282.643,-37.9848 266.159,-55.1225"/></g><g id="edge8" class="edge"><polygon fill="black" stroke="black" points="421.247,-37.2687 411.133,-40.4245 421.008,-44.2646 421.247,-37.2687" style="fill: black; stroke: none; fill-opacity:0.3" transform="translate(3,3)"/><path fill="none" stroke="black" d="M453.087,-40.7417C442.725,-41.0202 431.701,-41.0303 421.291,-40.7721" style="fill: none; stroke: black; stroke-opacity:0.3" transform="translate(3,3)"/><polygon fill="black" stroke="black" points="421.247,-37.2687 411.133,-40.4245 421.008,-44.2646 421.247,-37.2687" style="fill:url(#black);stroke:black;"/><path fill="none" stroke="black" d="M453.087,-40.7417C442.725,-41.0202 431.701,-41.0303 421.291,-40.7721"/></g><g id="edge9" class="edge"><polygon fill="black" stroke="black" points="597.966,-138.395 608.307,-140.7 601.66,-132.449 597.966,-138.395" style="fill: black; stroke: none; fill-opacity:0.3" transform="translate(3,3)"/><path fill="none" stroke="black" d="M514.396,-51.6597C530.263,-71.0503 557.729,-102.602 585.6,-125.208 589.948,-128.735 594.764,-132.14 599.619,-135.301" style="fill: none; stroke: black; stroke-opacity:0.3" transform="translate(3,3)"/><polygon fill="black" stroke="black" points="597.966,-138.395 608.307,-140.7 601.66,-132.449 597.966,-138.395" style="fill:url(#black);stroke:black;"/><path fill="none" stroke="black" d="M514.396,-51.6597C530.263,-71.0503 557.729,-102.602 585.6,-125.208 589.948,-128.735 594.764,-132.14 599.619,-135.301"/></g><g id="edge10" class="edge"><polygon fill="black" stroke="black" points="593.323,-82.7112 603.852,-83.8935 596.358,-76.4035 593.323,-82.7112" style="fill: black; stroke: none; fill-opacity:0.3" transform="translate(3,3)"/><path fill="none" stroke="black" d="M530.448,-48.5713C549.443,-57.7117 574.24,-69.6441 594.76,-79.5187" style="fill: none; stroke: black; stroke-opacity:0.3" transform="translate(3,3)"/><polygon fill="black" stroke="black" points="593.323,-82.7112 603.852,-83.8935 596.358,-76.4035 593.323,-82.7112" style="fill:url(#black);stroke:black;"/><path fill="none" stroke="black" d="M530.448,-48.5713C549.443,-57.7117 574.24,-69.6441 594.76,-79.5187"/></g><g id="edge11" class="edge"><polygon fill="black" stroke="black" points="579.509,-41.8663 589.679,-38.8968 579.877,-34.876 579.509,-41.8663" style="fill: black; stroke: none; fill-opacity:0.3" transform="translate(3,3)"/><path fill="none" stroke="black" d="M549.369,-36.7752C559.163,-37.2907 569.511,-37.8353 579.475,-38.3597" style="fill: none; stroke: black; stroke-opacity:0.3" transform="translate(3,3)"/><polygon fill="black" stroke="black" points="579.509,-41.8663 589.679,-38.8968 579.877,-34.876 579.509,-41.8663" style="fill:url(#black);stroke:black;"/><path fill="none" stroke="black" d="M549.369,-36.7752C559.163,-37.2907 569.511,-37.8353 579.475,-38.3597"/></g><g id="node8" class="node"><ellipse fill="black" stroke="black" cx="23.6" cy="-80.2084" rx="3.6" ry="3.6" style="fill: black; stroke: none; fill-opacity:0.3" transform="translate(3,3)"/><ellipse fill="black" stroke="black" cx="23.6" cy="-80.2084" rx="3.6" ry="3.6" style="fill:url(#black);stroke:black;"/><text text-anchor="middle" x="10" y="-67.8084" font-family="Times,serif" font-size="11.00" fill="green" style="font-size:10px; font-family:Verdana">start</text></g><g id="edge12" class="edge"><polygon fill="black" stroke="black" points="53.3814,-83.7085 63.3813,-80.2084 53.3813,-76.7085 53.3814,-83.7085" style="fill: black; stroke: none; fill-opacity:0.3" transform="translate(3,3)"/><path fill="none" stroke="black" stroke-dasharray="1,5" d="M27.3616,-80.2084C31.9737,-80.2084 41.8612,-80.2084 53.1719,-80.2084" style="fill: none; stroke: black; stroke-opacity:0.3" transform="translate(3,3)"/><polygon fill="black" stroke="black" points="53.3814,-83.7085 63.3813,-80.2084 53.3813,-76.7085 53.3814,-83.7085" style="fill:url(#black);stroke:black;"/><path fill="none" stroke="black" stroke-dasharray="1,5" d="M27.3616,-80.2084C31.9737,-80.2084 41.8612,-80.2084 53.1719,-80.2084"/></g></g>
</svg>
