<?xml version="1.0"?>
<!DOCTYPE svg PUBLIC "-//W3C//DTD SVG 1.0//EN" "http://www.w3.org/TR/2001/REC-SVG-20010904/DTD/svg10.dtd">
<!-- Generated by graphviz version 2.38.0 (20140413.2041)
 -->
<!-- Title: Engines states Pages: 1 -->
<svg xmlns="http://www.w3.org/2000/svg" xmlns:svg="http://www.w3.org/2000/svg" width="580pt" height="260pt" viewBox="0.00 0.00 579.69 260.00" preserveAspectRatio="xMidYMid meet" zoomAndPan="magnify" version="1.1" contentScriptType="application/ecmascript" contentStyleType="text/css"><defs><linearGradient id="white" x1="0%" y1="0%" x2="0%" y2="0%"><stop offset="0%" style="stop-color:rgb(255,255,255);stop-opacity:1"/></linearGradient><linearGradient id="black" x1="0%" y1="0%" x2="0%" y2="0%"><stop offset="0%" style="stop-color:rgb(0,0,0);stop-opacity:1"/></linearGradient><linearGradient id="aquamarine" x1="0%" y1="0%" x2="100%" y2="100%"><stop offset="0%" style="stop-color:rgb(255,255,255);stop-opacity:1"/><stop offset="100%" style="stop-color:rgb(127,255,212);stop-opacity:1"/></linearGradient><linearGradient id="azure" x1="0%" y1="0%" x2="100%" y2="100%"><stop offset="0%" style="stop-color:rgb(255,255,255);stop-opacity:1"/><stop offset="100%" style="stop-color:rgb(240,255,255);stop-opacity:1"/></linearGradient><linearGradient id="blue" x1="0%" y1="0%" x2="100%" y2="100%"><stop offset="0%" style="stop-color:rgb(255,255,255);stop-opacity:1"/><stop offset="100%" style="stop-color:rgb(0,0,255);stop-opacity:1"/></linearGradient><linearGradient id="blueviolet" x1="0%" y1="0%" x2="100%" y2="100%"><stop offset="0%" style="stop-color:rgb(255,255,255);stop-opacity:1"/><stop offset="100%" style="stop-color:rgb(138,43,226);stop-opacity:1"/></linearGradient><linearGradient id="brown" x1="0%" y1="0%" x2="100%" y2="100%"><stop offset="0%" style="stop-color:rgb(255,255,255);stop-opacity:1"/><stop offset="100%" style="stop-color:rgb(165,42,42);stop-opacity:1"/></linearGradient><linearGradient id="cadetblue" x1="0%" y1="0%" x2="100%" y2="100%"><stop offset="0%" style="stop-color:rgb(255,255,255);stop-opacity:1"/><stop offset="100%" style="stop-color:rgb(95,158,160);stop-opacity:1"/></linearGradient><linearGradient id="chocolate" x1="0%" y1="0%" x2="100%" y2="100%"><stop offset="0%" style="stop-color:rgb(255,255,255);stop-opacity:1"/><stop offset="100%" style="stop-color:rgb(210,105,30);stop-opacity:1"/></linearGradient><linearGradient id="cornflowerblue" x1="0%" y1="0%" x2="100%" y2="100%"><stop offset="0%" style="stop-color:rgb(255,255,255);stop-opacity:1"/><stop offset="100%" style="stop-color:rgb(100,149,237);stop-opacity:1"/></linearGradient><linearGradient id="crimson" x1="0%" y1="0%" x2="100%" y2="100%"><stop offset="0%" style="stop-color:rgb(255,255,255);stop-opacity:1"/><stop offset="100%" style="stop-color:rgb(220,20,60);stop-opacity:1"/></linearGradient><linearGradient id="cyan" x1="0%" y1="0%" x2="100%" y2="100%"><stop offset="0%" style="stop-color:rgb(255,255,255);stop-opacity:1"/><stop offset="100%" style="stop-color:rgb(0,255,255);stop-opacity:1"/></linearGradient><linearGradient id="darkgreen" x1="0%" y1="0%" x2="100%" y2="100%"><stop offset="0%" style="stop-color:rgb(255,255,255);stop-opacity:1"/><stop offset="100%" style="stop-color:rgb(0,100,0);stop-opacity:1"/></linearGradient><linearGradient id="darkorange" x1="0%" y1="0%" x2="100%" y2="100%"><stop offset="0%" style="stop-color:rgb(255,255,255);stop-opacity:1"/><stop offset="100%" style="stop-color:rgb(255,140,0);stop-opacity:1"/></linearGradient><linearGradient id="gold" x1="0%" y1="0%" x2="100%" y2="100%"><stop offset="0%" style="stop-color:rgb(255,255,255);stop-opacity:1"/><stop offset="100%" style="stop-color:rgb(255,215,0);stop-opacity:1"/></linearGradient><linearGradient id="gray" x1="0%" y1="0%" x2="100%" y2="100%"><stop offset="0%" style="stop-color:rgb(255,255,255);stop-opacity:1"/><stop offset="100%" style="stop-color:rgb(192,192,192);stop-opacity:1"/></linearGradient><linearGradient id="greenyellow" x1="0%" y1="0%" x2="100%" y2="100%"><stop offset="0%" style="stop-color:rgb(255,255,255);stop-opacity:1"/><stop offset="100%" style="stop-color:rgb(173,255,47);stop-opacity:1"/></linearGradient><linearGradient id="green" x1="0%" y1="0%" x2="100%" y2="100%"><stop offset="0%" style="stop-color:rgb(255,255,255);stop-opacity:1"/><stop offset="100%" style="stop-color:rgb(0,255,0);stop-opacity:1"/></linearGradient><linearGradient id="grey" x1="0%" y1="0%" x2="100%" y2="100%"><stop offset="0%" style="stop-color:rgb(255,255,255);stop-opacity:1"/><stop offset="100%" style="stop-color:rgb(192,192,192);stop-opacity:1"/></linearGradient><linearGradient id="hotpink" x1="0%" y1="0%" x2="100%" y2="100%"><stop offset="0%" style="stop-color:rgb(255,255,255);stop-opacity:1"/><stop offset="100%" style="stop-color:rgb(255,105,180);stop-opacity:1"/></linearGradient><linearGradient id="indianred" x1="0%" y1="0%" x2="100%" y2="100%"><stop offset="0%" style="stop-color:rgb(255,255,255);stop-opacity:1"/><stop offset="100%" style="stop-color:rgb(205,92,92);stop-opacity:1"/></linearGradient><linearGradient id="indigo" x1="0%" y1="0%" x2="100%" y2="100%"><stop offset="0%" style="stop-color:rgb(255,255,255);stop-opacity:1"/><stop offset="100%" style="stop-color:rgb(75,0,130);stop-opacity:1"/></linearGradient><linearGradient id="lavender" x1="0%" y1="0%" x2="100%" y2="100%"><stop offset="0%" style="stop-color:rgb(255,255,255);stop-opacity:1"/><stop offset="100%" style="stop-color:rgb(230,230,250);stop-opacity:1"/></linearGradient><linearGradient id="lightblue" x1="0%" y1="0%" x2="100%" y2="100%"><stop offset="0%" style="stop-color:rgb(255,255,255);stop-opacity:1"/><stop offset="100%" style="stop-color:rgb(173,216,230);stop-opacity:1"/></linearGradient><linearGradient id="lightgray" x1="0%" y1="0%" x2="100%" y2="100%"><stop offset="0%" style="stop-color:rgb(255,255,255);stop-opacity:1"/><stop offset="100%" style="stop-color:rgb(211,211,211);stop-opacity:1"/></linearGradient><linearGradient id="lightgrey" x1="0%" y1="0%" x2="100%" y2="100%"><stop offset="0%" style="stop-color:rgb(255,255,255);stop-opacity:1"/><stop offset="100%" style="stop-color:rgb(211,211,211);stop-opacity:1"/></linearGradient><linearGradient id="magenta" x1="0%" y1="0%" x2="100%" y2="100%"><stop offset="0%" style="stop-color:rgb(255,255,255);stop-opacity:1"/><stop offset="100%" style="stop-color:rgb(255,0,255);stop-opacity:1"/></linearGradient><linearGradient id="maroon" x1="0%" y1="0%" x2="100%" y2="100%"><stop offset="0%" style="stop-color:rgb(255,255,255);stop-opacity:1"/><stop offset="100%" style="stop-color:rgb(176,48,96);stop-opacity:1"/></linearGradient><linearGradient id="mediumblue" x1="0%" y1="0%" x2="100%" y2="100%"><stop offset="0%" style="stop-color:rgb(255,255,255);stop-opacity:1"/><stop offset="100%" style="stop-color:rgb(0,0,205);stop-opacity:1"/></linearGradient><linearGradient id="mediumpurple" x1="0%" y1="0%" x2="100%" y2="100%"><stop offset="0%" style="stop-color:rgb(255,255,255);stop-opacity:1"/><stop offset="100%" style="stop-color:rgb(147,112,219);stop-opacity:1"/></linearGradient><linearGradient id="orange" x1="0%" y1="0%" x2="100%" y2="100%"><stop offset="0%" style="stop-color:rgb(255,255,255);stop-opacity:1"/><stop offset="100%" style="stop-color:rgb(255,165,0);stop-opacity:1"/></linearGradient><linearGradient id="pink" x1="0%" y1="0%" x2="100%" y2="100%"><stop offset="0%" style="stop-color:rgb(255,255,255);stop-opacity:1"/><stop offset="100%" style="stop-color:rgb(255,192,203);stop-opacity:1"/></linearGradient><linearGradient id="purple" x1="0%" y1="0%" x2="100%" y2="100%"><stop offset="0%" style="stop-color:rgb(255,255,255);stop-opacity:1"/><stop offset="100%" style="stop-color:rgb(160,32,240);stop-opacity:1"/></linearGradient><linearGradient id="red" x1="0%" y1="0%" x2="100%" y2="100%"><stop offset="0%" style="stop-color:rgb(255,255,255);stop-opacity:1"/><stop offset="100%" style="stop-color:rgb(255,0,0);stop-opacity:1"/></linearGradient><linearGradient id="steelblue" x1="0%" y1="0%" x2="100%" y2="100%"><stop offset="0%" style="stop-color:rgb(255,255,255);stop-opacity:1"/><stop offset="100%" style="stop-color:rgb(70,130,180);stop-opacity:1"/></linearGradient><linearGradient id="violet" x1="0%" y1="0%" x2="100%" y2="100%"><stop offset="0%" style="stop-color:rgb(255,255,255);stop-opacity:1"/><stop offset="100%" style="stop-color:rgb(238,130,238);stop-opacity:1"/></linearGradient><linearGradient id="yellow" x1="0%" y1="0%" x2="100%" y2="100%"><stop offset="0%" style="stop-color:rgb(255,255,255);stop-opacity:1"/><stop offset="100%" style="stop-color:rgb(255,255,0);stop-opacity:1"/></linearGradient><linearGradient id="none" x1="0%" y1="0%" x2="100%" y2="100%"><stop offset="0%" style="stop-color:rgb(255,255,255);stop-opacity:1"/><stop offset="100%" style="stop-color:rgb(255,255,255);stop-opacity:1"/></linearGradient></defs>
<g id="graph0" class="graph" transform="scale(1 1) rotate(0) translate(4 256)"><polygon fill="white" stroke="none" points="-4,4 -4,-256 575.691,-256 575.691,4 -4,4"/><title>Engines states</title><g id="node1" class="node"><ellipse fill="none" stroke="black" cx="385.357" cy="-127" rx="51.931" ry="18" style="fill: black; stroke: none; fill-opacity:0.3" transform="translate(3,3)"/><ellipse fill="none" stroke="black" cx="385.357" cy="-127" rx="51.931" ry="18" style="fill:url(#none);stroke:black;"/><text text-anchor="middle" x="385.357" y="-124.2" font-family="Times,serif" font-size="11.00" fill="blue" style="font-size:10px; font-family:Verdana">GAME_OVER</text></g><g id="node2" class="node"><ellipse fill="none" stroke="black" cx="522.983" cy="-234" rx="45.2009" ry="18" style="fill: black; stroke: none; fill-opacity:0.3" transform="translate(3,3)"/><ellipse fill="none" stroke="black" cx="522.983" cy="-234" rx="45.2009" ry="18" style="fill:url(#none);stroke:black;"/><text text-anchor="middle" x="522.983" y="-231.2" font-family="Times,serif" font-size="11.00" style="font-size:10px; font-family:Verdana">REVERTED</text></g><g id="edge1" class="edge"><polygon fill="black" stroke="black" points="484.197,-217.79 494.584,-219.879 487.766,-211.769 484.197,-217.79" style="fill: black; stroke: none; fill-opacity:0.3" transform="translate(3,3)"/><path fill="none" stroke="black" d="M402.891,-144.144C419.872,-161.228 447.529,-187.637 474.274,-207 477.929,-209.646 481.866,-212.238 485.855,-214.705" style="fill: none; stroke: black; stroke-opacity:0.3" transform="translate(3,3)"/><polygon fill="black" stroke="black" points="484.197,-217.79 494.584,-219.879 487.766,-211.769 484.197,-217.79" style="fill:url(#black);stroke:black;"/><path fill="none" stroke="black" d="M402.891,-144.144C419.872,-161.228 447.529,-187.637 474.274,-207 477.929,-209.646 481.866,-212.238 485.855,-214.705"/></g><g id="node3" class="node"><ellipse fill="none" stroke="black" cx="522.983" cy="-180" rx="39.1741" ry="18" style="fill: black; stroke: none; fill-opacity:0.3" transform="translate(3,3)"/><ellipse fill="none" stroke="black" cx="522.983" cy="-180" rx="39.1741" ry="18" style="fill:url(#none);stroke:black;"/><text text-anchor="middle" x="522.983" y="-177.2" font-family="Times,serif" font-size="11.00" style="font-size:10px; font-family:Verdana">SUCCESS</text></g><g id="edge2" class="edge"><polygon fill="black" stroke="black" points="481.788,-168.05 492.376,-168.43 484.336,-161.531 481.788,-168.05" style="fill: black; stroke: none; fill-opacity:0.3" transform="translate(3,3)"/><path fill="none" stroke="black" d="M420.581,-140.374C439.598,-147.806 463.331,-157.08 483.054,-164.787" style="fill: none; stroke: black; stroke-opacity:0.3" transform="translate(3,3)"/><polygon fill="black" stroke="black" points="481.788,-168.05 492.376,-168.43 484.336,-161.531 481.788,-168.05" style="fill:url(#black);stroke:black;"/><path fill="none" stroke="black" d="M420.581,-140.374C439.598,-147.806 463.331,-157.08 483.054,-164.787"/></g><g id="node4" class="node"><ellipse fill="none" stroke="black" cx="522.983" cy="-126" rx="48.9176" ry="18" style="fill: black; stroke: none; fill-opacity:0.3" transform="translate(3,3)"/><ellipse fill="none" stroke="black" cx="522.983" cy="-126" rx="48.9176" ry="18" style="fill:url(#none);stroke:black;"/><text text-anchor="middle" x="522.983" y="-123.2" font-family="Times,serif" font-size="11.00" style="font-size:10px; font-family:Verdana">SUSPENDED</text></g><g id="edge3" class="edge"><polygon fill="black" stroke="black" points="463.977,-129.928 473.951,-126.354 463.926,-122.928 463.977,-129.928" style="fill: black; stroke: none; fill-opacity:0.3" transform="translate(3,3)"/><path fill="none" stroke="black" d="M437.245,-126.625C445.889,-126.561 454.924,-126.494 463.74,-126.429" style="fill: none; stroke: black; stroke-opacity:0.3" transform="translate(3,3)"/><polygon fill="black" stroke="black" points="463.977,-129.928 473.951,-126.354 463.926,-122.928 463.977,-129.928" style="fill:url(#black);stroke:black;"/><path fill="none" stroke="black" d="M437.245,-126.625C445.889,-126.561 454.924,-126.494 463.74,-126.429"/></g><g id="node5" class="node"><ellipse fill="none" stroke="black" cx="522.983" cy="-72" rx="38.4712" ry="18" style="fill: black; stroke: none; fill-opacity:0.3" transform="translate(3,3)"/><ellipse fill="none" stroke="black" cx="522.983" cy="-72" rx="38.4712" ry="18" style="fill:url(#none);stroke:black;"/><text text-anchor="middle" x="522.983" y="-69.2" font-family="Times,serif" font-size="11.00" style="font-size:10px; font-family:Verdana">FAILURE</text></g><g id="edge4" class="edge"><polygon fill="black" stroke="black" points="485.475,-90.5816 493.427,-83.5801 482.845,-84.0947 485.475,-90.5816" style="fill: black; stroke: none; fill-opacity:0.3" transform="translate(3,3)"/><path fill="none" stroke="black" d="M419.882,-113.404C439.297,-105.531 463.8,-95.5948 483.935,-87.4294" style="fill: none; stroke: black; stroke-opacity:0.3" transform="translate(3,3)"/><polygon fill="black" stroke="black" points="485.475,-90.5816 493.427,-83.5801 482.845,-84.0947 485.475,-90.5816" style="fill:url(#black);stroke:black;"/><path fill="none" stroke="black" d="M419.882,-113.404C439.297,-105.531 463.8,-95.5948 483.935,-87.4294"/></g><g id="node6" class="node"><ellipse fill="none" stroke="black" cx="111.908" cy="-73" rx="48.9176" ry="18" style="fill: black; stroke: none; fill-opacity:0.3" transform="translate(3,3)"/><ellipse fill="none" stroke="black" cx="111.908" cy="-73" rx="48.9176" ry="18" style="fill:url(#none);stroke:black;"/><text text-anchor="middle" x="111.908" y="-70.2" font-family="Times,serif" font-size="11.00" fill="blue" style="font-size:10px; font-family:Verdana">UNDEFINED</text></g><g id="node7" class="node"><ellipse fill="none" stroke="black" cx="246.528" cy="-73" rx="45.2009" ry="18" style="fill: black; stroke: none; fill-opacity:0.3" transform="translate(3,3)"/><ellipse fill="none" stroke="black" cx="246.528" cy="-73" rx="45.2009" ry="18" style="fill:url(#none);stroke:black;"/><text text-anchor="middle" x="246.528" y="-70.2" font-family="Times,serif" font-size="11.00" style="font-size:10px; font-family:Verdana">RESUMING</text></g><g id="edge5" class="edge"><polygon fill="black" stroke="black" points="191.252,-76.5001 201.252,-73 191.252,-69.5001 191.252,-76.5001" style="fill: black; stroke: none; fill-opacity:0.3" transform="translate(3,3)"/><path fill="none" stroke="black" d="M160.787,-73C170.589,-73 180.974,-73 190.989,-73" style="fill: none; stroke: black; stroke-opacity:0.3" transform="translate(3,3)"/><polygon fill="black" stroke="black" points="191.252,-76.5001 201.252,-73 191.252,-69.5001 191.252,-76.5001" style="fill:url(#black);stroke:black;"/><path fill="none" stroke="black" d="M160.787,-73C170.589,-73 180.974,-73 190.989,-73"/></g><g id="node9" class="node"><ellipse fill="none" stroke="black" cx="385.357" cy="-73" rx="52.8356" ry="18" style="fill: black; stroke: none; fill-opacity:0.3" transform="translate(3,3)"/><ellipse fill="none" stroke="black" cx="385.357" cy="-73" rx="52.8356" ry="18" style="fill:url(#none);stroke:black;"/><text text-anchor="middle" x="385.357" y="-70.2" font-family="Times,serif" font-size="11.00" style="font-size:10px; font-family:Verdana">SCHEDULING</text></g><g id="edge9" class="edge"><polygon fill="black" stroke="black" points="322.057,-76.5001 332.057,-73 322.057,-69.5001 322.057,-76.5001" style="fill: black; stroke: none; fill-opacity:0.3" transform="translate(3,3)"/><path fill="none" stroke="black" d="M291.952,-73C301.55,-73 311.87,-73 322.01,-73" style="fill: none; stroke: black; stroke-opacity:0.3" transform="translate(3,3)"/><polygon fill="black" stroke="black" points="322.057,-76.5001 332.057,-73 322.057,-69.5001 322.057,-76.5001" style="fill:url(#black);stroke:black;"/><path fill="none" stroke="black" d="M291.952,-73C301.55,-73 311.87,-73 322.01,-73"/></g><g id="node8" class="node"><ellipse fill="none" stroke="black" cx="246.528" cy="-18" rx="49.8222" ry="18" style="fill: black; stroke: none; fill-opacity:0.3" transform="translate(3,3)"/><ellipse fill="none" stroke="black" cx="246.528" cy="-18" rx="49.8222" ry="18" style="fill:url(#none);stroke:black;"/><text text-anchor="middle" x="246.528" y="-15.2" font-family="Times,serif" font-size="11.00" style="font-size:10px; font-family:Verdana">ANALYZING</text></g><g id="edge6" class="edge"><polygon fill="black" stroke="black" points="341.324,-111.094 351.702,-113.225 344.918,-105.087 341.324,-111.094" style="fill: black; stroke: none; fill-opacity:0.3" transform="translate(3,3)"/><path fill="none" stroke="black" d="M277.495,-32.2297C284.143,-36.1558 290.862,-40.7902 296.439,-46 317.517,-65.6902 310.967,-80.7392 332.439,-100 335.629,-102.862 339.178,-105.514 342.881,-107.947" style="fill: none; stroke: black; stroke-opacity:0.3" transform="translate(3,3)"/><polygon fill="black" stroke="black" points="341.324,-111.094 351.702,-113.225 344.918,-105.087 341.324,-111.094" style="fill:url(#black);stroke:black;"/><path fill="none" stroke="black" d="M277.495,-32.2297C284.143,-36.1558 290.862,-40.7902 296.439,-46 317.517,-65.6902 310.967,-80.7392 332.439,-100 335.629,-102.862 339.178,-105.514 342.881,-107.947"/></g><g id="edge7" class="edge"><polygon fill="black" stroke="black" points="340.005,-58.9444 350.589,-59.4266 342.615,-52.4494 340.005,-58.9444" style="fill: black; stroke: none; fill-opacity:0.3" transform="translate(3,3)"/><path fill="none" stroke="black" d="M280.65,-31.314C298.866,-38.636 321.678,-47.8057 341.266,-55.6793" style="fill: none; stroke: black; stroke-opacity:0.3" transform="translate(3,3)"/><polygon fill="black" stroke="black" points="340.005,-58.9444 350.589,-59.4266 342.615,-52.4494 340.005,-58.9444" style="fill:url(#black);stroke:black;"/><path fill="none" stroke="black" d="M280.65,-31.314C298.866,-38.636 321.678,-47.8057 341.266,-55.6793"/></g><g id="node10" class="node"><ellipse fill="none" stroke="black" cx="522.983" cy="-18" rx="39.8775" ry="18" style="fill: black; stroke: none; fill-opacity:0.3" transform="translate(3,3)"/><ellipse fill="none" stroke="black" cx="522.983" cy="-18" rx="39.8775" ry="18" style="fill:url(#none);stroke:black;"/><text text-anchor="middle" x="522.983" y="-15.2" font-family="Times,serif" font-size="11.00" style="font-size:10px; font-family:Verdana">WAITING</text></g><g id="edge8" class="edge"><polygon fill="black" stroke="black" points="474.42,-16.2455 484.565,-13.1915 474.73,-9.25231 474.42,-16.2455" style="fill: black; stroke: none; fill-opacity:0.3" transform="translate(3,3)"/><path fill="none" stroke="black" d="M294.396,-12.7705C344.671,-10.7506 424.074,-10.7432 474.561,-12.7484" style="fill: none; stroke: black; stroke-opacity:0.3" transform="translate(3,3)"/><polygon fill="black" stroke="black" points="474.42,-16.2455 484.565,-13.1915 474.73,-9.25231 474.42,-16.2455" style="fill:url(#black);stroke:black;"/><path fill="none" stroke="black" d="M294.396,-12.7705C344.671,-10.7506 424.074,-10.7432 474.561,-12.7484"/></g><g id="edge10" class="edge"><polygon fill="black" stroke="black" points="484.725,-36.886 492.676,-29.8844 482.094,-30.3991 484.725,-36.886" style="fill: black; stroke: none; fill-opacity:0.3" transform="translate(3,3)"/><path fill="none" stroke="black" d="M420.231,-59.2631C439.38,-51.4976 463.394,-41.7593 483.283,-33.6936" style="fill: none; stroke: black; stroke-opacity:0.3" transform="translate(3,3)"/><polygon fill="black" stroke="black" points="484.725,-36.886 492.676,-29.8844 482.094,-30.3991 484.725,-36.886" style="fill:url(#black);stroke:black;"/><path fill="none" stroke="black" d="M420.231,-59.2631C439.38,-51.4976 463.394,-41.7593 483.283,-33.6936"/></g><g id="edge11" class="edge"><polygon fill="black" stroke="black" points="304.517,-20.0945 294.396,-23.2295 304.263,-27.0899 304.517,-20.0945" style="fill: black; stroke: none; fill-opacity:0.3" transform="translate(3,3)"/><path fill="none" stroke="black" d="M484.565,-22.8085C438.144,-25.1005 358.534,-25.3632 304.508,-23.5964" style="fill: none; stroke: black; stroke-opacity:0.3" transform="translate(3,3)"/><polygon fill="black" stroke="black" points="304.517,-20.0945 294.396,-23.2295 304.263,-27.0899 304.517,-20.0945" style="fill:url(#black);stroke:black;"/><path fill="none" stroke="black" d="M484.565,-22.8085C438.144,-25.1005 358.534,-25.3632 304.508,-23.5964"/></g><g id="node11" class="node"><ellipse fill="black" stroke="black" cx="23.6" cy="-73" rx="3.6" ry="3.6" style="fill: black; stroke: none; fill-opacity:0.3" transform="translate(3,3)"/><ellipse fill="black" stroke="black" cx="23.6" cy="-73" rx="3.6" ry="3.6" style="fill:url(#black);stroke:black;"/><text text-anchor="middle" x="10" y="-60.6" font-family="Times,serif" font-size="11.00" fill="green" style="font-size:10px; font-family:Verdana">start</text></g><g id="edge12" class="edge"><polygon fill="black" stroke="black" points="53.1317,-76.5001 63.1316,-73 53.1316,-69.5001 53.1317,-76.5001" style="fill: black; stroke: none; fill-opacity:0.3" transform="translate(3,3)"/><path fill="none" stroke="black" stroke-dasharray="1,5" d="M27.4716,-73C32.0867,-73 41.781,-73 52.9858,-73" style="fill: none; stroke: black; stroke-opacity:0.3" transform="translate(3,3)"/><polygon fill="black" stroke="black" points="53.1317,-76.5001 63.1316,-73 53.1316,-69.5001 53.1317,-76.5001" style="fill:url(#black);stroke:black;"/><path fill="none" stroke="black" stroke-dasharray="1,5" d="M27.4716,-73C32.0867,-73 41.781,-73 52.9858,-73"/></g></g>
</svg>
