<?xml version="1.0"?>
<!DOCTYPE svg PUBLIC "-//W3C//DTD SVG 1.0//EN" "http://www.w3.org/TR/2001/REC-SVG-20010904/DTD/svg10.dtd">
<!-- Generated by graphviz version 2.36.0 (20140111.2315)
 -->
<!-- Title: Engines states Pages: 1 -->
<svg xmlns="http://www.w3.org/2000/svg" xmlns:svg="http://www.w3.org/2000/svg" width="772pt" height="370pt" viewBox="0.00 0.00 771.60 370.00" preserveAspectRatio="xMidYMid meet" zoomAndPan="magnify" version="1.1" contentScriptType="application/ecmascript" contentStyleType="text/css"><defs><linearGradient id="white" x1="0%" y1="0%" x2="0%" y2="0%"><stop offset="0%" style="stop-color:rgb(255,255,255);stop-opacity:1"/></linearGradient><linearGradient id="black" x1="0%" y1="0%" x2="0%" y2="0%"><stop offset="0%" style="stop-color:rgb(0,0,0);stop-opacity:1"/></linearGradient><linearGradient id="aquamarine" x1="0%" y1="0%" x2="100%" y2="100%"><stop offset="0%" style="stop-color:rgb(255,255,255);stop-opacity:1"/><stop offset="100%" style="stop-color:rgb(127,255,212);stop-opacity:1"/></linearGradient><linearGradient id="azure" x1="0%" y1="0%" x2="100%" y2="100%"><stop offset="0%" style="stop-color:rgb(255,255,255);stop-opacity:1"/><stop offset="100%" style="stop-color:rgb(240,255,255);stop-opacity:1"/></linearGradient><linearGradient id="blue" x1="0%" y1="0%" x2="100%" y2="100%"><stop offset="0%" style="stop-color:rgb(255,255,255);stop-opacity:1"/><stop offset="100%" style="stop-color:rgb(0,0,255);stop-opacity:1"/></linearGradient><linearGradient id="blueviolet" x1="0%" y1="0%" x2="100%" y2="100%"><stop offset="0%" style="stop-color:rgb(255,255,255);stop-opacity:1"/><stop offset="100%" style="stop-color:rgb(138,43,226);stop-opacity:1"/></linearGradient><linearGradient id="brown" x1="0%" y1="0%" x2="100%" y2="100%"><stop offset="0%" style="stop-color:rgb(255,255,255);stop-opacity:1"/><stop offset="100%" style="stop-color:rgb(165,42,42);stop-opacity:1"/></linearGradient><linearGradient id="cadetblue" x1="0%" y1="0%" x2="100%" y2="100%"><stop offset="0%" style="stop-color:rgb(255,255,255);stop-opacity:1"/><stop offset="100%" style="stop-color:rgb(95,158,160);stop-opacity:1"/></linearGradient><linearGradient id="chocolate" x1="0%" y1="0%" x2="100%" y2="100%"><stop offset="0%" style="stop-color:rgb(255,255,255);stop-opacity:1"/><stop offset="100%" style="stop-color:rgb(210,105,30);stop-opacity:1"/></linearGradient><linearGradient id="cornflowerblue" x1="0%" y1="0%" x2="100%" y2="100%"><stop offset="0%" style="stop-color:rgb(255,255,255);stop-opacity:1"/><stop offset="100%" style="stop-color:rgb(100,149,237);stop-opacity:1"/></linearGradient><linearGradient id="crimson" x1="0%" y1="0%" x2="100%" y2="100%"><stop offset="0%" style="stop-color:rgb(255,255,255);stop-opacity:1"/><stop offset="100%" style="stop-color:rgb(220,20,60);stop-opacity:1"/></linearGradient><linearGradient id="cyan" x1="0%" y1="0%" x2="100%" y2="100%"><stop offset="0%" style="stop-color:rgb(255,255,255);stop-opacity:1"/><stop offset="100%" style="stop-color:rgb(0,255,255);stop-opacity:1"/></linearGradient><linearGradient id="darkgreen" x1="0%" y1="0%" x2="100%" y2="100%"><stop offset="0%" style="stop-color:rgb(255,255,255);stop-opacity:1"/><stop offset="100%" style="stop-color:rgb(0,100,0);stop-opacity:1"/></linearGradient><linearGradient id="darkorange" x1="0%" y1="0%" x2="100%" y2="100%"><stop offset="0%" style="stop-color:rgb(255,255,255);stop-opacity:1"/><stop offset="100%" style="stop-color:rgb(255,140,0);stop-opacity:1"/></linearGradient><linearGradient id="gold" x1="0%" y1="0%" x2="100%" y2="100%"><stop offset="0%" style="stop-color:rgb(255,255,255);stop-opacity:1"/><stop offset="100%" style="stop-color:rgb(255,215,0);stop-opacity:1"/></linearGradient><linearGradient id="gray" x1="0%" y1="0%" x2="100%" y2="100%"><stop offset="0%" style="stop-color:rgb(255,255,255);stop-opacity:1"/><stop offset="100%" style="stop-color:rgb(192,192,192);stop-opacity:1"/></linearGradient><linearGradient id="greenyellow" x1="0%" y1="0%" x2="100%" y2="100%"><stop offset="0%" style="stop-color:rgb(255,255,255);stop-opacity:1"/><stop offset="100%" style="stop-color:rgb(173,255,47);stop-opacity:1"/></linearGradient><linearGradient id="green" x1="0%" y1="0%" x2="100%" y2="100%"><stop offset="0%" style="stop-color:rgb(255,255,255);stop-opacity:1"/><stop offset="100%" style="stop-color:rgb(0,255,0);stop-opacity:1"/></linearGradient><linearGradient id="grey" x1="0%" y1="0%" x2="100%" y2="100%"><stop offset="0%" style="stop-color:rgb(255,255,255);stop-opacity:1"/><stop offset="100%" style="stop-color:rgb(192,192,192);stop-opacity:1"/></linearGradient><linearGradient id="hotpink" x1="0%" y1="0%" x2="100%" y2="100%"><stop offset="0%" style="stop-color:rgb(255,255,255);stop-opacity:1"/><stop offset="100%" style="stop-color:rgb(255,105,180);stop-opacity:1"/></linearGradient><linearGradient id="indianred" x1="0%" y1="0%" x2="100%" y2="100%"><stop offset="0%" style="stop-color:rgb(255,255,255);stop-opacity:1"/><stop offset="100%" style="stop-color:rgb(205,92,92);stop-opacity:1"/></linearGradient><linearGradient id="indigo" x1="0%" y1="0%" x2="100%" y2="100%"><stop offset="0%" style="stop-color:rgb(255,255,255);stop-opacity:1"/><stop offset="100%" style="stop-color:rgb(75,0,130);stop-opacity:1"/></linearGradient><linearGradient id="lavender" x1="0%" y1="0%" x2="100%" y2="100%"><stop offset="0%" style="stop-color:rgb(255,255,255);stop-opacity:1"/><stop offset="100%" style="stop-color:rgb(230,230,250);stop-opacity:1"/></linearGradient><linearGradient id="lightblue" x1="0%" y1="0%" x2="100%" y2="100%"><stop offset="0%" style="stop-color:rgb(255,255,255);stop-opacity:1"/><stop offset="100%" style="stop-color:rgb(173,216,230);stop-opacity:1"/></linearGradient><linearGradient id="lightgray" x1="0%" y1="0%" x2="100%" y2="100%"><stop offset="0%" style="stop-color:rgb(255,255,255);stop-opacity:1"/><stop offset="100%" style="stop-color:rgb(211,211,211);stop-opacity:1"/></linearGradient><linearGradient id="lightgrey" x1="0%" y1="0%" x2="100%" y2="100%"><stop offset="0%" style="stop-color:rgb(255,255,255);stop-opacity:1"/><stop offset="100%" style="stop-color:rgb(211,211,211);stop-opacity:1"/></linearGradient><linearGradient id="magenta" x1="0%" y1="0%" x2="100%" y2="100%"><stop offset="0%" style="stop-color:rgb(255,255,255);stop-opacity:1"/><stop offset="100%" style="stop-color:rgb(255,0,255);stop-opacity:1"/></linearGradient><linearGradient id="maroon" x1="0%" y1="0%" x2="100%" y2="100%"><stop offset="0%" style="stop-color:rgb(255,255,255);stop-opacity:1"/><stop offset="100%" style="stop-color:rgb(176,48,96);stop-opacity:1"/></linearGradient><linearGradient id="mediumblue" x1="0%" y1="0%" x2="100%" y2="100%"><stop offset="0%" style="stop-color:rgb(255,255,255);stop-opacity:1"/><stop offset="100%" style="stop-color:rgb(0,0,205);stop-opacity:1"/></linearGradient><linearGradient id="mediumpurple" x1="0%" y1="0%" x2="100%" y2="100%"><stop offset="0%" style="stop-color:rgb(255,255,255);stop-opacity:1"/><stop offset="100%" style="stop-color:rgb(147,112,219);stop-opacity:1"/></linearGradient><linearGradient id="orange" x1="0%" y1="0%" x2="100%" y2="100%"><stop offset="0%" style="stop-color:rgb(255,255,255);stop-opacity:1"/><stop offset="100%" style="stop-color:rgb(255,165,0);stop-opacity:1"/></linearGradient><linearGradient id="pink" x1="0%" y1="0%" x2="100%" y2="100%"><stop offset="0%" style="stop-color:rgb(255,255,255);stop-opacity:1"/><stop offset="100%" style="stop-color:rgb(255,192,203);stop-opacity:1"/></linearGradient><linearGradient id="purple" x1="0%" y1="0%" x2="100%" y2="100%"><stop offset="0%" style="stop-color:rgb(255,255,255);stop-opacity:1"/><stop offset="100%" style="stop-color:rgb(160,32,240);stop-opacity:1"/></linearGradient><linearGradient id="red" x1="0%" y1="0%" x2="100%" y2="100%"><stop offset="0%" style="stop-color:rgb(255,255,255);stop-opacity:1"/><stop offset="100%" style="stop-color:rgb(255,0,0);stop-opacity:1"/></linearGradient><linearGradient id="steelblue" x1="0%" y1="0%" x2="100%" y2="100%"><stop offset="0%" style="stop-color:rgb(255,255,255);stop-opacity:1"/><stop offset="100%" style="stop-color:rgb(70,130,180);stop-opacity:1"/></linearGradient><linearGradient id="violet" x1="0%" y1="0%" x2="100%" y2="100%"><stop offset="0%" style="stop-color:rgb(255,255,255);stop-opacity:1"/><stop offset="100%" style="stop-color:rgb(238,130,238);stop-opacity:1"/></linearGradient><linearGradient id="yellow" x1="0%" y1="0%" x2="100%" y2="100%"><stop offset="0%" style="stop-color:rgb(255,255,255);stop-opacity:1"/><stop offset="100%" style="stop-color:rgb(255,255,0);stop-opacity:1"/></linearGradient><linearGradient id="none" x1="0%" y1="0%" x2="100%" y2="100%"><stop offset="0%" style="stop-color:rgb(255,255,255);stop-opacity:1"/><stop offset="100%" style="stop-color:rgb(255,255,255);stop-opacity:1"/></linearGradient></defs>
<g id="graph0" class="graph" transform="scale(1 1) rotate(0) translate(4 366)"><polygon fill="white" stroke="none" points="-4,4 -4,-366 767.6,-366 767.6,4 -4,4"/><title>Engines states</title><g id="node1" class="node"><ellipse fill="none" stroke="black" cx="500.6" cy="-236" rx="49.8222" ry="18" style="fill: black; stroke: none; fill-opacity:0.3" transform="translate(3,3)"/><ellipse fill="none" stroke="black" cx="500.6" cy="-236" rx="49.8222" ry="18" style="fill: url(#none);stroke: black;"/><text text-anchor="middle" x="500.6" y="-233.2" font-family="Times,serif" font-size="11.00" fill="blue" style="font-size:10px; font-family:sans-serif;">GAME_OVER</text></g><g id="node2" class="node"><ellipse fill="none" stroke="black" cx="715.6" cy="-344" rx="42.8909" ry="18" style="fill: black; stroke: none; fill-opacity:0.3" transform="translate(3,3)"/><ellipse fill="none" stroke="black" cx="715.6" cy="-344" rx="42.8909" ry="18" style="fill: url(#none);stroke: black;"/><text text-anchor="middle" x="715.6" y="-341.2" font-family="Times,serif" font-size="11.00" fill="darkorange" style="font-size:10px; font-family:sans-serif;">REVERTED</text></g><g id="edge1" class="edge"><polygon fill="black" stroke="black" points="667.892,-335.395 678.471,-334.821 669.843,-328.673 667.892,-335.395" style="fill: black; stroke: none; fill-opacity:0.3" transform="translate(3,3)"/><path fill="none" stroke="black" d="M518.781,-252.824C532.246,-265.273 551.937,-281.924 571.6,-293 602.209,-310.242 639.709,-323.355 668.626,-331.964" style="fill: none; stroke: black; stroke-opacity:0.3" transform="translate(3,3)"/><polygon fill="black" stroke="black" points="667.892,-335.395 678.471,-334.821 669.843,-328.673 667.892,-335.395" style="fill: url(#black);stroke: black;"/><path fill="none" stroke="black" d="M518.781,-252.824C532.246,-265.273 551.937,-281.924 571.6,-293 602.209,-310.242 639.709,-323.355 668.626,-331.964"/><text text-anchor="middle" x="610.6" y="-328.8" font-family="Times,serif" font-size="14.00" fill="darkorange" style="font-size:10px; font-family:sans-serif;">on reverted</text></g><g id="node3" class="node"><ellipse fill="none" stroke="black" cx="715.6" cy="-290" rx="38.4712" ry="18" style="fill: black; stroke: none; fill-opacity:0.3" transform="translate(3,3)"/><ellipse fill="none" stroke="black" cx="715.6" cy="-290" rx="38.4712" ry="18" style="fill: url(#none);stroke: black;"/><text text-anchor="middle" x="715.6" y="-287.2" font-family="Times,serif" font-size="11.00" fill="green" style="font-size:10px; font-family:sans-serif;">SUCCESS</text></g><g id="edge2" class="edge"><polygon fill="black" stroke="black" points="670.484,-283.103 681.024,-282.033 672.117,-276.296 670.484,-283.103" style="fill: black; stroke: none; fill-opacity:0.3" transform="translate(3,3)"/><path fill="none" stroke="black" d="M540.798,-246.825C550.827,-249.543 561.602,-252.42 571.6,-255 604.883,-263.589 642.661,-272.812 671.026,-279.634" style="fill: none; stroke: black; stroke-opacity:0.3" transform="translate(3,3)"/><polygon fill="black" stroke="black" points="670.484,-283.103 681.024,-282.033 672.117,-276.296 670.484,-283.103" style="fill: url(#black);stroke: black;"/><path fill="none" stroke="black" d="M540.798,-246.825C550.827,-249.543 561.602,-252.42 571.6,-255 604.883,-263.589 642.661,-272.812 671.026,-279.634"/><text text-anchor="middle" x="610.6" y="-277.8" font-family="Times,serif" font-size="14.00" fill="green" style="font-size:10px; font-family:sans-serif;">on success</text></g><g id="node4" class="node"><ellipse fill="none" stroke="black" cx="715.6" cy="-236" rx="48.2143" ry="18" style="fill: black; stroke: none; fill-opacity:0.3" transform="translate(3,3)"/><ellipse fill="none" stroke="black" cx="715.6" cy="-236" rx="48.2143" ry="18" style="fill: url(#none);stroke: black;"/><text text-anchor="middle" x="715.6" y="-233.2" font-family="Times,serif" font-size="11.00" style="font-size:10px; font-family:sans-serif;">SUSPENDED</text></g><g id="edge3" class="edge"><polygon fill="black" stroke="black" points="657.178,-239.5 667.178,-236 657.178,-232.5 657.178,-239.5" style="fill: black; stroke: none; fill-opacity:0.3" transform="translate(3,3)"/><path fill="none" stroke="black" d="M550.734,-236C582.466,-236 623.883,-236 657.139,-236" style="fill: none; stroke: black; stroke-opacity:0.3" transform="translate(3,3)"/><polygon fill="black" stroke="black" points="657.178,-239.5 667.178,-236 657.178,-232.5 657.178,-239.5" style="fill: url(#black);stroke: black;"/><path fill="none" stroke="black" d="M550.734,-236C582.466,-236 623.883,-236 657.139,-236"/><text text-anchor="middle" x="610.6" y="-239.8" font-family="Times,serif" font-size="14.00" style="font-size:10px; font-family:sans-serif;">on suspended</text></g><g id="node5" class="node"><ellipse fill="none" stroke="black" cx="715.6" cy="-182" rx="37.0671" ry="18" style="fill: black; stroke: none; fill-opacity:0.3" transform="translate(3,3)"/><ellipse fill="none" stroke="black" cx="715.6" cy="-182" rx="37.0671" ry="18" style="fill: url(#none);stroke: black;"/><text text-anchor="middle" x="715.6" y="-179.2" font-family="Times,serif" font-size="11.00" fill="red" style="font-size:10px; font-family:sans-serif;">FAILURE</text></g><g id="edge4" class="edge"><polygon fill="black" stroke="black" points="672.977,-195.497 681.885,-189.761 671.344,-188.69 672.977,-195.497" style="fill: black; stroke: none; fill-opacity:0.3" transform="translate(3,3)"/><path fill="none" stroke="black" d="M540.798,-225.175C550.827,-222.457 561.602,-219.58 571.6,-217 605.213,-208.326 643.412,-199.004 671.868,-192.163" style="fill: none; stroke: black; stroke-opacity:0.3" transform="translate(3,3)"/><polygon fill="black" stroke="black" points="672.977,-195.497 681.885,-189.761 671.344,-188.69 672.977,-195.497" style="fill: url(#black);stroke: black;"/><path fill="none" stroke="black" d="M540.798,-225.175C550.827,-222.457 561.602,-219.58 571.6,-217 605.213,-208.326 643.412,-199.004 671.868,-192.163"/><text text-anchor="middle" x="610.6" y="-220.8" font-family="Times,serif" font-size="14.00" fill="red" style="font-size:10px; font-family:sans-serif;">on failed</text></g><g id="node6" class="node"><ellipse fill="none" stroke="black" cx="113.6" cy="-18" rx="48.2143" ry="18" style="fill: black; stroke: none; fill-opacity:0.3" transform="translate(3,3)"/><ellipse fill="none" stroke="black" cx="113.6" cy="-18" rx="48.2143" ry="18" style="fill: url(#none);stroke: black;"/><text text-anchor="middle" x="113.6" y="-15.2" font-family="Times,serif" font-size="11.00" fill="blue" style="font-size:10px; font-family:sans-serif;">UNDEFINED</text></g><g id="node7" class="node"><ellipse fill="none" stroke="black" cx="290.6" cy="-18" rx="44.498" ry="18" style="fill: black; stroke: none; fill-opacity:0.3" transform="translate(3,3)"/><ellipse fill="none" stroke="black" cx="290.6" cy="-18" rx="44.498" ry="18" style="fill: url(#none);stroke: black;"/><text text-anchor="middle" x="290.6" y="-15.2" font-family="Times,serif" font-size="11.00" style="font-size:10px; font-family:sans-serif;">RESUMING</text></g><g id="edge5" class="edge"><polygon fill="black" stroke="black" points="235.809,-21.5001 245.809,-18 235.809,-14.5001 235.809,-21.5001" style="fill: black; stroke: none; fill-opacity:0.3" transform="translate(3,3)"/><path fill="none" stroke="black" d="M161.958,-18C184.707,-18 212.078,-18 235.631,-18" style="fill: none; stroke: black; stroke-opacity:0.3" transform="translate(3,3)"/><polygon fill="black" stroke="black" points="235.809,-21.5001 245.809,-18 235.809,-14.5001 235.809,-21.5001" style="fill: url(#black);stroke: black;"/><path fill="none" stroke="black" d="M161.958,-18C184.707,-18 212.078,-18 235.631,-18"/><text text-anchor="middle" x="200.6" y="-21.8" font-family="Times,serif" font-size="14.00" style="font-size:10px; font-family:sans-serif;">on start</text></g><g id="node9" class="node"><ellipse fill="none" stroke="black" cx="500.6" cy="-99" rx="52.8356" ry="18" style="fill: black; stroke: none; fill-opacity:0.3" transform="translate(3,3)"/><ellipse fill="none" stroke="black" cx="500.6" cy="-99" rx="52.8356" ry="18" style="fill: url(#none);stroke: black;"/><text text-anchor="middle" x="500.6" y="-96.2" font-family="Times,serif" font-size="11.00" style="font-size:10px; font-family:sans-serif;">SCHEDULING</text></g><g id="edge9" class="edge"><polygon fill="black" stroke="black" points="454.343,-85.132 464.932,-85.4994 456.884,-78.6091 454.343,-85.132" style="fill: black; stroke: none; fill-opacity:0.3" transform="translate(3,3)"/><path fill="none" stroke="black" d="M323.191,-30.3022C358.468,-44.0398 415.81,-66.3703 455.497,-81.8254" style="fill: none; stroke: black; stroke-opacity:0.3" transform="translate(3,3)"/><polygon fill="black" stroke="black" points="454.343,-85.132 464.932,-85.4994 456.884,-78.6091 454.343,-85.132" style="fill: url(#black);stroke: black;"/><path fill="none" stroke="black" d="M323.191,-30.3022C358.468,-44.0398 415.81,-66.3703 455.497,-81.8254"/><text text-anchor="middle" x="394.6" y="-73.8" font-family="Times,serif" font-size="14.00" style="font-size:10px; font-family:sans-serif;">on schedule</text></g><g id="node8" class="node"><ellipse fill="none" stroke="black" cx="290.6" cy="-169" rx="50.5248" ry="18" style="fill: black; stroke: none; fill-opacity:0.3" transform="translate(3,3)"/><ellipse fill="none" stroke="black" cx="290.6" cy="-169" rx="50.5248" ry="18" style="fill: url(#none);stroke: black;"/><text text-anchor="middle" x="290.6" y="-166.2" font-family="Times,serif" font-size="11.00" style="font-size:10px; font-family:sans-serif;">ANALYZING</text></g><g id="edge6" class="edge"><polygon fill="black" stroke="black" points="443.8,-230.773 454.271,-229.153 445.075,-223.89 443.8,-230.773" style="fill: black; stroke: none; fill-opacity:0.3" transform="translate(3,3)"/><path fill="none" stroke="black" d="M316.999,-184.544C329.467,-191.622 344.932,-199.606 359.6,-205 386.724,-214.975 418.037,-222.278 444.163,-227.281" style="fill: none; stroke: black; stroke-opacity:0.3" transform="translate(3,3)"/><polygon fill="black" stroke="black" points="443.8,-230.773 454.271,-229.153 445.075,-223.89 443.8,-230.773" style="fill: url(#black);stroke: black;"/><path fill="none" stroke="black" d="M316.999,-184.544C329.467,-191.622 344.932,-199.606 359.6,-205 386.724,-214.975 418.037,-222.278 444.163,-227.281"/><text text-anchor="middle" x="394.6" y="-226.8" font-family="Times,serif" font-size="14.00" style="font-size:10px; font-family:sans-serif;">on finished</text></g><g id="edge7" class="edge"><polygon fill="black" stroke="black" points="454.022,-118.032 462.384,-111.525 451.79,-111.397 454.022,-118.032" style="fill: black; stroke: none; fill-opacity:0.3" transform="translate(3,3)"/><path fill="none" stroke="black" d="M327.831,-156.807C362.449,-145.157 414.81,-127.535 452.619,-114.811" style="fill: none; stroke: black; stroke-opacity:0.3" transform="translate(3,3)"/><polygon fill="black" stroke="black" points="454.022,-118.032 462.384,-111.525 451.79,-111.397 454.022,-118.032" style="fill: url(#black);stroke: black;"/><path fill="none" stroke="black" d="M327.831,-156.807C362.449,-145.157 414.81,-127.535 452.619,-114.811"/><text text-anchor="middle" x="394.6" y="-147.8" font-family="Times,serif" font-size="14.00" style="font-size:10px; font-family:sans-serif;">on schedule</text></g><g id="node10" class="node"><ellipse fill="none" stroke="black" cx="715.6" cy="-99" rx="39.8775" ry="18" style="fill: black; stroke: none; fill-opacity:0.3" transform="translate(3,3)"/><ellipse fill="none" stroke="black" cx="715.6" cy="-99" rx="39.8775" ry="18" style="fill: url(#none);stroke: black;"/><text text-anchor="middle" x="715.6" y="-96.2" font-family="Times,serif" font-size="11.00" style="font-size:10px; font-family:sans-serif;">WAITING</text></g><g id="edge8" class="edge"><polygon fill="black" stroke="black" points="674.13,-115.433 682.764,-109.292 672.185,-108.709 674.13,-115.433" style="fill: black; stroke: none; fill-opacity:0.3" transform="translate(3,3)"/><path fill="none" stroke="black" d="M339.47,-164.38C408.497,-157.221 539.762,-141.75 649.6,-118 657.276,-116.34 665.371,-114.253 673.145,-112.075" style="fill: none; stroke: black; stroke-opacity:0.3" transform="translate(3,3)"/><polygon fill="black" stroke="black" points="674.13,-115.433 682.764,-109.292 672.185,-108.709 674.13,-115.433" style="fill: url(#black);stroke: black;"/><path fill="none" stroke="black" d="M339.47,-164.38C408.497,-157.221 539.762,-141.75 649.6,-118 657.276,-116.34 665.371,-114.253 673.145,-112.075"/><text text-anchor="middle" x="500.6" y="-154.8" font-family="Times,serif" font-size="14.00" style="font-size:10px; font-family:sans-serif;">on wait</text></g><g id="edge10" class="edge"><polygon fill="black" stroke="black" points="665.724,-102.5 675.724,-99 665.724,-95.5001 665.724,-102.5" style="fill: black; stroke: none; fill-opacity:0.3" transform="translate(3,3)"/><path fill="none" stroke="black" d="M553.706,-99C587.86,-99 632.216,-99 665.704,-99" style="fill: none; stroke: black; stroke-opacity:0.3" transform="translate(3,3)"/><polygon fill="black" stroke="black" points="665.724,-102.5 675.724,-99 665.724,-95.5001 665.724,-102.5" style="fill: url(#black);stroke: black;"/><path fill="none" stroke="black" d="M553.706,-99C587.86,-99 632.216,-99 665.704,-99"/><text text-anchor="middle" x="610.6" y="-102.8" font-family="Times,serif" font-size="14.00" style="font-size:10px; font-family:sans-serif;">on wait</text></g><g id="edge11" class="edge"><polygon fill="black" stroke="black" points="312.492,-142.355 307.82,-151.865 317.402,-147.344 312.492,-142.355" style="fill: black; stroke: none; fill-opacity:0.3" transform="translate(3,3)"/><path fill="none" stroke="black" d="M687.046,-86.456C637.878,-65.8621 532.246,-29.7607 447.6,-57 394.221,-74.1774 343.647,-117.126 315.231,-144.57" style="fill: none; stroke: black; stroke-opacity:0.3" transform="translate(3,3)"/><polygon fill="black" stroke="black" points="312.492,-142.355 307.82,-151.865 317.402,-147.344 312.492,-142.355" style="fill: url(#black);stroke: black;"/><path fill="none" stroke="black" d="M687.046,-86.456C637.878,-65.8621 532.246,-29.7607 447.6,-57 394.221,-74.1774 343.647,-117.126 315.231,-144.57"/><text text-anchor="middle" x="500.6" y="-60.8" font-family="Times,serif" font-size="14.00" style="font-size:10px; font-family:sans-serif;">on analyze</text></g><g id="node11" class="node"><ellipse fill="black" stroke="black" cx="23.6" cy="-18" rx="3.6" ry="3.6" style="fill: black; stroke: none; fill-opacity:0.3" transform="translate(3,3)"/><ellipse fill="black" stroke="black" cx="23.6" cy="-18" rx="3.6" ry="3.6" style="fill: url(#black);stroke: black;"/><text text-anchor="middle" x="10" y="-5.6" font-family="Times,serif" font-size="11.00" fill="green" style="font-size:10px; font-family:sans-serif;">start</text></g><g id="edge12" class="edge"><polygon fill="black" stroke="black" points="55.2594,-21.5001 65.2594,-18 55.2593,-14.5001 55.2594,-21.5001" style="fill: black; stroke: none; fill-opacity:0.3" transform="translate(3,3)"/><path fill="none" stroke="black" stroke-dasharray="1,5" d="M27.5279,-18C32.4207,-18 42.913,-18 54.9137,-18" style="fill: none; stroke: black; stroke-opacity:0.3" transform="translate(3,3)"/><polygon fill="black" stroke="black" points="55.2594,-21.5001 65.2594,-18 55.2593,-14.5001 55.2594,-21.5001" style="fill: url(#black);stroke: black;"/><path fill="none" stroke="black" stroke-dasharray="1,5" d="M27.5279,-18C32.4207,-18 42.913,-18 54.9137,-18"/></g></g>
</svg>
