<?xml version="1.0"?>
<!DOCTYPE svg PUBLIC "-//W3C//DTD SVG 1.0//EN" "http://www.w3.org/TR/2001/REC-SVG-20010904/DTD/svg10.dtd">
<!-- Generated by graphviz version 2.34.0 (20140110.0949)
 -->
<!-- Title: Flow states Pages: 1 -->
<svg xmlns="http://www.w3.org/2000/svg" xmlns:svg="http://www.w3.org/2000/svg" width="672pt" height="281pt" viewBox="0.00 0.00 671.60 281.30" preserveAspectRatio="xMidYMid meet" zoomAndPan="magnify" version="1.1" contentScriptType="application/ecmascript" contentStyleType="text/css"><defs><linearGradient id="white" x1="0%" y1="0%" x2="0%" y2="0%"><stop offset="0%" style="stop-color:rgb(255,255,255);stop-opacity:1"/></linearGradient><linearGradient id="black" x1="0%" y1="0%" x2="0%" y2="0%"><stop offset="0%" style="stop-color:rgb(0,0,0);stop-opacity:1"/></linearGradient><linearGradient id="aquamarine" x1="0%" y1="0%" x2="100%" y2="100%"><stop offset="0%" style="stop-color:rgb(255,255,255);stop-opacity:1"/><stop offset="100%" style="stop-color:rgb(127,255,212);stop-opacity:1"/></linearGradient><linearGradient id="azure" x1="0%" y1="0%" x2="100%" y2="100%"><stop offset="0%" style="stop-color:rgb(255,255,255);stop-opacity:1"/><stop offset="100%" style="stop-color:rgb(240,255,255);stop-opacity:1"/></linearGradient><linearGradient id="blue" x1="0%" y1="0%" x2="100%" y2="100%"><stop offset="0%" style="stop-color:rgb(255,255,255);stop-opacity:1"/><stop offset="100%" style="stop-color:rgb(0,0,255);stop-opacity:1"/></linearGradient><linearGradient id="blueviolet" x1="0%" y1="0%" x2="100%" y2="100%"><stop offset="0%" style="stop-color:rgb(255,255,255);stop-opacity:1"/><stop offset="100%" style="stop-color:rgb(138,43,226);stop-opacity:1"/></linearGradient><linearGradient id="brown" x1="0%" y1="0%" x2="100%" y2="100%"><stop offset="0%" style="stop-color:rgb(255,255,255);stop-opacity:1"/><stop offset="100%" style="stop-color:rgb(165,42,42);stop-opacity:1"/></linearGradient><linearGradient id="cadetblue" x1="0%" y1="0%" x2="100%" y2="100%"><stop offset="0%" style="stop-color:rgb(255,255,255);stop-opacity:1"/><stop offset="100%" style="stop-color:rgb(95,158,160);stop-opacity:1"/></linearGradient><linearGradient id="chocolate" x1="0%" y1="0%" x2="100%" y2="100%"><stop offset="0%" style="stop-color:rgb(255,255,255);stop-opacity:1"/><stop offset="100%" style="stop-color:rgb(210,105,30);stop-opacity:1"/></linearGradient><linearGradient id="cornflowerblue" x1="0%" y1="0%" x2="100%" y2="100%"><stop offset="0%" style="stop-color:rgb(255,255,255);stop-opacity:1"/><stop offset="100%" style="stop-color:rgb(100,149,237);stop-opacity:1"/></linearGradient><linearGradient id="crimson" x1="0%" y1="0%" x2="100%" y2="100%"><stop offset="0%" style="stop-color:rgb(255,255,255);stop-opacity:1"/><stop offset="100%" style="stop-color:rgb(220,20,60);stop-opacity:1"/></linearGradient><linearGradient id="cyan" x1="0%" y1="0%" x2="100%" y2="100%"><stop offset="0%" style="stop-color:rgb(255,255,255);stop-opacity:1"/><stop offset="100%" style="stop-color:rgb(0,255,255);stop-opacity:1"/></linearGradient><linearGradient id="darkgreen" x1="0%" y1="0%" x2="100%" y2="100%"><stop offset="0%" style="stop-color:rgb(255,255,255);stop-opacity:1"/><stop offset="100%" style="stop-color:rgb(0,100,0);stop-opacity:1"/></linearGradient><linearGradient id="darkorange" x1="0%" y1="0%" x2="100%" y2="100%"><stop offset="0%" style="stop-color:rgb(255,255,255);stop-opacity:1"/><stop offset="100%" style="stop-color:rgb(255,140,0);stop-opacity:1"/></linearGradient><linearGradient id="gold" x1="0%" y1="0%" x2="100%" y2="100%"><stop offset="0%" style="stop-color:rgb(255,255,255);stop-opacity:1"/><stop offset="100%" style="stop-color:rgb(255,215,0);stop-opacity:1"/></linearGradient><linearGradient id="gray" x1="0%" y1="0%" x2="100%" y2="100%"><stop offset="0%" style="stop-color:rgb(255,255,255);stop-opacity:1"/><stop offset="100%" style="stop-color:rgb(192,192,192);stop-opacity:1"/></linearGradient><linearGradient id="greenyellow" x1="0%" y1="0%" x2="100%" y2="100%"><stop offset="0%" style="stop-color:rgb(255,255,255);stop-opacity:1"/><stop offset="100%" style="stop-color:rgb(173,255,47);stop-opacity:1"/></linearGradient><linearGradient id="green" x1="0%" y1="0%" x2="100%" y2="100%"><stop offset="0%" style="stop-color:rgb(255,255,255);stop-opacity:1"/><stop offset="100%" style="stop-color:rgb(0,255,0);stop-opacity:1"/></linearGradient><linearGradient id="grey" x1="0%" y1="0%" x2="100%" y2="100%"><stop offset="0%" style="stop-color:rgb(255,255,255);stop-opacity:1"/><stop offset="100%" style="stop-color:rgb(192,192,192);stop-opacity:1"/></linearGradient><linearGradient id="hotpink" x1="0%" y1="0%" x2="100%" y2="100%"><stop offset="0%" style="stop-color:rgb(255,255,255);stop-opacity:1"/><stop offset="100%" style="stop-color:rgb(255,105,180);stop-opacity:1"/></linearGradient><linearGradient id="indianred" x1="0%" y1="0%" x2="100%" y2="100%"><stop offset="0%" style="stop-color:rgb(255,255,255);stop-opacity:1"/><stop offset="100%" style="stop-color:rgb(205,92,92);stop-opacity:1"/></linearGradient><linearGradient id="indigo" x1="0%" y1="0%" x2="100%" y2="100%"><stop offset="0%" style="stop-color:rgb(255,255,255);stop-opacity:1"/><stop offset="100%" style="stop-color:rgb(75,0,130);stop-opacity:1"/></linearGradient><linearGradient id="lavender" x1="0%" y1="0%" x2="100%" y2="100%"><stop offset="0%" style="stop-color:rgb(255,255,255);stop-opacity:1"/><stop offset="100%" style="stop-color:rgb(230,230,250);stop-opacity:1"/></linearGradient><linearGradient id="lightblue" x1="0%" y1="0%" x2="100%" y2="100%"><stop offset="0%" style="stop-color:rgb(255,255,255);stop-opacity:1"/><stop offset="100%" style="stop-color:rgb(173,216,230);stop-opacity:1"/></linearGradient><linearGradient id="lightgray" x1="0%" y1="0%" x2="100%" y2="100%"><stop offset="0%" style="stop-color:rgb(255,255,255);stop-opacity:1"/><stop offset="100%" style="stop-color:rgb(211,211,211);stop-opacity:1"/></linearGradient><linearGradient id="lightgrey" x1="0%" y1="0%" x2="100%" y2="100%"><stop offset="0%" style="stop-color:rgb(255,255,255);stop-opacity:1"/><stop offset="100%" style="stop-color:rgb(211,211,211);stop-opacity:1"/></linearGradient><linearGradient id="magenta" x1="0%" y1="0%" x2="100%" y2="100%"><stop offset="0%" style="stop-color:rgb(255,255,255);stop-opacity:1"/><stop offset="100%" style="stop-color:rgb(255,0,255);stop-opacity:1"/></linearGradient><linearGradient id="maroon" x1="0%" y1="0%" x2="100%" y2="100%"><stop offset="0%" style="stop-color:rgb(255,255,255);stop-opacity:1"/><stop offset="100%" style="stop-color:rgb(176,48,96);stop-opacity:1"/></linearGradient><linearGradient id="mediumblue" x1="0%" y1="0%" x2="100%" y2="100%"><stop offset="0%" style="stop-color:rgb(255,255,255);stop-opacity:1"/><stop offset="100%" style="stop-color:rgb(0,0,205);stop-opacity:1"/></linearGradient><linearGradient id="mediumpurple" x1="0%" y1="0%" x2="100%" y2="100%"><stop offset="0%" style="stop-color:rgb(255,255,255);stop-opacity:1"/><stop offset="100%" style="stop-color:rgb(147,112,219);stop-opacity:1"/></linearGradient><linearGradient id="orange" x1="0%" y1="0%" x2="100%" y2="100%"><stop offset="0%" style="stop-color:rgb(255,255,255);stop-opacity:1"/><stop offset="100%" style="stop-color:rgb(255,165,0);stop-opacity:1"/></linearGradient><linearGradient id="pink" x1="0%" y1="0%" x2="100%" y2="100%"><stop offset="0%" style="stop-color:rgb(255,255,255);stop-opacity:1"/><stop offset="100%" style="stop-color:rgb(255,192,203);stop-opacity:1"/></linearGradient><linearGradient id="purple" x1="0%" y1="0%" x2="100%" y2="100%"><stop offset="0%" style="stop-color:rgb(255,255,255);stop-opacity:1"/><stop offset="100%" style="stop-color:rgb(160,32,240);stop-opacity:1"/></linearGradient><linearGradient id="red" x1="0%" y1="0%" x2="100%" y2="100%"><stop offset="0%" style="stop-color:rgb(255,255,255);stop-opacity:1"/><stop offset="100%" style="stop-color:rgb(255,0,0);stop-opacity:1"/></linearGradient><linearGradient id="steelblue" x1="0%" y1="0%" x2="100%" y2="100%"><stop offset="0%" style="stop-color:rgb(255,255,255);stop-opacity:1"/><stop offset="100%" style="stop-color:rgb(70,130,180);stop-opacity:1"/></linearGradient><linearGradient id="violet" x1="0%" y1="0%" x2="100%" y2="100%"><stop offset="0%" style="stop-color:rgb(255,255,255);stop-opacity:1"/><stop offset="100%" style="stop-color:rgb(238,130,238);stop-opacity:1"/></linearGradient><linearGradient id="yellow" x1="0%" y1="0%" x2="100%" y2="100%"><stop offset="0%" style="stop-color:rgb(255,255,255);stop-opacity:1"/><stop offset="100%" style="stop-color:rgb(255,255,0);stop-opacity:1"/></linearGradient><linearGradient id="none" x1="0%" y1="0%" x2="100%" y2="100%"><stop offset="0%" style="stop-color:rgb(255,255,255);stop-opacity:1"/><stop offset="100%" style="stop-color:rgb(255,255,255);stop-opacity:1"/></linearGradient></defs>
<g id="graph0" class="graph" transform="scale(1 1) rotate(0) translate(4 277.304)"><polygon fill="white" stroke="white" points="-4,4 -4,-277.304 667.6,-277.304 667.6,4 -4,4"/><title>Flow states</title><g id="node1" class="node"><ellipse fill="none" stroke="black" cx="103.6" cy="-60.3036" rx="39.8775" ry="18" style="fill: black; stroke: none; fill-opacity:0.3" transform="translate(3,3)"/><ellipse fill="none" stroke="black" cx="103.6" cy="-60.3036" rx="39.8775" ry="18" style="fill:url(#none);stroke:black;"/><text text-anchor="middle" x="103.6" y="-57.5036" font-family="Times,serif" font-size="11.00" style="font-size:10px; font-family:Verdana">PENDING</text></g><g id="node2" class="node"><ellipse fill="none" stroke="black" cx="221.6" cy="-152.304" rx="41.4846" ry="18" style="fill: black; stroke: none; fill-opacity:0.3" transform="translate(3,3)"/><ellipse fill="none" stroke="black" cx="221.6" cy="-152.304" rx="41.4846" ry="18" style="fill:url(#none);stroke:black;"/><text text-anchor="middle" x="221.6" y="-149.504" font-family="Times,serif" font-size="11.00" style="font-size:10px; font-family:Verdana">RUNNING</text></g><g id="edge1" class="edge"><polygon fill="black" stroke="black" points="190.816,-133.149 200.826,-136.62 195.166,-127.664 190.816,-133.149" style="fill: black; stroke: none; fill-opacity:0.3" transform="translate(3,3)"/><path fill="none" stroke="black" d="M124.278,-75.9101C143.109,-90.8453 171.696,-113.517 192.839,-130.286" style="fill: none; stroke: black; stroke-opacity:0.3" transform="translate(3,3)"/><polygon fill="black" stroke="black" points="190.816,-133.149 200.826,-136.62 195.166,-127.664 190.816,-133.149" style="fill:url(#black);stroke:black;"/><path fill="none" stroke="black" d="M124.278,-75.9101C143.109,-90.8453 171.696,-113.517 192.839,-130.286"/></g><g id="node3" class="node"><ellipse fill="none" stroke="black" cx="484.6" cy="-200.304" rx="38.4712" ry="18" style="fill: black; stroke: none; fill-opacity:0.3" transform="translate(3,3)"/><ellipse fill="none" stroke="black" cx="484.6" cy="-200.304" rx="38.4712" ry="18" style="fill:url(#none);stroke:black;"/><text text-anchor="middle" x="484.6" y="-197.504" font-family="Times,serif" font-size="11.00" fill="red" style="font-size:10px; font-family:Verdana">FAILURE</text></g><g id="edge4" class="edge"><polygon fill="black" stroke="black" points="442.209,-191.194 452.746,-190.081 443.815,-184.38 442.209,-191.194" style="fill: black; stroke: none; fill-opacity:0.3" transform="translate(3,3)"/><path fill="none" stroke="black" d="M262.809,-154.662C311.669,-161.372 393.651,-176.44 442.784,-187.733" style="fill: none; stroke: black; stroke-opacity:0.3" transform="translate(3,3)"/><polygon fill="black" stroke="black" points="442.209,-191.194 452.746,-190.081 443.815,-184.38 442.209,-191.194" style="fill:url(#black);stroke:black;"/><path fill="none" stroke="black" d="M262.809,-154.662C311.669,-161.372 393.651,-176.44 442.784,-187.733"/></g><g id="node4" class="node"><ellipse fill="none" stroke="black" cx="351.6" cy="-68.3036" rx="51.931" ry="18" style="fill: black; stroke: none; fill-opacity:0.3" transform="translate(3,3)"/><ellipse fill="none" stroke="black" cx="351.6" cy="-68.3036" rx="51.931" ry="18" style="fill:url(#none);stroke:black;"/><text text-anchor="middle" x="351.6" y="-65.5036" font-family="Times,serif" font-size="11.00" style="font-size:10px; font-family:Verdana">SUSPENDING</text></g><g id="edge3" class="edge"><polygon fill="black" stroke="black" points="318.729,-92.2108 325.331,-83.9247 315.003,-86.2849 318.729,-92.2108" style="fill: black; stroke: none; fill-opacity:0.3" transform="translate(3,3)"/><path fill="none" stroke="black" d="M244.707,-137.086C260.027,-126.612 280.945,-112.45 299.6,-100.304 305.061,-96.7478 310.887,-93.026 316.576,-89.4301" style="fill: none; stroke: black; stroke-opacity:0.3" transform="translate(3,3)"/><polygon fill="black" stroke="black" points="318.729,-92.2108 325.331,-83.9247 315.003,-86.2849 318.729,-92.2108" style="fill:url(#black);stroke:black;"/><path fill="none" stroke="black" d="M244.707,-137.086C260.027,-126.612 280.945,-112.45 299.6,-100.304 305.061,-96.7478 310.887,-93.026 316.576,-89.4301"/></g><g id="node5" class="node"><ellipse fill="none" stroke="black" cx="484.6" cy="-54.3036" rx="45.2009" ry="18" style="fill: black; stroke: none; fill-opacity:0.3" transform="translate(3,3)"/><ellipse fill="none" stroke="black" cx="484.6" cy="-54.3036" rx="45.2009" ry="18" style="fill:url(#none);stroke:black;"/><text text-anchor="middle" x="484.6" y="-51.5036" font-family="Times,serif" font-size="11.00" fill="darkorange" style="font-size:10px; font-family:Verdana">REVERTED</text></g><g id="edge5" class="edge"><polygon fill="black" stroke="black" points="450.659,-76.7291 457.821,-68.9211 447.353,-70.5589 450.659,-76.7291" style="fill: black; stroke: none; fill-opacity:0.3" transform="translate(3,3)"/><path fill="none" stroke="black" d="M255.831,-141.916C307.121,-125.873 400.076,-96.7495 403.6,-95.3036 418.734,-89.0945 434.885,-81.097 448.685,-73.8163" style="fill: none; stroke: black; stroke-opacity:0.3" transform="translate(3,3)"/><polygon fill="black" stroke="black" points="450.659,-76.7291 457.821,-68.9211 447.353,-70.5589 450.659,-76.7291" style="fill:url(#black);stroke:black;"/><path fill="none" stroke="black" d="M255.831,-141.916C307.121,-125.873 400.076,-96.7495 403.6,-95.3036 418.734,-89.0945 434.885,-81.097 448.685,-73.8163"/></g><g id="node6" class="node"><ellipse fill="none" stroke="black" cx="484.6" cy="-255.304" rx="39.1741" ry="18" style="fill: black; stroke: none; fill-opacity:0.3" transform="translate(3,3)"/><ellipse fill="none" stroke="black" cx="484.6" cy="-255.304" rx="39.1741" ry="18" style="fill:url(#none);stroke:black;"/><text text-anchor="middle" x="484.6" y="-252.504" font-family="Times,serif" font-size="11.00" fill="green" style="font-size:10px; font-family:Verdana">SUCCESS</text></g><g id="edge6" class="edge"><polygon fill="black" stroke="black" points="445.458,-243.156 456.048,-242.829 447.565,-236.481 445.458,-243.156" style="fill: black; stroke: none; fill-opacity:0.3" transform="translate(3,3)"/><path fill="none" stroke="black" d="M252.793,-164.394C266.643,-172.335 283.529,-182.137 299.6,-189.304 348.666,-211.183 408.607,-228.048 446.454,-239.801" style="fill: none; stroke: black; stroke-opacity:0.3" transform="translate(3,3)"/><polygon fill="black" stroke="black" points="445.458,-243.156 456.048,-242.829 447.565,-236.481 445.458,-243.156" style="fill:url(#black);stroke:black;"/><path fill="none" stroke="black" d="M252.793,-164.394C266.643,-172.335 283.529,-182.137 299.6,-189.304 348.666,-211.183 408.607,-228.048 446.454,-239.801"/></g><g id="node7" class="node"><ellipse fill="none" stroke="black" cx="484.6" cy="-108.304" rx="45.2009" ry="18" style="fill: black; stroke: none; fill-opacity:0.3" transform="translate(3,3)"/><ellipse fill="none" stroke="black" cx="484.6" cy="-108.304" rx="45.2009" ry="18" style="fill:url(#none);stroke:black;"/><text text-anchor="middle" x="484.6" y="-105.504" font-family="Times,serif" font-size="11.00" style="font-size:10px; font-family:Verdana">RESUMING</text></g><g id="edge7" class="edge"><polygon fill="black" stroke="black" points="438.311,-124.177 447.153,-118.339 436.601,-117.39 438.311,-124.177" style="fill: black; stroke: none; fill-opacity:0.3" transform="translate(3,3)"/><path fill="none" stroke="black" d="M262.353,-148.341C299.164,-144.363 355.337,-137.506 403.6,-128.304 414.582,-126.21 426.309,-123.532 437.304,-120.822" style="fill: none; stroke: black; stroke-opacity:0.3" transform="translate(3,3)"/><polygon fill="black" stroke="black" points="438.311,-124.177 447.153,-118.339 436.601,-117.39 438.311,-124.177" style="fill:url(#black);stroke:black;"/><path fill="none" stroke="black" d="M262.353,-148.341C299.164,-144.363 355.337,-137.506 403.6,-128.304 414.582,-126.21 426.309,-123.532 437.304,-120.822"/></g><g id="edge2" class="edge"><polygon fill="black" stroke="black" points="265.662,-161.797 255.128,-162.93 264.069,-168.614 265.662,-161.797" style="fill: black; stroke: none; fill-opacity:0.3" transform="translate(3,3)"/><path fill="none" stroke="black" d="M446.011,-198.301C398.023,-191.851 315.215,-176.697 265.017,-165.241" style="fill: none; stroke: black; stroke-opacity:0.3" transform="translate(3,3)"/><polygon fill="black" stroke="black" points="265.662,-161.797 255.128,-162.93 264.069,-168.614 265.662,-161.797" style="fill:url(#black);stroke:black;"/><path fill="none" stroke="black" d="M446.011,-198.301C398.023,-191.851 315.215,-176.697 265.017,-165.241"/></g><g id="edge8" class="edge"><polygon fill="black" stroke="black" points="451.232,-182.483 461.356,-185.608 455.39,-176.852 451.232,-182.483" style="fill: black; stroke: none; fill-opacity:0.3" transform="translate(3,3)"/><path fill="none" stroke="black" d="M365.694,-85.6292C381.857,-106.448 410.759,-141.873 439.6,-168.304 443.778,-172.132 448.415,-175.924 453.066,-179.486" style="fill: none; stroke: black; stroke-opacity:0.3" transform="translate(3,3)"/><polygon fill="black" stroke="black" points="451.232,-182.483 461.356,-185.608 455.39,-176.852 451.232,-182.483" style="fill:url(#black);stroke:black;"/><path fill="none" stroke="black" d="M365.694,-85.6292C381.857,-106.448 410.759,-141.873 439.6,-168.304 443.778,-172.132 448.415,-175.924 453.066,-179.486"/></g><g id="edge11" class="edge"><polygon fill="black" stroke="black" points="431.242,-63.4191 440.813,-58.8762 430.498,-56.4588 431.242,-63.4191" style="fill: black; stroke: none; fill-opacity:0.3" transform="translate(3,3)"/><path fill="none" stroke="black" d="M401.38,-63.0905C410.99,-62.0635 421.115,-60.9814 430.849,-59.9411" style="fill: none; stroke: black; stroke-opacity:0.3" transform="translate(3,3)"/><polygon fill="black" stroke="black" points="431.242,-63.4191 440.813,-58.8762 430.498,-56.4588 431.242,-63.4191" style="fill:url(#black);stroke:black;"/><path fill="none" stroke="black" d="M401.38,-63.0905C410.99,-62.0635 421.115,-60.9814 430.849,-59.9411"/></g><g id="edge9" class="edge"><polygon fill="black" stroke="black" points="447.54,-239.031 457.742,-241.889 451.549,-233.292 447.54,-239.031" style="fill: black; stroke: none; fill-opacity:0.3" transform="translate(3,3)"/><path fill="none" stroke="black" d="M359.007,-86.3537C370.907,-117.912 398.959,-183.885 439.6,-227.304 442.524,-230.427 445.867,-233.351 449.375,-236.044" style="fill: none; stroke: black; stroke-opacity:0.3" transform="translate(3,3)"/><polygon fill="black" stroke="black" points="447.54,-239.031 457.742,-241.889 451.549,-233.292 447.54,-239.031" style="fill:url(#black);stroke:black;"/><path fill="none" stroke="black" d="M359.007,-86.3537C370.907,-117.912 398.959,-183.885 439.6,-227.304 442.524,-230.427 445.867,-233.351 449.375,-236.044"/></g><g id="edge10" class="edge"><polygon fill="black" stroke="black" points="437.822,-97.9851 448.408,-97.558 439.866,-91.2902 437.822,-97.9851" style="fill: black; stroke: none; fill-opacity:0.3" transform="translate(3,3)"/><path fill="none" stroke="black" d="M391.196,-80.0886C406.054,-84.6255 423.149,-89.8452 438.562,-94.5516" style="fill: none; stroke: black; stroke-opacity:0.3" transform="translate(3,3)"/><polygon fill="black" stroke="black" points="437.822,-97.9851 448.408,-97.558 439.866,-91.2902 437.822,-97.9851" style="fill:url(#black);stroke:black;"/><path fill="none" stroke="black" d="M391.196,-80.0886C406.054,-84.6255 423.149,-89.8452 438.562,-94.5516"/></g><g id="node8" class="node"><ellipse fill="none" stroke="black" cx="614.6" cy="-108.304" rx="48.9176" ry="18" style="fill: black; stroke: none; fill-opacity:0.3" transform="translate(3,3)"/><ellipse fill="none" stroke="black" cx="614.6" cy="-108.304" rx="48.9176" ry="18" style="fill:url(#none);stroke:black;"/><text text-anchor="middle" x="614.6" y="-105.504" font-family="Times,serif" font-size="11.00" style="font-size:10px; font-family:Verdana">SUSPENDED</text></g><g id="edge12" class="edge"><polygon fill="black" stroke="black" points="574.135,-128.619 582.336,-121.911 571.742,-122.041 574.135,-128.619" style="fill: black; stroke: none; fill-opacity:0.3" transform="translate(3,3)"/><path fill="none" stroke="black" d="M368.247,-85.6642C384.294,-102.055 410.905,-125.535 439.6,-135.304 483.643,-150.297 536.815,-137.921 572.696,-125.418" style="fill: none; stroke: black; stroke-opacity:0.3" transform="translate(3,3)"/><polygon fill="black" stroke="black" points="574.135,-128.619 582.336,-121.911 571.742,-122.041 574.135,-128.619" style="fill:url(#black);stroke:black;"/><path fill="none" stroke="black" d="M368.247,-85.6642C384.294,-102.055 410.905,-125.535 439.6,-135.304 483.643,-150.297 536.815,-137.921 572.696,-125.418"/></g><g id="edge16" class="edge"><polygon fill="black" stroke="black" points="150.875,-49.7029 141.454,-54.5494 151.841,-56.636 150.875,-49.7029" style="fill: black; stroke: none; fill-opacity:0.3" transform="translate(3,3)"/><path fill="none" stroke="black" d="M443.876,-46.5532C431.072,-44.4032 416.784,-42.3678 403.6,-41.3036 314.585,-34.1183 210.48,-45.117 151.564,-53.1408" style="fill: none; stroke: black; stroke-opacity:0.3" transform="translate(3,3)"/><polygon fill="black" stroke="black" points="150.875,-49.7029 141.454,-54.5494 151.841,-56.636 150.875,-49.7029" style="fill:url(#black);stroke:black;"/><path fill="none" stroke="black" d="M443.876,-46.5532C431.072,-44.4032 416.784,-42.3678 403.6,-41.3036 314.585,-34.1183 210.48,-45.117 151.564,-53.1408"/></g><g id="edge13" class="edge"><polygon fill="black" stroke="black" points="247.127,-172.516 237.082,-169.149 242.835,-178.046 247.127,-172.516" style="fill: black; stroke: none; fill-opacity:0.3" transform="translate(3,3)"/><path fill="none" stroke="black" d="M445.642,-253.195C407.754,-245.808 348.316,-229.027 299.6,-207.304 280.459,-198.768 260.162,-186.494 245.215,-175.463" style="fill: none; stroke: black; stroke-opacity:0.3" transform="translate(3,3)"/><polygon fill="black" stroke="black" points="247.127,-172.516 237.082,-169.149 242.835,-178.046 247.127,-172.516" style="fill:url(#black);stroke:black;"/><path fill="none" stroke="black" d="M445.642,-253.195C407.754,-245.808 348.316,-229.027 299.6,-207.304 280.459,-198.768 260.162,-186.494 245.215,-175.463"/></g><g id="edge14" class="edge"><polygon fill="black" stroke="black" points="555.778,-111.804 565.778,-108.304 555.778,-104.804 555.778,-111.804" style="fill: black; stroke: none; fill-opacity:0.3" transform="translate(3,3)"/><path fill="none" stroke="black" d="M530.009,-108.304C538.313,-108.304 547.103,-108.304 555.743,-108.304" style="fill: none; stroke: black; stroke-opacity:0.3" transform="translate(3,3)"/><polygon fill="black" stroke="black" points="555.778,-111.804 565.778,-108.304 555.778,-104.804 555.778,-111.804" style="fill:url(#black);stroke:black;"/><path fill="none" stroke="black" d="M530.009,-108.304C538.313,-108.304 547.103,-108.304 555.743,-108.304"/></g><g id="edge15" class="edge"><polygon fill="black" stroke="black" points="230.096,-123.86 229.31,-134.425 236.513,-126.656 230.096,-123.86" style="fill: black; stroke: none; fill-opacity:0.3" transform="translate(3,3)"/><path fill="none" stroke="black" d="M601.835,-90.6856C587.474,-70.945 561.161,-40.0419 529.6,-27.3036 434.632,11.0259 387.858,10.6447 299.6,-41.3036 267.339,-60.2921 245.375,-98.7508 233.408,-125.02" style="fill: none; stroke: black; stroke-opacity:0.3" transform="translate(3,3)"/><polygon fill="black" stroke="black" points="230.096,-123.86 229.31,-134.425 236.513,-126.656 230.096,-123.86" style="fill:url(#black);stroke:black;"/><path fill="none" stroke="black" d="M601.835,-90.6856C587.474,-70.945 561.161,-40.0419 529.6,-27.3036 434.632,11.0259 387.858,10.6447 299.6,-41.3036 267.339,-60.2921 245.375,-98.7508 233.408,-125.02"/></g><g id="node9" class="node"><ellipse fill="black" stroke="black" cx="23.6" cy="-60.3036" rx="3.6" ry="3.6" style="fill: black; stroke: none; fill-opacity:0.3" transform="translate(3,3)"/><ellipse fill="black" stroke="black" cx="23.6" cy="-60.3036" rx="3.6" ry="3.6" style="fill:url(#black);stroke:black;"/><text text-anchor="middle" x="10" y="-47.9036" font-family="Times,serif" font-size="11.00" fill="green" style="font-size:10px; font-family:Verdana">start</text></g><g id="edge17" class="edge"><polygon fill="black" stroke="black" points="53.5965,-63.8037 63.5964,-60.3036 53.5964,-56.8037 53.5965,-63.8037" style="fill: black; stroke: none; fill-opacity:0.3" transform="translate(3,3)"/><path fill="none" stroke="black" stroke-dasharray="1,5" d="M27.5624,-60.3036C32.3405,-60.3036 42.3529,-60.3036 53.5516,-60.3036" style="fill: none; stroke: black; stroke-opacity:0.3" transform="translate(3,3)"/><polygon fill="black" stroke="black" points="53.5965,-63.8037 63.5964,-60.3036 53.5964,-56.8037 53.5965,-63.8037" style="fill:url(#black);stroke:black;"/><path fill="none" stroke="black" stroke-dasharray="1,5" d="M27.5624,-60.3036C32.3405,-60.3036 42.3529,-60.3036 53.5516,-60.3036"/></g></g>
</svg>
