<?xml version="1.0"?>
<!DOCTYPE svg PUBLIC "-//W3C//DTD SVG 1.0//EN" "http://www.w3.org/TR/2001/REC-SVG-20010904/DTD/svg10.dtd">
<!-- Generated by graphviz version 2.38.0 (20140413.2041)
 -->
<!-- Title: Flow states Pages: 1 -->
<svg xmlns="http://www.w3.org/2000/svg" xmlns:svg="http://www.w3.org/2000/svg" width="669pt" height="281pt" viewBox="0.00 0.00 668.61 281.34" preserveAspectRatio="xMidYMid meet" zoomAndPan="magnify" version="1.1" contentScriptType="application/ecmascript" contentStyleType="text/css"><defs><linearGradient id="white" x1="0%" y1="0%" x2="0%" y2="0%"><stop offset="0%" style="stop-color:rgb(255,255,255);stop-opacity:1"/></linearGradient><linearGradient id="black" x1="0%" y1="0%" x2="0%" y2="0%"><stop offset="0%" style="stop-color:rgb(0,0,0);stop-opacity:1"/></linearGradient><linearGradient id="aquamarine" x1="0%" y1="0%" x2="100%" y2="100%"><stop offset="0%" style="stop-color:rgb(255,255,255);stop-opacity:1"/><stop offset="100%" style="stop-color:rgb(127,255,212);stop-opacity:1"/></linearGradient><linearGradient id="azure" x1="0%" y1="0%" x2="100%" y2="100%"><stop offset="0%" style="stop-color:rgb(255,255,255);stop-opacity:1"/><stop offset="100%" style="stop-color:rgb(240,255,255);stop-opacity:1"/></linearGradient><linearGradient id="blue" x1="0%" y1="0%" x2="100%" y2="100%"><stop offset="0%" style="stop-color:rgb(255,255,255);stop-opacity:1"/><stop offset="100%" style="stop-color:rgb(0,0,255);stop-opacity:1"/></linearGradient><linearGradient id="blueviolet" x1="0%" y1="0%" x2="100%" y2="100%"><stop offset="0%" style="stop-color:rgb(255,255,255);stop-opacity:1"/><stop offset="100%" style="stop-color:rgb(138,43,226);stop-opacity:1"/></linearGradient><linearGradient id="brown" x1="0%" y1="0%" x2="100%" y2="100%"><stop offset="0%" style="stop-color:rgb(255,255,255);stop-opacity:1"/><stop offset="100%" style="stop-color:rgb(165,42,42);stop-opacity:1"/></linearGradient><linearGradient id="cadetblue" x1="0%" y1="0%" x2="100%" y2="100%"><stop offset="0%" style="stop-color:rgb(255,255,255);stop-opacity:1"/><stop offset="100%" style="stop-color:rgb(95,158,160);stop-opacity:1"/></linearGradient><linearGradient id="chocolate" x1="0%" y1="0%" x2="100%" y2="100%"><stop offset="0%" style="stop-color:rgb(255,255,255);stop-opacity:1"/><stop offset="100%" style="stop-color:rgb(210,105,30);stop-opacity:1"/></linearGradient><linearGradient id="cornflowerblue" x1="0%" y1="0%" x2="100%" y2="100%"><stop offset="0%" style="stop-color:rgb(255,255,255);stop-opacity:1"/><stop offset="100%" style="stop-color:rgb(100,149,237);stop-opacity:1"/></linearGradient><linearGradient id="crimson" x1="0%" y1="0%" x2="100%" y2="100%"><stop offset="0%" style="stop-color:rgb(255,255,255);stop-opacity:1"/><stop offset="100%" style="stop-color:rgb(220,20,60);stop-opacity:1"/></linearGradient><linearGradient id="cyan" x1="0%" y1="0%" x2="100%" y2="100%"><stop offset="0%" style="stop-color:rgb(255,255,255);stop-opacity:1"/><stop offset="100%" style="stop-color:rgb(0,255,255);stop-opacity:1"/></linearGradient><linearGradient id="darkgreen" x1="0%" y1="0%" x2="100%" y2="100%"><stop offset="0%" style="stop-color:rgb(255,255,255);stop-opacity:1"/><stop offset="100%" style="stop-color:rgb(0,100,0);stop-opacity:1"/></linearGradient><linearGradient id="darkorange" x1="0%" y1="0%" x2="100%" y2="100%"><stop offset="0%" style="stop-color:rgb(255,255,255);stop-opacity:1"/><stop offset="100%" style="stop-color:rgb(255,140,0);stop-opacity:1"/></linearGradient><linearGradient id="gold" x1="0%" y1="0%" x2="100%" y2="100%"><stop offset="0%" style="stop-color:rgb(255,255,255);stop-opacity:1"/><stop offset="100%" style="stop-color:rgb(255,215,0);stop-opacity:1"/></linearGradient><linearGradient id="gray" x1="0%" y1="0%" x2="100%" y2="100%"><stop offset="0%" style="stop-color:rgb(255,255,255);stop-opacity:1"/><stop offset="100%" style="stop-color:rgb(192,192,192);stop-opacity:1"/></linearGradient><linearGradient id="greenyellow" x1="0%" y1="0%" x2="100%" y2="100%"><stop offset="0%" style="stop-color:rgb(255,255,255);stop-opacity:1"/><stop offset="100%" style="stop-color:rgb(173,255,47);stop-opacity:1"/></linearGradient><linearGradient id="green" x1="0%" y1="0%" x2="100%" y2="100%"><stop offset="0%" style="stop-color:rgb(255,255,255);stop-opacity:1"/><stop offset="100%" style="stop-color:rgb(0,255,0);stop-opacity:1"/></linearGradient><linearGradient id="grey" x1="0%" y1="0%" x2="100%" y2="100%"><stop offset="0%" style="stop-color:rgb(255,255,255);stop-opacity:1"/><stop offset="100%" style="stop-color:rgb(192,192,192);stop-opacity:1"/></linearGradient><linearGradient id="hotpink" x1="0%" y1="0%" x2="100%" y2="100%"><stop offset="0%" style="stop-color:rgb(255,255,255);stop-opacity:1"/><stop offset="100%" style="stop-color:rgb(255,105,180);stop-opacity:1"/></linearGradient><linearGradient id="indianred" x1="0%" y1="0%" x2="100%" y2="100%"><stop offset="0%" style="stop-color:rgb(255,255,255);stop-opacity:1"/><stop offset="100%" style="stop-color:rgb(205,92,92);stop-opacity:1"/></linearGradient><linearGradient id="indigo" x1="0%" y1="0%" x2="100%" y2="100%"><stop offset="0%" style="stop-color:rgb(255,255,255);stop-opacity:1"/><stop offset="100%" style="stop-color:rgb(75,0,130);stop-opacity:1"/></linearGradient><linearGradient id="lavender" x1="0%" y1="0%" x2="100%" y2="100%"><stop offset="0%" style="stop-color:rgb(255,255,255);stop-opacity:1"/><stop offset="100%" style="stop-color:rgb(230,230,250);stop-opacity:1"/></linearGradient><linearGradient id="lightblue" x1="0%" y1="0%" x2="100%" y2="100%"><stop offset="0%" style="stop-color:rgb(255,255,255);stop-opacity:1"/><stop offset="100%" style="stop-color:rgb(173,216,230);stop-opacity:1"/></linearGradient><linearGradient id="lightgray" x1="0%" y1="0%" x2="100%" y2="100%"><stop offset="0%" style="stop-color:rgb(255,255,255);stop-opacity:1"/><stop offset="100%" style="stop-color:rgb(211,211,211);stop-opacity:1"/></linearGradient><linearGradient id="lightgrey" x1="0%" y1="0%" x2="100%" y2="100%"><stop offset="0%" style="stop-color:rgb(255,255,255);stop-opacity:1"/><stop offset="100%" style="stop-color:rgb(211,211,211);stop-opacity:1"/></linearGradient><linearGradient id="magenta" x1="0%" y1="0%" x2="100%" y2="100%"><stop offset="0%" style="stop-color:rgb(255,255,255);stop-opacity:1"/><stop offset="100%" style="stop-color:rgb(255,0,255);stop-opacity:1"/></linearGradient><linearGradient id="maroon" x1="0%" y1="0%" x2="100%" y2="100%"><stop offset="0%" style="stop-color:rgb(255,255,255);stop-opacity:1"/><stop offset="100%" style="stop-color:rgb(176,48,96);stop-opacity:1"/></linearGradient><linearGradient id="mediumblue" x1="0%" y1="0%" x2="100%" y2="100%"><stop offset="0%" style="stop-color:rgb(255,255,255);stop-opacity:1"/><stop offset="100%" style="stop-color:rgb(0,0,205);stop-opacity:1"/></linearGradient><linearGradient id="mediumpurple" x1="0%" y1="0%" x2="100%" y2="100%"><stop offset="0%" style="stop-color:rgb(255,255,255);stop-opacity:1"/><stop offset="100%" style="stop-color:rgb(147,112,219);stop-opacity:1"/></linearGradient><linearGradient id="orange" x1="0%" y1="0%" x2="100%" y2="100%"><stop offset="0%" style="stop-color:rgb(255,255,255);stop-opacity:1"/><stop offset="100%" style="stop-color:rgb(255,165,0);stop-opacity:1"/></linearGradient><linearGradient id="pink" x1="0%" y1="0%" x2="100%" y2="100%"><stop offset="0%" style="stop-color:rgb(255,255,255);stop-opacity:1"/><stop offset="100%" style="stop-color:rgb(255,192,203);stop-opacity:1"/></linearGradient><linearGradient id="purple" x1="0%" y1="0%" x2="100%" y2="100%"><stop offset="0%" style="stop-color:rgb(255,255,255);stop-opacity:1"/><stop offset="100%" style="stop-color:rgb(160,32,240);stop-opacity:1"/></linearGradient><linearGradient id="red" x1="0%" y1="0%" x2="100%" y2="100%"><stop offset="0%" style="stop-color:rgb(255,255,255);stop-opacity:1"/><stop offset="100%" style="stop-color:rgb(255,0,0);stop-opacity:1"/></linearGradient><linearGradient id="steelblue" x1="0%" y1="0%" x2="100%" y2="100%"><stop offset="0%" style="stop-color:rgb(255,255,255);stop-opacity:1"/><stop offset="100%" style="stop-color:rgb(70,130,180);stop-opacity:1"/></linearGradient><linearGradient id="violet" x1="0%" y1="0%" x2="100%" y2="100%"><stop offset="0%" style="stop-color:rgb(255,255,255);stop-opacity:1"/><stop offset="100%" style="stop-color:rgb(238,130,238);stop-opacity:1"/></linearGradient><linearGradient id="yellow" x1="0%" y1="0%" x2="100%" y2="100%"><stop offset="0%" style="stop-color:rgb(255,255,255);stop-opacity:1"/><stop offset="100%" style="stop-color:rgb(255,255,0);stop-opacity:1"/></linearGradient><linearGradient id="none" x1="0%" y1="0%" x2="100%" y2="100%"><stop offset="0%" style="stop-color:rgb(255,255,255);stop-opacity:1"/><stop offset="100%" style="stop-color:rgb(255,255,255);stop-opacity:1"/></linearGradient></defs>
<g id="graph0" class="graph" transform="scale(1 1) rotate(0) translate(4 277.337)"><polygon fill="white" stroke="none" points="-4,4 -4,-277.337 664.609,-277.337 664.609,4 -4,4"/><title>Flow states</title><g id="node1" class="node"><ellipse fill="none" stroke="black" cx="102.888" cy="-60.3366" rx="39.8775" ry="18" style="fill: black; stroke: none; fill-opacity:0.3" transform="translate(3,3)"/><ellipse fill="none" stroke="black" cx="102.888" cy="-60.3366" rx="39.8775" ry="18" style="fill:url(#none);stroke:black;"/><text text-anchor="middle" x="102.888" y="-57.5366" font-family="Times,serif" font-size="11.00" style="font-size:10px; font-family:Verdana">PENDING</text></g><g id="node2" class="node"><ellipse fill="none" stroke="black" cx="220.069" cy="-152.337" rx="41.4846" ry="18" style="fill: black; stroke: none; fill-opacity:0.3" transform="translate(3,3)"/><ellipse fill="none" stroke="black" cx="220.069" cy="-152.337" rx="41.4846" ry="18" style="fill:url(#none);stroke:black;"/><text text-anchor="middle" x="220.069" y="-149.537" font-family="Times,serif" font-size="11.00" style="font-size:10px; font-family:Verdana">RUNNING</text></g><g id="edge1" class="edge"><polygon fill="black" stroke="black" points="189.436,-133.147 199.434,-136.653 193.805,-127.678 189.436,-133.147" style="fill: black; stroke: none; fill-opacity:0.3" transform="translate(3,3)"/><path fill="none" stroke="black" d="M123.427,-75.9431C142.125,-90.8782 170.51,-113.55 191.504,-130.319" style="fill: none; stroke: black; stroke-opacity:0.3" transform="translate(3,3)"/><polygon fill="black" stroke="black" points="189.436,-133.147 199.434,-136.653 193.805,-127.678 189.436,-133.147" style="fill:url(#black);stroke:black;"/><path fill="none" stroke="black" d="M123.427,-75.9431C142.125,-90.8782 170.51,-113.55 191.504,-130.319"/></g><g id="node3" class="node"><ellipse fill="none" stroke="black" cx="482.092" cy="-200.337" rx="38.4712" ry="18" style="fill: black; stroke: none; fill-opacity:0.3" transform="translate(3,3)"/><ellipse fill="none" stroke="black" cx="482.092" cy="-200.337" rx="38.4712" ry="18" style="fill:url(#none);stroke:black;"/><text text-anchor="middle" x="482.092" y="-197.537" font-family="Times,serif" font-size="11.00" style="font-size:10px; font-family:Verdana">FAILURE</text></g><g id="edge4" class="edge"><polygon fill="black" stroke="black" points="439.503,-191.145 450.04,-190.038 441.112,-184.333 439.503,-191.145" style="fill: black; stroke: none; fill-opacity:0.3" transform="translate(3,3)"/><path fill="none" stroke="black" d="M261.412,-154.735C310.021,-161.45 391.235,-176.432 440.122,-187.695" style="fill: none; stroke: black; stroke-opacity:0.3" transform="translate(3,3)"/><polygon fill="black" stroke="black" points="439.503,-191.145 450.04,-190.038 441.112,-184.333 439.503,-191.145" style="fill:url(#black);stroke:black;"/><path fill="none" stroke="black" d="M261.412,-154.735C310.021,-161.45 391.235,-176.432 440.122,-187.695"/></g><g id="node4" class="node"><ellipse fill="none" stroke="black" cx="349.276" cy="-68.3366" rx="51.931" ry="18" style="fill: black; stroke: none; fill-opacity:0.3" transform="translate(3,3)"/><ellipse fill="none" stroke="black" cx="349.276" cy="-68.3366" rx="51.931" ry="18" style="fill:url(#none);stroke:black;"/><text text-anchor="middle" x="349.276" y="-65.5366" font-family="Times,serif" font-size="11.00" style="font-size:10px; font-family:Verdana">SUSPENDING</text></g><g id="edge3" class="edge"><polygon fill="black" stroke="black" points="316.565,-92.2588 323.146,-83.9559 312.824,-86.3424 316.565,-92.2588" style="fill: black; stroke: none; fill-opacity:0.3" transform="translate(3,3)"/><path fill="none" stroke="black" d="M243.027,-137.117C258.245,-126.642 279.025,-112.48 297.561,-100.337 302.99,-96.7798 308.783,-93.0575 314.44,-89.4614" style="fill: none; stroke: black; stroke-opacity:0.3" transform="translate(3,3)"/><polygon fill="black" stroke="black" points="316.565,-92.2588 323.146,-83.9559 312.824,-86.3424 316.565,-92.2588" style="fill:url(#black);stroke:black;"/><path fill="none" stroke="black" d="M243.027,-137.117C258.245,-126.642 279.025,-112.48 297.561,-100.337 302.99,-96.7798 308.783,-93.0575 314.44,-89.4614"/></g><g id="node5" class="node"><ellipse fill="none" stroke="black" cx="482.092" cy="-54.3366" rx="45.2009" ry="18" style="fill: black; stroke: none; fill-opacity:0.3" transform="translate(3,3)"/><ellipse fill="none" stroke="black" cx="482.092" cy="-54.3366" rx="45.2009" ry="18" style="fill:url(#none);stroke:black;"/><text text-anchor="middle" x="482.092" y="-51.5366" font-family="Times,serif" font-size="11.00" style="font-size:10px; font-family:Verdana">REVERTED</text></g><g id="edge5" class="edge"><polygon fill="black" stroke="black" points="448.106,-76.7428 455.273,-68.9402 444.804,-70.5701 448.106,-76.7428" style="fill: black; stroke: none; fill-opacity:0.3" transform="translate(3,3)"/><path fill="none" stroke="black" d="M254.102,-141.948C305.086,-125.903 397.487,-96.7768 400.991,-95.3366 416.136,-89.1122 432.307,-81.1119 446.124,-73.8333" style="fill: none; stroke: black; stroke-opacity:0.3" transform="translate(3,3)"/><polygon fill="black" stroke="black" points="448.106,-76.7428 455.273,-68.9402 444.804,-70.5701 448.106,-76.7428" style="fill:url(#black);stroke:black;"/><path fill="none" stroke="black" d="M254.102,-141.948C305.086,-125.903 397.487,-96.7768 400.991,-95.3366 416.136,-89.1122 432.307,-81.1119 446.124,-73.8333"/></g><g id="node6" class="node"><ellipse fill="none" stroke="black" cx="482.092" cy="-255.337" rx="39.1741" ry="18" style="fill: black; stroke: none; fill-opacity:0.3" transform="translate(3,3)"/><ellipse fill="none" stroke="black" cx="482.092" cy="-255.337" rx="39.1741" ry="18" style="fill:url(#none);stroke:black;"/><text text-anchor="middle" x="482.092" y="-252.537" font-family="Times,serif" font-size="11.00" style="font-size:10px; font-family:Verdana">SUCCESS</text></g><g id="edge6" class="edge"><polygon fill="black" stroke="black" points="443.01,-243.198 453.6,-242.874 445.12,-236.524 443.01,-243.198" style="fill: black; stroke: none; fill-opacity:0.3" transform="translate(3,3)"/><path fill="none" stroke="black" d="M251.049,-164.432C264.805,-172.374 281.581,-182.176 297.561,-189.337 346.473,-211.254 406.269,-228.11 444.029,-239.85" style="fill: none; stroke: black; stroke-opacity:0.3" transform="translate(3,3)"/><polygon fill="black" stroke="black" points="443.01,-243.198 453.6,-242.874 445.12,-236.524 443.01,-243.198" style="fill:url(#black);stroke:black;"/><path fill="none" stroke="black" d="M251.049,-164.432C264.805,-172.374 281.581,-182.176 297.561,-189.337 346.473,-211.254 406.269,-228.11 444.029,-239.85"/></g><g id="node7" class="node"><ellipse fill="none" stroke="black" cx="482.092" cy="-108.337" rx="45.2009" ry="18" style="fill: black; stroke: none; fill-opacity:0.3" transform="translate(3,3)"/><ellipse fill="none" stroke="black" cx="482.092" cy="-108.337" rx="45.2009" ry="18" style="fill:url(#none);stroke:black;"/><text text-anchor="middle" x="482.092" y="-105.537" font-family="Times,serif" font-size="11.00" style="font-size:10px; font-family:Verdana">RESUMING</text></g><g id="edge7" class="edge"><polygon fill="black" stroke="black" points="435.754,-124.2 444.597,-118.365 434.045,-117.412 435.754,-124.2" style="fill: black; stroke: none; fill-opacity:0.3" transform="translate(3,3)"/><path fill="none" stroke="black" d="M260.584,-148.354C297.175,-144.363 353.012,-137.496 400.991,-128.337 411.986,-126.237 423.727,-123.558 434.735,-120.847" style="fill: none; stroke: black; stroke-opacity:0.3" transform="translate(3,3)"/><polygon fill="black" stroke="black" points="435.754,-124.2 444.597,-118.365 434.045,-117.412 435.754,-124.2" style="fill:url(#black);stroke:black;"/><path fill="none" stroke="black" d="M260.584,-148.354C297.175,-144.363 353.012,-137.496 400.991,-128.337 411.986,-126.237 423.727,-123.558 434.735,-120.847"/></g><g id="edge2" class="edge"><polygon fill="black" stroke="black" points="264.272,-161.899 253.738,-163.026 262.676,-168.714 264.272,-161.899" style="fill: black; stroke: none; fill-opacity:0.3" transform="translate(3,3)"/><path fill="none" stroke="black" d="M443.728,-198.345C396.02,-191.913 313.671,-176.793 263.604,-165.337" style="fill: none; stroke: black; stroke-opacity:0.3" transform="translate(3,3)"/><polygon fill="black" stroke="black" points="264.272,-161.899 253.738,-163.026 262.676,-168.714 264.272,-161.899" style="fill:url(#black);stroke:black;"/><path fill="none" stroke="black" d="M443.728,-198.345C396.02,-191.913 313.671,-176.793 263.604,-165.337"/></g><g id="edge8" class="edge"><polygon fill="black" stroke="black" points="448.662,-182.539 458.789,-185.654 452.814,-176.904 448.662,-182.539" style="fill: black; stroke: none; fill-opacity:0.3" transform="translate(3,3)"/><path fill="none" stroke="black" d="M363.311,-85.6721C379.406,-106.501 408.198,-141.936 436.991,-168.337 441.175,-172.172 445.82,-175.968 450.48,-179.531" style="fill: none; stroke: black; stroke-opacity:0.3" transform="translate(3,3)"/><polygon fill="black" stroke="black" points="448.662,-182.539 458.789,-185.654 452.814,-176.904 448.662,-182.539" style="fill:url(#black);stroke:black;"/><path fill="none" stroke="black" d="M363.311,-85.6721C379.406,-106.501 408.198,-141.936 436.991,-168.337 441.175,-172.172 445.82,-175.968 450.48,-179.531"/></g><g id="edge11" class="edge"><polygon fill="black" stroke="black" points="428.795,-63.4535 438.365,-58.9092 428.05,-56.4933 428.795,-63.4535" style="fill: black; stroke: none; fill-opacity:0.3" transform="translate(3,3)"/><path fill="none" stroke="black" d="M398.987,-63.1235C408.584,-62.0964 418.694,-61.0144 428.415,-59.9741" style="fill: none; stroke: black; stroke-opacity:0.3" transform="translate(3,3)"/><polygon fill="black" stroke="black" points="428.795,-63.4535 438.365,-58.9092 428.05,-56.4933 428.795,-63.4535" style="fill:url(#black);stroke:black;"/><path fill="none" stroke="black" d="M398.987,-63.1235C408.584,-62.0964 418.694,-61.0144 428.415,-59.9741"/></g><g id="edge9" class="edge"><polygon fill="black" stroke="black" points="444.964,-239.086 455.169,-241.935 448.969,-233.344 444.964,-239.086" style="fill: black; stroke: none; fill-opacity:0.3" transform="translate(3,3)"/><path fill="none" stroke="black" d="M356.643,-86.392C368.474,-117.959 396.389,-183.944 436.991,-227.337 439.919,-230.466 443.268,-233.393 446.784,-236.088" style="fill: none; stroke: black; stroke-opacity:0.3" transform="translate(3,3)"/><polygon fill="black" stroke="black" points="444.964,-239.086 455.169,-241.935 448.969,-233.344 444.964,-239.086" style="fill:url(#black);stroke:black;"/><path fill="none" stroke="black" d="M356.643,-86.392C368.474,-117.959 396.389,-183.944 436.991,-227.337 439.919,-230.466 443.268,-233.393 446.784,-236.088"/></g><g id="edge10" class="edge"><polygon fill="black" stroke="black" points="434.921,-97.8788 445.508,-97.4559 436.968,-91.1847 434.921,-97.8788" style="fill: black; stroke: none; fill-opacity:0.3" transform="translate(3,3)"/><path fill="none" stroke="black" d="M388.818,-80.1215C403.532,-84.6207 420.441,-89.7912 435.732,-94.4668" style="fill: none; stroke: black; stroke-opacity:0.3" transform="translate(3,3)"/><polygon fill="black" stroke="black" points="434.921,-97.8788 445.508,-97.4559 436.968,-91.1847 434.921,-97.8788" style="fill:url(#black);stroke:black;"/><path fill="none" stroke="black" d="M388.818,-80.1215C403.532,-84.6207 420.441,-89.7912 435.732,-94.4668"/></g><g id="node8" class="node"><ellipse fill="none" stroke="black" cx="611.9" cy="-108.337" rx="48.9176" ry="18" style="fill: black; stroke: none; fill-opacity:0.3" transform="translate(3,3)"/><ellipse fill="none" stroke="black" cx="611.9" cy="-108.337" rx="48.9176" ry="18" style="fill:url(#none);stroke:black;"/><text text-anchor="middle" x="611.9" y="-105.537" font-family="Times,serif" font-size="11.00" style="font-size:10px; font-family:Verdana">SUSPENDED</text></g><g id="edge12" class="edge"><polygon fill="black" stroke="black" points="571.45,-128.666 579.648,-121.955 569.054,-122.089 571.45,-128.666" style="fill: black; stroke: none; fill-opacity:0.3" transform="translate(3,3)"/><path fill="none" stroke="black" d="M365.86,-85.696C381.846,-102.086 408.363,-125.565 436.991,-135.337 480.999,-150.357 534.146,-137.976 570.012,-125.465" style="fill: none; stroke: black; stroke-opacity:0.3" transform="translate(3,3)"/><polygon fill="black" stroke="black" points="571.45,-128.666 579.648,-121.955 569.054,-122.089 571.45,-128.666" style="fill:url(#black);stroke:black;"/><path fill="none" stroke="black" d="M365.86,-85.696C381.846,-102.086 408.363,-125.565 436.991,-135.337 480.999,-150.357 534.146,-137.976 570.012,-125.465"/></g><g id="edge16" class="edge"><polygon fill="black" stroke="black" points="149.926,-49.745 140.508,-54.5967 150.896,-56.6775 149.926,-49.745" style="fill: black; stroke: none; fill-opacity:0.3" transform="translate(3,3)"/><path fill="none" stroke="black" d="M441.317,-46.5861C428.497,-44.4362 414.191,-42.4008 400.991,-41.3366 312.538,-34.2054 209.095,-45.1857 150.554,-53.1914" style="fill: none; stroke: black; stroke-opacity:0.3" transform="translate(3,3)"/><polygon fill="black" stroke="black" points="149.926,-49.745 140.508,-54.5967 150.896,-56.6775 149.926,-49.745" style="fill:url(#black);stroke:black;"/><path fill="none" stroke="black" d="M441.317,-46.5861C428.497,-44.4362 414.191,-42.4008 400.991,-41.3366 312.538,-34.2054 209.095,-45.1857 150.554,-53.1914"/></g><g id="edge13" class="edge"><polygon fill="black" stroke="black" points="245.48,-172.588 235.446,-169.185 241.168,-178.102 245.48,-172.588" style="fill: black; stroke: none; fill-opacity:0.3" transform="translate(3,3)"/><path fill="none" stroke="black" d="M443.218,-253.244C405.417,-245.869 346.124,-229.098 297.561,-207.337 278.529,-198.808 258.367,-186.533 243.523,-175.5" style="fill: none; stroke: black; stroke-opacity:0.3" transform="translate(3,3)"/><polygon fill="black" stroke="black" points="245.48,-172.588 235.446,-169.185 241.168,-178.102 245.48,-172.588" style="fill:url(#black);stroke:black;"/><path fill="none" stroke="black" d="M443.218,-253.244C405.417,-245.869 346.124,-229.098 297.561,-207.337 278.529,-198.808 258.367,-186.533 243.523,-175.5"/></g><g id="edge14" class="edge"><polygon fill="black" stroke="black" points="553.15,-111.837 563.15,-108.337 553.15,-104.837 553.15,-111.837" style="fill: black; stroke: none; fill-opacity:0.3" transform="translate(3,3)"/><path fill="none" stroke="black" d="M527.434,-108.337C535.726,-108.337 544.503,-108.337 553.13,-108.337" style="fill: none; stroke: black; stroke-opacity:0.3" transform="translate(3,3)"/><polygon fill="black" stroke="black" points="553.15,-111.837 563.15,-108.337 553.15,-104.837 553.15,-111.837" style="fill:url(#black);stroke:black;"/><path fill="none" stroke="black" d="M527.434,-108.337C535.726,-108.337 544.503,-108.337 553.13,-108.337"/></g><g id="edge15" class="edge"><polygon fill="black" stroke="black" points="228.449,-123.895 227.702,-134.463 234.877,-126.667 228.449,-123.895" style="fill: black; stroke: none; fill-opacity:0.3" transform="translate(3,3)"/><path fill="none" stroke="black" d="M599.191,-90.7202C584.894,-70.981 558.686,-40.0794 527.192,-27.3366 432.409,11.014 385.587,10.6827 297.561,-41.3366 265.403,-60.3407 243.61,-98.7956 231.758,-125.06" style="fill: none; stroke: black; stroke-opacity:0.3" transform="translate(3,3)"/><polygon fill="black" stroke="black" points="228.449,-123.895 227.702,-134.463 234.877,-126.667 228.449,-123.895" style="fill:url(#black);stroke:black;"/><path fill="none" stroke="black" d="M599.191,-90.7202C584.894,-70.981 558.686,-40.0794 527.192,-27.3366 432.409,11.014 385.587,10.6827 297.561,-41.3366 265.403,-60.3407 243.61,-98.7956 231.758,-125.06"/></g><g id="node9" class="node"><ellipse fill="black" stroke="black" cx="23.6" cy="-60.3366" rx="3.6" ry="3.6" style="fill: black; stroke: none; fill-opacity:0.3" transform="translate(3,3)"/><ellipse fill="black" stroke="black" cx="23.6" cy="-60.3366" rx="3.6" ry="3.6" style="fill:url(#black);stroke:black;"/><text text-anchor="middle" x="10" y="-47.9366" font-family="Times,serif" font-size="11.00" fill="green" style="font-size:10px; font-family:Verdana">start</text></g><g id="edge17" class="edge"><polygon fill="black" stroke="black" points="52.8409,-63.8367 62.8408,-60.3366 52.8408,-56.8367 52.8409,-63.8367" style="fill: black; stroke: none; fill-opacity:0.3" transform="translate(3,3)"/><path fill="none" stroke="black" stroke-dasharray="1,5" d="M27.5354,-60.3366C32.1798,-60.3366 41.8154,-60.3366 52.6556,-60.3366" style="fill: none; stroke: black; stroke-opacity:0.3" transform="translate(3,3)"/><polygon fill="black" stroke="black" points="52.8409,-63.8367 62.8408,-60.3366 52.8408,-56.8367 52.8409,-63.8367" style="fill:url(#black);stroke:black;"/><path fill="none" stroke="black" stroke-dasharray="1,5" d="M27.5354,-60.3366C32.1798,-60.3366 41.8154,-60.3366 52.6556,-60.3366"/></g></g>
</svg>
