<?xml version="1.0"?>
<!DOCTYPE svg PUBLIC "-//W3C//DTD SVG 1.0//EN" "http://www.w3.org/TR/2001/REC-SVG-20010904/DTD/svg10.dtd">
<!-- Generated by graphviz version 2.36.0 (20140111.2315)
 -->
<!-- Title: Flow states Pages: 1 -->
<svg xmlns="http://www.w3.org/2000/svg" xmlns:svg="http://www.w3.org/2000/svg" width="672pt" height="307pt" viewBox="0.00 0.00 671.60 307.00" preserveAspectRatio="xMidYMid meet" zoomAndPan="magnify" version="1.1" contentScriptType="application/ecmascript" contentStyleType="text/css"><defs><linearGradient id="white" x1="0%" y1="0%" x2="0%" y2="0%"><stop offset="0%" style="stop-color:rgb(255,255,255);stop-opacity:1"/></linearGradient><linearGradient id="black" x1="0%" y1="0%" x2="0%" y2="0%"><stop offset="0%" style="stop-color:rgb(0,0,0);stop-opacity:1"/></linearGradient><linearGradient id="aquamarine" x1="0%" y1="0%" x2="100%" y2="100%"><stop offset="0%" style="stop-color:rgb(255,255,255);stop-opacity:1"/><stop offset="100%" style="stop-color:rgb(127,255,212);stop-opacity:1"/></linearGradient><linearGradient id="azure" x1="0%" y1="0%" x2="100%" y2="100%"><stop offset="0%" style="stop-color:rgb(255,255,255);stop-opacity:1"/><stop offset="100%" style="stop-color:rgb(240,255,255);stop-opacity:1"/></linearGradient><linearGradient id="blue" x1="0%" y1="0%" x2="100%" y2="100%"><stop offset="0%" style="stop-color:rgb(255,255,255);stop-opacity:1"/><stop offset="100%" style="stop-color:rgb(0,0,255);stop-opacity:1"/></linearGradient><linearGradient id="blueviolet" x1="0%" y1="0%" x2="100%" y2="100%"><stop offset="0%" style="stop-color:rgb(255,255,255);stop-opacity:1"/><stop offset="100%" style="stop-color:rgb(138,43,226);stop-opacity:1"/></linearGradient><linearGradient id="brown" x1="0%" y1="0%" x2="100%" y2="100%"><stop offset="0%" style="stop-color:rgb(255,255,255);stop-opacity:1"/><stop offset="100%" style="stop-color:rgb(165,42,42);stop-opacity:1"/></linearGradient><linearGradient id="cadetblue" x1="0%" y1="0%" x2="100%" y2="100%"><stop offset="0%" style="stop-color:rgb(255,255,255);stop-opacity:1"/><stop offset="100%" style="stop-color:rgb(95,158,160);stop-opacity:1"/></linearGradient><linearGradient id="chocolate" x1="0%" y1="0%" x2="100%" y2="100%"><stop offset="0%" style="stop-color:rgb(255,255,255);stop-opacity:1"/><stop offset="100%" style="stop-color:rgb(210,105,30);stop-opacity:1"/></linearGradient><linearGradient id="cornflowerblue" x1="0%" y1="0%" x2="100%" y2="100%"><stop offset="0%" style="stop-color:rgb(255,255,255);stop-opacity:1"/><stop offset="100%" style="stop-color:rgb(100,149,237);stop-opacity:1"/></linearGradient><linearGradient id="crimson" x1="0%" y1="0%" x2="100%" y2="100%"><stop offset="0%" style="stop-color:rgb(255,255,255);stop-opacity:1"/><stop offset="100%" style="stop-color:rgb(220,20,60);stop-opacity:1"/></linearGradient><linearGradient id="cyan" x1="0%" y1="0%" x2="100%" y2="100%"><stop offset="0%" style="stop-color:rgb(255,255,255);stop-opacity:1"/><stop offset="100%" style="stop-color:rgb(0,255,255);stop-opacity:1"/></linearGradient><linearGradient id="darkgreen" x1="0%" y1="0%" x2="100%" y2="100%"><stop offset="0%" style="stop-color:rgb(255,255,255);stop-opacity:1"/><stop offset="100%" style="stop-color:rgb(0,100,0);stop-opacity:1"/></linearGradient><linearGradient id="darkorange" x1="0%" y1="0%" x2="100%" y2="100%"><stop offset="0%" style="stop-color:rgb(255,255,255);stop-opacity:1"/><stop offset="100%" style="stop-color:rgb(255,140,0);stop-opacity:1"/></linearGradient><linearGradient id="gold" x1="0%" y1="0%" x2="100%" y2="100%"><stop offset="0%" style="stop-color:rgb(255,255,255);stop-opacity:1"/><stop offset="100%" style="stop-color:rgb(255,215,0);stop-opacity:1"/></linearGradient><linearGradient id="gray" x1="0%" y1="0%" x2="100%" y2="100%"><stop offset="0%" style="stop-color:rgb(255,255,255);stop-opacity:1"/><stop offset="100%" style="stop-color:rgb(192,192,192);stop-opacity:1"/></linearGradient><linearGradient id="greenyellow" x1="0%" y1="0%" x2="100%" y2="100%"><stop offset="0%" style="stop-color:rgb(255,255,255);stop-opacity:1"/><stop offset="100%" style="stop-color:rgb(173,255,47);stop-opacity:1"/></linearGradient><linearGradient id="green" x1="0%" y1="0%" x2="100%" y2="100%"><stop offset="0%" style="stop-color:rgb(255,255,255);stop-opacity:1"/><stop offset="100%" style="stop-color:rgb(0,255,0);stop-opacity:1"/></linearGradient><linearGradient id="grey" x1="0%" y1="0%" x2="100%" y2="100%"><stop offset="0%" style="stop-color:rgb(255,255,255);stop-opacity:1"/><stop offset="100%" style="stop-color:rgb(192,192,192);stop-opacity:1"/></linearGradient><linearGradient id="hotpink" x1="0%" y1="0%" x2="100%" y2="100%"><stop offset="0%" style="stop-color:rgb(255,255,255);stop-opacity:1"/><stop offset="100%" style="stop-color:rgb(255,105,180);stop-opacity:1"/></linearGradient><linearGradient id="indianred" x1="0%" y1="0%" x2="100%" y2="100%"><stop offset="0%" style="stop-color:rgb(255,255,255);stop-opacity:1"/><stop offset="100%" style="stop-color:rgb(205,92,92);stop-opacity:1"/></linearGradient><linearGradient id="indigo" x1="0%" y1="0%" x2="100%" y2="100%"><stop offset="0%" style="stop-color:rgb(255,255,255);stop-opacity:1"/><stop offset="100%" style="stop-color:rgb(75,0,130);stop-opacity:1"/></linearGradient><linearGradient id="lavender" x1="0%" y1="0%" x2="100%" y2="100%"><stop offset="0%" style="stop-color:rgb(255,255,255);stop-opacity:1"/><stop offset="100%" style="stop-color:rgb(230,230,250);stop-opacity:1"/></linearGradient><linearGradient id="lightblue" x1="0%" y1="0%" x2="100%" y2="100%"><stop offset="0%" style="stop-color:rgb(255,255,255);stop-opacity:1"/><stop offset="100%" style="stop-color:rgb(173,216,230);stop-opacity:1"/></linearGradient><linearGradient id="lightgray" x1="0%" y1="0%" x2="100%" y2="100%"><stop offset="0%" style="stop-color:rgb(255,255,255);stop-opacity:1"/><stop offset="100%" style="stop-color:rgb(211,211,211);stop-opacity:1"/></linearGradient><linearGradient id="lightgrey" x1="0%" y1="0%" x2="100%" y2="100%"><stop offset="0%" style="stop-color:rgb(255,255,255);stop-opacity:1"/><stop offset="100%" style="stop-color:rgb(211,211,211);stop-opacity:1"/></linearGradient><linearGradient id="magenta" x1="0%" y1="0%" x2="100%" y2="100%"><stop offset="0%" style="stop-color:rgb(255,255,255);stop-opacity:1"/><stop offset="100%" style="stop-color:rgb(255,0,255);stop-opacity:1"/></linearGradient><linearGradient id="maroon" x1="0%" y1="0%" x2="100%" y2="100%"><stop offset="0%" style="stop-color:rgb(255,255,255);stop-opacity:1"/><stop offset="100%" style="stop-color:rgb(176,48,96);stop-opacity:1"/></linearGradient><linearGradient id="mediumblue" x1="0%" y1="0%" x2="100%" y2="100%"><stop offset="0%" style="stop-color:rgb(255,255,255);stop-opacity:1"/><stop offset="100%" style="stop-color:rgb(0,0,205);stop-opacity:1"/></linearGradient><linearGradient id="mediumpurple" x1="0%" y1="0%" x2="100%" y2="100%"><stop offset="0%" style="stop-color:rgb(255,255,255);stop-opacity:1"/><stop offset="100%" style="stop-color:rgb(147,112,219);stop-opacity:1"/></linearGradient><linearGradient id="orange" x1="0%" y1="0%" x2="100%" y2="100%"><stop offset="0%" style="stop-color:rgb(255,255,255);stop-opacity:1"/><stop offset="100%" style="stop-color:rgb(255,165,0);stop-opacity:1"/></linearGradient><linearGradient id="pink" x1="0%" y1="0%" x2="100%" y2="100%"><stop offset="0%" style="stop-color:rgb(255,255,255);stop-opacity:1"/><stop offset="100%" style="stop-color:rgb(255,192,203);stop-opacity:1"/></linearGradient><linearGradient id="purple" x1="0%" y1="0%" x2="100%" y2="100%"><stop offset="0%" style="stop-color:rgb(255,255,255);stop-opacity:1"/><stop offset="100%" style="stop-color:rgb(160,32,240);stop-opacity:1"/></linearGradient><linearGradient id="red" x1="0%" y1="0%" x2="100%" y2="100%"><stop offset="0%" style="stop-color:rgb(255,255,255);stop-opacity:1"/><stop offset="100%" style="stop-color:rgb(255,0,0);stop-opacity:1"/></linearGradient><linearGradient id="steelblue" x1="0%" y1="0%" x2="100%" y2="100%"><stop offset="0%" style="stop-color:rgb(255,255,255);stop-opacity:1"/><stop offset="100%" style="stop-color:rgb(70,130,180);stop-opacity:1"/></linearGradient><linearGradient id="violet" x1="0%" y1="0%" x2="100%" y2="100%"><stop offset="0%" style="stop-color:rgb(255,255,255);stop-opacity:1"/><stop offset="100%" style="stop-color:rgb(238,130,238);stop-opacity:1"/></linearGradient><linearGradient id="yellow" x1="0%" y1="0%" x2="100%" y2="100%"><stop offset="0%" style="stop-color:rgb(255,255,255);stop-opacity:1"/><stop offset="100%" style="stop-color:rgb(255,255,0);stop-opacity:1"/></linearGradient><linearGradient id="none" x1="0%" y1="0%" x2="100%" y2="100%"><stop offset="0%" style="stop-color:rgb(255,255,255);stop-opacity:1"/><stop offset="100%" style="stop-color:rgb(255,255,255);stop-opacity:1"/></linearGradient></defs>
<g id="graph0" class="graph" transform="scale(1 1) rotate(0) translate(4 303)"><polygon fill="white" stroke="none" points="-4,4 -4,-303 667.6,-303 667.6,4 -4,4"/><title>Flow states</title><g id="node1" class="node"><ellipse fill="none" stroke="black" cx="103.6" cy="-121" rx="39.8775" ry="18" style="fill: black; stroke: none; fill-opacity:0.3" transform="translate(3,3)"/><ellipse fill="none" stroke="black" cx="103.6" cy="-121" rx="39.8775" ry="18" style="fill:url(#none);stroke:black;"/><text text-anchor="middle" x="103.6" y="-118.2" font-family="Times,serif" font-size="11.00" style="font-size:10px; font-family:Verdana">PENDING</text></g><g id="node2" class="node"><ellipse fill="none" stroke="black" cx="221.6" cy="-178" rx="41.4846" ry="18" style="fill: black; stroke: none; fill-opacity:0.3" transform="translate(3,3)"/><ellipse fill="none" stroke="black" cx="221.6" cy="-178" rx="41.4846" ry="18" style="fill:url(#none);stroke:black;"/><text text-anchor="middle" x="221.6" y="-175.2" font-family="Times,serif" font-size="11.00" style="font-size:10px; font-family:Verdana">RUNNING</text></g><g id="edge1" class="edge"><polygon fill="black" stroke="black" points="182.787,-163.319 193.306,-164.588 185.874,-157.037 182.787,-163.319" style="fill: black; stroke: none; fill-opacity:0.3" transform="translate(3,3)"/><path fill="none" stroke="black" d="M131.213,-134.077C146.902,-141.787 166.977,-151.651 184.126,-160.077" style="fill: none; stroke: black; stroke-opacity:0.3" transform="translate(3,3)"/><polygon fill="black" stroke="black" points="182.787,-163.319 193.306,-164.588 185.874,-157.037 182.787,-163.319" style="fill:url(#black);stroke:black;"/><path fill="none" stroke="black" d="M131.213,-134.077C146.902,-141.787 166.977,-151.651 184.126,-160.077"/></g><g id="node3" class="node"><ellipse fill="none" stroke="black" cx="484.6" cy="-173" rx="45.2009" ry="18" style="fill: black; stroke: none; fill-opacity:0.3" transform="translate(3,3)"/><ellipse fill="none" stroke="black" cx="484.6" cy="-173" rx="45.2009" ry="18" style="fill:url(#none);stroke:black;"/><text text-anchor="middle" x="484.6" y="-170.2" font-family="Times,serif" font-size="11.00" style="font-size:10px; font-family:Verdana">RESUMING</text></g><g id="edge2" class="edge"><polygon fill="black" stroke="black" points="429.586,-177.535 439.518,-173.844 429.452,-170.537 429.586,-177.535" style="fill: black; stroke: none; fill-opacity:0.3" transform="translate(3,3)"/><path fill="none" stroke="black" d="M263.095,-177.224C307.742,-176.369 379.795,-174.989 429.311,-174.04" style="fill: none; stroke: black; stroke-opacity:0.3" transform="translate(3,3)"/><polygon fill="black" stroke="black" points="429.586,-177.535 439.518,-173.844 429.452,-170.537 429.586,-177.535" style="fill:url(#black);stroke:black;"/><path fill="none" stroke="black" d="M263.095,-177.224C307.742,-176.369 379.795,-174.989 429.311,-174.04"/></g><g id="node4" class="node"><ellipse fill="none" stroke="black" cx="484.6" cy="-281" rx="38.4712" ry="18" style="fill: black; stroke: none; fill-opacity:0.3" transform="translate(3,3)"/><ellipse fill="none" stroke="black" cx="484.6" cy="-281" rx="38.4712" ry="18" style="fill:url(#none);stroke:black;"/><text text-anchor="middle" x="484.6" y="-278.2" font-family="Times,serif" font-size="11.00" style="font-size:10px; font-family:Verdana">FAILURE</text></g><g id="edge3" class="edge"><polygon fill="black" stroke="black" points="445.771,-268.95 456.361,-268.626 447.881,-262.275 445.771,-268.95" style="fill: black; stroke: none; fill-opacity:0.3" transform="translate(3,3)"/><path fill="none" stroke="black" d="M252.793,-190.09C266.643,-198.031 283.529,-207.834 299.6,-215 348.806,-236.942 408.95,-253.841 446.778,-265.598" style="fill: none; stroke: black; stroke-opacity:0.3" transform="translate(3,3)"/><polygon fill="black" stroke="black" points="445.771,-268.95 456.361,-268.626 447.881,-262.275 445.771,-268.95" style="fill:url(#black);stroke:black;"/><path fill="none" stroke="black" d="M252.793,-190.09C266.643,-198.031 283.529,-207.834 299.6,-215 348.806,-236.942 408.95,-253.841 446.778,-265.598"/></g><g id="node5" class="node"><ellipse fill="none" stroke="black" cx="484.6" cy="-227" rx="39.1741" ry="18" style="fill: black; stroke: none; fill-opacity:0.3" transform="translate(3,3)"/><ellipse fill="none" stroke="black" cx="484.6" cy="-227" rx="39.1741" ry="18" style="fill:url(#none);stroke:black;"/><text text-anchor="middle" x="484.6" y="-224.2" font-family="Times,serif" font-size="11.00" style="font-size:10px; font-family:Verdana">SUCCESS</text></g><g id="edge4" class="edge"><polygon fill="black" stroke="black" points="441.818,-217.643 452.357,-216.564 443.445,-210.835 441.818,-217.643" style="fill: black; stroke: none; fill-opacity:0.3" transform="translate(3,3)"/><path fill="none" stroke="black" d="M262.809,-180.513C311.536,-187.391 393.203,-202.708 442.38,-214.179" style="fill: none; stroke: black; stroke-opacity:0.3" transform="translate(3,3)"/><polygon fill="black" stroke="black" points="441.818,-217.643 452.357,-216.564 443.445,-210.835 441.818,-217.643" style="fill:url(#black);stroke:black;"/><path fill="none" stroke="black" d="M262.809,-180.513C311.536,-187.391 393.203,-202.708 442.38,-214.179"/></g><g id="node6" class="node"><ellipse fill="none" stroke="black" cx="484.6" cy="-43" rx="45.2009" ry="18" style="fill: black; stroke: none; fill-opacity:0.3" transform="translate(3,3)"/><ellipse fill="none" stroke="black" cx="484.6" cy="-43" rx="45.2009" ry="18" style="fill:url(#none);stroke:black;"/><text text-anchor="middle" x="484.6" y="-40.2" font-family="Times,serif" font-size="11.00" style="font-size:10px; font-family:Verdana">REVERTED</text></g><g id="edge5" class="edge"><polygon fill="black" stroke="black" points="445.698,-63.5098 453.434,-56.2706 442.872,-57.1055 445.698,-63.5098" style="fill: black; stroke: none; fill-opacity:0.3" transform="translate(3,3)"/><path fill="none" stroke="black" d="M243.554,-162.423C258.698,-151.523 279.878,-137.002 299.6,-126 313.005,-118.522 394.249,-82.4016 444.194,-60.3479" style="fill: none; stroke: black; stroke-opacity:0.3" transform="translate(3,3)"/><polygon fill="black" stroke="black" points="445.698,-63.5098 453.434,-56.2706 442.872,-57.1055 445.698,-63.5098" style="fill:url(#black);stroke:black;"/><path fill="none" stroke="black" d="M243.554,-162.423C258.698,-151.523 279.878,-137.002 299.6,-126 313.005,-118.522 394.249,-82.4016 444.194,-60.3479"/></g><g id="node7" class="node"><ellipse fill="none" stroke="black" cx="351.6" cy="-18" rx="51.931" ry="18" style="fill: black; stroke: none; fill-opacity:0.3" transform="translate(3,3)"/><ellipse fill="none" stroke="black" cx="351.6" cy="-18" rx="51.931" ry="18" style="fill:url(#none);stroke:black;"/><text text-anchor="middle" x="351.6" y="-15.2" font-family="Times,serif" font-size="11.00" style="font-size:10px; font-family:Verdana">SUSPENDING</text></g><g id="edge6" class="edge"><polygon fill="black" stroke="black" points="333.098,-45.4799 336.612,-35.4847 327.632,-41.107 333.098,-45.4799" style="fill: black; stroke: none; fill-opacity:0.3" transform="translate(3,3)"/><path fill="none" stroke="black" d="M236.298,-160.877C258.891,-132.636 304.076,-76.1546 330.362,-43.2976" style="fill: none; stroke: black; stroke-opacity:0.3" transform="translate(3,3)"/><polygon fill="black" stroke="black" points="333.098,-45.4799 336.612,-35.4847 327.632,-41.107 333.098,-45.4799" style="fill:url(#black);stroke:black;"/><path fill="none" stroke="black" d="M236.298,-160.877C258.891,-132.636 304.076,-76.1546 330.362,-43.2976"/></g><g id="node8" class="node"><ellipse fill="none" stroke="black" cx="614.6" cy="-127" rx="48.9176" ry="18" style="fill: black; stroke: none; fill-opacity:0.3" transform="translate(3,3)"/><ellipse fill="none" stroke="black" cx="614.6" cy="-127" rx="48.9176" ry="18" style="fill:url(#none);stroke:black;"/><text text-anchor="middle" x="614.6" y="-124.2" font-family="Times,serif" font-size="11.00" style="font-size:10px; font-family:Verdana">SUSPENDED</text></g><g id="edge7" class="edge"><polygon fill="black" stroke="black" points="570.732,-146.125 578.959,-139.449 568.364,-139.537 570.732,-146.125" style="fill: black; stroke: none; fill-opacity:0.3" transform="translate(3,3)"/><path fill="none" stroke="black" d="M518.563,-161.154C534.043,-155.591 552.72,-148.879 569.405,-142.883" style="fill: none; stroke: black; stroke-opacity:0.3" transform="translate(3,3)"/><polygon fill="black" stroke="black" points="570.732,-146.125 578.959,-139.449 568.364,-139.537 570.732,-146.125" style="fill:url(#black);stroke:black;"/><path fill="none" stroke="black" d="M518.563,-161.154C534.043,-155.591 552.72,-148.879 569.405,-142.883"/></g><g id="edge8" class="edge"><polygon fill="black" stroke="black" points="247.127,-198.213 237.082,-194.846 242.835,-203.742 247.127,-198.213" style="fill: black; stroke: none; fill-opacity:0.3" transform="translate(3,3)"/><path fill="none" stroke="black" d="M445.998,-278.961C408.127,-271.609 348.469,-254.792 299.6,-233 280.459,-224.465 260.162,-212.19 245.215,-201.159" style="fill: none; stroke: black; stroke-opacity:0.3" transform="translate(3,3)"/><polygon fill="black" stroke="black" points="247.127,-198.213 237.082,-194.846 242.835,-203.742 247.127,-198.213" style="fill:url(#black);stroke:black;"/><path fill="none" stroke="black" d="M445.998,-278.961C408.127,-271.609 348.469,-254.792 299.6,-233 280.459,-224.465 260.162,-212.19 245.215,-201.159"/></g><g id="edge9" class="edge"><polygon fill="black" stroke="black" points="265.666,-187.657 255.128,-188.751 264.048,-194.467 265.666,-187.657" style="fill: black; stroke: none; fill-opacity:0.3" transform="translate(3,3)"/><path fill="none" stroke="black" d="M445.576,-224.793C397.515,-218.125 315.031,-202.707 264.987,-191.093" style="fill: none; stroke: black; stroke-opacity:0.3" transform="translate(3,3)"/><polygon fill="black" stroke="black" points="265.666,-187.657 255.128,-188.751 264.048,-194.467 265.666,-187.657" style="fill:url(#black);stroke:black;"/><path fill="none" stroke="black" d="M445.576,-224.793C397.515,-218.125 315.031,-202.707 264.987,-191.093"/></g><g id="edge10" class="edge"><polygon fill="black" stroke="black" points="148.383,-107.375 139.408,-113.004 149.935,-114.201 148.383,-107.375" style="fill: black; stroke: none; fill-opacity:0.3" transform="translate(3,3)"/><path fill="none" stroke="black" d="M443.333,-50.3114C406.01,-57.1705 348.972,-67.863 299.6,-78 247.898,-88.6154 188.723,-101.813 149.25,-110.767" style="fill: none; stroke: black; stroke-opacity:0.3" transform="translate(3,3)"/><polygon fill="black" stroke="black" points="148.383,-107.375 139.408,-113.004 149.935,-114.201 148.383,-107.375" style="fill:url(#black);stroke:black;"/><path fill="none" stroke="black" d="M443.333,-50.3114C406.01,-57.1705 348.972,-67.863 299.6,-78 247.898,-88.6154 188.723,-101.813 149.25,-110.767"/></g><g id="edge13" class="edge"><polygon fill="black" stroke="black" points="449.534,-154.482 459.623,-157.717 453.753,-148.897 449.534,-154.482" style="fill: black; stroke: none; fill-opacity:0.3" transform="translate(3,3)"/><path fill="none" stroke="black" d="M362.552,-35.6449C377.281,-60.8182 406.713,-107.676 439.6,-141 443.239,-144.687 447.338,-148.263 451.533,-151.606" style="fill: none; stroke: black; stroke-opacity:0.3" transform="translate(3,3)"/><polygon fill="black" stroke="black" points="449.534,-154.482 459.623,-157.717 453.753,-148.897 449.534,-154.482" style="fill:url(#black);stroke:black;"/><path fill="none" stroke="black" d="M362.552,-35.6449C377.281,-60.8182 406.713,-107.676 439.6,-141 443.239,-144.687 447.338,-148.263 451.533,-151.606"/></g><g id="edge11" class="edge"><polygon fill="black" stroke="black" points="446.52,-265.51 456.709,-268.412 450.553,-259.789 446.52,-265.51" style="fill: black; stroke: none; fill-opacity:0.3" transform="translate(3,3)"/><path fill="none" stroke="black" d="M355.114,-35.9673C361.837,-78.2857 383.67,-185.79 439.6,-254 442.148,-257.108 445.154,-259.955 448.379,-262.538" style="fill: none; stroke: black; stroke-opacity:0.3" transform="translate(3,3)"/><polygon fill="black" stroke="black" points="446.52,-265.51 456.709,-268.412 450.553,-259.789 446.52,-265.51" style="fill:url(#black);stroke:black;"/><path fill="none" stroke="black" d="M355.114,-35.9673C361.837,-78.2857 383.67,-185.79 439.6,-254 442.148,-257.108 445.154,-259.955 448.379,-262.538"/></g><g id="edge15" class="edge"><polygon fill="black" stroke="black" points="446.853,-211.291 457.067,-214.104 450.836,-205.536 446.853,-211.291" style="fill: black; stroke: none; fill-opacity:0.3" transform="translate(3,3)"/><path fill="none" stroke="black" d="M357.436,-35.9711C367.614,-71.0273 394.132,-149.515 439.6,-200 442.29,-202.986 445.387,-205.755 448.667,-208.291" style="fill: none; stroke: black; stroke-opacity:0.3" transform="translate(3,3)"/><polygon fill="black" stroke="black" points="446.853,-211.291 457.067,-214.104 450.836,-205.536 446.853,-211.291" style="fill:url(#black);stroke:black;"/><path fill="none" stroke="black" d="M357.436,-35.9711C367.614,-71.0273 394.132,-149.515 439.6,-200 442.29,-202.986 445.387,-205.755 448.667,-208.291"/></g><g id="edge14" class="edge"><polygon fill="black" stroke="black" points="432.998,-36.9062 443.477,-35.3429 434.31,-30.0302 432.998,-36.9062" style="fill: black; stroke: none; fill-opacity:0.3" transform="translate(3,3)"/><path fill="none" stroke="black" d="M397.316,-26.5337C409.014,-28.7659 421.697,-31.1865 433.648,-33.4672" style="fill: none; stroke: black; stroke-opacity:0.3" transform="translate(3,3)"/><polygon fill="black" stroke="black" points="432.998,-36.9062 443.477,-35.3429 434.31,-30.0302 432.998,-36.9062" style="fill:url(#black);stroke:black;"/><path fill="none" stroke="black" d="M397.316,-26.5337C409.014,-28.7659 421.697,-31.1865 433.648,-33.4672"/></g><g id="edge12" class="edge"><polygon fill="black" stroke="black" points="563.734,-117.501 574.307,-116.83 565.623,-110.761 563.734,-117.501" style="fill: black; stroke: none; fill-opacity:0.3" transform="translate(3,3)"/><path fill="none" stroke="black" d="M376.193,-34.0612C393.266,-45.1891 417.183,-59.783 439.6,-70 480.449,-88.618 529.181,-104.041 564.667,-114.128" style="fill: none; stroke: black; stroke-opacity:0.3" transform="translate(3,3)"/><polygon fill="black" stroke="black" points="563.734,-117.501 574.307,-116.83 565.623,-110.761 563.734,-117.501" style="fill:url(#black);stroke:black;"/><path fill="none" stroke="black" d="M376.193,-34.0612C393.266,-45.1891 417.183,-59.783 439.6,-70 480.449,-88.618 529.181,-104.041 564.667,-114.128"/></g><g id="edge16" class="edge"><polygon fill="black" stroke="black" points="270.295,-166.897 260.954,-171.898 271.375,-173.813 270.295,-166.897" style="fill: black; stroke: none; fill-opacity:0.3" transform="translate(3,3)"/><path fill="none" stroke="black" d="M567.384,-131.568C532.288,-135.153 482.852,-140.451 439.6,-146 381.553,-153.447 314.997,-163.485 271.067,-170.319" style="fill: none; stroke: black; stroke-opacity:0.3" transform="translate(3,3)"/><polygon fill="black" stroke="black" points="270.295,-166.897 260.954,-171.898 271.375,-173.813 270.295,-166.897" style="fill:url(#black);stroke:black;"/><path fill="none" stroke="black" d="M567.384,-131.568C532.288,-135.153 482.852,-140.451 439.6,-146 381.553,-153.447 314.997,-163.485 271.067,-170.319"/></g><g id="node9" class="node"><ellipse fill="black" stroke="black" cx="23.6" cy="-121" rx="3.6" ry="3.6" style="fill: black; stroke: none; fill-opacity:0.3" transform="translate(3,3)"/><ellipse fill="black" stroke="black" cx="23.6" cy="-121" rx="3.6" ry="3.6" style="fill:url(#black);stroke:black;"/><text text-anchor="middle" x="10" y="-108.6" font-family="Times,serif" font-size="11.00" fill="green" style="font-size:10px; font-family:Verdana">start</text></g><g id="edge17" class="edge"><polygon fill="black" stroke="black" points="53.5965,-124.5 63.5964,-121 53.5964,-117.5 53.5965,-124.5" style="fill: black; stroke: none; fill-opacity:0.3" transform="translate(3,3)"/><path fill="none" stroke="black" stroke-dasharray="1,5" d="M27.5624,-121C32.3405,-121 42.3529,-121 53.5516,-121" style="fill: none; stroke: black; stroke-opacity:0.3" transform="translate(3,3)"/><polygon fill="black" stroke="black" points="53.5965,-124.5 63.5964,-121 53.5964,-117.5 53.5965,-124.5" style="fill:url(#black);stroke:black;"/><path fill="none" stroke="black" stroke-dasharray="1,5" d="M27.5624,-121C32.3405,-121 42.3529,-121 53.5516,-121"/></g></g>
</svg>
