<?xml version="1.0"?>
<!DOCTYPE svg PUBLIC "-//W3C//DTD SVG 1.0//EN" "http://www.w3.org/TR/2001/REC-SVG-20010904/DTD/svg10.dtd">
<!-- Generated by graphviz version 2.34.0 (20140110.0949)
 -->
<!-- Title: Retries states Pages: 1 -->
<svg xmlns="http://www.w3.org/2000/svg" xmlns:svg="http://www.w3.org/2000/svg" width="644pt" height="167pt" viewBox="0.00 0.00 643.60 167.00" preserveAspectRatio="xMidYMid meet" zoomAndPan="magnify" version="1.1" contentScriptType="application/ecmascript" contentStyleType="text/css"><defs><linearGradient id="white" x1="0%" y1="0%" x2="0%" y2="0%"><stop offset="0%" style="stop-color:rgb(255,255,255);stop-opacity:1"/></linearGradient><linearGradient id="black" x1="0%" y1="0%" x2="0%" y2="0%"><stop offset="0%" style="stop-color:rgb(0,0,0);stop-opacity:1"/></linearGradient><linearGradient id="aquamarine" x1="0%" y1="0%" x2="100%" y2="100%"><stop offset="0%" style="stop-color:rgb(255,255,255);stop-opacity:1"/><stop offset="100%" style="stop-color:rgb(127,255,212);stop-opacity:1"/></linearGradient><linearGradient id="azure" x1="0%" y1="0%" x2="100%" y2="100%"><stop offset="0%" style="stop-color:rgb(255,255,255);stop-opacity:1"/><stop offset="100%" style="stop-color:rgb(240,255,255);stop-opacity:1"/></linearGradient><linearGradient id="blue" x1="0%" y1="0%" x2="100%" y2="100%"><stop offset="0%" style="stop-color:rgb(255,255,255);stop-opacity:1"/><stop offset="100%" style="stop-color:rgb(0,0,255);stop-opacity:1"/></linearGradient><linearGradient id="blueviolet" x1="0%" y1="0%" x2="100%" y2="100%"><stop offset="0%" style="stop-color:rgb(255,255,255);stop-opacity:1"/><stop offset="100%" style="stop-color:rgb(138,43,226);stop-opacity:1"/></linearGradient><linearGradient id="brown" x1="0%" y1="0%" x2="100%" y2="100%"><stop offset="0%" style="stop-color:rgb(255,255,255);stop-opacity:1"/><stop offset="100%" style="stop-color:rgb(165,42,42);stop-opacity:1"/></linearGradient><linearGradient id="cadetblue" x1="0%" y1="0%" x2="100%" y2="100%"><stop offset="0%" style="stop-color:rgb(255,255,255);stop-opacity:1"/><stop offset="100%" style="stop-color:rgb(95,158,160);stop-opacity:1"/></linearGradient><linearGradient id="chocolate" x1="0%" y1="0%" x2="100%" y2="100%"><stop offset="0%" style="stop-color:rgb(255,255,255);stop-opacity:1"/><stop offset="100%" style="stop-color:rgb(210,105,30);stop-opacity:1"/></linearGradient><linearGradient id="cornflowerblue" x1="0%" y1="0%" x2="100%" y2="100%"><stop offset="0%" style="stop-color:rgb(255,255,255);stop-opacity:1"/><stop offset="100%" style="stop-color:rgb(100,149,237);stop-opacity:1"/></linearGradient><linearGradient id="crimson" x1="0%" y1="0%" x2="100%" y2="100%"><stop offset="0%" style="stop-color:rgb(255,255,255);stop-opacity:1"/><stop offset="100%" style="stop-color:rgb(220,20,60);stop-opacity:1"/></linearGradient><linearGradient id="cyan" x1="0%" y1="0%" x2="100%" y2="100%"><stop offset="0%" style="stop-color:rgb(255,255,255);stop-opacity:1"/><stop offset="100%" style="stop-color:rgb(0,255,255);stop-opacity:1"/></linearGradient><linearGradient id="darkgreen" x1="0%" y1="0%" x2="100%" y2="100%"><stop offset="0%" style="stop-color:rgb(255,255,255);stop-opacity:1"/><stop offset="100%" style="stop-color:rgb(0,100,0);stop-opacity:1"/></linearGradient><linearGradient id="darkorange" x1="0%" y1="0%" x2="100%" y2="100%"><stop offset="0%" style="stop-color:rgb(255,255,255);stop-opacity:1"/><stop offset="100%" style="stop-color:rgb(255,140,0);stop-opacity:1"/></linearGradient><linearGradient id="gold" x1="0%" y1="0%" x2="100%" y2="100%"><stop offset="0%" style="stop-color:rgb(255,255,255);stop-opacity:1"/><stop offset="100%" style="stop-color:rgb(255,215,0);stop-opacity:1"/></linearGradient><linearGradient id="gray" x1="0%" y1="0%" x2="100%" y2="100%"><stop offset="0%" style="stop-color:rgb(255,255,255);stop-opacity:1"/><stop offset="100%" style="stop-color:rgb(192,192,192);stop-opacity:1"/></linearGradient><linearGradient id="greenyellow" x1="0%" y1="0%" x2="100%" y2="100%"><stop offset="0%" style="stop-color:rgb(255,255,255);stop-opacity:1"/><stop offset="100%" style="stop-color:rgb(173,255,47);stop-opacity:1"/></linearGradient><linearGradient id="green" x1="0%" y1="0%" x2="100%" y2="100%"><stop offset="0%" style="stop-color:rgb(255,255,255);stop-opacity:1"/><stop offset="100%" style="stop-color:rgb(0,255,0);stop-opacity:1"/></linearGradient><linearGradient id="grey" x1="0%" y1="0%" x2="100%" y2="100%"><stop offset="0%" style="stop-color:rgb(255,255,255);stop-opacity:1"/><stop offset="100%" style="stop-color:rgb(192,192,192);stop-opacity:1"/></linearGradient><linearGradient id="hotpink" x1="0%" y1="0%" x2="100%" y2="100%"><stop offset="0%" style="stop-color:rgb(255,255,255);stop-opacity:1"/><stop offset="100%" style="stop-color:rgb(255,105,180);stop-opacity:1"/></linearGradient><linearGradient id="indianred" x1="0%" y1="0%" x2="100%" y2="100%"><stop offset="0%" style="stop-color:rgb(255,255,255);stop-opacity:1"/><stop offset="100%" style="stop-color:rgb(205,92,92);stop-opacity:1"/></linearGradient><linearGradient id="indigo" x1="0%" y1="0%" x2="100%" y2="100%"><stop offset="0%" style="stop-color:rgb(255,255,255);stop-opacity:1"/><stop offset="100%" style="stop-color:rgb(75,0,130);stop-opacity:1"/></linearGradient><linearGradient id="lavender" x1="0%" y1="0%" x2="100%" y2="100%"><stop offset="0%" style="stop-color:rgb(255,255,255);stop-opacity:1"/><stop offset="100%" style="stop-color:rgb(230,230,250);stop-opacity:1"/></linearGradient><linearGradient id="lightblue" x1="0%" y1="0%" x2="100%" y2="100%"><stop offset="0%" style="stop-color:rgb(255,255,255);stop-opacity:1"/><stop offset="100%" style="stop-color:rgb(173,216,230);stop-opacity:1"/></linearGradient><linearGradient id="lightgray" x1="0%" y1="0%" x2="100%" y2="100%"><stop offset="0%" style="stop-color:rgb(255,255,255);stop-opacity:1"/><stop offset="100%" style="stop-color:rgb(211,211,211);stop-opacity:1"/></linearGradient><linearGradient id="lightgrey" x1="0%" y1="0%" x2="100%" y2="100%"><stop offset="0%" style="stop-color:rgb(255,255,255);stop-opacity:1"/><stop offset="100%" style="stop-color:rgb(211,211,211);stop-opacity:1"/></linearGradient><linearGradient id="magenta" x1="0%" y1="0%" x2="100%" y2="100%"><stop offset="0%" style="stop-color:rgb(255,255,255);stop-opacity:1"/><stop offset="100%" style="stop-color:rgb(255,0,255);stop-opacity:1"/></linearGradient><linearGradient id="maroon" x1="0%" y1="0%" x2="100%" y2="100%"><stop offset="0%" style="stop-color:rgb(255,255,255);stop-opacity:1"/><stop offset="100%" style="stop-color:rgb(176,48,96);stop-opacity:1"/></linearGradient><linearGradient id="mediumblue" x1="0%" y1="0%" x2="100%" y2="100%"><stop offset="0%" style="stop-color:rgb(255,255,255);stop-opacity:1"/><stop offset="100%" style="stop-color:rgb(0,0,205);stop-opacity:1"/></linearGradient><linearGradient id="mediumpurple" x1="0%" y1="0%" x2="100%" y2="100%"><stop offset="0%" style="stop-color:rgb(255,255,255);stop-opacity:1"/><stop offset="100%" style="stop-color:rgb(147,112,219);stop-opacity:1"/></linearGradient><linearGradient id="orange" x1="0%" y1="0%" x2="100%" y2="100%"><stop offset="0%" style="stop-color:rgb(255,255,255);stop-opacity:1"/><stop offset="100%" style="stop-color:rgb(255,165,0);stop-opacity:1"/></linearGradient><linearGradient id="pink" x1="0%" y1="0%" x2="100%" y2="100%"><stop offset="0%" style="stop-color:rgb(255,255,255);stop-opacity:1"/><stop offset="100%" style="stop-color:rgb(255,192,203);stop-opacity:1"/></linearGradient><linearGradient id="purple" x1="0%" y1="0%" x2="100%" y2="100%"><stop offset="0%" style="stop-color:rgb(255,255,255);stop-opacity:1"/><stop offset="100%" style="stop-color:rgb(160,32,240);stop-opacity:1"/></linearGradient><linearGradient id="red" x1="0%" y1="0%" x2="100%" y2="100%"><stop offset="0%" style="stop-color:rgb(255,255,255);stop-opacity:1"/><stop offset="100%" style="stop-color:rgb(255,0,0);stop-opacity:1"/></linearGradient><linearGradient id="steelblue" x1="0%" y1="0%" x2="100%" y2="100%"><stop offset="0%" style="stop-color:rgb(255,255,255);stop-opacity:1"/><stop offset="100%" style="stop-color:rgb(70,130,180);stop-opacity:1"/></linearGradient><linearGradient id="violet" x1="0%" y1="0%" x2="100%" y2="100%"><stop offset="0%" style="stop-color:rgb(255,255,255);stop-opacity:1"/><stop offset="100%" style="stop-color:rgb(238,130,238);stop-opacity:1"/></linearGradient><linearGradient id="yellow" x1="0%" y1="0%" x2="100%" y2="100%"><stop offset="0%" style="stop-color:rgb(255,255,255);stop-opacity:1"/><stop offset="100%" style="stop-color:rgb(255,255,0);stop-opacity:1"/></linearGradient><linearGradient id="none" x1="0%" y1="0%" x2="100%" y2="100%"><stop offset="0%" style="stop-color:rgb(255,255,255);stop-opacity:1"/><stop offset="100%" style="stop-color:rgb(255,255,255);stop-opacity:1"/></linearGradient></defs>
<g id="graph0" class="graph" transform="scale(1 1) rotate(0) translate(4 163)"><polygon fill="white" stroke="white" points="-4,4 -4,-163 639.6,-163 639.6,4 -4,4"/><title>Retries states</title><g id="node1" class="node"><ellipse fill="none" stroke="black" cx="103.6" cy="-133" rx="39.8775" ry="18" style="fill: black; stroke: none; fill-opacity:0.3" transform="translate(3,3)"/><ellipse fill="none" stroke="black" cx="103.6" cy="-133" rx="39.8775" ry="18" style="fill:url(#none);stroke:black;"/><text text-anchor="middle" x="103.6" y="-130.2" font-family="Times,serif" font-size="11.00" style="font-size:10px; font-family:Verdana">PENDING</text></g><g id="node2" class="node"><ellipse fill="none" stroke="black" cx="221.6" cy="-91" rx="41.4846" ry="18" style="fill: black; stroke: none; fill-opacity:0.3" transform="translate(3,3)"/><ellipse fill="none" stroke="black" cx="221.6" cy="-91" rx="41.4846" ry="18" style="fill:url(#none);stroke:black;"/><text text-anchor="middle" x="221.6" y="-88.2" font-family="Times,serif" font-size="11.00" style="font-size:10px; font-family:Verdana">RUNNING</text></g><g id="edge1" class="edge"><polygon fill="black" stroke="black" points="180.902,-109.096 189.113,-102.4 178.519,-102.514 180.902,-109.096" style="fill: black; stroke: none; fill-opacity:0.3" transform="translate(3,3)"/><path fill="none" stroke="black" d="M135.078,-121.965C148.604,-117.068 164.729,-111.229 179.314,-105.949" style="fill: none; stroke: black; stroke-opacity:0.3" transform="translate(3,3)"/><polygon fill="black" stroke="black" points="180.902,-109.096 189.113,-102.4 178.519,-102.514 180.902,-109.096" style="fill:url(#black);stroke:black;"/><path fill="none" stroke="black" d="M135.078,-121.965C148.604,-117.068 164.729,-111.229 179.314,-105.949"/></g><g id="node3" class="node"><ellipse fill="none" stroke="black" cx="338.6" cy="-72" rx="39.1741" ry="18" style="fill: black; stroke: none; fill-opacity:0.3" transform="translate(3,3)"/><ellipse fill="none" stroke="black" cx="338.6" cy="-72" rx="39.1741" ry="18" style="fill:url(#none);stroke:black;"/><text text-anchor="middle" x="338.6" y="-69.2" font-family="Times,serif" font-size="11.00" fill="green" style="font-size:10px; font-family:Verdana">SUCCESS</text></g><g id="edge5" class="edge"><polygon fill="black" stroke="black" points="292.321,-83.0285 301.616,-77.9451 291.179,-76.1221 292.321,-83.0285" style="fill: black; stroke: none; fill-opacity:0.3" transform="translate(3,3)"/><path fill="none" stroke="black" d="M260.574,-84.726C270.486,-83.0884 281.276,-81.3057 291.557,-79.6072" style="fill: none; stroke: black; stroke-opacity:0.3" transform="translate(3,3)"/><polygon fill="black" stroke="black" points="292.321,-83.0285 301.616,-77.9451 291.179,-76.1221 292.321,-83.0285" style="fill:url(#black);stroke:black;"/><path fill="none" stroke="black" d="M260.574,-84.726C270.486,-83.0884 281.276,-81.3057 291.557,-79.6072"/></g><g id="node6" class="node"><ellipse fill="none" stroke="black" cx="590.6" cy="-72" rx="38.4712" ry="18" style="fill: black; stroke: none; fill-opacity:0.3" transform="translate(3,3)"/><ellipse fill="none" stroke="black" cx="590.6" cy="-72" rx="38.4712" ry="18" style="fill:url(#none);stroke:black;"/><text text-anchor="middle" x="590.6" y="-69.2" font-family="Times,serif" font-size="11.00" fill="red" style="font-size:10px; font-family:Verdana">FAILURE</text></g><g id="edge6" class="edge"><polygon fill="black" stroke="black" points="553.498,-90.6751 561.664,-83.925 551.071,-84.1093 553.498,-90.6751" style="fill: black; stroke: none; fill-opacity:0.3" transform="translate(3,3)"/><path fill="none" stroke="black" d="M261.444,-96.7194C316.907,-103.839 421.801,-113.417 509.6,-99 523.778,-96.672 538.826,-92.1687 552.001,-87.497" style="fill: none; stroke: black; stroke-opacity:0.3" transform="translate(3,3)"/><polygon fill="black" stroke="black" points="553.498,-90.6751 561.664,-83.925 551.071,-84.1093 553.498,-90.6751" style="fill:url(#black);stroke:black;"/><path fill="none" stroke="black" d="M261.444,-96.7194C316.907,-103.839 421.801,-113.417 509.6,-99 523.778,-96.672 538.826,-92.1687 552.001,-87.497"/></g><g id="node4" class="node"><ellipse fill="none" stroke="black" cx="461.6" cy="-18" rx="44.498" ry="18" style="fill: black; stroke: none; fill-opacity:0.3" transform="translate(3,3)"/><ellipse fill="none" stroke="black" cx="461.6" cy="-18" rx="44.498" ry="18" style="fill:url(#none);stroke:black;"/><text text-anchor="middle" x="461.6" y="-15.2" font-family="Times,serif" font-size="11.00" style="font-size:10px; font-family:Verdana">RETRYING</text></g><g id="edge2" class="edge"><polygon fill="black" stroke="black" points="423.149,-38.5463 430.855,-31.2747 420.296,-32.154 423.149,-38.5463" style="fill: black; stroke: none; fill-opacity:0.3" transform="translate(3,3)"/><path fill="none" stroke="black" d="M367.36,-59.6113C383.373,-52.4651 403.764,-43.3648 421.391,-35.498" style="fill: none; stroke: black; stroke-opacity:0.3" transform="translate(3,3)"/><polygon fill="black" stroke="black" points="423.149,-38.5463 430.855,-31.2747 420.296,-32.154 423.149,-38.5463" style="fill:url(#black);stroke:black;"/><path fill="none" stroke="black" d="M367.36,-59.6113C383.373,-52.4651 403.764,-43.3648 421.391,-35.498"/></g><g id="node5" class="node"><ellipse fill="none" stroke="black" cx="461.6" cy="-72" rx="48.2143" ry="18" style="fill: black; stroke: none; fill-opacity:0.3" transform="translate(3,3)"/><ellipse fill="none" stroke="black" cx="461.6" cy="-72" rx="48.2143" ry="18" style="fill:url(#none);stroke:black;"/><text text-anchor="middle" x="461.6" y="-69.2" font-family="Times,serif" font-size="11.00" style="font-size:10px; font-family:Verdana">REVERTING</text></g><g id="edge3" class="edge"><polygon fill="black" stroke="black" points="403.212,-75.5001 413.212,-72 403.212,-68.5001 403.212,-75.5001" style="fill: black; stroke: none; fill-opacity:0.3" transform="translate(3,3)"/><path fill="none" stroke="black" d="M377.885,-72C385.947,-72 394.62,-72 403.209,-72" style="fill: none; stroke: black; stroke-opacity:0.3" transform="translate(3,3)"/><polygon fill="black" stroke="black" points="403.212,-75.5001 413.212,-72 403.212,-68.5001 403.212,-75.5001" style="fill:url(#black);stroke:black;"/><path fill="none" stroke="black" d="M377.885,-72C385.947,-72 394.62,-72 403.209,-72"/></g><g id="edge4" class="edge"><polygon fill="black" stroke="black" points="249.789,-67.1719 243.419,-75.6381 253.678,-72.9921 249.789,-67.1719" style="fill: black; stroke: none; fill-opacity:0.3" transform="translate(3,3)"/><path fill="none" stroke="black" d="M417.454,-20.8612C384.379,-24.0868 338.038,-30.8674 299.6,-45 282.935,-51.1272 265.84,-60.922 252.004,-69.9016" style="fill: none; stroke: black; stroke-opacity:0.3" transform="translate(3,3)"/><polygon fill="black" stroke="black" points="249.789,-67.1719 243.419,-75.6381 253.678,-72.9921 249.789,-67.1719" style="fill:url(#black);stroke:black;"/><path fill="none" stroke="black" d="M417.454,-20.8612C384.379,-24.0868 338.038,-30.8674 299.6,-45 282.935,-51.1272 265.84,-60.922 252.004,-69.9016"/></g><g id="edge9" class="edge"><polygon fill="black" stroke="black" points="543.885,-68.9952 554.007,-65.8664 544.143,-61.9999 543.885,-68.9952" style="fill: black; stroke: none; fill-opacity:0.3" transform="translate(3,3)"/><path fill="none" stroke="black" d="M506.662,-65.5393C518.631,-65.1724 531.619,-65.1545 543.687,-65.4856" style="fill: none; stroke: black; stroke-opacity:0.3" transform="translate(3,3)"/><polygon fill="black" stroke="black" points="543.885,-68.9952 554.007,-65.8664 544.143,-61.9999 543.885,-68.9952" style="fill:url(#black);stroke:black;"/><path fill="none" stroke="black" d="M506.662,-65.5393C518.631,-65.1724 531.619,-65.1545 543.687,-65.4856"/></g><g id="node7" class="node"><ellipse fill="none" stroke="black" cx="590.6" cy="-141" rx="45.2009" ry="18" style="fill: black; stroke: none; fill-opacity:0.3" transform="translate(3,3)"/><ellipse fill="none" stroke="black" cx="590.6" cy="-141" rx="45.2009" ry="18" style="fill:url(#none);stroke:black;"/><text text-anchor="middle" x="590.6" y="-138.2" font-family="Times,serif" font-size="11.00" fill="darkorange" style="font-size:10px; font-family:Verdana">REVERTED</text></g><g id="edge10" class="edge"><polygon fill="black" stroke="black" points="552.378,-124.76 562.836,-126.459 555.72,-118.61 552.378,-124.76" style="fill: black; stroke: none; fill-opacity:0.3" transform="translate(3,3)"/><path fill="none" stroke="black" d="M489.845,-86.8022C508.553,-96.9667 533.576,-110.562 553.879,-121.593" style="fill: none; stroke: black; stroke-opacity:0.3" transform="translate(3,3)"/><polygon fill="black" stroke="black" points="552.378,-124.76 562.836,-126.459 555.72,-118.61 552.378,-124.76" style="fill:url(#black);stroke:black;"/><path fill="none" stroke="black" d="M489.845,-86.8022C508.553,-96.9667 533.576,-110.562 553.879,-121.593"/></g><g id="edge8" class="edge"><polygon fill="black" stroke="black" points="516.737,-75.1813 506.662,-78.4607 516.583,-82.1796 516.737,-75.1813" style="fill: black; stroke: none; fill-opacity:0.3" transform="translate(3,3)"/><path fill="none" stroke="black" d="M554.007,-78.1336C542.529,-78.6746 529.533,-78.8595 517.018,-78.6883" style="fill: none; stroke: black; stroke-opacity:0.3" transform="translate(3,3)"/><polygon fill="black" stroke="black" points="516.737,-75.1813 506.662,-78.4607 516.583,-82.1796 516.737,-75.1813" style="fill:url(#black);stroke:black;"/><path fill="none" stroke="black" d="M554.007,-78.1336C542.529,-78.6746 529.533,-78.8595 517.018,-78.6883"/></g><g id="edge7" class="edge"><polygon fill="black" stroke="black" points="153.526,-130.307 143.47,-133.641 153.411,-137.306 153.526,-130.307" style="fill: black; stroke: none; fill-opacity:0.3" transform="translate(3,3)"/><path fill="none" stroke="black" d="M545.34,-140.27C454.633,-138.774 248.233,-135.369 153.626,-133.809" style="fill: none; stroke: black; stroke-opacity:0.3" transform="translate(3,3)"/><polygon fill="black" stroke="black" points="153.526,-130.307 143.47,-133.641 153.411,-137.306 153.526,-130.307" style="fill:url(#black);stroke:black;"/><path fill="none" stroke="black" d="M545.34,-140.27C454.633,-138.774 248.233,-135.369 153.626,-133.809"/></g><g id="node8" class="node"><ellipse fill="black" stroke="black" cx="23.6" cy="-133" rx="3.6" ry="3.6" style="fill: black; stroke: none; fill-opacity:0.3" transform="translate(3,3)"/><ellipse fill="black" stroke="black" cx="23.6" cy="-133" rx="3.6" ry="3.6" style="fill:url(#black);stroke:black;"/><text text-anchor="middle" x="10" y="-120.6" font-family="Times,serif" font-size="11.00" fill="green" style="font-size:10px; font-family:Verdana">start</text></g><g id="edge11" class="edge"><polygon fill="black" stroke="black" points="53.5965,-136.5 63.5964,-133 53.5964,-129.5 53.5965,-136.5" style="fill: black; stroke: none; fill-opacity:0.3" transform="translate(3,3)"/><path fill="none" stroke="black" stroke-dasharray="1,5" d="M27.5624,-133C32.3405,-133 42.3529,-133 53.5516,-133" style="fill: none; stroke: black; stroke-opacity:0.3" transform="translate(3,3)"/><polygon fill="black" stroke="black" points="53.5965,-136.5 63.5964,-133 53.5964,-129.5 53.5965,-136.5" style="fill:url(#black);stroke:black;"/><path fill="none" stroke="black" stroke-dasharray="1,5" d="M27.5624,-133C32.3405,-133 42.3529,-133 53.5516,-133"/></g></g>
</svg>
