<?xml version="1.0"?>
<!DOCTYPE svg PUBLIC "-//W3C//DTD SVG 1.0//EN" "http://www.w3.org/TR/2001/REC-SVG-20010904/DTD/svg10.dtd">
<!-- Generated by graphviz version 2.36.0 (20140111.2315)
 -->
<!-- Title: Retries states Pages: 1 -->
<svg xmlns="http://www.w3.org/2000/svg" xmlns:svg="http://www.w3.org/2000/svg" width="644pt" height="159pt" viewBox="0.00 0.00 643.60 159.00" preserveAspectRatio="xMidYMid meet" zoomAndPan="magnify" version="1.1" contentScriptType="application/ecmascript" contentStyleType="text/css"><defs><linearGradient id="white" x1="0%" y1="0%" x2="0%" y2="0%"><stop offset="0%" style="stop-color:rgb(255,255,255);stop-opacity:1"/></linearGradient><linearGradient id="black" x1="0%" y1="0%" x2="0%" y2="0%"><stop offset="0%" style="stop-color:rgb(0,0,0);stop-opacity:1"/></linearGradient><linearGradient id="aquamarine" x1="0%" y1="0%" x2="100%" y2="100%"><stop offset="0%" style="stop-color:rgb(255,255,255);stop-opacity:1"/><stop offset="100%" style="stop-color:rgb(127,255,212);stop-opacity:1"/></linearGradient><linearGradient id="azure" x1="0%" y1="0%" x2="100%" y2="100%"><stop offset="0%" style="stop-color:rgb(255,255,255);stop-opacity:1"/><stop offset="100%" style="stop-color:rgb(240,255,255);stop-opacity:1"/></linearGradient><linearGradient id="blue" x1="0%" y1="0%" x2="100%" y2="100%"><stop offset="0%" style="stop-color:rgb(255,255,255);stop-opacity:1"/><stop offset="100%" style="stop-color:rgb(0,0,255);stop-opacity:1"/></linearGradient><linearGradient id="blueviolet" x1="0%" y1="0%" x2="100%" y2="100%"><stop offset="0%" style="stop-color:rgb(255,255,255);stop-opacity:1"/><stop offset="100%" style="stop-color:rgb(138,43,226);stop-opacity:1"/></linearGradient><linearGradient id="brown" x1="0%" y1="0%" x2="100%" y2="100%"><stop offset="0%" style="stop-color:rgb(255,255,255);stop-opacity:1"/><stop offset="100%" style="stop-color:rgb(165,42,42);stop-opacity:1"/></linearGradient><linearGradient id="cadetblue" x1="0%" y1="0%" x2="100%" y2="100%"><stop offset="0%" style="stop-color:rgb(255,255,255);stop-opacity:1"/><stop offset="100%" style="stop-color:rgb(95,158,160);stop-opacity:1"/></linearGradient><linearGradient id="chocolate" x1="0%" y1="0%" x2="100%" y2="100%"><stop offset="0%" style="stop-color:rgb(255,255,255);stop-opacity:1"/><stop offset="100%" style="stop-color:rgb(210,105,30);stop-opacity:1"/></linearGradient><linearGradient id="cornflowerblue" x1="0%" y1="0%" x2="100%" y2="100%"><stop offset="0%" style="stop-color:rgb(255,255,255);stop-opacity:1"/><stop offset="100%" style="stop-color:rgb(100,149,237);stop-opacity:1"/></linearGradient><linearGradient id="crimson" x1="0%" y1="0%" x2="100%" y2="100%"><stop offset="0%" style="stop-color:rgb(255,255,255);stop-opacity:1"/><stop offset="100%" style="stop-color:rgb(220,20,60);stop-opacity:1"/></linearGradient><linearGradient id="cyan" x1="0%" y1="0%" x2="100%" y2="100%"><stop offset="0%" style="stop-color:rgb(255,255,255);stop-opacity:1"/><stop offset="100%" style="stop-color:rgb(0,255,255);stop-opacity:1"/></linearGradient><linearGradient id="darkgreen" x1="0%" y1="0%" x2="100%" y2="100%"><stop offset="0%" style="stop-color:rgb(255,255,255);stop-opacity:1"/><stop offset="100%" style="stop-color:rgb(0,100,0);stop-opacity:1"/></linearGradient><linearGradient id="darkorange" x1="0%" y1="0%" x2="100%" y2="100%"><stop offset="0%" style="stop-color:rgb(255,255,255);stop-opacity:1"/><stop offset="100%" style="stop-color:rgb(255,140,0);stop-opacity:1"/></linearGradient><linearGradient id="gold" x1="0%" y1="0%" x2="100%" y2="100%"><stop offset="0%" style="stop-color:rgb(255,255,255);stop-opacity:1"/><stop offset="100%" style="stop-color:rgb(255,215,0);stop-opacity:1"/></linearGradient><linearGradient id="gray" x1="0%" y1="0%" x2="100%" y2="100%"><stop offset="0%" style="stop-color:rgb(255,255,255);stop-opacity:1"/><stop offset="100%" style="stop-color:rgb(192,192,192);stop-opacity:1"/></linearGradient><linearGradient id="greenyellow" x1="0%" y1="0%" x2="100%" y2="100%"><stop offset="0%" style="stop-color:rgb(255,255,255);stop-opacity:1"/><stop offset="100%" style="stop-color:rgb(173,255,47);stop-opacity:1"/></linearGradient><linearGradient id="green" x1="0%" y1="0%" x2="100%" y2="100%"><stop offset="0%" style="stop-color:rgb(255,255,255);stop-opacity:1"/><stop offset="100%" style="stop-color:rgb(0,255,0);stop-opacity:1"/></linearGradient><linearGradient id="grey" x1="0%" y1="0%" x2="100%" y2="100%"><stop offset="0%" style="stop-color:rgb(255,255,255);stop-opacity:1"/><stop offset="100%" style="stop-color:rgb(192,192,192);stop-opacity:1"/></linearGradient><linearGradient id="hotpink" x1="0%" y1="0%" x2="100%" y2="100%"><stop offset="0%" style="stop-color:rgb(255,255,255);stop-opacity:1"/><stop offset="100%" style="stop-color:rgb(255,105,180);stop-opacity:1"/></linearGradient><linearGradient id="indianred" x1="0%" y1="0%" x2="100%" y2="100%"><stop offset="0%" style="stop-color:rgb(255,255,255);stop-opacity:1"/><stop offset="100%" style="stop-color:rgb(205,92,92);stop-opacity:1"/></linearGradient><linearGradient id="indigo" x1="0%" y1="0%" x2="100%" y2="100%"><stop offset="0%" style="stop-color:rgb(255,255,255);stop-opacity:1"/><stop offset="100%" style="stop-color:rgb(75,0,130);stop-opacity:1"/></linearGradient><linearGradient id="lavender" x1="0%" y1="0%" x2="100%" y2="100%"><stop offset="0%" style="stop-color:rgb(255,255,255);stop-opacity:1"/><stop offset="100%" style="stop-color:rgb(230,230,250);stop-opacity:1"/></linearGradient><linearGradient id="lightblue" x1="0%" y1="0%" x2="100%" y2="100%"><stop offset="0%" style="stop-color:rgb(255,255,255);stop-opacity:1"/><stop offset="100%" style="stop-color:rgb(173,216,230);stop-opacity:1"/></linearGradient><linearGradient id="lightgray" x1="0%" y1="0%" x2="100%" y2="100%"><stop offset="0%" style="stop-color:rgb(255,255,255);stop-opacity:1"/><stop offset="100%" style="stop-color:rgb(211,211,211);stop-opacity:1"/></linearGradient><linearGradient id="lightgrey" x1="0%" y1="0%" x2="100%" y2="100%"><stop offset="0%" style="stop-color:rgb(255,255,255);stop-opacity:1"/><stop offset="100%" style="stop-color:rgb(211,211,211);stop-opacity:1"/></linearGradient><linearGradient id="magenta" x1="0%" y1="0%" x2="100%" y2="100%"><stop offset="0%" style="stop-color:rgb(255,255,255);stop-opacity:1"/><stop offset="100%" style="stop-color:rgb(255,0,255);stop-opacity:1"/></linearGradient><linearGradient id="maroon" x1="0%" y1="0%" x2="100%" y2="100%"><stop offset="0%" style="stop-color:rgb(255,255,255);stop-opacity:1"/><stop offset="100%" style="stop-color:rgb(176,48,96);stop-opacity:1"/></linearGradient><linearGradient id="mediumblue" x1="0%" y1="0%" x2="100%" y2="100%"><stop offset="0%" style="stop-color:rgb(255,255,255);stop-opacity:1"/><stop offset="100%" style="stop-color:rgb(0,0,205);stop-opacity:1"/></linearGradient><linearGradient id="mediumpurple" x1="0%" y1="0%" x2="100%" y2="100%"><stop offset="0%" style="stop-color:rgb(255,255,255);stop-opacity:1"/><stop offset="100%" style="stop-color:rgb(147,112,219);stop-opacity:1"/></linearGradient><linearGradient id="orange" x1="0%" y1="0%" x2="100%" y2="100%"><stop offset="0%" style="stop-color:rgb(255,255,255);stop-opacity:1"/><stop offset="100%" style="stop-color:rgb(255,165,0);stop-opacity:1"/></linearGradient><linearGradient id="pink" x1="0%" y1="0%" x2="100%" y2="100%"><stop offset="0%" style="stop-color:rgb(255,255,255);stop-opacity:1"/><stop offset="100%" style="stop-color:rgb(255,192,203);stop-opacity:1"/></linearGradient><linearGradient id="purple" x1="0%" y1="0%" x2="100%" y2="100%"><stop offset="0%" style="stop-color:rgb(255,255,255);stop-opacity:1"/><stop offset="100%" style="stop-color:rgb(160,32,240);stop-opacity:1"/></linearGradient><linearGradient id="red" x1="0%" y1="0%" x2="100%" y2="100%"><stop offset="0%" style="stop-color:rgb(255,255,255);stop-opacity:1"/><stop offset="100%" style="stop-color:rgb(255,0,0);stop-opacity:1"/></linearGradient><linearGradient id="steelblue" x1="0%" y1="0%" x2="100%" y2="100%"><stop offset="0%" style="stop-color:rgb(255,255,255);stop-opacity:1"/><stop offset="100%" style="stop-color:rgb(70,130,180);stop-opacity:1"/></linearGradient><linearGradient id="violet" x1="0%" y1="0%" x2="100%" y2="100%"><stop offset="0%" style="stop-color:rgb(255,255,255);stop-opacity:1"/><stop offset="100%" style="stop-color:rgb(238,130,238);stop-opacity:1"/></linearGradient><linearGradient id="yellow" x1="0%" y1="0%" x2="100%" y2="100%"><stop offset="0%" style="stop-color:rgb(255,255,255);stop-opacity:1"/><stop offset="100%" style="stop-color:rgb(255,255,0);stop-opacity:1"/></linearGradient><linearGradient id="none" x1="0%" y1="0%" x2="100%" y2="100%"><stop offset="0%" style="stop-color:rgb(255,255,255);stop-opacity:1"/><stop offset="100%" style="stop-color:rgb(255,255,255);stop-opacity:1"/></linearGradient></defs>
<g id="graph0" class="graph" transform="scale(1 1) rotate(0) translate(4 155)"><polygon fill="white" stroke="none" points="-4,4 -4,-155 639.6,-155 639.6,4 -4,4"/><title>Retries states</title><g id="node1" class="node"><ellipse fill="none" stroke="black" cx="103.6" cy="-18" rx="39.8775" ry="18" style="fill: black; stroke: none; fill-opacity:0.3" transform="translate(3,3)"/><ellipse fill="none" stroke="black" cx="103.6" cy="-18" rx="39.8775" ry="18" style="fill: url(#none);stroke: black;"/><text text-anchor="middle" x="103.6" y="-15.2" font-family="Times,serif" font-size="11.00" style="font-size:10px; font-family:sans-serif;">PENDING</text></g><g id="node2" class="node"><ellipse fill="none" stroke="black" cx="221.6" cy="-56" rx="41.4846" ry="18" style="fill: black; stroke: none; fill-opacity:0.3" transform="translate(3,3)"/><ellipse fill="none" stroke="black" cx="221.6" cy="-56" rx="41.4846" ry="18" style="fill: url(#none);stroke: black;"/><text text-anchor="middle" x="221.6" y="-53.2" font-family="Times,serif" font-size="11.00" style="font-size:10px; font-family:sans-serif;">RUNNING</text></g><g id="edge1" class="edge"><polygon fill="black" stroke="black" points="177.135,-45.4443 187.727,-45.2314 179.314,-38.7922 177.135,-45.4443" style="fill: black; stroke: none; fill-opacity:0.3" transform="translate(3,3)"/><path fill="none" stroke="black" d="M136.298,-28.3837C149.145,-32.5922 164.176,-37.5163 177.96,-42.0317" style="fill: none; stroke: black; stroke-opacity:0.3" transform="translate(3,3)"/><polygon fill="black" stroke="black" points="177.135,-45.4443 187.727,-45.2314 179.314,-38.7922 177.135,-45.4443" style="fill: url(#black);stroke: black;"/><path fill="none" stroke="black" d="M136.298,-28.3837C149.145,-32.5922 164.176,-37.5163 177.96,-42.0317"/></g><g id="node3" class="node"><ellipse fill="none" stroke="black" cx="338.6" cy="-117" rx="39.1741" ry="18" style="fill: black; stroke: none; fill-opacity:0.3" transform="translate(3,3)"/><ellipse fill="none" stroke="black" cx="338.6" cy="-117" rx="39.1741" ry="18" style="fill: url(#none);stroke: black;"/><text text-anchor="middle" x="338.6" y="-114.2" font-family="Times,serif" font-size="11.00" fill="green" style="font-size:10px; font-family:sans-serif;">SUCCESS</text></g><g id="edge10" class="edge"><polygon fill="black" stroke="black" points="301.924,-102.038 312.398,-103.632 305.204,-95.8542 301.924,-102.038" style="fill: black; stroke: none; fill-opacity:0.3" transform="translate(3,3)"/><path fill="none" stroke="black" d="M248.695,-69.8418C264.799,-78.3837 285.643,-89.44 303.1,-98.6999" style="fill: none; stroke: black; stroke-opacity:0.3" transform="translate(3,3)"/><polygon fill="black" stroke="black" points="301.924,-102.038 312.398,-103.632 305.204,-95.8542 301.924,-102.038" style="fill: url(#black);stroke: black;"/><path fill="none" stroke="black" d="M248.695,-69.8418C264.799,-78.3837 285.643,-89.44 303.1,-98.6999"/></g><g id="node6" class="node"><ellipse fill="none" stroke="black" cx="590.6" cy="-133" rx="38.4712" ry="18" style="fill: black; stroke: none; fill-opacity:0.3" transform="translate(3,3)"/><ellipse fill="none" stroke="black" cx="590.6" cy="-133" rx="38.4712" ry="18" style="fill: url(#none);stroke: black;"/><text text-anchor="middle" x="590.6" y="-130.2" font-family="Times,serif" font-size="11.00" fill="red" style="font-size:10px; font-family:sans-serif;">FAILURE</text></g><g id="edge9" class="edge"><polygon fill="black" stroke="black" points="570.2,-109.624 578.84,-115.756 575.91,-105.574 570.2,-109.624" style="fill: black; stroke: none; fill-opacity:0.3" transform="translate(3,3)"/><path fill="none" stroke="black" d="M257.86,-46.8398C313.747,-34.1815 424.999,-16.6491 509.6,-52 536.327,-63.1681 558.671,-88.0955 572.892,-107.368" style="fill: none; stroke: black; stroke-opacity:0.3" transform="translate(3,3)"/><polygon fill="black" stroke="black" points="570.2,-109.624 578.84,-115.756 575.91,-105.574 570.2,-109.624" style="fill: url(#black);stroke: black;"/><path fill="none" stroke="black" d="M257.86,-46.8398C313.747,-34.1815 424.999,-16.6491 509.6,-52 536.327,-63.1681 558.671,-88.0955 572.892,-107.368"/></g><g id="node4" class="node"><ellipse fill="none" stroke="black" cx="461.6" cy="-79" rx="44.498" ry="18" style="fill: black; stroke: none; fill-opacity:0.3" transform="translate(3,3)"/><ellipse fill="none" stroke="black" cx="461.6" cy="-79" rx="44.498" ry="18" style="fill: url(#none);stroke: black;"/><text text-anchor="middle" x="461.6" y="-76.2" font-family="Times,serif" font-size="11.00" style="font-size:10px; font-family:sans-serif;">RETRYING</text></g><g id="edge2" class="edge"><polygon fill="black" stroke="black" points="417.556,-96.1866 426.048,-89.8511 415.458,-89.5082 417.556,-96.1866" style="fill: black; stroke: none; fill-opacity:0.3" transform="translate(3,3)"/><path fill="none" stroke="black" d="M371.391,-107.016C385.177,-102.687 401.55,-97.5445 416.484,-92.8546" style="fill: none; stroke: black; stroke-opacity:0.3" transform="translate(3,3)"/><polygon fill="black" stroke="black" points="417.556,-96.1866 426.048,-89.8511 415.458,-89.5082 417.556,-96.1866" style="fill: url(#black);stroke: black;"/><path fill="none" stroke="black" d="M371.391,-107.016C385.177,-102.687 401.55,-97.5445 416.484,-92.8546"/></g><g id="node5" class="node"><ellipse fill="none" stroke="black" cx="461.6" cy="-133" rx="48.2143" ry="18" style="fill: black; stroke: none; fill-opacity:0.3" transform="translate(3,3)"/><ellipse fill="none" stroke="black" cx="461.6" cy="-133" rx="48.2143" ry="18" style="fill: url(#none);stroke: black;"/><text text-anchor="middle" x="461.6" y="-130.2" font-family="Times,serif" font-size="11.00" style="font-size:10px; font-family:sans-serif;">REVERTING</text></g><g id="edge3" class="edge"><polygon fill="black" stroke="black" points="405.392,-129.23 415.764,-127.071 406.309,-122.291 405.392,-129.23" style="fill: black; stroke: none; fill-opacity:0.3" transform="translate(3,3)"/><path fill="none" stroke="black" d="M376.561,-121.887C385.743,-123.102 395.782,-124.429 405.623,-125.73" style="fill: none; stroke: black; stroke-opacity:0.3" transform="translate(3,3)"/><polygon fill="black" stroke="black" points="405.392,-129.23 415.764,-127.071 406.309,-122.291 405.392,-129.23" style="fill: url(#black);stroke: black;"/><path fill="none" stroke="black" d="M376.561,-121.887C385.743,-123.102 395.782,-124.429 405.623,-125.73"/></g><g id="edge4" class="edge"><polygon fill="black" stroke="black" points="272.458,-57.302 262.168,-59.8238 271.785,-64.2696 272.458,-57.302" style="fill: black; stroke: none; fill-opacity:0.3" transform="translate(3,3)"/><path fill="none" stroke="black" d="M418.124,-74.8952C377.203,-70.9406 315.316,-64.96 272.165,-60.7899" style="fill: none; stroke: black; stroke-opacity:0.3" transform="translate(3,3)"/><polygon fill="black" stroke="black" points="272.458,-57.302 262.168,-59.8238 271.785,-64.2696 272.458,-57.302" style="fill: url(#black);stroke: black;"/><path fill="none" stroke="black" d="M418.124,-74.8952C377.203,-70.9406 315.316,-64.96 272.165,-60.7899"/></g><g id="edge7" class="edge"><polygon fill="black" stroke="black" points="543.885,-129.995 554.007,-126.866 544.143,-123 543.885,-129.995" style="fill: black; stroke: none; fill-opacity:0.3" transform="translate(3,3)"/><path fill="none" stroke="black" d="M506.662,-126.539C518.631,-126.172 531.619,-126.154 543.687,-126.486" style="fill: none; stroke: black; stroke-opacity:0.3" transform="translate(3,3)"/><polygon fill="black" stroke="black" points="543.885,-129.995 554.007,-126.866 544.143,-123 543.885,-129.995" style="fill: url(#black);stroke: black;"/><path fill="none" stroke="black" d="M506.662,-126.539C518.631,-126.172 531.619,-126.154 543.687,-126.486"/></g><g id="node7" class="node"><ellipse fill="none" stroke="black" cx="590.6" cy="-37" rx="45.2009" ry="18" style="fill: black; stroke: none; fill-opacity:0.3" transform="translate(3,3)"/><ellipse fill="none" stroke="black" cx="590.6" cy="-37" rx="45.2009" ry="18" style="fill: url(#none);stroke: black;"/><text text-anchor="middle" x="590.6" y="-34.2" font-family="Times,serif" font-size="11.00" fill="darkorange" style="font-size:10px; font-family:sans-serif;">REVERTED</text></g><g id="edge6" class="edge"><polygon fill="black" stroke="black" points="567.317,-62.9968 572.288,-53.6408 562.568,-57.8546 567.317,-62.9968" style="fill: black; stroke: none; fill-opacity:0.3" transform="translate(3,3)"/><path fill="none" stroke="black" d="M489.99,-118.435C496.565,-114.622 503.458,-110.353 509.6,-106 529.096,-92.182 549.47,-74.5566 564.777,-60.5785" style="fill: none; stroke: black; stroke-opacity:0.3" transform="translate(3,3)"/><polygon fill="black" stroke="black" points="567.317,-62.9968 572.288,-53.6408 562.568,-57.8546 567.317,-62.9968" style="fill: url(#black);stroke: black;"/><path fill="none" stroke="black" d="M489.99,-118.435C496.565,-114.622 503.458,-110.353 509.6,-106 529.096,-92.182 549.47,-74.5566 564.777,-60.5785"/></g><g id="edge5" class="edge"><polygon fill="black" stroke="black" points="516.737,-136.181 506.662,-139.461 516.583,-143.18 516.737,-136.181" style="fill: black; stroke: none; fill-opacity:0.3" transform="translate(3,3)"/><path fill="none" stroke="black" d="M554.007,-139.134C542.529,-139.675 529.533,-139.859 517.018,-139.688" style="fill: none; stroke: black; stroke-opacity:0.3" transform="translate(3,3)"/><polygon fill="black" stroke="black" points="516.737,-136.181 506.662,-139.461 516.583,-143.18 516.737,-136.181" style="fill: url(#black);stroke: black;"/><path fill="none" stroke="black" d="M554.007,-139.134C542.529,-139.675 529.533,-139.859 517.018,-139.688"/></g><g id="edge8" class="edge"><polygon fill="black" stroke="black" points="153.465,-14.3312 143.466,-17.8322 153.466,-21.3312 153.465,-14.3312" style="fill: black; stroke: none; fill-opacity:0.3" transform="translate(3,3)"/><path fill="none" stroke="black" d="M547.314,-31.5447C535.158,-30.1661 521.871,-28.8401 509.6,-28 381.429,-19.2249 229.976,-17.8811 153.717,-17.8313" style="fill: none; stroke: black; stroke-opacity:0.3" transform="translate(3,3)"/><polygon fill="black" stroke="black" points="153.465,-14.3312 143.466,-17.8322 153.466,-21.3312 153.465,-14.3312" style="fill: url(#black);stroke: black;"/><path fill="none" stroke="black" d="M547.314,-31.5447C535.158,-30.1661 521.871,-28.8401 509.6,-28 381.429,-19.2249 229.976,-17.8811 153.717,-17.8313"/></g><g id="node8" class="node"><ellipse fill="black" stroke="black" cx="23.6" cy="-18" rx="3.6" ry="3.6" style="fill: black; stroke: none; fill-opacity:0.3" transform="translate(3,3)"/><ellipse fill="black" stroke="black" cx="23.6" cy="-18" rx="3.6" ry="3.6" style="fill: url(#black);stroke: black;"/><text text-anchor="middle" x="10" y="-5.6" font-family="Times,serif" font-size="11.00" fill="green" style="font-size:10px; font-family:sans-serif;">start</text></g><g id="edge11" class="edge"><polygon fill="black" stroke="black" points="53.5965,-21.5001 63.5964,-18 53.5964,-14.5001 53.5965,-21.5001" style="fill: black; stroke: none; fill-opacity:0.3" transform="translate(3,3)"/><path fill="none" stroke="black" stroke-dasharray="1,5" d="M27.5624,-18C32.3405,-18 42.3529,-18 53.5516,-18" style="fill: none; stroke: black; stroke-opacity:0.3" transform="translate(3,3)"/><polygon fill="black" stroke="black" points="53.5965,-21.5001 63.5964,-18 53.5964,-14.5001 53.5965,-21.5001" style="fill: url(#black);stroke: black;"/><path fill="none" stroke="black" stroke-dasharray="1,5" d="M27.5624,-18C32.3405,-18 42.3529,-18 53.5516,-18"/></g></g>
</svg>
