<?xml version="1.0"?>
<!DOCTYPE svg PUBLIC "-//W3C//DTD SVG 1.0//EN" "http://www.w3.org/TR/2001/REC-SVG-20010904/DTD/svg10.dtd">
<!-- Generated by graphviz version 2.38.0 (20140413.2041)
 -->
<!-- Title: Retries states Pages: 1 -->
<svg xmlns="http://www.w3.org/2000/svg" xmlns:svg="http://www.w3.org/2000/svg" width="642pt" height="167pt" viewBox="0.00 0.00 642.15 167.00" preserveAspectRatio="xMidYMid meet" zoomAndPan="magnify" version="1.1" contentScriptType="application/ecmascript" contentStyleType="text/css"><defs><linearGradient id="white" x1="0%" y1="0%" x2="0%" y2="0%"><stop offset="0%" style="stop-color:rgb(255,255,255);stop-opacity:1"/></linearGradient><linearGradient id="black" x1="0%" y1="0%" x2="0%" y2="0%"><stop offset="0%" style="stop-color:rgb(0,0,0);stop-opacity:1"/></linearGradient><linearGradient id="aquamarine" x1="0%" y1="0%" x2="100%" y2="100%"><stop offset="0%" style="stop-color:rgb(255,255,255);stop-opacity:1"/><stop offset="100%" style="stop-color:rgb(127,255,212);stop-opacity:1"/></linearGradient><linearGradient id="azure" x1="0%" y1="0%" x2="100%" y2="100%"><stop offset="0%" style="stop-color:rgb(255,255,255);stop-opacity:1"/><stop offset="100%" style="stop-color:rgb(240,255,255);stop-opacity:1"/></linearGradient><linearGradient id="blue" x1="0%" y1="0%" x2="100%" y2="100%"><stop offset="0%" style="stop-color:rgb(255,255,255);stop-opacity:1"/><stop offset="100%" style="stop-color:rgb(0,0,255);stop-opacity:1"/></linearGradient><linearGradient id="blueviolet" x1="0%" y1="0%" x2="100%" y2="100%"><stop offset="0%" style="stop-color:rgb(255,255,255);stop-opacity:1"/><stop offset="100%" style="stop-color:rgb(138,43,226);stop-opacity:1"/></linearGradient><linearGradient id="brown" x1="0%" y1="0%" x2="100%" y2="100%"><stop offset="0%" style="stop-color:rgb(255,255,255);stop-opacity:1"/><stop offset="100%" style="stop-color:rgb(165,42,42);stop-opacity:1"/></linearGradient><linearGradient id="cadetblue" x1="0%" y1="0%" x2="100%" y2="100%"><stop offset="0%" style="stop-color:rgb(255,255,255);stop-opacity:1"/><stop offset="100%" style="stop-color:rgb(95,158,160);stop-opacity:1"/></linearGradient><linearGradient id="chocolate" x1="0%" y1="0%" x2="100%" y2="100%"><stop offset="0%" style="stop-color:rgb(255,255,255);stop-opacity:1"/><stop offset="100%" style="stop-color:rgb(210,105,30);stop-opacity:1"/></linearGradient><linearGradient id="cornflowerblue" x1="0%" y1="0%" x2="100%" y2="100%"><stop offset="0%" style="stop-color:rgb(255,255,255);stop-opacity:1"/><stop offset="100%" style="stop-color:rgb(100,149,237);stop-opacity:1"/></linearGradient><linearGradient id="crimson" x1="0%" y1="0%" x2="100%" y2="100%"><stop offset="0%" style="stop-color:rgb(255,255,255);stop-opacity:1"/><stop offset="100%" style="stop-color:rgb(220,20,60);stop-opacity:1"/></linearGradient><linearGradient id="cyan" x1="0%" y1="0%" x2="100%" y2="100%"><stop offset="0%" style="stop-color:rgb(255,255,255);stop-opacity:1"/><stop offset="100%" style="stop-color:rgb(0,255,255);stop-opacity:1"/></linearGradient><linearGradient id="darkgreen" x1="0%" y1="0%" x2="100%" y2="100%"><stop offset="0%" style="stop-color:rgb(255,255,255);stop-opacity:1"/><stop offset="100%" style="stop-color:rgb(0,100,0);stop-opacity:1"/></linearGradient><linearGradient id="darkorange" x1="0%" y1="0%" x2="100%" y2="100%"><stop offset="0%" style="stop-color:rgb(255,255,255);stop-opacity:1"/><stop offset="100%" style="stop-color:rgb(255,140,0);stop-opacity:1"/></linearGradient><linearGradient id="gold" x1="0%" y1="0%" x2="100%" y2="100%"><stop offset="0%" style="stop-color:rgb(255,255,255);stop-opacity:1"/><stop offset="100%" style="stop-color:rgb(255,215,0);stop-opacity:1"/></linearGradient><linearGradient id="gray" x1="0%" y1="0%" x2="100%" y2="100%"><stop offset="0%" style="stop-color:rgb(255,255,255);stop-opacity:1"/><stop offset="100%" style="stop-color:rgb(192,192,192);stop-opacity:1"/></linearGradient><linearGradient id="greenyellow" x1="0%" y1="0%" x2="100%" y2="100%"><stop offset="0%" style="stop-color:rgb(255,255,255);stop-opacity:1"/><stop offset="100%" style="stop-color:rgb(173,255,47);stop-opacity:1"/></linearGradient><linearGradient id="green" x1="0%" y1="0%" x2="100%" y2="100%"><stop offset="0%" style="stop-color:rgb(255,255,255);stop-opacity:1"/><stop offset="100%" style="stop-color:rgb(0,255,0);stop-opacity:1"/></linearGradient><linearGradient id="grey" x1="0%" y1="0%" x2="100%" y2="100%"><stop offset="0%" style="stop-color:rgb(255,255,255);stop-opacity:1"/><stop offset="100%" style="stop-color:rgb(192,192,192);stop-opacity:1"/></linearGradient><linearGradient id="hotpink" x1="0%" y1="0%" x2="100%" y2="100%"><stop offset="0%" style="stop-color:rgb(255,255,255);stop-opacity:1"/><stop offset="100%" style="stop-color:rgb(255,105,180);stop-opacity:1"/></linearGradient><linearGradient id="indianred" x1="0%" y1="0%" x2="100%" y2="100%"><stop offset="0%" style="stop-color:rgb(255,255,255);stop-opacity:1"/><stop offset="100%" style="stop-color:rgb(205,92,92);stop-opacity:1"/></linearGradient><linearGradient id="indigo" x1="0%" y1="0%" x2="100%" y2="100%"><stop offset="0%" style="stop-color:rgb(255,255,255);stop-opacity:1"/><stop offset="100%" style="stop-color:rgb(75,0,130);stop-opacity:1"/></linearGradient><linearGradient id="lavender" x1="0%" y1="0%" x2="100%" y2="100%"><stop offset="0%" style="stop-color:rgb(255,255,255);stop-opacity:1"/><stop offset="100%" style="stop-color:rgb(230,230,250);stop-opacity:1"/></linearGradient><linearGradient id="lightblue" x1="0%" y1="0%" x2="100%" y2="100%"><stop offset="0%" style="stop-color:rgb(255,255,255);stop-opacity:1"/><stop offset="100%" style="stop-color:rgb(173,216,230);stop-opacity:1"/></linearGradient><linearGradient id="lightgray" x1="0%" y1="0%" x2="100%" y2="100%"><stop offset="0%" style="stop-color:rgb(255,255,255);stop-opacity:1"/><stop offset="100%" style="stop-color:rgb(211,211,211);stop-opacity:1"/></linearGradient><linearGradient id="lightgrey" x1="0%" y1="0%" x2="100%" y2="100%"><stop offset="0%" style="stop-color:rgb(255,255,255);stop-opacity:1"/><stop offset="100%" style="stop-color:rgb(211,211,211);stop-opacity:1"/></linearGradient><linearGradient id="magenta" x1="0%" y1="0%" x2="100%" y2="100%"><stop offset="0%" style="stop-color:rgb(255,255,255);stop-opacity:1"/><stop offset="100%" style="stop-color:rgb(255,0,255);stop-opacity:1"/></linearGradient><linearGradient id="maroon" x1="0%" y1="0%" x2="100%" y2="100%"><stop offset="0%" style="stop-color:rgb(255,255,255);stop-opacity:1"/><stop offset="100%" style="stop-color:rgb(176,48,96);stop-opacity:1"/></linearGradient><linearGradient id="mediumblue" x1="0%" y1="0%" x2="100%" y2="100%"><stop offset="0%" style="stop-color:rgb(255,255,255);stop-opacity:1"/><stop offset="100%" style="stop-color:rgb(0,0,205);stop-opacity:1"/></linearGradient><linearGradient id="mediumpurple" x1="0%" y1="0%" x2="100%" y2="100%"><stop offset="0%" style="stop-color:rgb(255,255,255);stop-opacity:1"/><stop offset="100%" style="stop-color:rgb(147,112,219);stop-opacity:1"/></linearGradient><linearGradient id="orange" x1="0%" y1="0%" x2="100%" y2="100%"><stop offset="0%" style="stop-color:rgb(255,255,255);stop-opacity:1"/><stop offset="100%" style="stop-color:rgb(255,165,0);stop-opacity:1"/></linearGradient><linearGradient id="pink" x1="0%" y1="0%" x2="100%" y2="100%"><stop offset="0%" style="stop-color:rgb(255,255,255);stop-opacity:1"/><stop offset="100%" style="stop-color:rgb(255,192,203);stop-opacity:1"/></linearGradient><linearGradient id="purple" x1="0%" y1="0%" x2="100%" y2="100%"><stop offset="0%" style="stop-color:rgb(255,255,255);stop-opacity:1"/><stop offset="100%" style="stop-color:rgb(160,32,240);stop-opacity:1"/></linearGradient><linearGradient id="red" x1="0%" y1="0%" x2="100%" y2="100%"><stop offset="0%" style="stop-color:rgb(255,255,255);stop-opacity:1"/><stop offset="100%" style="stop-color:rgb(255,0,0);stop-opacity:1"/></linearGradient><linearGradient id="steelblue" x1="0%" y1="0%" x2="100%" y2="100%"><stop offset="0%" style="stop-color:rgb(255,255,255);stop-opacity:1"/><stop offset="100%" style="stop-color:rgb(70,130,180);stop-opacity:1"/></linearGradient><linearGradient id="violet" x1="0%" y1="0%" x2="100%" y2="100%"><stop offset="0%" style="stop-color:rgb(255,255,255);stop-opacity:1"/><stop offset="100%" style="stop-color:rgb(238,130,238);stop-opacity:1"/></linearGradient><linearGradient id="yellow" x1="0%" y1="0%" x2="100%" y2="100%"><stop offset="0%" style="stop-color:rgb(255,255,255);stop-opacity:1"/><stop offset="100%" style="stop-color:rgb(255,255,0);stop-opacity:1"/></linearGradient><linearGradient id="none" x1="0%" y1="0%" x2="100%" y2="100%"><stop offset="0%" style="stop-color:rgb(255,255,255);stop-opacity:1"/><stop offset="100%" style="stop-color:rgb(255,255,255);stop-opacity:1"/></linearGradient></defs>
<g id="graph0" class="graph" transform="scale(1 1) rotate(0) translate(4 163)"><polygon fill="white" stroke="none" points="-4,4 -4,-163 638.15,-163 638.15,4 -4,4"/><title>Retries states</title><g id="node1" class="node"><ellipse fill="none" stroke="black" cx="102.888" cy="-133" rx="39.8775" ry="18" style="fill: black; stroke: none; fill-opacity:0.3" transform="translate(3,3)"/><ellipse fill="none" stroke="black" cx="102.888" cy="-133" rx="39.8775" ry="18" style="fill:url(#none);stroke:black;"/><text text-anchor="middle" x="102.888" y="-130.2" font-family="Times,serif" font-size="11.00" style="font-size:10px; font-family:Verdana">PENDING</text></g><g id="node2" class="node"><ellipse fill="none" stroke="black" cx="220.069" cy="-91" rx="41.4846" ry="18" style="fill: black; stroke: none; fill-opacity:0.3" transform="translate(3,3)"/><ellipse fill="none" stroke="black" cx="220.069" cy="-91" rx="41.4846" ry="18" style="fill:url(#none);stroke:black;"/><text text-anchor="middle" x="220.069" y="-88.2" font-family="Times,serif" font-size="11.00" style="font-size:10px; font-family:Verdana">RUNNING</text></g><g id="edge1" class="edge"><polygon fill="black" stroke="black" points="179.363,-109.204 187.558,-102.49 176.964,-102.628 179.363,-109.204" style="fill: black; stroke: none; fill-opacity:0.3" transform="translate(3,3)"/><path fill="none" stroke="black" d="M134.452,-121.855C147.773,-116.998 163.589,-111.23 177.922,-106.004" style="fill: none; stroke: black; stroke-opacity:0.3" transform="translate(3,3)"/><polygon fill="black" stroke="black" points="179.363,-109.204 187.558,-102.49 176.964,-102.628 179.363,-109.204" style="fill:url(#black);stroke:black;"/><path fill="none" stroke="black" d="M134.452,-121.855C147.773,-116.998 163.589,-111.23 177.922,-106.004"/></g><g id="node3" class="node"><ellipse fill="none" stroke="black" cx="336.648" cy="-72" rx="39.1741" ry="18" style="fill: black; stroke: none; fill-opacity:0.3" transform="translate(3,3)"/><ellipse fill="none" stroke="black" cx="336.648" cy="-72" rx="39.1741" ry="18" style="fill:url(#none);stroke:black;"/><text text-anchor="middle" x="336.648" y="-69.2" font-family="Times,serif" font-size="11.00" style="font-size:10px; font-family:Verdana">SUCCESS</text></g><g id="edge5" class="edge"><polygon fill="black" stroke="black" points="290.308,-83.0663 299.601,-77.9775 289.163,-76.1606 290.308,-83.0663" style="fill: black; stroke: none; fill-opacity:0.3" transform="translate(3,3)"/><path fill="none" stroke="black" d="M259.222,-84.6733C268.987,-83.054 279.59,-81.2958 289.702,-79.619" style="fill: none; stroke: black; stroke-opacity:0.3" transform="translate(3,3)"/><polygon fill="black" stroke="black" points="290.308,-83.0663 299.601,-77.9775 289.163,-76.1606 290.308,-83.0663" style="fill:url(#black);stroke:black;"/><path fill="none" stroke="black" d="M259.222,-84.6733C268.987,-83.054 279.59,-81.2958 289.702,-79.619"/></g><g id="node6" class="node"><ellipse fill="none" stroke="black" cx="589.049" cy="-72" rx="38.4712" ry="18" style="fill: black; stroke: none; fill-opacity:0.3" transform="translate(3,3)"/><ellipse fill="none" stroke="black" cx="589.049" cy="-72" rx="38.4712" ry="18" style="fill:url(#none);stroke:black;"/><text text-anchor="middle" x="589.049" y="-69.2" font-family="Times,serif" font-size="11.00" style="font-size:10px; font-family:Verdana">FAILURE</text></g><g id="edge6" class="edge"><polygon fill="black" stroke="black" points="551.908,-90.6718 560.077,-83.9251 549.484,-84.105 551.908,-90.6718" style="fill: black; stroke: none; fill-opacity:0.3" transform="translate(3,3)"/><path fill="none" stroke="black" d="M259.895,-96.7132C315.335,-103.826 420.184,-113.394 507.949,-99 522.143,-96.6721 537.211,-92.1688 550.401,-87.4971" style="fill: none; stroke: black; stroke-opacity:0.3" transform="translate(3,3)"/><polygon fill="black" stroke="black" points="551.908,-90.6718 560.077,-83.9251 549.484,-84.105 551.908,-90.6718" style="fill:url(#black);stroke:black;"/><path fill="none" stroke="black" d="M259.895,-96.7132C315.335,-103.826 420.184,-113.394 507.949,-99 522.143,-96.6721 537.211,-92.1688 550.401,-87.4971"/></g><g id="node4" class="node"><ellipse fill="none" stroke="black" cx="459.842" cy="-18" rx="44.498" ry="18" style="fill: black; stroke: none; fill-opacity:0.3" transform="translate(3,3)"/><ellipse fill="none" stroke="black" cx="459.842" cy="-18" rx="44.498" ry="18" style="fill:url(#none);stroke:black;"/><text text-anchor="middle" x="459.842" y="-15.2" font-family="Times,serif" font-size="11.00" style="font-size:10px; font-family:Verdana">RETRYING</text></g><g id="edge2" class="edge"><polygon fill="black" stroke="black" points="421.339,-38.5417 429.049,-31.2747 418.49,-32.1477 421.339,-38.5417" style="fill: black; stroke: none; fill-opacity:0.3" transform="translate(3,3)"/><path fill="none" stroke="black" d="M365.453,-59.6113C381.491,-52.4651 401.915,-43.3648 419.571,-35.498" style="fill: none; stroke: black; stroke-opacity:0.3" transform="translate(3,3)"/><polygon fill="black" stroke="black" points="421.339,-38.5417 429.049,-31.2747 418.49,-32.1477 421.339,-38.5417" style="fill:url(#black);stroke:black;"/><path fill="none" stroke="black" d="M365.453,-59.6113C381.491,-52.4651 401.915,-43.3648 419.571,-35.498"/></g><g id="node5" class="node"><ellipse fill="none" stroke="black" cx="459.842" cy="-72" rx="48.2143" ry="18" style="fill: black; stroke: none; fill-opacity:0.3" transform="translate(3,3)"/><ellipse fill="none" stroke="black" cx="459.842" cy="-72" rx="48.2143" ry="18" style="fill:url(#none);stroke:black;"/><text text-anchor="middle" x="459.842" y="-69.2" font-family="Times,serif" font-size="11.00" style="font-size:10px; font-family:Verdana">REVERTING</text></g><g id="edge3" class="edge"><polygon fill="black" stroke="black" points="401.378,-75.5001 411.378,-72 401.378,-68.5001 401.378,-75.5001" style="fill: black; stroke: none; fill-opacity:0.3" transform="translate(3,3)"/><path fill="none" stroke="black" d="M375.995,-72C384.069,-72 392.756,-72 401.359,-72" style="fill: none; stroke: black; stroke-opacity:0.3" transform="translate(3,3)"/><polygon fill="black" stroke="black" points="401.378,-75.5001 411.378,-72 401.378,-68.5001 401.378,-75.5001" style="fill:url(#black);stroke:black;"/><path fill="none" stroke="black" d="M375.995,-72C384.069,-72 392.756,-72 401.359,-72"/></g><g id="edge4" class="edge"><polygon fill="black" stroke="black" points="248.076,-67.1447 241.735,-75.632 251.985,-72.9518 248.076,-67.1447" style="fill: black; stroke: none; fill-opacity:0.3" transform="translate(3,3)"/><path fill="none" stroke="black" d="M415.61,-20.8187C382.47,-24.0217 336.046,-30.7927 297.561,-45 280.985,-51.1193 264,-60.9132 250.259,-69.8943" style="fill: none; stroke: black; stroke-opacity:0.3" transform="translate(3,3)"/><polygon fill="black" stroke="black" points="248.076,-67.1447 241.735,-75.632 251.985,-72.9518 248.076,-67.1447" style="fill:url(#black);stroke:black;"/><path fill="none" stroke="black" d="M415.61,-20.8187C382.47,-24.0217 336.046,-30.7927 297.561,-45 280.985,-51.1193 264,-60.9132 250.259,-69.8943"/></g><g id="edge9" class="edge"><polygon fill="black" stroke="black" points="542.681,-69.0045 552.807,-65.8858 542.946,-62.0095 542.681,-69.0045" style="fill: black; stroke: none; fill-opacity:0.3" transform="translate(3,3)"/><path fill="none" stroke="black" d="M504.976,-65.5393C517.198,-65.1653 530.48,-65.1539 542.766,-65.5053" style="fill: none; stroke: black; stroke-opacity:0.3" transform="translate(3,3)"/><polygon fill="black" stroke="black" points="542.681,-69.0045 552.807,-65.8858 542.946,-62.0095 542.681,-69.0045" style="fill:url(#black);stroke:black;"/><path fill="none" stroke="black" d="M504.976,-65.5393C517.198,-65.1653 530.48,-65.1539 542.766,-65.5053"/></g><g id="node7" class="node"><ellipse fill="none" stroke="black" cx="589.049" cy="-141" rx="45.2009" ry="18" style="fill: black; stroke: none; fill-opacity:0.3" transform="translate(3,3)"/><ellipse fill="none" stroke="black" cx="589.049" cy="-141" rx="45.2009" ry="18" style="fill:url(#none);stroke:black;"/><text text-anchor="middle" x="589.049" y="-138.2" font-family="Times,serif" font-size="11.00" style="font-size:10px; font-family:Verdana">REVERTED</text></g><g id="edge10" class="edge"><polygon fill="black" stroke="black" points="550.783,-124.768 561.242,-126.459 554.121,-118.615 550.783,-124.768" style="fill: black; stroke: none; fill-opacity:0.3" transform="translate(3,3)"/><path fill="none" stroke="black" d="M488.131,-86.8022C506.87,-96.9667 531.934,-110.562 552.271,-121.593" style="fill: none; stroke: black; stroke-opacity:0.3" transform="translate(3,3)"/><polygon fill="black" stroke="black" points="550.783,-124.768 561.242,-126.459 554.121,-118.615 550.783,-124.768" style="fill:url(#black);stroke:black;"/><path fill="none" stroke="black" d="M488.131,-86.8022C506.87,-96.9667 531.934,-110.562 552.271,-121.593"/></g><g id="edge8" class="edge"><polygon fill="black" stroke="black" points="515.051,-75.1832 504.976,-78.4607 514.896,-82.1815 515.051,-75.1832" style="fill: black; stroke: none; fill-opacity:0.3" transform="translate(3,3)"/><path fill="none" stroke="black" d="M552.807,-78.1142C541.125,-78.6743 527.838,-78.8643 515.067,-78.6843" style="fill: none; stroke: black; stroke-opacity:0.3" transform="translate(3,3)"/><polygon fill="black" stroke="black" points="515.051,-75.1832 504.976,-78.4607 514.896,-82.1815 515.051,-75.1832" style="fill:url(#black);stroke:black;"/><path fill="none" stroke="black" d="M552.807,-78.1142C541.125,-78.6743 527.838,-78.8643 515.067,-78.6843"/></g><g id="edge7" class="edge"><polygon fill="black" stroke="black" points="152.747,-130.307 142.691,-133.641 152.632,-137.306 152.747,-130.307" style="fill: black; stroke: none; fill-opacity:0.3" transform="translate(3,3)"/><path fill="none" stroke="black" d="M543.866,-140.27C453.316,-138.774 247.273,-135.369 152.83,-133.809" style="fill: none; stroke: black; stroke-opacity:0.3" transform="translate(3,3)"/><polygon fill="black" stroke="black" points="152.747,-130.307 142.691,-133.641 152.632,-137.306 152.747,-130.307" style="fill:url(#black);stroke:black;"/><path fill="none" stroke="black" d="M543.866,-140.27C453.316,-138.774 247.273,-135.369 152.83,-133.809"/></g><g id="node8" class="node"><ellipse fill="black" stroke="black" cx="23.6" cy="-133" rx="3.6" ry="3.6" style="fill: black; stroke: none; fill-opacity:0.3" transform="translate(3,3)"/><ellipse fill="black" stroke="black" cx="23.6" cy="-133" rx="3.6" ry="3.6" style="fill:url(#black);stroke:black;"/><text text-anchor="middle" x="10" y="-120.6" font-family="Times,serif" font-size="11.00" fill="green" style="font-size:10px; font-family:Verdana">start</text></g><g id="edge11" class="edge"><polygon fill="black" stroke="black" points="52.8409,-136.5 62.8408,-133 52.8408,-129.5 52.8409,-136.5" style="fill: black; stroke: none; fill-opacity:0.3" transform="translate(3,3)"/><path fill="none" stroke="black" stroke-dasharray="1,5" d="M27.5354,-133C32.1798,-133 41.8154,-133 52.6556,-133" style="fill: none; stroke: black; stroke-opacity:0.3" transform="translate(3,3)"/><polygon fill="black" stroke="black" points="52.8409,-136.5 62.8408,-133 52.8408,-129.5 52.8409,-136.5" style="fill:url(#black);stroke:black;"/><path fill="none" stroke="black" stroke-dasharray="1,5" d="M27.5354,-133C32.1798,-133 41.8154,-133 52.6556,-133"/></g></g>
</svg>
