<?xml version="1.0"?>
<!DOCTYPE svg PUBLIC "-//W3C//DTD SVG 1.0//EN" "http://www.w3.org/TR/2001/REC-SVG-20010904/DTD/svg10.dtd">
<!-- Generated by graphviz version 2.36.0 (20140111.2315)
 -->
<!-- Title: Retries states Pages: 1 -->
<svg xmlns="http://www.w3.org/2000/svg" xmlns:svg="http://www.w3.org/2000/svg" width="644pt" height="159pt" viewBox="0.00 0.00 643.60 159.00" preserveAspectRatio="xMidYMid meet" zoomAndPan="magnify" version="1.1" contentScriptType="application/ecmascript" contentStyleType="text/css"><defs><linearGradient id="white" x1="0%" y1="0%" x2="0%" y2="0%"><stop offset="0%" style="stop-color:rgb(255,255,255);stop-opacity:1"/></linearGradient><linearGradient id="black" x1="0%" y1="0%" x2="0%" y2="0%"><stop offset="0%" style="stop-color:rgb(0,0,0);stop-opacity:1"/></linearGradient><linearGradient id="aquamarine" x1="0%" y1="0%" x2="100%" y2="100%"><stop offset="0%" style="stop-color:rgb(255,255,255);stop-opacity:1"/><stop offset="100%" style="stop-color:rgb(127,255,212);stop-opacity:1"/></linearGradient><linearGradient id="azure" x1="0%" y1="0%" x2="100%" y2="100%"><stop offset="0%" style="stop-color:rgb(255,255,255);stop-opacity:1"/><stop offset="100%" style="stop-color:rgb(240,255,255);stop-opacity:1"/></linearGradient><linearGradient id="blue" x1="0%" y1="0%" x2="100%" y2="100%"><stop offset="0%" style="stop-color:rgb(255,255,255);stop-opacity:1"/><stop offset="100%" style="stop-color:rgb(0,0,255);stop-opacity:1"/></linearGradient><linearGradient id="blueviolet" x1="0%" y1="0%" x2="100%" y2="100%"><stop offset="0%" style="stop-color:rgb(255,255,255);stop-opacity:1"/><stop offset="100%" style="stop-color:rgb(138,43,226);stop-opacity:1"/></linearGradient><linearGradient id="brown" x1="0%" y1="0%" x2="100%" y2="100%"><stop offset="0%" style="stop-color:rgb(255,255,255);stop-opacity:1"/><stop offset="100%" style="stop-color:rgb(165,42,42);stop-opacity:1"/></linearGradient><linearGradient id="cadetblue" x1="0%" y1="0%" x2="100%" y2="100%"><stop offset="0%" style="stop-color:rgb(255,255,255);stop-opacity:1"/><stop offset="100%" style="stop-color:rgb(95,158,160);stop-opacity:1"/></linearGradient><linearGradient id="chocolate" x1="0%" y1="0%" x2="100%" y2="100%"><stop offset="0%" style="stop-color:rgb(255,255,255);stop-opacity:1"/><stop offset="100%" style="stop-color:rgb(210,105,30);stop-opacity:1"/></linearGradient><linearGradient id="cornflowerblue" x1="0%" y1="0%" x2="100%" y2="100%"><stop offset="0%" style="stop-color:rgb(255,255,255);stop-opacity:1"/><stop offset="100%" style="stop-color:rgb(100,149,237);stop-opacity:1"/></linearGradient><linearGradient id="crimson" x1="0%" y1="0%" x2="100%" y2="100%"><stop offset="0%" style="stop-color:rgb(255,255,255);stop-opacity:1"/><stop offset="100%" style="stop-color:rgb(220,20,60);stop-opacity:1"/></linearGradient><linearGradient id="cyan" x1="0%" y1="0%" x2="100%" y2="100%"><stop offset="0%" style="stop-color:rgb(255,255,255);stop-opacity:1"/><stop offset="100%" style="stop-color:rgb(0,255,255);stop-opacity:1"/></linearGradient><linearGradient id="darkgreen" x1="0%" y1="0%" x2="100%" y2="100%"><stop offset="0%" style="stop-color:rgb(255,255,255);stop-opacity:1"/><stop offset="100%" style="stop-color:rgb(0,100,0);stop-opacity:1"/></linearGradient><linearGradient id="darkorange" x1="0%" y1="0%" x2="100%" y2="100%"><stop offset="0%" style="stop-color:rgb(255,255,255);stop-opacity:1"/><stop offset="100%" style="stop-color:rgb(255,140,0);stop-opacity:1"/></linearGradient><linearGradient id="gold" x1="0%" y1="0%" x2="100%" y2="100%"><stop offset="0%" style="stop-color:rgb(255,255,255);stop-opacity:1"/><stop offset="100%" style="stop-color:rgb(255,215,0);stop-opacity:1"/></linearGradient><linearGradient id="gray" x1="0%" y1="0%" x2="100%" y2="100%"><stop offset="0%" style="stop-color:rgb(255,255,255);stop-opacity:1"/><stop offset="100%" style="stop-color:rgb(192,192,192);stop-opacity:1"/></linearGradient><linearGradient id="greenyellow" x1="0%" y1="0%" x2="100%" y2="100%"><stop offset="0%" style="stop-color:rgb(255,255,255);stop-opacity:1"/><stop offset="100%" style="stop-color:rgb(173,255,47);stop-opacity:1"/></linearGradient><linearGradient id="green" x1="0%" y1="0%" x2="100%" y2="100%"><stop offset="0%" style="stop-color:rgb(255,255,255);stop-opacity:1"/><stop offset="100%" style="stop-color:rgb(0,255,0);stop-opacity:1"/></linearGradient><linearGradient id="grey" x1="0%" y1="0%" x2="100%" y2="100%"><stop offset="0%" style="stop-color:rgb(255,255,255);stop-opacity:1"/><stop offset="100%" style="stop-color:rgb(192,192,192);stop-opacity:1"/></linearGradient><linearGradient id="hotpink" x1="0%" y1="0%" x2="100%" y2="100%"><stop offset="0%" style="stop-color:rgb(255,255,255);stop-opacity:1"/><stop offset="100%" style="stop-color:rgb(255,105,180);stop-opacity:1"/></linearGradient><linearGradient id="indianred" x1="0%" y1="0%" x2="100%" y2="100%"><stop offset="0%" style="stop-color:rgb(255,255,255);stop-opacity:1"/><stop offset="100%" style="stop-color:rgb(205,92,92);stop-opacity:1"/></linearGradient><linearGradient id="indigo" x1="0%" y1="0%" x2="100%" y2="100%"><stop offset="0%" style="stop-color:rgb(255,255,255);stop-opacity:1"/><stop offset="100%" style="stop-color:rgb(75,0,130);stop-opacity:1"/></linearGradient><linearGradient id="lavender" x1="0%" y1="0%" x2="100%" y2="100%"><stop offset="0%" style="stop-color:rgb(255,255,255);stop-opacity:1"/><stop offset="100%" style="stop-color:rgb(230,230,250);stop-opacity:1"/></linearGradient><linearGradient id="lightblue" x1="0%" y1="0%" x2="100%" y2="100%"><stop offset="0%" style="stop-color:rgb(255,255,255);stop-opacity:1"/><stop offset="100%" style="stop-color:rgb(173,216,230);stop-opacity:1"/></linearGradient><linearGradient id="lightgray" x1="0%" y1="0%" x2="100%" y2="100%"><stop offset="0%" style="stop-color:rgb(255,255,255);stop-opacity:1"/><stop offset="100%" style="stop-color:rgb(211,211,211);stop-opacity:1"/></linearGradient><linearGradient id="lightgrey" x1="0%" y1="0%" x2="100%" y2="100%"><stop offset="0%" style="stop-color:rgb(255,255,255);stop-opacity:1"/><stop offset="100%" style="stop-color:rgb(211,211,211);stop-opacity:1"/></linearGradient><linearGradient id="magenta" x1="0%" y1="0%" x2="100%" y2="100%"><stop offset="0%" style="stop-color:rgb(255,255,255);stop-opacity:1"/><stop offset="100%" style="stop-color:rgb(255,0,255);stop-opacity:1"/></linearGradient><linearGradient id="maroon" x1="0%" y1="0%" x2="100%" y2="100%"><stop offset="0%" style="stop-color:rgb(255,255,255);stop-opacity:1"/><stop offset="100%" style="stop-color:rgb(176,48,96);stop-opacity:1"/></linearGradient><linearGradient id="mediumblue" x1="0%" y1="0%" x2="100%" y2="100%"><stop offset="0%" style="stop-color:rgb(255,255,255);stop-opacity:1"/><stop offset="100%" style="stop-color:rgb(0,0,205);stop-opacity:1"/></linearGradient><linearGradient id="mediumpurple" x1="0%" y1="0%" x2="100%" y2="100%"><stop offset="0%" style="stop-color:rgb(255,255,255);stop-opacity:1"/><stop offset="100%" style="stop-color:rgb(147,112,219);stop-opacity:1"/></linearGradient><linearGradient id="orange" x1="0%" y1="0%" x2="100%" y2="100%"><stop offset="0%" style="stop-color:rgb(255,255,255);stop-opacity:1"/><stop offset="100%" style="stop-color:rgb(255,165,0);stop-opacity:1"/></linearGradient><linearGradient id="pink" x1="0%" y1="0%" x2="100%" y2="100%"><stop offset="0%" style="stop-color:rgb(255,255,255);stop-opacity:1"/><stop offset="100%" style="stop-color:rgb(255,192,203);stop-opacity:1"/></linearGradient><linearGradient id="purple" x1="0%" y1="0%" x2="100%" y2="100%"><stop offset="0%" style="stop-color:rgb(255,255,255);stop-opacity:1"/><stop offset="100%" style="stop-color:rgb(160,32,240);stop-opacity:1"/></linearGradient><linearGradient id="red" x1="0%" y1="0%" x2="100%" y2="100%"><stop offset="0%" style="stop-color:rgb(255,255,255);stop-opacity:1"/><stop offset="100%" style="stop-color:rgb(255,0,0);stop-opacity:1"/></linearGradient><linearGradient id="steelblue" x1="0%" y1="0%" x2="100%" y2="100%"><stop offset="0%" style="stop-color:rgb(255,255,255);stop-opacity:1"/><stop offset="100%" style="stop-color:rgb(70,130,180);stop-opacity:1"/></linearGradient><linearGradient id="violet" x1="0%" y1="0%" x2="100%" y2="100%"><stop offset="0%" style="stop-color:rgb(255,255,255);stop-opacity:1"/><stop offset="100%" style="stop-color:rgb(238,130,238);stop-opacity:1"/></linearGradient><linearGradient id="yellow" x1="0%" y1="0%" x2="100%" y2="100%"><stop offset="0%" style="stop-color:rgb(255,255,255);stop-opacity:1"/><stop offset="100%" style="stop-color:rgb(255,255,0);stop-opacity:1"/></linearGradient><linearGradient id="none" x1="0%" y1="0%" x2="100%" y2="100%"><stop offset="0%" style="stop-color:rgb(255,255,255);stop-opacity:1"/><stop offset="100%" style="stop-color:rgb(255,255,255);stop-opacity:1"/></linearGradient></defs>
<g id="graph0" class="graph" transform="scale(1 1) rotate(0) translate(4 155)"><polygon fill="white" stroke="none" points="-4,4 -4,-155 639.6,-155 639.6,4 -4,4"/><title>Retries states</title><g id="node1" class="node"><ellipse fill="none" stroke="black" cx="103.6" cy="-18" rx="39.8775" ry="18" style="fill: black; stroke: none; fill-opacity:0.3" transform="translate(3,3)"/><ellipse fill="none" stroke="black" cx="103.6" cy="-18" rx="39.8775" ry="18" style="fill:url(#none);stroke:black;"/><text text-anchor="middle" x="103.6" y="-15.2" font-family="Times,serif" font-size="11.00" style="font-size:10px; font-family:Verdana">PENDING</text></g><g id="node2" class="node"><ellipse fill="none" stroke="black" cx="221.6" cy="-60" rx="41.4846" ry="18" style="fill: black; stroke: none; fill-opacity:0.3" transform="translate(3,3)"/><ellipse fill="none" stroke="black" cx="221.6" cy="-60" rx="41.4846" ry="18" style="fill:url(#none);stroke:black;"/><text text-anchor="middle" x="221.6" y="-57.2" font-family="Times,serif" font-size="11.00" style="font-size:10px; font-family:Verdana">RUNNING</text></g><g id="edge1" class="edge"><polygon fill="black" stroke="black" points="178.519,-48.486 189.113,-48.5996 180.902,-41.9042 178.519,-48.486" style="fill: black; stroke: none; fill-opacity:0.3" transform="translate(3,3)"/><path fill="none" stroke="black" d="M135.078,-29.035C148.604,-33.9324 164.729,-39.771 179.314,-45.0515" style="fill: none; stroke: black; stroke-opacity:0.3" transform="translate(3,3)"/><polygon fill="black" stroke="black" points="178.519,-48.486 189.113,-48.5996 180.902,-41.9042 178.519,-48.486" style="fill:url(#black);stroke:black;"/><path fill="none" stroke="black" d="M135.078,-29.035C148.604,-33.9324 164.729,-39.771 179.314,-45.0515"/></g><g id="node3" class="node"><ellipse fill="none" stroke="black" cx="338.6" cy="-133" rx="38.4712" ry="18" style="fill: black; stroke: none; fill-opacity:0.3" transform="translate(3,3)"/><ellipse fill="none" stroke="black" cx="338.6" cy="-133" rx="38.4712" ry="18" style="fill:url(#none);stroke:black;"/><text text-anchor="middle" x="338.6" y="-130.2" font-family="Times,serif" font-size="11.00" style="font-size:10px; font-family:Verdana">FAILURE</text></g><g id="edge2" class="edge"><polygon fill="black" stroke="black" points="304.437,-116.094 314.755,-118.498 308.188,-110.184 304.437,-116.094" style="fill: black; stroke: none; fill-opacity:0.3" transform="translate(3,3)"/><path fill="none" stroke="black" d="M245.872,-74.7726C263.209,-85.7782 287.075,-100.927 306.116,-113.015" style="fill: none; stroke: black; stroke-opacity:0.3" transform="translate(3,3)"/><polygon fill="black" stroke="black" points="304.437,-116.094 314.755,-118.498 308.188,-110.184 304.437,-116.094" style="fill:url(#black);stroke:black;"/><path fill="none" stroke="black" d="M245.872,-74.7726C263.209,-85.7782 287.075,-100.927 306.116,-113.015"/></g><g id="node4" class="node"><ellipse fill="none" stroke="black" cx="338.6" cy="-79" rx="39.1741" ry="18" style="fill: black; stroke: none; fill-opacity:0.3" transform="translate(3,3)"/><ellipse fill="none" stroke="black" cx="338.6" cy="-79" rx="39.1741" ry="18" style="fill:url(#none);stroke:black;"/><text text-anchor="middle" x="338.6" y="-76.2" font-family="Times,serif" font-size="11.00" style="font-size:10px; font-family:Verdana">SUCCESS</text></g><g id="edge3" class="edge"><polygon fill="black" stroke="black" points="291.179,-74.8779 301.616,-73.0549 292.321,-67.9715 291.179,-74.8779" style="fill: black; stroke: none; fill-opacity:0.3" transform="translate(3,3)"/><path fill="none" stroke="black" d="M260.574,-66.274C270.486,-67.9116 281.276,-69.6943 291.557,-71.3928" style="fill: none; stroke: black; stroke-opacity:0.3" transform="translate(3,3)"/><polygon fill="black" stroke="black" points="291.179,-74.8779 301.616,-73.0549 292.321,-67.9715 291.179,-74.8779" style="fill:url(#black);stroke:black;"/><path fill="none" stroke="black" d="M260.574,-66.274C270.486,-67.9116 281.276,-69.6943 291.557,-71.3928"/></g><g id="node5" class="node"><ellipse fill="none" stroke="black" cx="461.6" cy="-123" rx="48.2143" ry="18" style="fill: black; stroke: none; fill-opacity:0.3" transform="translate(3,3)"/><ellipse fill="none" stroke="black" cx="461.6" cy="-123" rx="48.2143" ry="18" style="fill:url(#none);stroke:black;"/><text text-anchor="middle" x="461.6" y="-120.2" font-family="Times,serif" font-size="11.00" style="font-size:10px; font-family:Verdana">REVERTING</text></g><g id="edge4" class="edge"><polygon fill="black" stroke="black" points="404.009,-124.451 413.747,-120.277 403.531,-117.468 404.009,-124.451" style="fill: black; stroke: none; fill-opacity:0.3" transform="translate(3,3)"/><path fill="none" stroke="black" d="M372.344,-124.22C381.997,-122.917 392.854,-121.798 403.565,-120.973" style="fill: none; stroke: black; stroke-opacity:0.3" transform="translate(3,3)"/><polygon fill="black" stroke="black" points="404.009,-124.451 413.747,-120.277 403.531,-117.468 404.009,-124.451" style="fill:url(#black);stroke:black;"/><path fill="none" stroke="black" d="M372.344,-124.22C381.997,-122.917 392.854,-121.798 403.565,-120.973"/></g><g id="edge6" class="edge"><polygon fill="black" stroke="black" points="415.902,-110.47 426.496,-110.599 418.294,-103.892 415.902,-110.47" style="fill: black; stroke: none; fill-opacity:0.3" transform="translate(3,3)"/><path fill="none" stroke="black" d="M369.821,-89.9896C384.081,-95.175 401.365,-101.46 417.009,-107.149" style="fill: none; stroke: black; stroke-opacity:0.3" transform="translate(3,3)"/><polygon fill="black" stroke="black" points="415.902,-110.47 426.496,-110.599 418.294,-103.892 415.902,-110.47" style="fill:url(#black);stroke:black;"/><path fill="none" stroke="black" d="M369.821,-89.9896C384.081,-95.175 401.365,-101.46 417.009,-107.149"/></g><g id="node6" class="node"><ellipse fill="none" stroke="black" cx="461.6" cy="-60" rx="44.498" ry="18" style="fill: black; stroke: none; fill-opacity:0.3" transform="translate(3,3)"/><ellipse fill="none" stroke="black" cx="461.6" cy="-60" rx="44.498" ry="18" style="fill:url(#none);stroke:black;"/><text text-anchor="middle" x="461.6" y="-57.2" font-family="Times,serif" font-size="11.00" style="font-size:10px; font-family:Verdana">RETRYING</text></g><g id="edge5" class="edge"><polygon fill="black" stroke="black" points="410.323,-71.4378 419.659,-66.4288 409.237,-64.5225 410.323,-71.4378" style="fill: black; stroke: none; fill-opacity:0.3" transform="translate(3,3)"/><path fill="none" stroke="black" d="M375.904,-73.2994C386.457,-71.6423 398.185,-69.8007 409.468,-68.0289" style="fill: none; stroke: black; stroke-opacity:0.3" transform="translate(3,3)"/><polygon fill="black" stroke="black" points="410.323,-71.4378 419.659,-66.4288 409.237,-64.5225 410.323,-71.4378" style="fill:url(#black);stroke:black;"/><path fill="none" stroke="black" d="M375.904,-73.2994C386.457,-71.6423 398.185,-69.8007 409.468,-68.0289"/></g><g id="edge7" class="edge"><polygon fill="black" stroke="black" points="386.373,-132.22 376.561,-136.219 386.725,-139.211 386.373,-132.22" style="fill: black; stroke: none; fill-opacity:0.3" transform="translate(3,3)"/><path fill="none" stroke="black" d="M420.922,-132.66C409.99,-133.966 398.023,-135.028 386.714,-135.707" style="fill: none; stroke: black; stroke-opacity:0.3" transform="translate(3,3)"/><polygon fill="black" stroke="black" points="386.373,-132.22 376.561,-136.219 386.725,-139.211 386.373,-132.22" style="fill:url(#black);stroke:black;"/><path fill="none" stroke="black" d="M420.922,-132.66C409.99,-133.966 398.023,-135.028 386.714,-135.707"/></g><g id="node7" class="node"><ellipse fill="none" stroke="black" cx="590.6" cy="-59" rx="45.2009" ry="18" style="fill: black; stroke: none; fill-opacity:0.3" transform="translate(3,3)"/><ellipse fill="none" stroke="black" cx="590.6" cy="-59" rx="45.2009" ry="18" style="fill:url(#none);stroke:black;"/><text text-anchor="middle" x="590.6" y="-56.2" font-family="Times,serif" font-size="11.00" style="font-size:10px; font-family:Verdana">REVERTED</text></g><g id="edge8" class="edge"><polygon fill="black" stroke="black" points="554.276,-80.7204 561.631,-73.0946 551.126,-74.4693 554.276,-80.7204" style="fill: black; stroke: none; fill-opacity:0.3" transform="translate(3,3)"/><path fill="none" stroke="black" d="M491.101,-108.637C509.284,-99.4743 533.034,-87.5057 552.657,-77.617" style="fill: none; stroke: black; stroke-opacity:0.3" transform="translate(3,3)"/><polygon fill="black" stroke="black" points="554.276,-80.7204 561.631,-73.0946 551.126,-74.4693 554.276,-80.7204" style="fill:url(#black);stroke:black;"/><path fill="none" stroke="black" d="M491.101,-108.637C509.284,-99.4743 533.034,-87.5057 552.657,-77.617"/></g><g id="edge9" class="edge"><polygon fill="black" stroke="black" points="271.307,-50.6546 261.711,-55.1447 272.013,-57.6189 271.307,-50.6546" style="fill: black; stroke: none; fill-opacity:0.3" transform="translate(3,3)"/><path fill="none" stroke="black" d="M418.433,-55.1445C405.364,-53.8527 390.903,-52.6396 377.6,-52 342.973,-50.3351 334.22,-50.2064 299.6,-52 290.628,-52.4648 281.092,-53.2323 271.898,-54.1127" style="fill: none; stroke: black; stroke-opacity:0.3" transform="translate(3,3)"/><polygon fill="black" stroke="black" points="271.307,-50.6546 261.711,-55.1447 272.013,-57.6189 271.307,-50.6546" style="fill:url(#black);stroke:black;"/><path fill="none" stroke="black" d="M418.433,-55.1445C405.364,-53.8527 390.903,-52.6396 377.6,-52 342.973,-50.3351 334.22,-50.2064 299.6,-52 290.628,-52.4648 281.092,-53.2323 271.898,-54.1127"/></g><g id="edge10" class="edge"><polygon fill="black" stroke="black" points="153.072,-11.9973 143.224,-15.9057 153.36,-18.9914 153.072,-11.9973" style="fill: black; stroke: none; fill-opacity:0.3" transform="translate(3,3)"/><path fill="none" stroke="black" d="M557.811,-46.4244C543.34,-41.2871 525.849,-35.8834 509.6,-33 382.726,-10.4857 230.113,-12.5073 153.517,-15.4821" style="fill: none; stroke: black; stroke-opacity:0.3" transform="translate(3,3)"/><polygon fill="black" stroke="black" points="153.072,-11.9973 143.224,-15.9057 153.36,-18.9914 153.072,-11.9973" style="fill:url(#black);stroke:black;"/><path fill="none" stroke="black" d="M557.811,-46.4244C543.34,-41.2871 525.849,-35.8834 509.6,-33 382.726,-10.4857 230.113,-12.5073 153.517,-15.4821"/></g><g id="node8" class="node"><ellipse fill="black" stroke="black" cx="23.6" cy="-18" rx="3.6" ry="3.6" style="fill: black; stroke: none; fill-opacity:0.3" transform="translate(3,3)"/><ellipse fill="black" stroke="black" cx="23.6" cy="-18" rx="3.6" ry="3.6" style="fill:url(#black);stroke:black;"/><text text-anchor="middle" x="10" y="-5.6" font-family="Times,serif" font-size="11.00" fill="green" style="font-size:10px; font-family:Verdana">start</text></g><g id="edge11" class="edge"><polygon fill="black" stroke="black" points="53.5965,-21.5001 63.5964,-18 53.5964,-14.5001 53.5965,-21.5001" style="fill: black; stroke: none; fill-opacity:0.3" transform="translate(3,3)"/><path fill="none" stroke="black" stroke-dasharray="1,5" d="M27.5624,-18C32.3405,-18 42.3529,-18 53.5516,-18" style="fill: none; stroke: black; stroke-opacity:0.3" transform="translate(3,3)"/><polygon fill="black" stroke="black" points="53.5965,-21.5001 63.5964,-18 53.5964,-14.5001 53.5965,-21.5001" style="fill:url(#black);stroke:black;"/><path fill="none" stroke="black" stroke-dasharray="1,5" d="M27.5624,-18C32.3405,-18 42.3529,-18 53.5516,-18"/></g></g>
</svg>
