<?xml version="1.0"?>
<!DOCTYPE svg PUBLIC "-//W3C//DTD SVG 1.0//EN" "http://www.w3.org/TR/2001/REC-SVG-20010904/DTD/svg10.dtd">
<!-- Generated by graphviz version 2.36.0 (20140111.2315)
 -->
<!-- Title: Retries states Pages: 1 -->
<svg xmlns="http://www.w3.org/2000/svg" xmlns:svg="http://www.w3.org/2000/svg" width="644pt" height="153pt" viewBox="0.00 0.00 643.60 153.45" preserveAspectRatio="xMidYMid meet" zoomAndPan="magnify" version="1.1" contentScriptType="application/ecmascript" contentStyleType="text/css"><defs><linearGradient id="white" x1="0%" y1="0%" x2="0%" y2="0%"><stop offset="0%" style="stop-color:rgb(255,255,255);stop-opacity:1"/></linearGradient><linearGradient id="black" x1="0%" y1="0%" x2="0%" y2="0%"><stop offset="0%" style="stop-color:rgb(0,0,0);stop-opacity:1"/></linearGradient><linearGradient id="aquamarine" x1="0%" y1="0%" x2="100%" y2="100%"><stop offset="0%" style="stop-color:rgb(255,255,255);stop-opacity:1"/><stop offset="100%" style="stop-color:rgb(127,255,212);stop-opacity:1"/></linearGradient><linearGradient id="azure" x1="0%" y1="0%" x2="100%" y2="100%"><stop offset="0%" style="stop-color:rgb(255,255,255);stop-opacity:1"/><stop offset="100%" style="stop-color:rgb(240,255,255);stop-opacity:1"/></linearGradient><linearGradient id="blue" x1="0%" y1="0%" x2="100%" y2="100%"><stop offset="0%" style="stop-color:rgb(255,255,255);stop-opacity:1"/><stop offset="100%" style="stop-color:rgb(0,0,255);stop-opacity:1"/></linearGradient><linearGradient id="blueviolet" x1="0%" y1="0%" x2="100%" y2="100%"><stop offset="0%" style="stop-color:rgb(255,255,255);stop-opacity:1"/><stop offset="100%" style="stop-color:rgb(138,43,226);stop-opacity:1"/></linearGradient><linearGradient id="brown" x1="0%" y1="0%" x2="100%" y2="100%"><stop offset="0%" style="stop-color:rgb(255,255,255);stop-opacity:1"/><stop offset="100%" style="stop-color:rgb(165,42,42);stop-opacity:1"/></linearGradient><linearGradient id="cadetblue" x1="0%" y1="0%" x2="100%" y2="100%"><stop offset="0%" style="stop-color:rgb(255,255,255);stop-opacity:1"/><stop offset="100%" style="stop-color:rgb(95,158,160);stop-opacity:1"/></linearGradient><linearGradient id="chocolate" x1="0%" y1="0%" x2="100%" y2="100%"><stop offset="0%" style="stop-color:rgb(255,255,255);stop-opacity:1"/><stop offset="100%" style="stop-color:rgb(210,105,30);stop-opacity:1"/></linearGradient><linearGradient id="cornflowerblue" x1="0%" y1="0%" x2="100%" y2="100%"><stop offset="0%" style="stop-color:rgb(255,255,255);stop-opacity:1"/><stop offset="100%" style="stop-color:rgb(100,149,237);stop-opacity:1"/></linearGradient><linearGradient id="crimson" x1="0%" y1="0%" x2="100%" y2="100%"><stop offset="0%" style="stop-color:rgb(255,255,255);stop-opacity:1"/><stop offset="100%" style="stop-color:rgb(220,20,60);stop-opacity:1"/></linearGradient><linearGradient id="cyan" x1="0%" y1="0%" x2="100%" y2="100%"><stop offset="0%" style="stop-color:rgb(255,255,255);stop-opacity:1"/><stop offset="100%" style="stop-color:rgb(0,255,255);stop-opacity:1"/></linearGradient><linearGradient id="darkgreen" x1="0%" y1="0%" x2="100%" y2="100%"><stop offset="0%" style="stop-color:rgb(255,255,255);stop-opacity:1"/><stop offset="100%" style="stop-color:rgb(0,100,0);stop-opacity:1"/></linearGradient><linearGradient id="darkorange" x1="0%" y1="0%" x2="100%" y2="100%"><stop offset="0%" style="stop-color:rgb(255,255,255);stop-opacity:1"/><stop offset="100%" style="stop-color:rgb(255,140,0);stop-opacity:1"/></linearGradient><linearGradient id="gold" x1="0%" y1="0%" x2="100%" y2="100%"><stop offset="0%" style="stop-color:rgb(255,255,255);stop-opacity:1"/><stop offset="100%" style="stop-color:rgb(255,215,0);stop-opacity:1"/></linearGradient><linearGradient id="gray" x1="0%" y1="0%" x2="100%" y2="100%"><stop offset="0%" style="stop-color:rgb(255,255,255);stop-opacity:1"/><stop offset="100%" style="stop-color:rgb(192,192,192);stop-opacity:1"/></linearGradient><linearGradient id="greenyellow" x1="0%" y1="0%" x2="100%" y2="100%"><stop offset="0%" style="stop-color:rgb(255,255,255);stop-opacity:1"/><stop offset="100%" style="stop-color:rgb(173,255,47);stop-opacity:1"/></linearGradient><linearGradient id="green" x1="0%" y1="0%" x2="100%" y2="100%"><stop offset="0%" style="stop-color:rgb(255,255,255);stop-opacity:1"/><stop offset="100%" style="stop-color:rgb(0,255,0);stop-opacity:1"/></linearGradient><linearGradient id="grey" x1="0%" y1="0%" x2="100%" y2="100%"><stop offset="0%" style="stop-color:rgb(255,255,255);stop-opacity:1"/><stop offset="100%" style="stop-color:rgb(192,192,192);stop-opacity:1"/></linearGradient><linearGradient id="hotpink" x1="0%" y1="0%" x2="100%" y2="100%"><stop offset="0%" style="stop-color:rgb(255,255,255);stop-opacity:1"/><stop offset="100%" style="stop-color:rgb(255,105,180);stop-opacity:1"/></linearGradient><linearGradient id="indianred" x1="0%" y1="0%" x2="100%" y2="100%"><stop offset="0%" style="stop-color:rgb(255,255,255);stop-opacity:1"/><stop offset="100%" style="stop-color:rgb(205,92,92);stop-opacity:1"/></linearGradient><linearGradient id="indigo" x1="0%" y1="0%" x2="100%" y2="100%"><stop offset="0%" style="stop-color:rgb(255,255,255);stop-opacity:1"/><stop offset="100%" style="stop-color:rgb(75,0,130);stop-opacity:1"/></linearGradient><linearGradient id="lavender" x1="0%" y1="0%" x2="100%" y2="100%"><stop offset="0%" style="stop-color:rgb(255,255,255);stop-opacity:1"/><stop offset="100%" style="stop-color:rgb(230,230,250);stop-opacity:1"/></linearGradient><linearGradient id="lightblue" x1="0%" y1="0%" x2="100%" y2="100%"><stop offset="0%" style="stop-color:rgb(255,255,255);stop-opacity:1"/><stop offset="100%" style="stop-color:rgb(173,216,230);stop-opacity:1"/></linearGradient><linearGradient id="lightgray" x1="0%" y1="0%" x2="100%" y2="100%"><stop offset="0%" style="stop-color:rgb(255,255,255);stop-opacity:1"/><stop offset="100%" style="stop-color:rgb(211,211,211);stop-opacity:1"/></linearGradient><linearGradient id="lightgrey" x1="0%" y1="0%" x2="100%" y2="100%"><stop offset="0%" style="stop-color:rgb(255,255,255);stop-opacity:1"/><stop offset="100%" style="stop-color:rgb(211,211,211);stop-opacity:1"/></linearGradient><linearGradient id="magenta" x1="0%" y1="0%" x2="100%" y2="100%"><stop offset="0%" style="stop-color:rgb(255,255,255);stop-opacity:1"/><stop offset="100%" style="stop-color:rgb(255,0,255);stop-opacity:1"/></linearGradient><linearGradient id="maroon" x1="0%" y1="0%" x2="100%" y2="100%"><stop offset="0%" style="stop-color:rgb(255,255,255);stop-opacity:1"/><stop offset="100%" style="stop-color:rgb(176,48,96);stop-opacity:1"/></linearGradient><linearGradient id="mediumblue" x1="0%" y1="0%" x2="100%" y2="100%"><stop offset="0%" style="stop-color:rgb(255,255,255);stop-opacity:1"/><stop offset="100%" style="stop-color:rgb(0,0,205);stop-opacity:1"/></linearGradient><linearGradient id="mediumpurple" x1="0%" y1="0%" x2="100%" y2="100%"><stop offset="0%" style="stop-color:rgb(255,255,255);stop-opacity:1"/><stop offset="100%" style="stop-color:rgb(147,112,219);stop-opacity:1"/></linearGradient><linearGradient id="orange" x1="0%" y1="0%" x2="100%" y2="100%"><stop offset="0%" style="stop-color:rgb(255,255,255);stop-opacity:1"/><stop offset="100%" style="stop-color:rgb(255,165,0);stop-opacity:1"/></linearGradient><linearGradient id="pink" x1="0%" y1="0%" x2="100%" y2="100%"><stop offset="0%" style="stop-color:rgb(255,255,255);stop-opacity:1"/><stop offset="100%" style="stop-color:rgb(255,192,203);stop-opacity:1"/></linearGradient><linearGradient id="purple" x1="0%" y1="0%" x2="100%" y2="100%"><stop offset="0%" style="stop-color:rgb(255,255,255);stop-opacity:1"/><stop offset="100%" style="stop-color:rgb(160,32,240);stop-opacity:1"/></linearGradient><linearGradient id="red" x1="0%" y1="0%" x2="100%" y2="100%"><stop offset="0%" style="stop-color:rgb(255,255,255);stop-opacity:1"/><stop offset="100%" style="stop-color:rgb(255,0,0);stop-opacity:1"/></linearGradient><linearGradient id="steelblue" x1="0%" y1="0%" x2="100%" y2="100%"><stop offset="0%" style="stop-color:rgb(255,255,255);stop-opacity:1"/><stop offset="100%" style="stop-color:rgb(70,130,180);stop-opacity:1"/></linearGradient><linearGradient id="violet" x1="0%" y1="0%" x2="100%" y2="100%"><stop offset="0%" style="stop-color:rgb(255,255,255);stop-opacity:1"/><stop offset="100%" style="stop-color:rgb(238,130,238);stop-opacity:1"/></linearGradient><linearGradient id="yellow" x1="0%" y1="0%" x2="100%" y2="100%"><stop offset="0%" style="stop-color:rgb(255,255,255);stop-opacity:1"/><stop offset="100%" style="stop-color:rgb(255,255,0);stop-opacity:1"/></linearGradient><linearGradient id="none" x1="0%" y1="0%" x2="100%" y2="100%"><stop offset="0%" style="stop-color:rgb(255,255,255);stop-opacity:1"/><stop offset="100%" style="stop-color:rgb(255,255,255);stop-opacity:1"/></linearGradient></defs>
<g id="graph0" class="graph" transform="scale(1 1) rotate(0) translate(4 149.447)"><polygon fill="white" stroke="none" points="-4,4 -4,-149.447 639.6,-149.447 639.6,4 -4,4"/><title>Retries states</title><g id="node1" class="node"><ellipse fill="none" stroke="black" cx="103.6" cy="-77.4472" rx="39.8775" ry="18" style="fill: black; stroke: none; fill-opacity:0.3" transform="translate(3,3)"/><ellipse fill="none" stroke="black" cx="103.6" cy="-77.4472" rx="39.8775" ry="18" style="fill: url(#none);stroke: black;"/><text text-anchor="middle" x="103.6" y="-74.6472" font-family="Times,serif" font-size="11.00" style="font-size:10px; font-family:sans-serif;">PENDING</text></g><g id="node2" class="node"><ellipse fill="none" stroke="black" cx="221.6" cy="-104.447" rx="35.4579" ry="18" style="fill: black; stroke: none; fill-opacity:0.3" transform="translate(3,3)"/><ellipse fill="none" stroke="black" cx="221.6" cy="-104.447" rx="35.4579" ry="18" style="fill: url(#none);stroke: black;"/><text text-anchor="middle" x="221.6" y="-101.647" font-family="Times,serif" font-size="11.00" style="font-size:10px; font-family:sans-serif;">IGNORE</text></g><g id="edge1" class="edge"><polygon fill="black" stroke="black" points="183.844,-93.1929 194.423,-92.6035 185.786,-86.4675 183.844,-93.1929" style="fill: black; stroke: none; fill-opacity:0.3" transform="translate(3,3)"/><path fill="none" stroke="black" d="M142.904,-79.9713C156.367,-82.5964 171.436,-86.1362 184.694,-89.7953" style="fill: none; stroke: black; stroke-opacity:0.3" transform="translate(3,3)"/><polygon fill="black" stroke="black" points="183.844,-93.1929 194.423,-92.6035 185.786,-86.4675 183.844,-93.1929" style="fill: url(#black);stroke: black;"/><path fill="none" stroke="black" d="M142.904,-79.9713C156.367,-82.5964 171.436,-86.1362 184.694,-89.7953"/></g><g id="node3" class="node"><ellipse fill="none" stroke="black" cx="221.6" cy="-50.4472" rx="41.4846" ry="18" style="fill: black; stroke: none; fill-opacity:0.3" transform="translate(3,3)"/><ellipse fill="none" stroke="black" cx="221.6" cy="-50.4472" rx="41.4846" ry="18" style="fill: url(#none);stroke: black;"/><text text-anchor="middle" x="221.6" y="-47.6472" font-family="Times,serif" font-size="11.00" style="font-size:10px; font-family:sans-serif;">RUNNING</text></g><g id="edge2" class="edge"><polygon fill="black" stroke="black" points="175.668,-64.499 184.615,-58.8231 174.081,-57.6813 175.668,-64.499" style="fill: black; stroke: none; fill-opacity:0.3" transform="translate(3,3)"/><path fill="none" stroke="black" d="M139.404,-69.3463C150.45,-66.7753 162.839,-63.8915 174.549,-61.1658" style="fill: none; stroke: black; stroke-opacity:0.3" transform="translate(3,3)"/><polygon fill="black" stroke="black" points="175.668,-64.499 184.615,-58.8231 174.081,-57.6813 175.668,-64.499" style="fill: url(#black);stroke: black;"/><path fill="none" stroke="black" d="M139.404,-69.3463C150.45,-66.7753 162.839,-63.8915 174.549,-61.1658"/></g><g id="edge6" class="edge"><polygon fill="black" stroke="black" points="143.256,-89.2207 132.68,-89.8614 141.347,-95.9555 143.256,-89.2207" style="fill: black; stroke: none; fill-opacity:0.3" transform="translate(3,3)"/><path fill="none" stroke="black" d="M186.149,-102.657C172.427,-100.105 156.587,-96.4671 142.538,-92.655" style="fill: none; stroke: black; stroke-opacity:0.3" transform="translate(3,3)"/><polygon fill="black" stroke="black" points="143.256,-89.2207 132.68,-89.8614 141.347,-95.9555 143.256,-89.2207" style="fill: url(#black);stroke: black;"/><path fill="none" stroke="black" d="M186.149,-102.657C172.427,-100.105 156.587,-96.4671 142.538,-92.655"/></g><g id="node4" class="node"><ellipse fill="none" stroke="black" cx="338.6" cy="-111.447" rx="39.1741" ry="18" style="fill: black; stroke: none; fill-opacity:0.3" transform="translate(3,3)"/><ellipse fill="none" stroke="black" cx="338.6" cy="-111.447" rx="39.1741" ry="18" style="fill: url(#none);stroke: black;"/><text text-anchor="middle" x="338.6" y="-108.647" font-family="Times,serif" font-size="11.00" fill="green" style="font-size:10px; font-family:sans-serif;">SUCCESS</text></g><g id="edge12" class="edge"><polygon fill="black" stroke="black" points="301.924,-96.4853 312.398,-98.0793 305.204,-90.3014 301.924,-96.4853" style="fill: black; stroke: none; fill-opacity:0.3" transform="translate(3,3)"/><path fill="none" stroke="black" d="M248.695,-64.289C264.799,-72.8308 285.643,-83.8872 303.1,-93.1471" style="fill: none; stroke: black; stroke-opacity:0.3" transform="translate(3,3)"/><polygon fill="black" stroke="black" points="301.924,-96.4853 312.398,-98.0793 305.204,-90.3014 301.924,-96.4853" style="fill: url(#black);stroke: black;"/><path fill="none" stroke="black" d="M248.695,-64.289C264.799,-72.8308 285.643,-83.8872 303.1,-93.1471"/></g><g id="node7" class="node"><ellipse fill="none" stroke="black" cx="590.6" cy="-127.447" rx="38.4712" ry="18" style="fill: black; stroke: none; fill-opacity:0.3" transform="translate(3,3)"/><ellipse fill="none" stroke="black" cx="590.6" cy="-127.447" rx="38.4712" ry="18" style="fill: url(#none);stroke: black;"/><text text-anchor="middle" x="590.6" y="-124.647" font-family="Times,serif" font-size="11.00" fill="red" style="font-size:10px; font-family:sans-serif;">FAILURE</text></g><g id="edge11" class="edge"><polygon fill="black" stroke="black" points="570.2,-104.071 578.84,-110.203 575.91,-100.021 570.2,-104.071" style="fill: black; stroke: none; fill-opacity:0.3" transform="translate(3,3)"/><path fill="none" stroke="black" d="M257.86,-41.287C313.747,-28.6287 424.999,-11.0962 509.6,-46.4472 536.327,-57.6152 558.671,-82.5427 572.892,-101.815" style="fill: none; stroke: black; stroke-opacity:0.3" transform="translate(3,3)"/><polygon fill="black" stroke="black" points="570.2,-104.071 578.84,-110.203 575.91,-100.021 570.2,-104.071" style="fill: url(#black);stroke: black;"/><path fill="none" stroke="black" d="M257.86,-41.287C313.747,-28.6287 424.999,-11.0962 509.6,-46.4472 536.327,-57.6152 558.671,-82.5427 572.892,-101.815"/></g><g id="node5" class="node"><ellipse fill="none" stroke="black" cx="461.6" cy="-73.4472" rx="44.498" ry="18" style="fill: black; stroke: none; fill-opacity:0.3" transform="translate(3,3)"/><ellipse fill="none" stroke="black" cx="461.6" cy="-73.4472" rx="44.498" ry="18" style="fill: url(#none);stroke: black;"/><text text-anchor="middle" x="461.6" y="-70.6472" font-family="Times,serif" font-size="11.00" style="font-size:10px; font-family:sans-serif;">RETRYING</text></g><g id="edge3" class="edge"><polygon fill="black" stroke="black" points="417.556,-90.6338 426.048,-84.2983 415.458,-83.9554 417.556,-90.6338" style="fill: black; stroke: none; fill-opacity:0.3" transform="translate(3,3)"/><path fill="none" stroke="black" d="M371.391,-101.463C385.177,-97.1339 401.55,-91.9917 416.484,-87.3018" style="fill: none; stroke: black; stroke-opacity:0.3" transform="translate(3,3)"/><polygon fill="black" stroke="black" points="417.556,-90.6338 426.048,-84.2983 415.458,-83.9554 417.556,-90.6338" style="fill: url(#black);stroke: black;"/><path fill="none" stroke="black" d="M371.391,-101.463C385.177,-97.1339 401.55,-91.9917 416.484,-87.3018"/></g><g id="node6" class="node"><ellipse fill="none" stroke="black" cx="461.6" cy="-127.447" rx="48.2143" ry="18" style="fill: black; stroke: none; fill-opacity:0.3" transform="translate(3,3)"/><ellipse fill="none" stroke="black" cx="461.6" cy="-127.447" rx="48.2143" ry="18" style="fill: url(#none);stroke: black;"/><text text-anchor="middle" x="461.6" y="-124.647" font-family="Times,serif" font-size="11.00" style="font-size:10px; font-family:sans-serif;">REVERTING</text></g><g id="edge4" class="edge"><polygon fill="black" stroke="black" points="405.392,-123.677 415.764,-121.518 406.309,-116.738 405.392,-123.677" style="fill: black; stroke: none; fill-opacity:0.3" transform="translate(3,3)"/><path fill="none" stroke="black" d="M376.561,-116.335C385.743,-117.549 395.782,-118.876 405.623,-120.178" style="fill: none; stroke: black; stroke-opacity:0.3" transform="translate(3,3)"/><polygon fill="black" stroke="black" points="405.392,-123.677 415.764,-121.518 406.309,-116.738 405.392,-123.677" style="fill: url(#black);stroke: black;"/><path fill="none" stroke="black" d="M376.561,-116.335C385.743,-117.549 395.782,-118.876 405.623,-120.178"/></g><g id="edge5" class="edge"><polygon fill="black" stroke="black" points="272.458,-51.7492 262.168,-54.271 271.785,-58.7167 272.458,-51.7492" style="fill: black; stroke: none; fill-opacity:0.3" transform="translate(3,3)"/><path fill="none" stroke="black" d="M418.124,-69.3424C377.203,-65.3878 315.316,-59.4071 272.165,-55.237" style="fill: none; stroke: black; stroke-opacity:0.3" transform="translate(3,3)"/><polygon fill="black" stroke="black" points="272.458,-51.7492 262.168,-54.271 271.785,-58.7167 272.458,-51.7492" style="fill: url(#black);stroke: black;"/><path fill="none" stroke="black" d="M418.124,-69.3424C377.203,-65.3878 315.316,-59.4071 272.165,-55.237"/></g><g id="edge9" class="edge"><polygon fill="black" stroke="black" points="543.885,-124.442 554.007,-121.314 544.143,-117.447 543.885,-124.442" style="fill: black; stroke: none; fill-opacity:0.3" transform="translate(3,3)"/><path fill="none" stroke="black" d="M506.662,-120.986C518.631,-120.62 531.619,-120.602 543.687,-120.933" style="fill: none; stroke: black; stroke-opacity:0.3" transform="translate(3,3)"/><polygon fill="black" stroke="black" points="543.885,-124.442 554.007,-121.314 544.143,-117.447 543.885,-124.442" style="fill: url(#black);stroke: black;"/><path fill="none" stroke="black" d="M506.662,-120.986C518.631,-120.62 531.619,-120.602 543.687,-120.933"/></g><g id="node8" class="node"><ellipse fill="none" stroke="black" cx="590.6" cy="-31.4472" rx="45.2009" ry="18" style="fill: black; stroke: none; fill-opacity:0.3" transform="translate(3,3)"/><ellipse fill="none" stroke="black" cx="590.6" cy="-31.4472" rx="45.2009" ry="18" style="fill: url(#none);stroke: black;"/><text text-anchor="middle" x="590.6" y="-28.6472" font-family="Times,serif" font-size="11.00" fill="darkorange" style="font-size:10px; font-family:sans-serif;">REVERTED</text></g><g id="edge8" class="edge"><polygon fill="black" stroke="black" points="567.317,-57.444 572.288,-48.0879 562.568,-52.3017 567.317,-57.444" style="fill: black; stroke: none; fill-opacity:0.3" transform="translate(3,3)"/><path fill="none" stroke="black" d="M489.99,-112.882C496.565,-109.069 503.458,-104.8 509.6,-100.447 529.096,-86.6292 549.47,-69.0038 564.777,-55.0257" style="fill: none; stroke: black; stroke-opacity:0.3" transform="translate(3,3)"/><polygon fill="black" stroke="black" points="567.317,-57.444 572.288,-48.0879 562.568,-52.3017 567.317,-57.444" style="fill: url(#black);stroke: black;"/><path fill="none" stroke="black" d="M489.99,-112.882C496.565,-109.069 503.458,-104.8 509.6,-100.447 529.096,-86.6292 549.47,-69.0038 564.777,-55.0257"/></g><g id="edge7" class="edge"><polygon fill="black" stroke="black" points="516.737,-130.628 506.662,-133.908 516.583,-137.627 516.737,-130.628" style="fill: black; stroke: none; fill-opacity:0.3" transform="translate(3,3)"/><path fill="none" stroke="black" d="M554.007,-133.581C542.529,-134.122 529.533,-134.307 517.018,-134.135" style="fill: none; stroke: black; stroke-opacity:0.3" transform="translate(3,3)"/><polygon fill="black" stroke="black" points="516.737,-130.628 506.662,-133.908 516.583,-137.627 516.737,-130.628" style="fill: url(#black);stroke: black;"/><path fill="none" stroke="black" d="M554.007,-133.581C542.529,-134.122 529.533,-134.307 517.018,-134.135"/></g><g id="edge10" class="edge"><polygon fill="black" stroke="black" points="125.933,-51.941 120.762,-61.1886 130.571,-57.1838 125.933,-51.941" style="fill: black; stroke: none; fill-opacity:0.3" transform="translate(3,3)"/><path fill="none" stroke="black" d="M551.345,-22.5299C477.342,-7.034 310.363,19.3323 179.6,-23.4472 160.479,-29.7028 142.096,-42.7855 128.315,-54.5066" style="fill: none; stroke: black; stroke-opacity:0.3" transform="translate(3,3)"/><polygon fill="black" stroke="black" points="125.933,-51.941 120.762,-61.1886 130.571,-57.1838 125.933,-51.941" style="fill: url(#black);stroke: black;"/><path fill="none" stroke="black" d="M551.345,-22.5299C477.342,-7.034 310.363,19.3323 179.6,-23.4472 160.479,-29.7028 142.096,-42.7855 128.315,-54.5066"/></g><g id="node9" class="node"><ellipse fill="black" stroke="black" cx="23.6" cy="-77.4472" rx="3.6" ry="3.6" style="fill: black; stroke: none; fill-opacity:0.3" transform="translate(3,3)"/><ellipse fill="black" stroke="black" cx="23.6" cy="-77.4472" rx="3.6" ry="3.6" style="fill: url(#black);stroke: black;"/><text text-anchor="middle" x="10" y="-65.0472" font-family="Times,serif" font-size="11.00" fill="green" style="font-size:10px; font-family:sans-serif;">start</text></g><g id="edge13" class="edge"><polygon fill="black" stroke="black" points="53.5965,-80.9473 63.5964,-77.4472 53.5964,-73.9473 53.5965,-80.9473" style="fill: black; stroke: none; fill-opacity:0.3" transform="translate(3,3)"/><path fill="none" stroke="black" stroke-dasharray="1,5" d="M27.5624,-77.4472C32.3405,-77.4472 42.3529,-77.4472 53.5516,-77.4472" style="fill: none; stroke: black; stroke-opacity:0.3" transform="translate(3,3)"/><polygon fill="black" stroke="black" points="53.5965,-80.9473 63.5964,-77.4472 53.5964,-73.9473 53.5965,-80.9473" style="fill: url(#black);stroke: black;"/><path fill="none" stroke="black" stroke-dasharray="1,5" d="M27.5624,-77.4472C32.3405,-77.4472 42.3529,-77.4472 53.5516,-77.4472"/></g></g>
</svg>
