<?xml version="1.0"?>
<!DOCTYPE svg PUBLIC "-//W3C//DTD SVG 1.0//EN" "http://www.w3.org/TR/2001/REC-SVG-20010904/DTD/svg10.dtd">
<!-- Generated by graphviz version 2.36.0 (20140111.2315)
 -->
<!-- Title: Retries states Pages: 1 -->
<svg xmlns="http://www.w3.org/2000/svg" xmlns:svg="http://www.w3.org/2000/svg" width="690pt" height="236pt" viewBox="0.00 0.00 689.60 236.00" preserveAspectRatio="xMidYMid meet" zoomAndPan="magnify" version="1.1" contentScriptType="application/ecmascript" contentStyleType="text/css"><defs><linearGradient id="white" x1="0%" y1="0%" x2="0%" y2="0%"><stop offset="0%" style="stop-color:rgb(255,255,255);stop-opacity:1"/></linearGradient><linearGradient id="black" x1="0%" y1="0%" x2="0%" y2="0%"><stop offset="0%" style="stop-color:rgb(0,0,0);stop-opacity:1"/></linearGradient><linearGradient id="aquamarine" x1="0%" y1="0%" x2="100%" y2="100%"><stop offset="0%" style="stop-color:rgb(255,255,255);stop-opacity:1"/><stop offset="100%" style="stop-color:rgb(127,255,212);stop-opacity:1"/></linearGradient><linearGradient id="azure" x1="0%" y1="0%" x2="100%" y2="100%"><stop offset="0%" style="stop-color:rgb(255,255,255);stop-opacity:1"/><stop offset="100%" style="stop-color:rgb(240,255,255);stop-opacity:1"/></linearGradient><linearGradient id="blue" x1="0%" y1="0%" x2="100%" y2="100%"><stop offset="0%" style="stop-color:rgb(255,255,255);stop-opacity:1"/><stop offset="100%" style="stop-color:rgb(0,0,255);stop-opacity:1"/></linearGradient><linearGradient id="blueviolet" x1="0%" y1="0%" x2="100%" y2="100%"><stop offset="0%" style="stop-color:rgb(255,255,255);stop-opacity:1"/><stop offset="100%" style="stop-color:rgb(138,43,226);stop-opacity:1"/></linearGradient><linearGradient id="brown" x1="0%" y1="0%" x2="100%" y2="100%"><stop offset="0%" style="stop-color:rgb(255,255,255);stop-opacity:1"/><stop offset="100%" style="stop-color:rgb(165,42,42);stop-opacity:1"/></linearGradient><linearGradient id="cadetblue" x1="0%" y1="0%" x2="100%" y2="100%"><stop offset="0%" style="stop-color:rgb(255,255,255);stop-opacity:1"/><stop offset="100%" style="stop-color:rgb(95,158,160);stop-opacity:1"/></linearGradient><linearGradient id="chocolate" x1="0%" y1="0%" x2="100%" y2="100%"><stop offset="0%" style="stop-color:rgb(255,255,255);stop-opacity:1"/><stop offset="100%" style="stop-color:rgb(210,105,30);stop-opacity:1"/></linearGradient><linearGradient id="cornflowerblue" x1="0%" y1="0%" x2="100%" y2="100%"><stop offset="0%" style="stop-color:rgb(255,255,255);stop-opacity:1"/><stop offset="100%" style="stop-color:rgb(100,149,237);stop-opacity:1"/></linearGradient><linearGradient id="crimson" x1="0%" y1="0%" x2="100%" y2="100%"><stop offset="0%" style="stop-color:rgb(255,255,255);stop-opacity:1"/><stop offset="100%" style="stop-color:rgb(220,20,60);stop-opacity:1"/></linearGradient><linearGradient id="cyan" x1="0%" y1="0%" x2="100%" y2="100%"><stop offset="0%" style="stop-color:rgb(255,255,255);stop-opacity:1"/><stop offset="100%" style="stop-color:rgb(0,255,255);stop-opacity:1"/></linearGradient><linearGradient id="darkgreen" x1="0%" y1="0%" x2="100%" y2="100%"><stop offset="0%" style="stop-color:rgb(255,255,255);stop-opacity:1"/><stop offset="100%" style="stop-color:rgb(0,100,0);stop-opacity:1"/></linearGradient><linearGradient id="darkorange" x1="0%" y1="0%" x2="100%" y2="100%"><stop offset="0%" style="stop-color:rgb(255,255,255);stop-opacity:1"/><stop offset="100%" style="stop-color:rgb(255,140,0);stop-opacity:1"/></linearGradient><linearGradient id="gold" x1="0%" y1="0%" x2="100%" y2="100%"><stop offset="0%" style="stop-color:rgb(255,255,255);stop-opacity:1"/><stop offset="100%" style="stop-color:rgb(255,215,0);stop-opacity:1"/></linearGradient><linearGradient id="gray" x1="0%" y1="0%" x2="100%" y2="100%"><stop offset="0%" style="stop-color:rgb(255,255,255);stop-opacity:1"/><stop offset="100%" style="stop-color:rgb(192,192,192);stop-opacity:1"/></linearGradient><linearGradient id="greenyellow" x1="0%" y1="0%" x2="100%" y2="100%"><stop offset="0%" style="stop-color:rgb(255,255,255);stop-opacity:1"/><stop offset="100%" style="stop-color:rgb(173,255,47);stop-opacity:1"/></linearGradient><linearGradient id="green" x1="0%" y1="0%" x2="100%" y2="100%"><stop offset="0%" style="stop-color:rgb(255,255,255);stop-opacity:1"/><stop offset="100%" style="stop-color:rgb(0,255,0);stop-opacity:1"/></linearGradient><linearGradient id="grey" x1="0%" y1="0%" x2="100%" y2="100%"><stop offset="0%" style="stop-color:rgb(255,255,255);stop-opacity:1"/><stop offset="100%" style="stop-color:rgb(192,192,192);stop-opacity:1"/></linearGradient><linearGradient id="hotpink" x1="0%" y1="0%" x2="100%" y2="100%"><stop offset="0%" style="stop-color:rgb(255,255,255);stop-opacity:1"/><stop offset="100%" style="stop-color:rgb(255,105,180);stop-opacity:1"/></linearGradient><linearGradient id="indianred" x1="0%" y1="0%" x2="100%" y2="100%"><stop offset="0%" style="stop-color:rgb(255,255,255);stop-opacity:1"/><stop offset="100%" style="stop-color:rgb(205,92,92);stop-opacity:1"/></linearGradient><linearGradient id="indigo" x1="0%" y1="0%" x2="100%" y2="100%"><stop offset="0%" style="stop-color:rgb(255,255,255);stop-opacity:1"/><stop offset="100%" style="stop-color:rgb(75,0,130);stop-opacity:1"/></linearGradient><linearGradient id="lavender" x1="0%" y1="0%" x2="100%" y2="100%"><stop offset="0%" style="stop-color:rgb(255,255,255);stop-opacity:1"/><stop offset="100%" style="stop-color:rgb(230,230,250);stop-opacity:1"/></linearGradient><linearGradient id="lightblue" x1="0%" y1="0%" x2="100%" y2="100%"><stop offset="0%" style="stop-color:rgb(255,255,255);stop-opacity:1"/><stop offset="100%" style="stop-color:rgb(173,216,230);stop-opacity:1"/></linearGradient><linearGradient id="lightgray" x1="0%" y1="0%" x2="100%" y2="100%"><stop offset="0%" style="stop-color:rgb(255,255,255);stop-opacity:1"/><stop offset="100%" style="stop-color:rgb(211,211,211);stop-opacity:1"/></linearGradient><linearGradient id="lightgrey" x1="0%" y1="0%" x2="100%" y2="100%"><stop offset="0%" style="stop-color:rgb(255,255,255);stop-opacity:1"/><stop offset="100%" style="stop-color:rgb(211,211,211);stop-opacity:1"/></linearGradient><linearGradient id="magenta" x1="0%" y1="0%" x2="100%" y2="100%"><stop offset="0%" style="stop-color:rgb(255,255,255);stop-opacity:1"/><stop offset="100%" style="stop-color:rgb(255,0,255);stop-opacity:1"/></linearGradient><linearGradient id="maroon" x1="0%" y1="0%" x2="100%" y2="100%"><stop offset="0%" style="stop-color:rgb(255,255,255);stop-opacity:1"/><stop offset="100%" style="stop-color:rgb(176,48,96);stop-opacity:1"/></linearGradient><linearGradient id="mediumblue" x1="0%" y1="0%" x2="100%" y2="100%"><stop offset="0%" style="stop-color:rgb(255,255,255);stop-opacity:1"/><stop offset="100%" style="stop-color:rgb(0,0,205);stop-opacity:1"/></linearGradient><linearGradient id="mediumpurple" x1="0%" y1="0%" x2="100%" y2="100%"><stop offset="0%" style="stop-color:rgb(255,255,255);stop-opacity:1"/><stop offset="100%" style="stop-color:rgb(147,112,219);stop-opacity:1"/></linearGradient><linearGradient id="orange" x1="0%" y1="0%" x2="100%" y2="100%"><stop offset="0%" style="stop-color:rgb(255,255,255);stop-opacity:1"/><stop offset="100%" style="stop-color:rgb(255,165,0);stop-opacity:1"/></linearGradient><linearGradient id="pink" x1="0%" y1="0%" x2="100%" y2="100%"><stop offset="0%" style="stop-color:rgb(255,255,255);stop-opacity:1"/><stop offset="100%" style="stop-color:rgb(255,192,203);stop-opacity:1"/></linearGradient><linearGradient id="purple" x1="0%" y1="0%" x2="100%" y2="100%"><stop offset="0%" style="stop-color:rgb(255,255,255);stop-opacity:1"/><stop offset="100%" style="stop-color:rgb(160,32,240);stop-opacity:1"/></linearGradient><linearGradient id="red" x1="0%" y1="0%" x2="100%" y2="100%"><stop offset="0%" style="stop-color:rgb(255,255,255);stop-opacity:1"/><stop offset="100%" style="stop-color:rgb(255,0,0);stop-opacity:1"/></linearGradient><linearGradient id="steelblue" x1="0%" y1="0%" x2="100%" y2="100%"><stop offset="0%" style="stop-color:rgb(255,255,255);stop-opacity:1"/><stop offset="100%" style="stop-color:rgb(70,130,180);stop-opacity:1"/></linearGradient><linearGradient id="violet" x1="0%" y1="0%" x2="100%" y2="100%"><stop offset="0%" style="stop-color:rgb(255,255,255);stop-opacity:1"/><stop offset="100%" style="stop-color:rgb(238,130,238);stop-opacity:1"/></linearGradient><linearGradient id="yellow" x1="0%" y1="0%" x2="100%" y2="100%"><stop offset="0%" style="stop-color:rgb(255,255,255);stop-opacity:1"/><stop offset="100%" style="stop-color:rgb(255,255,0);stop-opacity:1"/></linearGradient><linearGradient id="none" x1="0%" y1="0%" x2="100%" y2="100%"><stop offset="0%" style="stop-color:rgb(255,255,255);stop-opacity:1"/><stop offset="100%" style="stop-color:rgb(255,255,255);stop-opacity:1"/></linearGradient></defs>
<g id="graph0" class="graph" transform="scale(1 1) rotate(0) translate(4 232)"><polygon fill="white" stroke="none" points="-4,4 -4,-232 685.6,-232 685.6,4 -4,4"/><title>Retries states</title><g id="node1" class="node"><ellipse fill="none" stroke="black" cx="103.6" cy="-168" rx="39.8775" ry="18" style="fill: black; stroke: none; fill-opacity:0.3" transform="translate(3,3)"/><ellipse fill="none" stroke="black" cx="103.6" cy="-168" rx="39.8775" ry="18" style="fill: url(#none);stroke: black;"/><text text-anchor="middle" x="103.6" y="-165.2" font-family="Times,serif" font-size="11.00" style="font-size:10px; font-family:sans-serif;">PENDING</text></g><g id="node2" class="node"><ellipse fill="none" stroke="black" cx="221.6" cy="-195" rx="35.4579" ry="18" style="fill: black; stroke: none; fill-opacity:0.3" transform="translate(3,3)"/><ellipse fill="none" stroke="black" cx="221.6" cy="-195" rx="35.4579" ry="18" style="fill: url(#none);stroke: black;"/><text text-anchor="middle" x="221.6" y="-192.2" font-family="Times,serif" font-size="11.00" style="font-size:10px; font-family:sans-serif;">IGNORE</text></g><g id="edge1" class="edge"><polygon fill="black" stroke="black" points="183.844,-183.746 194.423,-183.156 185.786,-177.02 183.844,-183.746" style="fill: black; stroke: none; fill-opacity:0.3" transform="translate(3,3)"/><path fill="none" stroke="black" d="M142.904,-170.524C156.367,-173.149 171.436,-176.689 184.694,-180.348" style="fill: none; stroke: black; stroke-opacity:0.3" transform="translate(3,3)"/><polygon fill="black" stroke="black" points="183.844,-183.746 194.423,-183.156 185.786,-177.02 183.844,-183.746" style="fill: url(#black);stroke: black;"/><path fill="none" stroke="black" d="M142.904,-170.524C156.367,-173.149 171.436,-176.689 184.694,-180.348"/></g><g id="node3" class="node"><ellipse fill="none" stroke="black" cx="221.6" cy="-141" rx="41.4846" ry="18" style="fill: black; stroke: none; fill-opacity:0.3" transform="translate(3,3)"/><ellipse fill="none" stroke="black" cx="221.6" cy="-141" rx="41.4846" ry="18" style="fill: url(#none);stroke: black;"/><text text-anchor="middle" x="221.6" y="-138.2" font-family="Times,serif" font-size="11.00" style="font-size:10px; font-family:sans-serif;">RUNNING</text></g><g id="edge2" class="edge"><polygon fill="black" stroke="black" points="175.668,-155.052 184.615,-149.376 174.081,-148.234 175.668,-155.052" style="fill: black; stroke: none; fill-opacity:0.3" transform="translate(3,3)"/><path fill="none" stroke="black" d="M139.404,-159.899C150.45,-157.328 162.839,-154.444 174.549,-151.719" style="fill: none; stroke: black; stroke-opacity:0.3" transform="translate(3,3)"/><polygon fill="black" stroke="black" points="175.668,-155.052 184.615,-149.376 174.081,-148.234 175.668,-155.052" style="fill: url(#black);stroke: black;"/><path fill="none" stroke="black" d="M139.404,-159.899C150.45,-157.328 162.839,-154.444 174.549,-151.719"/></g><g id="edge9" class="edge"><polygon fill="black" stroke="black" points="143.256,-179.774 132.68,-180.414 141.347,-186.508 143.256,-179.774" style="fill: black; stroke: none; fill-opacity:0.3" transform="translate(3,3)"/><path fill="none" stroke="black" d="M186.149,-193.21C172.427,-190.657 156.587,-187.02 142.538,-183.208" style="fill: none; stroke: black; stroke-opacity:0.3" transform="translate(3,3)"/><polygon fill="black" stroke="black" points="143.256,-179.774 132.68,-180.414 141.347,-186.508 143.256,-179.774" style="fill: url(#black);stroke: black;"/><path fill="none" stroke="black" d="M186.149,-193.21C172.427,-190.657 156.587,-187.02 142.538,-183.208"/></g><g id="node4" class="node"><ellipse fill="none" stroke="black" cx="338.6" cy="-210" rx="39.1741" ry="18" style="fill: black; stroke: none; fill-opacity:0.3" transform="translate(3,3)"/><ellipse fill="none" stroke="black" cx="338.6" cy="-210" rx="39.1741" ry="18" style="fill: url(#none);stroke: black;"/><text text-anchor="middle" x="338.6" y="-207.2" font-family="Times,serif" font-size="11.00" fill="green" style="font-size:10px; font-family:sans-serif;">SUCCESS</text></g><g id="edge6" class="edge"><polygon fill="black" stroke="black" points="303.542,-193.647 313.918,-195.791 307.144,-187.645 303.542,-193.647" style="fill: black; stroke: none; fill-opacity:0.3" transform="translate(3,3)"/><path fill="none" stroke="black" d="M246.708,-155.465C263.688,-165.653 286.614,-179.408 305.192,-190.555" style="fill: none; stroke: black; stroke-opacity:0.3" transform="translate(3,3)"/><polygon fill="black" stroke="black" points="303.542,-193.647 313.918,-195.791 307.144,-187.645 303.542,-193.647" style="fill: url(#black);stroke: black;"/><path fill="none" stroke="black" d="M246.708,-155.465C263.688,-165.653 286.614,-179.408 305.192,-190.555"/></g><g id="node7" class="node"><ellipse fill="none" stroke="black" cx="338.6" cy="-118" rx="38.4712" ry="18" style="fill: black; stroke: none; fill-opacity:0.3" transform="translate(3,3)"/><ellipse fill="none" stroke="black" cx="338.6" cy="-118" rx="38.4712" ry="18" style="fill: url(#none);stroke: black;"/><text text-anchor="middle" x="338.6" y="-115.2" font-family="Times,serif" font-size="11.00" fill="red" style="font-size:10px; font-family:sans-serif;">FAILURE</text></g><g id="edge7" class="edge"><polygon fill="black" stroke="black" points="293.875,-130.314 302.994,-124.921 292.502,-123.45 293.875,-130.314" style="fill: black; stroke: none; fill-opacity:0.3" transform="translate(3,3)"/><path fill="none" stroke="black" d="M259.62,-133.596C270.277,-131.465 282.015,-129.117 293.076,-126.905" style="fill: none; stroke: black; stroke-opacity:0.3" transform="translate(3,3)"/><polygon fill="black" stroke="black" points="293.875,-130.314 302.994,-124.921 292.502,-123.45 293.875,-130.314" style="fill: url(#black);stroke: black;"/><path fill="none" stroke="black" d="M259.62,-133.596C270.277,-131.465 282.015,-129.117 293.076,-126.905"/></g><g id="node5" class="node"><ellipse fill="none" stroke="black" cx="461.6" cy="-187" rx="44.498" ry="18" style="fill: black; stroke: none; fill-opacity:0.3" transform="translate(3,3)"/><ellipse fill="none" stroke="black" cx="461.6" cy="-187" rx="44.498" ry="18" style="fill: url(#none);stroke: black;"/><text text-anchor="middle" x="461.6" y="-184.2" font-family="Times,serif" font-size="11.00" style="font-size:10px; font-family:sans-serif;">RETRYING</text></g><g id="edge3" class="edge"><polygon fill="black" stroke="black" points="411.599,-199.877 420.769,-194.571 410.292,-193 411.599,-199.877" style="fill: black; stroke: none; fill-opacity:0.3" transform="translate(3,3)"/><path fill="none" stroke="black" d="M374.923,-203.286C386.15,-201.152 398.784,-198.75 410.831,-196.46" style="fill: none; stroke: black; stroke-opacity:0.3" transform="translate(3,3)"/><polygon fill="black" stroke="black" points="411.599,-199.877 420.769,-194.571 410.292,-193 411.599,-199.877" style="fill: url(#black);stroke: black;"/><path fill="none" stroke="black" d="M374.923,-203.286C386.15,-201.152 398.784,-198.75 410.831,-196.46"/></g><g id="node6" class="node"><ellipse fill="none" stroke="black" cx="461.6" cy="-26" rx="48.2143" ry="18" style="fill: black; stroke: none; fill-opacity:0.3" transform="translate(3,3)"/><ellipse fill="none" stroke="black" cx="461.6" cy="-26" rx="48.2143" ry="18" style="fill: url(#none);stroke: black;"/><text text-anchor="middle" x="461.6" y="-23.2" font-family="Times,serif" font-size="11.00" style="font-size:10px; font-family:sans-serif;">REVERTING</text></g><g id="edge4" class="edge"><polygon fill="black" stroke="black" points="446.589,-53.6767 449.159,-43.3983 440.74,-49.8305 446.589,-53.6767" style="fill: black; stroke: none; fill-opacity:0.3" transform="translate(3,3)"/><path fill="none" stroke="black" d="M350.983,-192.69C372.333,-160.224 418.489,-90.0368 443.559,-51.9131" style="fill: none; stroke: black; stroke-opacity:0.3" transform="translate(3,3)"/><polygon fill="black" stroke="black" points="446.589,-53.6767 449.159,-43.3983 440.74,-49.8305 446.589,-53.6767" style="fill: url(#black);stroke: black;"/><path fill="none" stroke="black" d="M350.983,-192.69C372.333,-160.224 418.489,-90.0368 443.559,-51.9131"/></g><g id="edge5" class="edge"><polygon fill="black" stroke="black" points="270.27,-146.649 259.788,-148.188 268.942,-153.522 270.27,-146.649" style="fill: black; stroke: none; fill-opacity:0.3" transform="translate(3,3)"/><path fill="none" stroke="black" d="M420.898,-179.327C379.28,-171.283 313.912,-158.649 269.71,-150.105" style="fill: none; stroke: black; stroke-opacity:0.3" transform="translate(3,3)"/><polygon fill="black" stroke="black" points="270.27,-146.649 259.788,-148.188 268.942,-153.522 270.27,-146.649" style="fill: url(#black);stroke: black;"/><path fill="none" stroke="black" d="M420.898,-179.327C379.28,-171.283 313.912,-158.649 269.71,-150.105"/></g><g id="node8" class="node"><ellipse fill="none" stroke="black" cx="613.6" cy="-72" rx="45.2009" ry="18" style="fill: black; stroke: none; fill-opacity:0.3" transform="translate(3,3)"/><ellipse fill="none" stroke="black" cx="613.6" cy="-72" rx="45.2009" ry="18" style="fill: url(#none);stroke: black;"/><text text-anchor="middle" x="613.6" y="-69.2" font-family="Times,serif" font-size="11.00" fill="darkorange" style="font-size:10px; font-family:sans-serif;">REVERTED</text></g><g id="edge11" class="edge"><polygon fill="black" stroke="black" points="566.731,-61.5943 577.318,-61.1801 568.783,-54.9019 566.731,-61.5943" style="fill: black; stroke: none; fill-opacity:0.3" transform="translate(3,3)"/><path fill="none" stroke="black" d="M499.294,-37.2529C519.903,-43.5728 545.786,-51.5104 567.61,-58.203" style="fill: none; stroke: black; stroke-opacity:0.3" transform="translate(3,3)"/><polygon fill="black" stroke="black" points="566.731,-61.5943 577.318,-61.1801 568.783,-54.9019 566.731,-61.5943" style="fill: url(#black);stroke: black;"/><path fill="none" stroke="black" d="M499.294,-37.2529C519.903,-43.5728 545.786,-51.5104 567.61,-58.203"/></g><g id="node9" class="node"><ellipse fill="none" stroke="black" cx="613.6" cy="-18" rx="67.9024" ry="18" style="fill: black; stroke: none; fill-opacity:0.3" transform="translate(3,3)"/><ellipse fill="none" stroke="black" cx="613.6" cy="-18" rx="67.9024" ry="18" style="fill: url(#none);stroke: black;"/><text text-anchor="middle" x="613.6" y="-15.2" font-family="Times,serif" font-size="11.00" fill="red" style="font-size:10px; font-family:sans-serif;">REVERT_FAILURE</text></g><g id="edge10" class="edge"><polygon fill="black" stroke="black" points="536.962,-25.5391 546.761,-21.5114 536.589,-18.5491 536.962,-25.5391" style="fill: black; stroke: none; fill-opacity:0.3" transform="translate(3,3)"/><path fill="none" stroke="black" d="M509.649,-23.4907C518.294,-23.0297 527.516,-22.5378 536.755,-22.0451" style="fill: none; stroke: black; stroke-opacity:0.3" transform="translate(3,3)"/><polygon fill="black" stroke="black" points="536.962,-25.5391 546.761,-21.5114 536.589,-18.5491 536.962,-25.5391" style="fill: url(#black);stroke: black;"/><path fill="none" stroke="black" d="M509.649,-23.4907C518.294,-23.0297 527.516,-22.5378 536.755,-22.0451"/></g><g id="edge12" class="edge"><polygon fill="black" stroke="black" points="433.526,-50.9823 439.368,-42.1436 429.289,-45.41 433.526,-50.9823" style="fill: black; stroke: none; fill-opacity:0.3" transform="translate(3,3)"/><path fill="none" stroke="black" d="M359.581,-102.808C379.103,-87.9645 409.044,-65.2 431.266,-48.3034" style="fill: none; stroke: black; stroke-opacity:0.3" transform="translate(3,3)"/><polygon fill="black" stroke="black" points="433.526,-50.9823 439.368,-42.1436 429.289,-45.41 433.526,-50.9823" style="fill: url(#black);stroke: black;"/><path fill="none" stroke="black" d="M359.581,-102.808C379.103,-87.9645 409.044,-65.2 431.266,-48.3034"/></g><g id="edge8" class="edge"><polygon fill="black" stroke="black" points="127.495,-142.965 122.03,-152.042 131.963,-148.354 127.495,-142.965" style="fill: black; stroke: none; fill-opacity:0.3" transform="translate(3,3)"/><path fill="none" stroke="black" d="M569.602,-67.7831C489.293,-61.6804 312.609,-56.7117 179.6,-114 161.661,-121.726 143.824,-134.315 130.048,-145.395" style="fill: none; stroke: black; stroke-opacity:0.3" transform="translate(3,3)"/><polygon fill="black" stroke="black" points="127.495,-142.965 122.03,-152.042 131.963,-148.354 127.495,-142.965" style="fill: url(#black);stroke: black;"/><path fill="none" stroke="black" d="M569.602,-67.7831C489.293,-61.6804 312.609,-56.7117 179.6,-114 161.661,-121.726 143.824,-134.315 130.048,-145.395"/></g><g id="node10" class="node"><ellipse fill="black" stroke="black" cx="23.6" cy="-168" rx="3.6" ry="3.6" style="fill: black; stroke: none; fill-opacity:0.3" transform="translate(3,3)"/><ellipse fill="black" stroke="black" cx="23.6" cy="-168" rx="3.6" ry="3.6" style="fill: url(#black);stroke: black;"/><text text-anchor="middle" x="10" y="-155.6" font-family="Times,serif" font-size="11.00" fill="green" style="font-size:10px; font-family:sans-serif;">start</text></g><g id="edge13" class="edge"><polygon fill="black" stroke="black" points="53.5965,-171.5 63.5964,-168 53.5964,-164.5 53.5965,-171.5" style="fill: black; stroke: none; fill-opacity:0.3" transform="translate(3,3)"/><path fill="none" stroke="black" stroke-dasharray="1,5" d="M27.5624,-168C32.3405,-168 42.3529,-168 53.5516,-168" style="fill: none; stroke: black; stroke-opacity:0.3" transform="translate(3,3)"/><polygon fill="black" stroke="black" points="53.5965,-171.5 63.5964,-168 53.5964,-164.5 53.5965,-171.5" style="fill: url(#black);stroke: black;"/><path fill="none" stroke="black" stroke-dasharray="1,5" d="M27.5624,-168C32.3405,-168 42.3529,-168 53.5516,-168"/></g></g>
</svg>
