<?xml version="1.0"?>
<!DOCTYPE svg PUBLIC "-//W3C//DTD SVG 1.0//EN" "http://www.w3.org/TR/2001/REC-SVG-20010904/DTD/svg10.dtd">
<!-- Generated by graphviz version 2.36.0 (20140111.2315)
 -->
<!-- Title: Tasks states Pages: 1 -->
<svg xmlns="http://www.w3.org/2000/svg" xmlns:svg="http://www.w3.org/2000/svg" width="644pt" height="121pt" viewBox="0.00 0.00 643.60 121.00" preserveAspectRatio="xMidYMid meet" zoomAndPan="magnify" version="1.1" contentScriptType="application/ecmascript" contentStyleType="text/css"><defs><linearGradient id="white" x1="0%" y1="0%" x2="0%" y2="0%"><stop offset="0%" style="stop-color:rgb(255,255,255);stop-opacity:1"/></linearGradient><linearGradient id="black" x1="0%" y1="0%" x2="0%" y2="0%"><stop offset="0%" style="stop-color:rgb(0,0,0);stop-opacity:1"/></linearGradient><linearGradient id="aquamarine" x1="0%" y1="0%" x2="100%" y2="100%"><stop offset="0%" style="stop-color:rgb(255,255,255);stop-opacity:1"/><stop offset="100%" style="stop-color:rgb(127,255,212);stop-opacity:1"/></linearGradient><linearGradient id="azure" x1="0%" y1="0%" x2="100%" y2="100%"><stop offset="0%" style="stop-color:rgb(255,255,255);stop-opacity:1"/><stop offset="100%" style="stop-color:rgb(240,255,255);stop-opacity:1"/></linearGradient><linearGradient id="blue" x1="0%" y1="0%" x2="100%" y2="100%"><stop offset="0%" style="stop-color:rgb(255,255,255);stop-opacity:1"/><stop offset="100%" style="stop-color:rgb(0,0,255);stop-opacity:1"/></linearGradient><linearGradient id="blueviolet" x1="0%" y1="0%" x2="100%" y2="100%"><stop offset="0%" style="stop-color:rgb(255,255,255);stop-opacity:1"/><stop offset="100%" style="stop-color:rgb(138,43,226);stop-opacity:1"/></linearGradient><linearGradient id="brown" x1="0%" y1="0%" x2="100%" y2="100%"><stop offset="0%" style="stop-color:rgb(255,255,255);stop-opacity:1"/><stop offset="100%" style="stop-color:rgb(165,42,42);stop-opacity:1"/></linearGradient><linearGradient id="cadetblue" x1="0%" y1="0%" x2="100%" y2="100%"><stop offset="0%" style="stop-color:rgb(255,255,255);stop-opacity:1"/><stop offset="100%" style="stop-color:rgb(95,158,160);stop-opacity:1"/></linearGradient><linearGradient id="chocolate" x1="0%" y1="0%" x2="100%" y2="100%"><stop offset="0%" style="stop-color:rgb(255,255,255);stop-opacity:1"/><stop offset="100%" style="stop-color:rgb(210,105,30);stop-opacity:1"/></linearGradient><linearGradient id="cornflowerblue" x1="0%" y1="0%" x2="100%" y2="100%"><stop offset="0%" style="stop-color:rgb(255,255,255);stop-opacity:1"/><stop offset="100%" style="stop-color:rgb(100,149,237);stop-opacity:1"/></linearGradient><linearGradient id="crimson" x1="0%" y1="0%" x2="100%" y2="100%"><stop offset="0%" style="stop-color:rgb(255,255,255);stop-opacity:1"/><stop offset="100%" style="stop-color:rgb(220,20,60);stop-opacity:1"/></linearGradient><linearGradient id="cyan" x1="0%" y1="0%" x2="100%" y2="100%"><stop offset="0%" style="stop-color:rgb(255,255,255);stop-opacity:1"/><stop offset="100%" style="stop-color:rgb(0,255,255);stop-opacity:1"/></linearGradient><linearGradient id="darkgreen" x1="0%" y1="0%" x2="100%" y2="100%"><stop offset="0%" style="stop-color:rgb(255,255,255);stop-opacity:1"/><stop offset="100%" style="stop-color:rgb(0,100,0);stop-opacity:1"/></linearGradient><linearGradient id="darkorange" x1="0%" y1="0%" x2="100%" y2="100%"><stop offset="0%" style="stop-color:rgb(255,255,255);stop-opacity:1"/><stop offset="100%" style="stop-color:rgb(255,140,0);stop-opacity:1"/></linearGradient><linearGradient id="gold" x1="0%" y1="0%" x2="100%" y2="100%"><stop offset="0%" style="stop-color:rgb(255,255,255);stop-opacity:1"/><stop offset="100%" style="stop-color:rgb(255,215,0);stop-opacity:1"/></linearGradient><linearGradient id="gray" x1="0%" y1="0%" x2="100%" y2="100%"><stop offset="0%" style="stop-color:rgb(255,255,255);stop-opacity:1"/><stop offset="100%" style="stop-color:rgb(192,192,192);stop-opacity:1"/></linearGradient><linearGradient id="greenyellow" x1="0%" y1="0%" x2="100%" y2="100%"><stop offset="0%" style="stop-color:rgb(255,255,255);stop-opacity:1"/><stop offset="100%" style="stop-color:rgb(173,255,47);stop-opacity:1"/></linearGradient><linearGradient id="green" x1="0%" y1="0%" x2="100%" y2="100%"><stop offset="0%" style="stop-color:rgb(255,255,255);stop-opacity:1"/><stop offset="100%" style="stop-color:rgb(0,255,0);stop-opacity:1"/></linearGradient><linearGradient id="grey" x1="0%" y1="0%" x2="100%" y2="100%"><stop offset="0%" style="stop-color:rgb(255,255,255);stop-opacity:1"/><stop offset="100%" style="stop-color:rgb(192,192,192);stop-opacity:1"/></linearGradient><linearGradient id="hotpink" x1="0%" y1="0%" x2="100%" y2="100%"><stop offset="0%" style="stop-color:rgb(255,255,255);stop-opacity:1"/><stop offset="100%" style="stop-color:rgb(255,105,180);stop-opacity:1"/></linearGradient><linearGradient id="indianred" x1="0%" y1="0%" x2="100%" y2="100%"><stop offset="0%" style="stop-color:rgb(255,255,255);stop-opacity:1"/><stop offset="100%" style="stop-color:rgb(205,92,92);stop-opacity:1"/></linearGradient><linearGradient id="indigo" x1="0%" y1="0%" x2="100%" y2="100%"><stop offset="0%" style="stop-color:rgb(255,255,255);stop-opacity:1"/><stop offset="100%" style="stop-color:rgb(75,0,130);stop-opacity:1"/></linearGradient><linearGradient id="lavender" x1="0%" y1="0%" x2="100%" y2="100%"><stop offset="0%" style="stop-color:rgb(255,255,255);stop-opacity:1"/><stop offset="100%" style="stop-color:rgb(230,230,250);stop-opacity:1"/></linearGradient><linearGradient id="lightblue" x1="0%" y1="0%" x2="100%" y2="100%"><stop offset="0%" style="stop-color:rgb(255,255,255);stop-opacity:1"/><stop offset="100%" style="stop-color:rgb(173,216,230);stop-opacity:1"/></linearGradient><linearGradient id="lightgray" x1="0%" y1="0%" x2="100%" y2="100%"><stop offset="0%" style="stop-color:rgb(255,255,255);stop-opacity:1"/><stop offset="100%" style="stop-color:rgb(211,211,211);stop-opacity:1"/></linearGradient><linearGradient id="lightgrey" x1="0%" y1="0%" x2="100%" y2="100%"><stop offset="0%" style="stop-color:rgb(255,255,255);stop-opacity:1"/><stop offset="100%" style="stop-color:rgb(211,211,211);stop-opacity:1"/></linearGradient><linearGradient id="magenta" x1="0%" y1="0%" x2="100%" y2="100%"><stop offset="0%" style="stop-color:rgb(255,255,255);stop-opacity:1"/><stop offset="100%" style="stop-color:rgb(255,0,255);stop-opacity:1"/></linearGradient><linearGradient id="maroon" x1="0%" y1="0%" x2="100%" y2="100%"><stop offset="0%" style="stop-color:rgb(255,255,255);stop-opacity:1"/><stop offset="100%" style="stop-color:rgb(176,48,96);stop-opacity:1"/></linearGradient><linearGradient id="mediumblue" x1="0%" y1="0%" x2="100%" y2="100%"><stop offset="0%" style="stop-color:rgb(255,255,255);stop-opacity:1"/><stop offset="100%" style="stop-color:rgb(0,0,205);stop-opacity:1"/></linearGradient><linearGradient id="mediumpurple" x1="0%" y1="0%" x2="100%" y2="100%"><stop offset="0%" style="stop-color:rgb(255,255,255);stop-opacity:1"/><stop offset="100%" style="stop-color:rgb(147,112,219);stop-opacity:1"/></linearGradient><linearGradient id="orange" x1="0%" y1="0%" x2="100%" y2="100%"><stop offset="0%" style="stop-color:rgb(255,255,255);stop-opacity:1"/><stop offset="100%" style="stop-color:rgb(255,165,0);stop-opacity:1"/></linearGradient><linearGradient id="pink" x1="0%" y1="0%" x2="100%" y2="100%"><stop offset="0%" style="stop-color:rgb(255,255,255);stop-opacity:1"/><stop offset="100%" style="stop-color:rgb(255,192,203);stop-opacity:1"/></linearGradient><linearGradient id="purple" x1="0%" y1="0%" x2="100%" y2="100%"><stop offset="0%" style="stop-color:rgb(255,255,255);stop-opacity:1"/><stop offset="100%" style="stop-color:rgb(160,32,240);stop-opacity:1"/></linearGradient><linearGradient id="red" x1="0%" y1="0%" x2="100%" y2="100%"><stop offset="0%" style="stop-color:rgb(255,255,255);stop-opacity:1"/><stop offset="100%" style="stop-color:rgb(255,0,0);stop-opacity:1"/></linearGradient><linearGradient id="steelblue" x1="0%" y1="0%" x2="100%" y2="100%"><stop offset="0%" style="stop-color:rgb(255,255,255);stop-opacity:1"/><stop offset="100%" style="stop-color:rgb(70,130,180);stop-opacity:1"/></linearGradient><linearGradient id="violet" x1="0%" y1="0%" x2="100%" y2="100%"><stop offset="0%" style="stop-color:rgb(255,255,255);stop-opacity:1"/><stop offset="100%" style="stop-color:rgb(238,130,238);stop-opacity:1"/></linearGradient><linearGradient id="yellow" x1="0%" y1="0%" x2="100%" y2="100%"><stop offset="0%" style="stop-color:rgb(255,255,255);stop-opacity:1"/><stop offset="100%" style="stop-color:rgb(255,255,0);stop-opacity:1"/></linearGradient><linearGradient id="none" x1="0%" y1="0%" x2="100%" y2="100%"><stop offset="0%" style="stop-color:rgb(255,255,255);stop-opacity:1"/><stop offset="100%" style="stop-color:rgb(255,255,255);stop-opacity:1"/></linearGradient></defs>
<g id="graph0" class="graph" transform="scale(1 1) rotate(0) translate(4 117)"><polygon fill="white" stroke="none" points="-4,4 -4,-117 639.6,-117 639.6,4 -4,4"/><title>Tasks states</title><g id="node1" class="node"><ellipse fill="none" stroke="black" cx="103.6" cy="-18" rx="39.8775" ry="18" style="fill: black; stroke: none; fill-opacity:0.3" transform="translate(3,3)"/><ellipse fill="none" stroke="black" cx="103.6" cy="-18" rx="39.8775" ry="18" style="fill:url(#none);stroke:black;"/><text text-anchor="middle" x="103.6" y="-15.2" font-family="Times,serif" font-size="11.00" style="font-size:10px; font-family:Verdana">PENDING</text></g><g id="node2" class="node"><ellipse fill="none" stroke="black" cx="221.6" cy="-41" rx="41.4846" ry="18" style="fill: black; stroke: none; fill-opacity:0.3" transform="translate(3,3)"/><ellipse fill="none" stroke="black" cx="221.6" cy="-41" rx="41.4846" ry="18" style="fill:url(#none);stroke:black;"/><text text-anchor="middle" x="221.6" y="-38.2" font-family="Times,serif" font-size="11.00" style="font-size:10px; font-family:Verdana">RUNNING</text></g><g id="edge1" class="edge"><polygon fill="black" stroke="black" points="173.074,-35.1449 183.564,-33.6567 174.436,-28.2786 173.074,-35.1449" style="fill: black; stroke: none; fill-opacity:0.3" transform="translate(3,3)"/><path fill="none" stroke="black" d="M140.35,-25.0884C150.85,-27.1702 162.495,-29.4793 173.585,-31.6781" style="fill: none; stroke: black; stroke-opacity:0.3" transform="translate(3,3)"/><polygon fill="black" stroke="black" points="173.074,-35.1449 183.564,-33.6567 174.436,-28.2786 173.074,-35.1449" style="fill:url(#black);stroke:black;"/><path fill="none" stroke="black" d="M140.35,-25.0884C150.85,-27.1702 162.495,-29.4793 173.585,-31.6781"/></g><g id="node3" class="node"><ellipse fill="none" stroke="black" cx="338.6" cy="-95" rx="38.4712" ry="18" style="fill: black; stroke: none; fill-opacity:0.3" transform="translate(3,3)"/><ellipse fill="none" stroke="black" cx="338.6" cy="-95" rx="38.4712" ry="18" style="fill:url(#none);stroke:black;"/><text text-anchor="middle" x="338.6" y="-92.2" font-family="Times,serif" font-size="11.00" style="font-size:10px; font-family:Verdana">FAILURE</text></g><g id="edge2" class="edge"><polygon fill="black" stroke="black" points="300.271,-81.338 310.81,-82.4203 303.246,-75.0018 300.271,-81.338" style="fill: black; stroke: none; fill-opacity:0.3" transform="translate(3,3)"/><path fill="none" stroke="black" d="M250.438,-54.0719C265.775,-61.2735 284.989,-70.2956 301.471,-78.0351" style="fill: none; stroke: black; stroke-opacity:0.3" transform="translate(3,3)"/><polygon fill="black" stroke="black" points="300.271,-81.338 310.81,-82.4203 303.246,-75.0018 300.271,-81.338" style="fill:url(#black);stroke:black;"/><path fill="none" stroke="black" d="M250.438,-54.0719C265.775,-61.2735 284.989,-70.2956 301.471,-78.0351"/></g><g id="node4" class="node"><ellipse fill="none" stroke="black" cx="338.6" cy="-41" rx="39.1741" ry="18" style="fill: black; stroke: none; fill-opacity:0.3" transform="translate(3,3)"/><ellipse fill="none" stroke="black" cx="338.6" cy="-41" rx="39.1741" ry="18" style="fill:url(#none);stroke:black;"/><text text-anchor="middle" x="338.6" y="-38.2" font-family="Times,serif" font-size="11.00" style="font-size:10px; font-family:Verdana">SUCCESS</text></g><g id="edge3" class="edge"><polygon fill="black" stroke="black" points="289.348,-44.5001 299.348,-41 289.348,-37.5001 289.348,-44.5001" style="fill: black; stroke: none; fill-opacity:0.3" transform="translate(3,3)"/><path fill="none" stroke="black" d="M263.145,-41C271.604,-41 280.601,-41 289.308,-41" style="fill: none; stroke: black; stroke-opacity:0.3" transform="translate(3,3)"/><polygon fill="black" stroke="black" points="289.348,-44.5001 299.348,-41 289.348,-37.5001 289.348,-44.5001" style="fill:url(#black);stroke:black;"/><path fill="none" stroke="black" d="M263.145,-41C271.604,-41 280.601,-41 289.308,-41"/></g><g id="node5" class="node"><ellipse fill="none" stroke="black" cx="461.6" cy="-68" rx="48.2143" ry="18" style="fill: black; stroke: none; fill-opacity:0.3" transform="translate(3,3)"/><ellipse fill="none" stroke="black" cx="461.6" cy="-68" rx="48.2143" ry="18" style="fill:url(#none);stroke:black;"/><text text-anchor="middle" x="461.6" y="-65.2" font-family="Times,serif" font-size="11.00" style="font-size:10px; font-family:Verdana">REVERTING</text></g><g id="edge4" class="edge"><polygon fill="black" stroke="black" points="405.391,-77.1725 414.472,-71.7152 403.97,-70.3183 405.391,-77.1725" style="fill: black; stroke: none; fill-opacity:0.3" transform="translate(3,3)"/><path fill="none" stroke="black" d="M367.36,-83.0248C378.48,-79.8116 391.711,-76.5417 404.663,-73.749" style="fill: none; stroke: black; stroke-opacity:0.3" transform="translate(3,3)"/><polygon fill="black" stroke="black" points="405.391,-77.1725 414.472,-71.7152 403.97,-70.3183 405.391,-77.1725" style="fill:url(#black);stroke:black;"/><path fill="none" stroke="black" d="M367.36,-83.0248C378.48,-79.8116 391.711,-76.5417 404.663,-73.749"/></g><g id="edge5" class="edge"><polygon fill="black" stroke="black" points="409.41,-60.1635 419.933,-58.9255 410.935,-53.3316 409.41,-60.1635" style="fill: black; stroke: none; fill-opacity:0.3" transform="translate(3,3)"/><path fill="none" stroke="black" d="M374.274,-48.7371C385.404,-51.2206 397.969,-54.0245 409.998,-56.7086" style="fill: none; stroke: black; stroke-opacity:0.3" transform="translate(3,3)"/><polygon fill="black" stroke="black" points="409.41,-60.1635 419.933,-58.9255 410.935,-53.3316 409.41,-60.1635" style="fill:url(#black);stroke:black;"/><path fill="none" stroke="black" d="M374.274,-48.7371C385.404,-51.2206 397.969,-54.0245 409.998,-56.7086"/></g><g id="edge6" class="edge"><polygon fill="black" stroke="black" points="386.055,-87.6492 376.891,-92.9664 387.371,-94.5244 386.055,-87.6492" style="fill: black; stroke: none; fill-opacity:0.3" transform="translate(3,3)"/><path fill="none" stroke="black" d="M428.538,-81.1924C415.767,-84.7318 400.808,-88.2583 386.841,-91.0624" style="fill: none; stroke: black; stroke-opacity:0.3" transform="translate(3,3)"/><polygon fill="black" stroke="black" points="386.055,-87.6492 376.891,-92.9664 387.371,-94.5244 386.055,-87.6492" style="fill:url(#black);stroke:black;"/><path fill="none" stroke="black" d="M428.538,-81.1924C415.767,-84.7318 400.808,-88.2583 386.841,-91.0624"/></g><g id="node6" class="node"><ellipse fill="none" stroke="black" cx="590.6" cy="-31" rx="45.2009" ry="18" style="fill: black; stroke: none; fill-opacity:0.3" transform="translate(3,3)"/><ellipse fill="none" stroke="black" cx="590.6" cy="-31" rx="45.2009" ry="18" style="fill:url(#none);stroke:black;"/><text text-anchor="middle" x="590.6" y="-28.2" font-family="Times,serif" font-size="11.00" style="font-size:10px; font-family:Verdana">REVERTED</text></g><g id="edge7" class="edge"><polygon fill="black" stroke="black" points="545.137,-47.5995 553.758,-41.442 543.179,-40.8789 545.137,-47.5995" style="fill: black; stroke: none; fill-opacity:0.3" transform="translate(3,3)"/><path fill="none" stroke="black" d="M500.017,-57.0989C513.809,-53.0807 529.588,-48.4837 544.022,-44.2786" style="fill: none; stroke: black; stroke-opacity:0.3" transform="translate(3,3)"/><polygon fill="black" stroke="black" points="545.137,-47.5995 553.758,-41.442 543.179,-40.8789 545.137,-47.5995" style="fill:url(#black);stroke:black;"/><path fill="none" stroke="black" d="M500.017,-57.0989C513.809,-53.0807 529.588,-48.4837 544.022,-44.2786"/></g><g id="edge8" class="edge"><polygon fill="black" stroke="black" points="152.93,-11.5388 143.124,-15.5509 153.292,-18.5295 152.93,-11.5388" style="fill: black; stroke: none; fill-opacity:0.3" transform="translate(3,3)"/><path fill="none" stroke="black" d="M546.621,-26.5389C503.835,-22.3374 436.262,-16.3482 377.6,-14 289.67,-10.4802 267.569,-11.6558 179.6,-14 171.074,-14.2272 162.01,-14.5994 153.238,-15.0277" style="fill: none; stroke: black; stroke-opacity:0.3" transform="translate(3,3)"/><polygon fill="black" stroke="black" points="152.93,-11.5388 143.124,-15.5509 153.292,-18.5295 152.93,-11.5388" style="fill:url(#black);stroke:black;"/><path fill="none" stroke="black" d="M546.621,-26.5389C503.835,-22.3374 436.262,-16.3482 377.6,-14 289.67,-10.4802 267.569,-11.6558 179.6,-14 171.074,-14.2272 162.01,-14.5994 153.238,-15.0277"/></g><g id="node7" class="node"><ellipse fill="black" stroke="black" cx="23.6" cy="-18" rx="3.6" ry="3.6" style="fill: black; stroke: none; fill-opacity:0.3" transform="translate(3,3)"/><ellipse fill="black" stroke="black" cx="23.6" cy="-18" rx="3.6" ry="3.6" style="fill:url(#black);stroke:black;"/><text text-anchor="middle" x="10" y="-5.6" font-family="Times,serif" font-size="11.00" fill="green" style="font-size:10px; font-family:Verdana">start</text></g><g id="edge9" class="edge"><polygon fill="black" stroke="black" points="53.5965,-21.5001 63.5964,-18 53.5964,-14.5001 53.5965,-21.5001" style="fill: black; stroke: none; fill-opacity:0.3" transform="translate(3,3)"/><path fill="none" stroke="black" stroke-dasharray="1,5" d="M27.5624,-18C32.3405,-18 42.3529,-18 53.5516,-18" style="fill: none; stroke: black; stroke-opacity:0.3" transform="translate(3,3)"/><polygon fill="black" stroke="black" points="53.5965,-21.5001 63.5964,-18 53.5964,-14.5001 53.5965,-21.5001" style="fill:url(#black);stroke:black;"/><path fill="none" stroke="black" stroke-dasharray="1,5" d="M27.5624,-18C32.3405,-18 42.3529,-18 53.5516,-18"/></g></g>
</svg>
