<?xml version="1.0"?>
<!DOCTYPE svg PUBLIC "-//W3C//DTD SVG 1.0//EN" "http://www.w3.org/TR/2001/REC-SVG-20010904/DTD/svg10.dtd">
<!-- Generated by graphviz version 2.36.0 (20140111.2315)
 -->
<!-- Title: Tasks states Pages: 1 -->
<svg xmlns="http://www.w3.org/2000/svg" xmlns:svg="http://www.w3.org/2000/svg" width="644pt" height="128pt" viewBox="0.00 0.00 643.60 128.22" preserveAspectRatio="xMidYMid meet" zoomAndPan="magnify" version="1.1" contentScriptType="application/ecmascript" contentStyleType="text/css"><defs><linearGradient id="white" x1="0%" y1="0%" x2="0%" y2="0%"><stop offset="0%" style="stop-color:rgb(255,255,255);stop-opacity:1"/></linearGradient><linearGradient id="black" x1="0%" y1="0%" x2="0%" y2="0%"><stop offset="0%" style="stop-color:rgb(0,0,0);stop-opacity:1"/></linearGradient><linearGradient id="aquamarine" x1="0%" y1="0%" x2="100%" y2="100%"><stop offset="0%" style="stop-color:rgb(255,255,255);stop-opacity:1"/><stop offset="100%" style="stop-color:rgb(127,255,212);stop-opacity:1"/></linearGradient><linearGradient id="azure" x1="0%" y1="0%" x2="100%" y2="100%"><stop offset="0%" style="stop-color:rgb(255,255,255);stop-opacity:1"/><stop offset="100%" style="stop-color:rgb(240,255,255);stop-opacity:1"/></linearGradient><linearGradient id="blue" x1="0%" y1="0%" x2="100%" y2="100%"><stop offset="0%" style="stop-color:rgb(255,255,255);stop-opacity:1"/><stop offset="100%" style="stop-color:rgb(0,0,255);stop-opacity:1"/></linearGradient><linearGradient id="blueviolet" x1="0%" y1="0%" x2="100%" y2="100%"><stop offset="0%" style="stop-color:rgb(255,255,255);stop-opacity:1"/><stop offset="100%" style="stop-color:rgb(138,43,226);stop-opacity:1"/></linearGradient><linearGradient id="brown" x1="0%" y1="0%" x2="100%" y2="100%"><stop offset="0%" style="stop-color:rgb(255,255,255);stop-opacity:1"/><stop offset="100%" style="stop-color:rgb(165,42,42);stop-opacity:1"/></linearGradient><linearGradient id="cadetblue" x1="0%" y1="0%" x2="100%" y2="100%"><stop offset="0%" style="stop-color:rgb(255,255,255);stop-opacity:1"/><stop offset="100%" style="stop-color:rgb(95,158,160);stop-opacity:1"/></linearGradient><linearGradient id="chocolate" x1="0%" y1="0%" x2="100%" y2="100%"><stop offset="0%" style="stop-color:rgb(255,255,255);stop-opacity:1"/><stop offset="100%" style="stop-color:rgb(210,105,30);stop-opacity:1"/></linearGradient><linearGradient id="cornflowerblue" x1="0%" y1="0%" x2="100%" y2="100%"><stop offset="0%" style="stop-color:rgb(255,255,255);stop-opacity:1"/><stop offset="100%" style="stop-color:rgb(100,149,237);stop-opacity:1"/></linearGradient><linearGradient id="crimson" x1="0%" y1="0%" x2="100%" y2="100%"><stop offset="0%" style="stop-color:rgb(255,255,255);stop-opacity:1"/><stop offset="100%" style="stop-color:rgb(220,20,60);stop-opacity:1"/></linearGradient><linearGradient id="cyan" x1="0%" y1="0%" x2="100%" y2="100%"><stop offset="0%" style="stop-color:rgb(255,255,255);stop-opacity:1"/><stop offset="100%" style="stop-color:rgb(0,255,255);stop-opacity:1"/></linearGradient><linearGradient id="darkgreen" x1="0%" y1="0%" x2="100%" y2="100%"><stop offset="0%" style="stop-color:rgb(255,255,255);stop-opacity:1"/><stop offset="100%" style="stop-color:rgb(0,100,0);stop-opacity:1"/></linearGradient><linearGradient id="darkorange" x1="0%" y1="0%" x2="100%" y2="100%"><stop offset="0%" style="stop-color:rgb(255,255,255);stop-opacity:1"/><stop offset="100%" style="stop-color:rgb(255,140,0);stop-opacity:1"/></linearGradient><linearGradient id="gold" x1="0%" y1="0%" x2="100%" y2="100%"><stop offset="0%" style="stop-color:rgb(255,255,255);stop-opacity:1"/><stop offset="100%" style="stop-color:rgb(255,215,0);stop-opacity:1"/></linearGradient><linearGradient id="gray" x1="0%" y1="0%" x2="100%" y2="100%"><stop offset="0%" style="stop-color:rgb(255,255,255);stop-opacity:1"/><stop offset="100%" style="stop-color:rgb(192,192,192);stop-opacity:1"/></linearGradient><linearGradient id="greenyellow" x1="0%" y1="0%" x2="100%" y2="100%"><stop offset="0%" style="stop-color:rgb(255,255,255);stop-opacity:1"/><stop offset="100%" style="stop-color:rgb(173,255,47);stop-opacity:1"/></linearGradient><linearGradient id="green" x1="0%" y1="0%" x2="100%" y2="100%"><stop offset="0%" style="stop-color:rgb(255,255,255);stop-opacity:1"/><stop offset="100%" style="stop-color:rgb(0,255,0);stop-opacity:1"/></linearGradient><linearGradient id="grey" x1="0%" y1="0%" x2="100%" y2="100%"><stop offset="0%" style="stop-color:rgb(255,255,255);stop-opacity:1"/><stop offset="100%" style="stop-color:rgb(192,192,192);stop-opacity:1"/></linearGradient><linearGradient id="hotpink" x1="0%" y1="0%" x2="100%" y2="100%"><stop offset="0%" style="stop-color:rgb(255,255,255);stop-opacity:1"/><stop offset="100%" style="stop-color:rgb(255,105,180);stop-opacity:1"/></linearGradient><linearGradient id="indianred" x1="0%" y1="0%" x2="100%" y2="100%"><stop offset="0%" style="stop-color:rgb(255,255,255);stop-opacity:1"/><stop offset="100%" style="stop-color:rgb(205,92,92);stop-opacity:1"/></linearGradient><linearGradient id="indigo" x1="0%" y1="0%" x2="100%" y2="100%"><stop offset="0%" style="stop-color:rgb(255,255,255);stop-opacity:1"/><stop offset="100%" style="stop-color:rgb(75,0,130);stop-opacity:1"/></linearGradient><linearGradient id="lavender" x1="0%" y1="0%" x2="100%" y2="100%"><stop offset="0%" style="stop-color:rgb(255,255,255);stop-opacity:1"/><stop offset="100%" style="stop-color:rgb(230,230,250);stop-opacity:1"/></linearGradient><linearGradient id="lightblue" x1="0%" y1="0%" x2="100%" y2="100%"><stop offset="0%" style="stop-color:rgb(255,255,255);stop-opacity:1"/><stop offset="100%" style="stop-color:rgb(173,216,230);stop-opacity:1"/></linearGradient><linearGradient id="lightgray" x1="0%" y1="0%" x2="100%" y2="100%"><stop offset="0%" style="stop-color:rgb(255,255,255);stop-opacity:1"/><stop offset="100%" style="stop-color:rgb(211,211,211);stop-opacity:1"/></linearGradient><linearGradient id="lightgrey" x1="0%" y1="0%" x2="100%" y2="100%"><stop offset="0%" style="stop-color:rgb(255,255,255);stop-opacity:1"/><stop offset="100%" style="stop-color:rgb(211,211,211);stop-opacity:1"/></linearGradient><linearGradient id="magenta" x1="0%" y1="0%" x2="100%" y2="100%"><stop offset="0%" style="stop-color:rgb(255,255,255);stop-opacity:1"/><stop offset="100%" style="stop-color:rgb(255,0,255);stop-opacity:1"/></linearGradient><linearGradient id="maroon" x1="0%" y1="0%" x2="100%" y2="100%"><stop offset="0%" style="stop-color:rgb(255,255,255);stop-opacity:1"/><stop offset="100%" style="stop-color:rgb(176,48,96);stop-opacity:1"/></linearGradient><linearGradient id="mediumblue" x1="0%" y1="0%" x2="100%" y2="100%"><stop offset="0%" style="stop-color:rgb(255,255,255);stop-opacity:1"/><stop offset="100%" style="stop-color:rgb(0,0,205);stop-opacity:1"/></linearGradient><linearGradient id="mediumpurple" x1="0%" y1="0%" x2="100%" y2="100%"><stop offset="0%" style="stop-color:rgb(255,255,255);stop-opacity:1"/><stop offset="100%" style="stop-color:rgb(147,112,219);stop-opacity:1"/></linearGradient><linearGradient id="orange" x1="0%" y1="0%" x2="100%" y2="100%"><stop offset="0%" style="stop-color:rgb(255,255,255);stop-opacity:1"/><stop offset="100%" style="stop-color:rgb(255,165,0);stop-opacity:1"/></linearGradient><linearGradient id="pink" x1="0%" y1="0%" x2="100%" y2="100%"><stop offset="0%" style="stop-color:rgb(255,255,255);stop-opacity:1"/><stop offset="100%" style="stop-color:rgb(255,192,203);stop-opacity:1"/></linearGradient><linearGradient id="purple" x1="0%" y1="0%" x2="100%" y2="100%"><stop offset="0%" style="stop-color:rgb(255,255,255);stop-opacity:1"/><stop offset="100%" style="stop-color:rgb(160,32,240);stop-opacity:1"/></linearGradient><linearGradient id="red" x1="0%" y1="0%" x2="100%" y2="100%"><stop offset="0%" style="stop-color:rgb(255,255,255);stop-opacity:1"/><stop offset="100%" style="stop-color:rgb(255,0,0);stop-opacity:1"/></linearGradient><linearGradient id="steelblue" x1="0%" y1="0%" x2="100%" y2="100%"><stop offset="0%" style="stop-color:rgb(255,255,255);stop-opacity:1"/><stop offset="100%" style="stop-color:rgb(70,130,180);stop-opacity:1"/></linearGradient><linearGradient id="violet" x1="0%" y1="0%" x2="100%" y2="100%"><stop offset="0%" style="stop-color:rgb(255,255,255);stop-opacity:1"/><stop offset="100%" style="stop-color:rgb(238,130,238);stop-opacity:1"/></linearGradient><linearGradient id="yellow" x1="0%" y1="0%" x2="100%" y2="100%"><stop offset="0%" style="stop-color:rgb(255,255,255);stop-opacity:1"/><stop offset="100%" style="stop-color:rgb(255,255,0);stop-opacity:1"/></linearGradient><linearGradient id="none" x1="0%" y1="0%" x2="100%" y2="100%"><stop offset="0%" style="stop-color:rgb(255,255,255);stop-opacity:1"/><stop offset="100%" style="stop-color:rgb(255,255,255);stop-opacity:1"/></linearGradient></defs>
<g id="graph0" class="graph" transform="scale(1 1) rotate(0) translate(4 124.222)"><polygon fill="white" stroke="none" points="-4,4 -4,-124.222 639.6,-124.222 639.6,4 -4,4"/><title>Tasks states</title><g id="node1" class="node"><ellipse fill="none" stroke="black" cx="103.6" cy="-75.2216" rx="39.8775" ry="18" style="fill: black; stroke: none; fill-opacity:0.3" transform="translate(3,3)"/><ellipse fill="none" stroke="black" cx="103.6" cy="-75.2216" rx="39.8775" ry="18" style="fill: url(#none);stroke: black;"/><text text-anchor="middle" x="103.6" y="-72.4216" font-family="Times,serif" font-size="11.00" style="font-size:10px; font-family:sans-serif;">PENDING</text></g><g id="node2" class="node"><ellipse fill="none" stroke="black" cx="221.6" cy="-102.222" rx="35.4579" ry="18" style="fill: black; stroke: none; fill-opacity:0.3" transform="translate(3,3)"/><ellipse fill="none" stroke="black" cx="221.6" cy="-102.222" rx="35.4579" ry="18" style="fill: url(#none);stroke: black;"/><text text-anchor="middle" x="221.6" y="-99.4216" font-family="Times,serif" font-size="11.00" style="font-size:10px; font-family:sans-serif;">IGNORE</text></g><g id="edge1" class="edge"><polygon fill="black" stroke="black" points="183.844,-90.9673 194.423,-90.3779 185.786,-84.2418 183.844,-90.9673" style="fill: black; stroke: none; fill-opacity:0.3" transform="translate(3,3)"/><path fill="none" stroke="black" d="M142.904,-77.7457C156.367,-80.3708 171.436,-83.9106 184.694,-87.5697" style="fill: none; stroke: black; stroke-opacity:0.3" transform="translate(3,3)"/><polygon fill="black" stroke="black" points="183.844,-90.9673 194.423,-90.3779 185.786,-84.2418 183.844,-90.9673" style="fill: url(#black);stroke: black;"/><path fill="none" stroke="black" d="M142.904,-77.7457C156.367,-80.3708 171.436,-83.9106 184.694,-87.5697"/></g><g id="node3" class="node"><ellipse fill="none" stroke="black" cx="221.6" cy="-48.2216" rx="41.4846" ry="18" style="fill: black; stroke: none; fill-opacity:0.3" transform="translate(3,3)"/><ellipse fill="none" stroke="black" cx="221.6" cy="-48.2216" rx="41.4846" ry="18" style="fill: url(#none);stroke: black;"/><text text-anchor="middle" x="221.6" y="-45.4216" font-family="Times,serif" font-size="11.00" style="font-size:10px; font-family:sans-serif;">RUNNING</text></g><g id="edge2" class="edge"><polygon fill="black" stroke="black" points="175.668,-62.2734 184.615,-56.5975 174.081,-55.4557 175.668,-62.2734" style="fill: black; stroke: none; fill-opacity:0.3" transform="translate(3,3)"/><path fill="none" stroke="black" d="M139.404,-67.1207C150.45,-64.5497 162.839,-61.6659 174.549,-58.9402" style="fill: none; stroke: black; stroke-opacity:0.3" transform="translate(3,3)"/><polygon fill="black" stroke="black" points="175.668,-62.2734 184.615,-56.5975 174.081,-55.4557 175.668,-62.2734" style="fill: url(#black);stroke: black;"/><path fill="none" stroke="black" d="M139.404,-67.1207C150.45,-64.5497 162.839,-61.6659 174.549,-58.9402"/></g><g id="edge7" class="edge"><polygon fill="black" stroke="black" points="143.256,-86.9951 132.68,-87.6357 141.347,-93.7299 143.256,-86.9951" style="fill: black; stroke: none; fill-opacity:0.3" transform="translate(3,3)"/><path fill="none" stroke="black" d="M186.149,-100.432C172.427,-97.879 156.587,-94.2415 142.538,-90.4294" style="fill: none; stroke: black; stroke-opacity:0.3" transform="translate(3,3)"/><polygon fill="black" stroke="black" points="143.256,-86.9951 132.68,-87.6357 141.347,-93.7299 143.256,-86.9951" style="fill: url(#black);stroke: black;"/><path fill="none" stroke="black" d="M186.149,-100.432C172.427,-97.879 156.587,-94.2415 142.538,-90.4294"/></g><g id="node6" class="node"><ellipse fill="none" stroke="black" cx="338.6" cy="-102.222" rx="38.4712" ry="18" style="fill: black; stroke: none; fill-opacity:0.3" transform="translate(3,3)"/><ellipse fill="none" stroke="black" cx="338.6" cy="-102.222" rx="38.4712" ry="18" style="fill: url(#none);stroke: black;"/><text text-anchor="middle" x="338.6" y="-99.4216" font-family="Times,serif" font-size="11.00" fill="red" style="font-size:10px; font-family:sans-serif;">FAILURE</text></g><g id="edge8" class="edge"><polygon fill="black" stroke="black" points="300.271,-88.5595 310.81,-89.6419 303.246,-82.2233 300.271,-88.5595" style="fill: black; stroke: none; fill-opacity:0.3" transform="translate(3,3)"/><path fill="none" stroke="black" d="M250.438,-61.2935C265.775,-68.4951 284.989,-77.5171 301.471,-85.2566" style="fill: none; stroke: black; stroke-opacity:0.3" transform="translate(3,3)"/><polygon fill="black" stroke="black" points="300.271,-88.5595 310.81,-89.6419 303.246,-82.2233 300.271,-88.5595" style="fill: url(#black);stroke: black;"/><path fill="none" stroke="black" d="M250.438,-61.2935C265.775,-68.4951 284.989,-77.5171 301.471,-85.2566"/></g><g id="node7" class="node"><ellipse fill="none" stroke="black" cx="338.6" cy="-48.2216" rx="39.1741" ry="18" style="fill: black; stroke: none; fill-opacity:0.3" transform="translate(3,3)"/><ellipse fill="none" stroke="black" cx="338.6" cy="-48.2216" rx="39.1741" ry="18" style="fill: url(#none);stroke: black;"/><text text-anchor="middle" x="338.6" y="-45.4216" font-family="Times,serif" font-size="11.00" fill="green" style="font-size:10px; font-family:sans-serif;">SUCCESS</text></g><g id="edge9" class="edge"><polygon fill="black" stroke="black" points="289.348,-51.7217 299.348,-48.2216 289.348,-44.7217 289.348,-51.7217" style="fill: black; stroke: none; fill-opacity:0.3" transform="translate(3,3)"/><path fill="none" stroke="black" d="M263.145,-48.2216C271.604,-48.2216 280.601,-48.2216 289.308,-48.2216" style="fill: none; stroke: black; stroke-opacity:0.3" transform="translate(3,3)"/><polygon fill="black" stroke="black" points="289.348,-51.7217 299.348,-48.2216 289.348,-44.7217 289.348,-51.7217" style="fill: url(#black);stroke: black;"/><path fill="none" stroke="black" d="M263.145,-48.2216C271.604,-48.2216 280.601,-48.2216 289.308,-48.2216"/></g><g id="node4" class="node"><ellipse fill="none" stroke="black" cx="461.6" cy="-75.2216" rx="48.2143" ry="18" style="fill: black; stroke: none; fill-opacity:0.3" transform="translate(3,3)"/><ellipse fill="none" stroke="black" cx="461.6" cy="-75.2216" rx="48.2143" ry="18" style="fill: url(#none);stroke: black;"/><text text-anchor="middle" x="461.6" y="-72.4216" font-family="Times,serif" font-size="11.00" style="font-size:10px; font-family:sans-serif;">REVERTING</text></g><g id="node5" class="node"><ellipse fill="none" stroke="black" cx="590.6" cy="-38.2216" rx="45.2009" ry="18" style="fill: black; stroke: none; fill-opacity:0.3" transform="translate(3,3)"/><ellipse fill="none" stroke="black" cx="590.6" cy="-38.2216" rx="45.2009" ry="18" style="fill: url(#none);stroke: black;"/><text text-anchor="middle" x="590.6" y="-35.4216" font-family="Times,serif" font-size="11.00" fill="darkorange" style="font-size:10px; font-family:sans-serif;">REVERTED</text></g><g id="edge3" class="edge"><polygon fill="black" stroke="black" points="545.137,-54.821 553.758,-48.6636 543.179,-48.1004 545.137,-54.821" style="fill: black; stroke: none; fill-opacity:0.3" transform="translate(3,3)"/><path fill="none" stroke="black" d="M500.017,-64.3205C513.809,-60.3023 529.588,-55.7052 544.022,-51.5002" style="fill: none; stroke: black; stroke-opacity:0.3" transform="translate(3,3)"/><polygon fill="black" stroke="black" points="545.137,-54.821 553.758,-48.6636 543.179,-48.1004 545.137,-54.821" style="fill: url(#black);stroke: black;"/><path fill="none" stroke="black" d="M500.017,-64.3205C513.809,-60.3023 529.588,-55.7052 544.022,-51.5002"/></g><g id="edge4" class="edge"><polygon fill="black" stroke="black" points="386.055,-94.8708 376.891,-100.188 387.371,-101.746 386.055,-94.8708" style="fill: black; stroke: none; fill-opacity:0.3" transform="translate(3,3)"/><path fill="none" stroke="black" d="M428.538,-88.4139C415.767,-91.9533 400.808,-95.4799 386.841,-98.284" style="fill: none; stroke: black; stroke-opacity:0.3" transform="translate(3,3)"/><polygon fill="black" stroke="black" points="386.055,-94.8708 376.891,-100.188 387.371,-101.746 386.055,-94.8708" style="fill: url(#black);stroke: black;"/><path fill="none" stroke="black" d="M428.538,-88.4139C415.767,-91.9533 400.808,-95.4799 386.841,-98.284"/></g><g id="edge5" class="edge"><polygon fill="black" stroke="black" points="125.905,-49.6599 120.746,-58.9139 130.55,-54.8968 125.905,-49.6599" style="fill: black; stroke: none; fill-opacity:0.3" transform="translate(3,3)"/><path fill="none" stroke="black" d="M552.815,-28.3851C479.632,-10.5976 311.475,21.3143 179.6,-21.2216 160.453,-27.3974 142.069,-40.4785 128.295,-52.2187" style="fill: none; stroke: black; stroke-opacity:0.3" transform="translate(3,3)"/><polygon fill="black" stroke="black" points="125.905,-49.6599 120.746,-58.9139 130.55,-54.8968 125.905,-49.6599" style="fill: url(#black);stroke: black;"/><path fill="none" stroke="black" d="M552.815,-28.3851C479.632,-10.5976 311.475,21.3143 179.6,-21.2216 160.453,-27.3974 142.069,-40.4785 128.295,-52.2187"/></g><g id="edge6" class="edge"><polygon fill="black" stroke="black" points="405.391,-84.3941 414.472,-78.9368 403.97,-77.5398 405.391,-84.3941" style="fill: black; stroke: none; fill-opacity:0.3" transform="translate(3,3)"/><path fill="none" stroke="black" d="M367.36,-90.2463C378.48,-87.0331 391.711,-83.7633 404.663,-80.9706" style="fill: none; stroke: black; stroke-opacity:0.3" transform="translate(3,3)"/><polygon fill="black" stroke="black" points="405.391,-84.3941 414.472,-78.9368 403.97,-77.5398 405.391,-84.3941" style="fill: url(#black);stroke: black;"/><path fill="none" stroke="black" d="M367.36,-90.2463C378.48,-87.0331 391.711,-83.7633 404.663,-80.9706"/></g><g id="edge10" class="edge"><polygon fill="black" stroke="black" points="409.41,-67.3851 419.933,-66.147 410.935,-60.5531 409.41,-67.3851" style="fill: black; stroke: none; fill-opacity:0.3" transform="translate(3,3)"/><path fill="none" stroke="black" d="M374.274,-55.9587C385.404,-58.4422 397.969,-61.2461 409.998,-63.9302" style="fill: none; stroke: black; stroke-opacity:0.3" transform="translate(3,3)"/><polygon fill="black" stroke="black" points="409.41,-67.3851 419.933,-66.147 410.935,-60.5531 409.41,-67.3851" style="fill: url(#black);stroke: black;"/><path fill="none" stroke="black" d="M374.274,-55.9587C385.404,-58.4422 397.969,-61.2461 409.998,-63.9302"/></g><g id="node8" class="node"><ellipse fill="black" stroke="black" cx="23.6" cy="-75.2216" rx="3.6" ry="3.6" style="fill: black; stroke: none; fill-opacity:0.3" transform="translate(3,3)"/><ellipse fill="black" stroke="black" cx="23.6" cy="-75.2216" rx="3.6" ry="3.6" style="fill: url(#black);stroke: black;"/><text text-anchor="middle" x="10" y="-62.8216" font-family="Times,serif" font-size="11.00" fill="green" style="font-size:10px; font-family:sans-serif;">start</text></g><g id="edge11" class="edge"><polygon fill="black" stroke="black" points="53.5965,-78.7217 63.5964,-75.2216 53.5964,-71.7217 53.5965,-78.7217" style="fill: black; stroke: none; fill-opacity:0.3" transform="translate(3,3)"/><path fill="none" stroke="black" stroke-dasharray="1,5" d="M27.5624,-75.2216C32.3405,-75.2216 42.3529,-75.2216 53.5516,-75.2216" style="fill: none; stroke: black; stroke-opacity:0.3" transform="translate(3,3)"/><polygon fill="black" stroke="black" points="53.5965,-78.7217 63.5964,-75.2216 53.5964,-71.7217 53.5965,-78.7217" style="fill: url(#black);stroke: black;"/><path fill="none" stroke="black" stroke-dasharray="1,5" d="M27.5624,-75.2216C32.3405,-75.2216 42.3529,-75.2216 53.5516,-75.2216"/></g></g>
</svg>
