<?xml version="1.0"?>
<!DOCTYPE svg PUBLIC "-//W3C//DTD SVG 1.0//EN" "http://www.w3.org/TR/2001/REC-SVG-20010904/DTD/svg10.dtd">
<!-- Generated by graphviz version 2.38.0 (20140413.2041)
 -->
<!-- Title: Tasks states Pages: 1 -->
<svg xmlns="http://www.w3.org/2000/svg" xmlns:svg="http://www.w3.org/2000/svg" width="642pt" height="113pt" viewBox="0.00 0.00 642.15 113.00" preserveAspectRatio="xMidYMid meet" zoomAndPan="magnify" version="1.1" contentScriptType="application/ecmascript" contentStyleType="text/css"><defs><linearGradient id="white" x1="0%" y1="0%" x2="0%" y2="0%"><stop offset="0%" style="stop-color:rgb(255,255,255);stop-opacity:1"/></linearGradient><linearGradient id="black" x1="0%" y1="0%" x2="0%" y2="0%"><stop offset="0%" style="stop-color:rgb(0,0,0);stop-opacity:1"/></linearGradient><linearGradient id="aquamarine" x1="0%" y1="0%" x2="100%" y2="100%"><stop offset="0%" style="stop-color:rgb(255,255,255);stop-opacity:1"/><stop offset="100%" style="stop-color:rgb(127,255,212);stop-opacity:1"/></linearGradient><linearGradient id="azure" x1="0%" y1="0%" x2="100%" y2="100%"><stop offset="0%" style="stop-color:rgb(255,255,255);stop-opacity:1"/><stop offset="100%" style="stop-color:rgb(240,255,255);stop-opacity:1"/></linearGradient><linearGradient id="blue" x1="0%" y1="0%" x2="100%" y2="100%"><stop offset="0%" style="stop-color:rgb(255,255,255);stop-opacity:1"/><stop offset="100%" style="stop-color:rgb(0,0,255);stop-opacity:1"/></linearGradient><linearGradient id="blueviolet" x1="0%" y1="0%" x2="100%" y2="100%"><stop offset="0%" style="stop-color:rgb(255,255,255);stop-opacity:1"/><stop offset="100%" style="stop-color:rgb(138,43,226);stop-opacity:1"/></linearGradient><linearGradient id="brown" x1="0%" y1="0%" x2="100%" y2="100%"><stop offset="0%" style="stop-color:rgb(255,255,255);stop-opacity:1"/><stop offset="100%" style="stop-color:rgb(165,42,42);stop-opacity:1"/></linearGradient><linearGradient id="cadetblue" x1="0%" y1="0%" x2="100%" y2="100%"><stop offset="0%" style="stop-color:rgb(255,255,255);stop-opacity:1"/><stop offset="100%" style="stop-color:rgb(95,158,160);stop-opacity:1"/></linearGradient><linearGradient id="chocolate" x1="0%" y1="0%" x2="100%" y2="100%"><stop offset="0%" style="stop-color:rgb(255,255,255);stop-opacity:1"/><stop offset="100%" style="stop-color:rgb(210,105,30);stop-opacity:1"/></linearGradient><linearGradient id="cornflowerblue" x1="0%" y1="0%" x2="100%" y2="100%"><stop offset="0%" style="stop-color:rgb(255,255,255);stop-opacity:1"/><stop offset="100%" style="stop-color:rgb(100,149,237);stop-opacity:1"/></linearGradient><linearGradient id="crimson" x1="0%" y1="0%" x2="100%" y2="100%"><stop offset="0%" style="stop-color:rgb(255,255,255);stop-opacity:1"/><stop offset="100%" style="stop-color:rgb(220,20,60);stop-opacity:1"/></linearGradient><linearGradient id="cyan" x1="0%" y1="0%" x2="100%" y2="100%"><stop offset="0%" style="stop-color:rgb(255,255,255);stop-opacity:1"/><stop offset="100%" style="stop-color:rgb(0,255,255);stop-opacity:1"/></linearGradient><linearGradient id="darkgreen" x1="0%" y1="0%" x2="100%" y2="100%"><stop offset="0%" style="stop-color:rgb(255,255,255);stop-opacity:1"/><stop offset="100%" style="stop-color:rgb(0,100,0);stop-opacity:1"/></linearGradient><linearGradient id="darkorange" x1="0%" y1="0%" x2="100%" y2="100%"><stop offset="0%" style="stop-color:rgb(255,255,255);stop-opacity:1"/><stop offset="100%" style="stop-color:rgb(255,140,0);stop-opacity:1"/></linearGradient><linearGradient id="gold" x1="0%" y1="0%" x2="100%" y2="100%"><stop offset="0%" style="stop-color:rgb(255,255,255);stop-opacity:1"/><stop offset="100%" style="stop-color:rgb(255,215,0);stop-opacity:1"/></linearGradient><linearGradient id="gray" x1="0%" y1="0%" x2="100%" y2="100%"><stop offset="0%" style="stop-color:rgb(255,255,255);stop-opacity:1"/><stop offset="100%" style="stop-color:rgb(192,192,192);stop-opacity:1"/></linearGradient><linearGradient id="greenyellow" x1="0%" y1="0%" x2="100%" y2="100%"><stop offset="0%" style="stop-color:rgb(255,255,255);stop-opacity:1"/><stop offset="100%" style="stop-color:rgb(173,255,47);stop-opacity:1"/></linearGradient><linearGradient id="green" x1="0%" y1="0%" x2="100%" y2="100%"><stop offset="0%" style="stop-color:rgb(255,255,255);stop-opacity:1"/><stop offset="100%" style="stop-color:rgb(0,255,0);stop-opacity:1"/></linearGradient><linearGradient id="grey" x1="0%" y1="0%" x2="100%" y2="100%"><stop offset="0%" style="stop-color:rgb(255,255,255);stop-opacity:1"/><stop offset="100%" style="stop-color:rgb(192,192,192);stop-opacity:1"/></linearGradient><linearGradient id="hotpink" x1="0%" y1="0%" x2="100%" y2="100%"><stop offset="0%" style="stop-color:rgb(255,255,255);stop-opacity:1"/><stop offset="100%" style="stop-color:rgb(255,105,180);stop-opacity:1"/></linearGradient><linearGradient id="indianred" x1="0%" y1="0%" x2="100%" y2="100%"><stop offset="0%" style="stop-color:rgb(255,255,255);stop-opacity:1"/><stop offset="100%" style="stop-color:rgb(205,92,92);stop-opacity:1"/></linearGradient><linearGradient id="indigo" x1="0%" y1="0%" x2="100%" y2="100%"><stop offset="0%" style="stop-color:rgb(255,255,255);stop-opacity:1"/><stop offset="100%" style="stop-color:rgb(75,0,130);stop-opacity:1"/></linearGradient><linearGradient id="lavender" x1="0%" y1="0%" x2="100%" y2="100%"><stop offset="0%" style="stop-color:rgb(255,255,255);stop-opacity:1"/><stop offset="100%" style="stop-color:rgb(230,230,250);stop-opacity:1"/></linearGradient><linearGradient id="lightblue" x1="0%" y1="0%" x2="100%" y2="100%"><stop offset="0%" style="stop-color:rgb(255,255,255);stop-opacity:1"/><stop offset="100%" style="stop-color:rgb(173,216,230);stop-opacity:1"/></linearGradient><linearGradient id="lightgray" x1="0%" y1="0%" x2="100%" y2="100%"><stop offset="0%" style="stop-color:rgb(255,255,255);stop-opacity:1"/><stop offset="100%" style="stop-color:rgb(211,211,211);stop-opacity:1"/></linearGradient><linearGradient id="lightgrey" x1="0%" y1="0%" x2="100%" y2="100%"><stop offset="0%" style="stop-color:rgb(255,255,255);stop-opacity:1"/><stop offset="100%" style="stop-color:rgb(211,211,211);stop-opacity:1"/></linearGradient><linearGradient id="magenta" x1="0%" y1="0%" x2="100%" y2="100%"><stop offset="0%" style="stop-color:rgb(255,255,255);stop-opacity:1"/><stop offset="100%" style="stop-color:rgb(255,0,255);stop-opacity:1"/></linearGradient><linearGradient id="maroon" x1="0%" y1="0%" x2="100%" y2="100%"><stop offset="0%" style="stop-color:rgb(255,255,255);stop-opacity:1"/><stop offset="100%" style="stop-color:rgb(176,48,96);stop-opacity:1"/></linearGradient><linearGradient id="mediumblue" x1="0%" y1="0%" x2="100%" y2="100%"><stop offset="0%" style="stop-color:rgb(255,255,255);stop-opacity:1"/><stop offset="100%" style="stop-color:rgb(0,0,205);stop-opacity:1"/></linearGradient><linearGradient id="mediumpurple" x1="0%" y1="0%" x2="100%" y2="100%"><stop offset="0%" style="stop-color:rgb(255,255,255);stop-opacity:1"/><stop offset="100%" style="stop-color:rgb(147,112,219);stop-opacity:1"/></linearGradient><linearGradient id="orange" x1="0%" y1="0%" x2="100%" y2="100%"><stop offset="0%" style="stop-color:rgb(255,255,255);stop-opacity:1"/><stop offset="100%" style="stop-color:rgb(255,165,0);stop-opacity:1"/></linearGradient><linearGradient id="pink" x1="0%" y1="0%" x2="100%" y2="100%"><stop offset="0%" style="stop-color:rgb(255,255,255);stop-opacity:1"/><stop offset="100%" style="stop-color:rgb(255,192,203);stop-opacity:1"/></linearGradient><linearGradient id="purple" x1="0%" y1="0%" x2="100%" y2="100%"><stop offset="0%" style="stop-color:rgb(255,255,255);stop-opacity:1"/><stop offset="100%" style="stop-color:rgb(160,32,240);stop-opacity:1"/></linearGradient><linearGradient id="red" x1="0%" y1="0%" x2="100%" y2="100%"><stop offset="0%" style="stop-color:rgb(255,255,255);stop-opacity:1"/><stop offset="100%" style="stop-color:rgb(255,0,0);stop-opacity:1"/></linearGradient><linearGradient id="steelblue" x1="0%" y1="0%" x2="100%" y2="100%"><stop offset="0%" style="stop-color:rgb(255,255,255);stop-opacity:1"/><stop offset="100%" style="stop-color:rgb(70,130,180);stop-opacity:1"/></linearGradient><linearGradient id="violet" x1="0%" y1="0%" x2="100%" y2="100%"><stop offset="0%" style="stop-color:rgb(255,255,255);stop-opacity:1"/><stop offset="100%" style="stop-color:rgb(238,130,238);stop-opacity:1"/></linearGradient><linearGradient id="yellow" x1="0%" y1="0%" x2="100%" y2="100%"><stop offset="0%" style="stop-color:rgb(255,255,255);stop-opacity:1"/><stop offset="100%" style="stop-color:rgb(255,255,0);stop-opacity:1"/></linearGradient><linearGradient id="none" x1="0%" y1="0%" x2="100%" y2="100%"><stop offset="0%" style="stop-color:rgb(255,255,255);stop-opacity:1"/><stop offset="100%" style="stop-color:rgb(255,255,255);stop-opacity:1"/></linearGradient></defs>
<g id="graph0" class="graph" transform="scale(1 1) rotate(0) translate(4 109)"><polygon fill="white" stroke="none" points="-4,4 -4,-109 638.15,-109 638.15,4 -4,4"/><title>Tasks states</title><g id="node1" class="node"><ellipse fill="none" stroke="black" cx="102.888" cy="-79" rx="39.8775" ry="18" style="fill: black; stroke: none; fill-opacity:0.3" transform="translate(3,3)"/><ellipse fill="none" stroke="black" cx="102.888" cy="-79" rx="39.8775" ry="18" style="fill:url(#none);stroke:black;"/><text text-anchor="middle" x="102.888" y="-76.2" font-family="Times,serif" font-size="11.00" style="font-size:10px; font-family:Verdana">PENDING</text></g><g id="node2" class="node"><ellipse fill="none" stroke="black" cx="220.069" cy="-56" rx="41.4846" ry="18" style="fill: black; stroke: none; fill-opacity:0.3" transform="translate(3,3)"/><ellipse fill="none" stroke="black" cx="220.069" cy="-56" rx="41.4846" ry="18" style="fill:url(#none);stroke:black;"/><text text-anchor="middle" x="220.069" y="-53.2" font-family="Times,serif" font-size="11.00" style="font-size:10px; font-family:Verdana">RUNNING</text></g><g id="edge1" class="edge"><polygon fill="black" stroke="black" points="172.773,-68.8138 181.894,-63.4233 171.402,-61.9493 172.773,-68.8138" style="fill: black; stroke: none; fill-opacity:0.3" transform="translate(3,3)"/><path fill="none" stroke="black" d="M139.386,-71.9116C149.71,-69.85 161.15,-67.5656 172.065,-65.386" style="fill: none; stroke: black; stroke-opacity:0.3" transform="translate(3,3)"/><polygon fill="black" stroke="black" points="172.773,-68.8138 181.894,-63.4233 171.402,-61.9493 172.773,-68.8138" style="fill:url(#black);stroke:black;"/><path fill="none" stroke="black" d="M139.386,-71.9116C149.71,-69.85 161.15,-67.5656 172.065,-65.386"/></g><g id="node3" class="node"><ellipse fill="none" stroke="black" cx="336.648" cy="-18" rx="39.1741" ry="18" style="fill: black; stroke: none; fill-opacity:0.3" transform="translate(3,3)"/><ellipse fill="none" stroke="black" cx="336.648" cy="-18" rx="39.1741" ry="18" style="fill:url(#none);stroke:black;"/><text text-anchor="middle" x="336.648" y="-15.2" font-family="Times,serif" font-size="11.00" style="font-size:10px; font-family:Verdana">SUCCESS</text></g><g id="edge2" class="edge"><polygon fill="black" stroke="black" points="295.835,-34.8914 304.225,-28.4214 293.632,-28.2472 295.835,-34.8914" style="fill: black; stroke: none; fill-opacity:0.3" transform="translate(3,3)"/><path fill="none" stroke="black" d="M253.596,-45.2124C266.374,-40.9748 281.186,-36.0623 294.68,-31.5869" style="fill: none; stroke: black; stroke-opacity:0.3" transform="translate(3,3)"/><polygon fill="black" stroke="black" points="295.835,-34.8914 304.225,-28.4214 293.632,-28.2472 295.835,-34.8914" style="fill:url(#black);stroke:black;"/><path fill="none" stroke="black" d="M253.596,-45.2124C266.374,-40.9748 281.186,-36.0623 294.68,-31.5869"/></g><g id="node4" class="node"><ellipse fill="none" stroke="black" cx="589.049" cy="-18" rx="38.4712" ry="18" style="fill: black; stroke: none; fill-opacity:0.3" transform="translate(3,3)"/><ellipse fill="none" stroke="black" cx="589.049" cy="-18" rx="38.4712" ry="18" style="fill:url(#none);stroke:black;"/><text text-anchor="middle" x="589.049" y="-15.2" font-family="Times,serif" font-size="11.00" style="font-size:10px; font-family:Verdana">FAILURE</text></g><g id="edge3" class="edge"><polygon fill="black" stroke="black" points="551.462,-36.5017 559.659,-29.789 549.065,-29.9249 551.462,-36.5017" style="fill: black; stroke: none; fill-opacity:0.3" transform="translate(3,3)"/><path fill="none" stroke="black" d="M261.378,-58.0588C317.256,-60.0985 421.181,-60.9434 507.949,-45 521.981,-42.4217 536.908,-37.9077 550.025,-33.3002" style="fill: none; stroke: black; stroke-opacity:0.3" transform="translate(3,3)"/><polygon fill="black" stroke="black" points="551.462,-36.5017 559.659,-29.789 549.065,-29.9249 551.462,-36.5017" style="fill:url(#black);stroke:black;"/><path fill="none" stroke="black" d="M261.378,-58.0588C317.256,-60.0985 421.181,-60.9434 507.949,-45 521.981,-42.4217 536.908,-37.9077 550.025,-33.3002"/></g><g id="node5" class="node"><ellipse fill="none" stroke="black" cx="459.842" cy="-18" rx="48.2143" ry="18" style="fill: black; stroke: none; fill-opacity:0.3" transform="translate(3,3)"/><ellipse fill="none" stroke="black" cx="459.842" cy="-18" rx="48.2143" ry="18" style="fill:url(#none);stroke:black;"/><text text-anchor="middle" x="459.842" y="-15.2" font-family="Times,serif" font-size="11.00" style="font-size:10px; font-family:Verdana">REVERTING</text></g><g id="edge4" class="edge"><polygon fill="black" stroke="black" points="401.378,-21.5001 411.378,-18 401.378,-14.5001 401.378,-21.5001" style="fill: black; stroke: none; fill-opacity:0.3" transform="translate(3,3)"/><path fill="none" stroke="black" d="M375.995,-18C384.069,-18 392.756,-18 401.359,-18" style="fill: none; stroke: black; stroke-opacity:0.3" transform="translate(3,3)"/><polygon fill="black" stroke="black" points="401.378,-21.5001 411.378,-18 401.378,-14.5001 401.378,-21.5001" style="fill:url(#black);stroke:black;"/><path fill="none" stroke="black" d="M375.995,-18C384.069,-18 392.756,-18 401.359,-18"/></g><g id="edge6" class="edge"><polygon fill="black" stroke="black" points="515.051,-21.1832 504.976,-24.4607 514.896,-28.1815 515.051,-21.1832" style="fill: black; stroke: none; fill-opacity:0.3" transform="translate(3,3)"/><path fill="none" stroke="black" d="M552.807,-24.1142C541.125,-24.6743 527.838,-24.8643 515.067,-24.6843" style="fill: none; stroke: black; stroke-opacity:0.3" transform="translate(3,3)"/><polygon fill="black" stroke="black" points="515.051,-21.1832 504.976,-24.4607 514.896,-28.1815 515.051,-21.1832" style="fill:url(#black);stroke:black;"/><path fill="none" stroke="black" d="M552.807,-24.1142C541.125,-24.6743 527.838,-24.8643 515.067,-24.6843"/></g><g id="edge7" class="edge"><polygon fill="black" stroke="black" points="542.681,-15.0045 552.807,-11.8858 542.946,-8.00951 542.681,-15.0045" style="fill: black; stroke: none; fill-opacity:0.3" transform="translate(3,3)"/><path fill="none" stroke="black" d="M504.976,-11.5393C517.198,-11.1653 530.48,-11.1539 542.766,-11.5053" style="fill: none; stroke: black; stroke-opacity:0.3" transform="translate(3,3)"/><polygon fill="black" stroke="black" points="542.681,-15.0045 552.807,-11.8858 542.946,-8.00951 542.681,-15.0045" style="fill:url(#black);stroke:black;"/><path fill="none" stroke="black" d="M504.976,-11.5393C517.198,-11.1653 530.48,-11.1539 542.766,-11.5053"/></g><g id="node6" class="node"><ellipse fill="none" stroke="black" cx="589.049" cy="-87" rx="45.2009" ry="18" style="fill: black; stroke: none; fill-opacity:0.3" transform="translate(3,3)"/><ellipse fill="none" stroke="black" cx="589.049" cy="-87" rx="45.2009" ry="18" style="fill:url(#none);stroke:black;"/><text text-anchor="middle" x="589.049" y="-84.2" font-family="Times,serif" font-size="11.00" style="font-size:10px; font-family:Verdana">REVERTED</text></g><g id="edge8" class="edge"><polygon fill="black" stroke="black" points="550.783,-70.7676 561.242,-72.4591 554.121,-64.6145 550.783,-70.7676" style="fill: black; stroke: none; fill-opacity:0.3" transform="translate(3,3)"/><path fill="none" stroke="black" d="M488.131,-32.8022C506.87,-42.9667 531.934,-56.5617 552.271,-67.5927" style="fill: none; stroke: black; stroke-opacity:0.3" transform="translate(3,3)"/><polygon fill="black" stroke="black" points="550.783,-70.7676 561.242,-72.4591 554.121,-64.6145 550.783,-70.7676" style="fill:url(#black);stroke:black;"/><path fill="none" stroke="black" d="M488.131,-32.8022C506.87,-42.9667 531.934,-56.5617 552.271,-67.5927"/></g><g id="edge5" class="edge"><polygon fill="black" stroke="black" points="152.423,-78.4038 142.254,-81.3772 152.058,-85.3943 152.423,-78.4038" style="fill: black; stroke: none; fill-opacity:0.3" transform="translate(3,3)"/><path fill="none" stroke="black" d="M543.803,-87.2014C468.694,-87.4012 311.453,-87.2052 178.577,-83 170.088,-82.7313 161.061,-82.3389 152.326,-81.9034" style="fill: none; stroke: black; stroke-opacity:0.3" transform="translate(3,3)"/><polygon fill="black" stroke="black" points="152.423,-78.4038 142.254,-81.3772 152.058,-85.3943 152.423,-78.4038" style="fill:url(#black);stroke:black;"/><path fill="none" stroke="black" d="M543.803,-87.2014C468.694,-87.4012 311.453,-87.2052 178.577,-83 170.088,-82.7313 161.061,-82.3389 152.326,-81.9034"/></g><g id="node7" class="node"><ellipse fill="black" stroke="black" cx="23.6" cy="-79" rx="3.6" ry="3.6" style="fill: black; stroke: none; fill-opacity:0.3" transform="translate(3,3)"/><ellipse fill="black" stroke="black" cx="23.6" cy="-79" rx="3.6" ry="3.6" style="fill:url(#black);stroke:black;"/><text text-anchor="middle" x="10" y="-66.6" font-family="Times,serif" font-size="11.00" fill="green" style="font-size:10px; font-family:Verdana">start</text></g><g id="edge9" class="edge"><polygon fill="black" stroke="black" points="52.8409,-82.5001 62.8408,-79 52.8408,-75.5001 52.8409,-82.5001" style="fill: black; stroke: none; fill-opacity:0.3" transform="translate(3,3)"/><path fill="none" stroke="black" stroke-dasharray="1,5" d="M27.5354,-79C32.1798,-79 41.8154,-79 52.6556,-79" style="fill: none; stroke: black; stroke-opacity:0.3" transform="translate(3,3)"/><polygon fill="black" stroke="black" points="52.8409,-82.5001 62.8408,-79 52.8408,-75.5001 52.8409,-82.5001" style="fill:url(#black);stroke:black;"/><path fill="none" stroke="black" stroke-dasharray="1,5" d="M27.5354,-79C32.1798,-79 41.8154,-79 52.6556,-79"/></g></g>
</svg>
