<?xml version="1.0"?>
<!DOCTYPE svg PUBLIC "-//W3C//DTD SVG 1.0//EN" "http://www.w3.org/TR/2001/REC-SVG-20010904/DTD/svg10.dtd">
<!-- Generated by graphviz version 2.36.0 (20140111.2315)
 -->
<!-- Title: WBE requests states Pages: 1 -->
<svg xmlns="http://www.w3.org/2000/svg" xmlns:svg="http://www.w3.org/2000/svg" width="498pt" height="109pt" viewBox="0.00 0.00 497.60 109.00" preserveAspectRatio="xMidYMid meet" zoomAndPan="magnify" version="1.1" contentScriptType="application/ecmascript" contentStyleType="text/css"><defs><linearGradient id="white" x1="0%" y1="0%" x2="0%" y2="0%"><stop offset="0%" style="stop-color:rgb(255,255,255);stop-opacity:1"/></linearGradient><linearGradient id="black" x1="0%" y1="0%" x2="0%" y2="0%"><stop offset="0%" style="stop-color:rgb(0,0,0);stop-opacity:1"/></linearGradient><linearGradient id="aquamarine" x1="0%" y1="0%" x2="100%" y2="100%"><stop offset="0%" style="stop-color:rgb(255,255,255);stop-opacity:1"/><stop offset="100%" style="stop-color:rgb(127,255,212);stop-opacity:1"/></linearGradient><linearGradient id="azure" x1="0%" y1="0%" x2="100%" y2="100%"><stop offset="0%" style="stop-color:rgb(255,255,255);stop-opacity:1"/><stop offset="100%" style="stop-color:rgb(240,255,255);stop-opacity:1"/></linearGradient><linearGradient id="blue" x1="0%" y1="0%" x2="100%" y2="100%"><stop offset="0%" style="stop-color:rgb(255,255,255);stop-opacity:1"/><stop offset="100%" style="stop-color:rgb(0,0,255);stop-opacity:1"/></linearGradient><linearGradient id="blueviolet" x1="0%" y1="0%" x2="100%" y2="100%"><stop offset="0%" style="stop-color:rgb(255,255,255);stop-opacity:1"/><stop offset="100%" style="stop-color:rgb(138,43,226);stop-opacity:1"/></linearGradient><linearGradient id="brown" x1="0%" y1="0%" x2="100%" y2="100%"><stop offset="0%" style="stop-color:rgb(255,255,255);stop-opacity:1"/><stop offset="100%" style="stop-color:rgb(165,42,42);stop-opacity:1"/></linearGradient><linearGradient id="cadetblue" x1="0%" y1="0%" x2="100%" y2="100%"><stop offset="0%" style="stop-color:rgb(255,255,255);stop-opacity:1"/><stop offset="100%" style="stop-color:rgb(95,158,160);stop-opacity:1"/></linearGradient><linearGradient id="chocolate" x1="0%" y1="0%" x2="100%" y2="100%"><stop offset="0%" style="stop-color:rgb(255,255,255);stop-opacity:1"/><stop offset="100%" style="stop-color:rgb(210,105,30);stop-opacity:1"/></linearGradient><linearGradient id="cornflowerblue" x1="0%" y1="0%" x2="100%" y2="100%"><stop offset="0%" style="stop-color:rgb(255,255,255);stop-opacity:1"/><stop offset="100%" style="stop-color:rgb(100,149,237);stop-opacity:1"/></linearGradient><linearGradient id="crimson" x1="0%" y1="0%" x2="100%" y2="100%"><stop offset="0%" style="stop-color:rgb(255,255,255);stop-opacity:1"/><stop offset="100%" style="stop-color:rgb(220,20,60);stop-opacity:1"/></linearGradient><linearGradient id="cyan" x1="0%" y1="0%" x2="100%" y2="100%"><stop offset="0%" style="stop-color:rgb(255,255,255);stop-opacity:1"/><stop offset="100%" style="stop-color:rgb(0,255,255);stop-opacity:1"/></linearGradient><linearGradient id="darkgreen" x1="0%" y1="0%" x2="100%" y2="100%"><stop offset="0%" style="stop-color:rgb(255,255,255);stop-opacity:1"/><stop offset="100%" style="stop-color:rgb(0,100,0);stop-opacity:1"/></linearGradient><linearGradient id="darkorange" x1="0%" y1="0%" x2="100%" y2="100%"><stop offset="0%" style="stop-color:rgb(255,255,255);stop-opacity:1"/><stop offset="100%" style="stop-color:rgb(255,140,0);stop-opacity:1"/></linearGradient><linearGradient id="gold" x1="0%" y1="0%" x2="100%" y2="100%"><stop offset="0%" style="stop-color:rgb(255,255,255);stop-opacity:1"/><stop offset="100%" style="stop-color:rgb(255,215,0);stop-opacity:1"/></linearGradient><linearGradient id="gray" x1="0%" y1="0%" x2="100%" y2="100%"><stop offset="0%" style="stop-color:rgb(255,255,255);stop-opacity:1"/><stop offset="100%" style="stop-color:rgb(192,192,192);stop-opacity:1"/></linearGradient><linearGradient id="greenyellow" x1="0%" y1="0%" x2="100%" y2="100%"><stop offset="0%" style="stop-color:rgb(255,255,255);stop-opacity:1"/><stop offset="100%" style="stop-color:rgb(173,255,47);stop-opacity:1"/></linearGradient><linearGradient id="green" x1="0%" y1="0%" x2="100%" y2="100%"><stop offset="0%" style="stop-color:rgb(255,255,255);stop-opacity:1"/><stop offset="100%" style="stop-color:rgb(0,255,0);stop-opacity:1"/></linearGradient><linearGradient id="grey" x1="0%" y1="0%" x2="100%" y2="100%"><stop offset="0%" style="stop-color:rgb(255,255,255);stop-opacity:1"/><stop offset="100%" style="stop-color:rgb(192,192,192);stop-opacity:1"/></linearGradient><linearGradient id="hotpink" x1="0%" y1="0%" x2="100%" y2="100%"><stop offset="0%" style="stop-color:rgb(255,255,255);stop-opacity:1"/><stop offset="100%" style="stop-color:rgb(255,105,180);stop-opacity:1"/></linearGradient><linearGradient id="indianred" x1="0%" y1="0%" x2="100%" y2="100%"><stop offset="0%" style="stop-color:rgb(255,255,255);stop-opacity:1"/><stop offset="100%" style="stop-color:rgb(205,92,92);stop-opacity:1"/></linearGradient><linearGradient id="indigo" x1="0%" y1="0%" x2="100%" y2="100%"><stop offset="0%" style="stop-color:rgb(255,255,255);stop-opacity:1"/><stop offset="100%" style="stop-color:rgb(75,0,130);stop-opacity:1"/></linearGradient><linearGradient id="lavender" x1="0%" y1="0%" x2="100%" y2="100%"><stop offset="0%" style="stop-color:rgb(255,255,255);stop-opacity:1"/><stop offset="100%" style="stop-color:rgb(230,230,250);stop-opacity:1"/></linearGradient><linearGradient id="lightblue" x1="0%" y1="0%" x2="100%" y2="100%"><stop offset="0%" style="stop-color:rgb(255,255,255);stop-opacity:1"/><stop offset="100%" style="stop-color:rgb(173,216,230);stop-opacity:1"/></linearGradient><linearGradient id="lightgray" x1="0%" y1="0%" x2="100%" y2="100%"><stop offset="0%" style="stop-color:rgb(255,255,255);stop-opacity:1"/><stop offset="100%" style="stop-color:rgb(211,211,211);stop-opacity:1"/></linearGradient><linearGradient id="lightgrey" x1="0%" y1="0%" x2="100%" y2="100%"><stop offset="0%" style="stop-color:rgb(255,255,255);stop-opacity:1"/><stop offset="100%" style="stop-color:rgb(211,211,211);stop-opacity:1"/></linearGradient><linearGradient id="magenta" x1="0%" y1="0%" x2="100%" y2="100%"><stop offset="0%" style="stop-color:rgb(255,255,255);stop-opacity:1"/><stop offset="100%" style="stop-color:rgb(255,0,255);stop-opacity:1"/></linearGradient><linearGradient id="maroon" x1="0%" y1="0%" x2="100%" y2="100%"><stop offset="0%" style="stop-color:rgb(255,255,255);stop-opacity:1"/><stop offset="100%" style="stop-color:rgb(176,48,96);stop-opacity:1"/></linearGradient><linearGradient id="mediumblue" x1="0%" y1="0%" x2="100%" y2="100%"><stop offset="0%" style="stop-color:rgb(255,255,255);stop-opacity:1"/><stop offset="100%" style="stop-color:rgb(0,0,205);stop-opacity:1"/></linearGradient><linearGradient id="mediumpurple" x1="0%" y1="0%" x2="100%" y2="100%"><stop offset="0%" style="stop-color:rgb(255,255,255);stop-opacity:1"/><stop offset="100%" style="stop-color:rgb(147,112,219);stop-opacity:1"/></linearGradient><linearGradient id="orange" x1="0%" y1="0%" x2="100%" y2="100%"><stop offset="0%" style="stop-color:rgb(255,255,255);stop-opacity:1"/><stop offset="100%" style="stop-color:rgb(255,165,0);stop-opacity:1"/></linearGradient><linearGradient id="pink" x1="0%" y1="0%" x2="100%" y2="100%"><stop offset="0%" style="stop-color:rgb(255,255,255);stop-opacity:1"/><stop offset="100%" style="stop-color:rgb(255,192,203);stop-opacity:1"/></linearGradient><linearGradient id="purple" x1="0%" y1="0%" x2="100%" y2="100%"><stop offset="0%" style="stop-color:rgb(255,255,255);stop-opacity:1"/><stop offset="100%" style="stop-color:rgb(160,32,240);stop-opacity:1"/></linearGradient><linearGradient id="red" x1="0%" y1="0%" x2="100%" y2="100%"><stop offset="0%" style="stop-color:rgb(255,255,255);stop-opacity:1"/><stop offset="100%" style="stop-color:rgb(255,0,0);stop-opacity:1"/></linearGradient><linearGradient id="steelblue" x1="0%" y1="0%" x2="100%" y2="100%"><stop offset="0%" style="stop-color:rgb(255,255,255);stop-opacity:1"/><stop offset="100%" style="stop-color:rgb(70,130,180);stop-opacity:1"/></linearGradient><linearGradient id="violet" x1="0%" y1="0%" x2="100%" y2="100%"><stop offset="0%" style="stop-color:rgb(255,255,255);stop-opacity:1"/><stop offset="100%" style="stop-color:rgb(238,130,238);stop-opacity:1"/></linearGradient><linearGradient id="yellow" x1="0%" y1="0%" x2="100%" y2="100%"><stop offset="0%" style="stop-color:rgb(255,255,255);stop-opacity:1"/><stop offset="100%" style="stop-color:rgb(255,255,0);stop-opacity:1"/></linearGradient><linearGradient id="none" x1="0%" y1="0%" x2="100%" y2="100%"><stop offset="0%" style="stop-color:rgb(255,255,255);stop-opacity:1"/><stop offset="100%" style="stop-color:rgb(255,255,255);stop-opacity:1"/></linearGradient></defs>
<g id="graph0" class="graph" transform="scale(1 1) rotate(0) translate(4 105)"><polygon fill="white" stroke="none" points="-4,4 -4,-105 493.6,-105 493.6,4 -4,4"/><title>WBE requests states</title><g id="node1" class="node"><ellipse fill="none" stroke="black" cx="103.6" cy="-83" rx="39.8775" ry="18" style="fill: black; stroke: none; fill-opacity:0.3" transform="translate(3,3)"/><ellipse fill="none" stroke="black" cx="103.6" cy="-83" rx="39.8775" ry="18" style="fill: url(#none);stroke: black;"/><text text-anchor="middle" x="103.6" y="-80.2" font-family="Times,serif" font-size="11.00" style="font-size:10px; font-family:sans-serif;">WAITING</text></g><g id="node2" class="node"><ellipse fill="none" stroke="black" cx="218.6" cy="-60" rx="39.1741" ry="18" style="fill: black; stroke: none; fill-opacity:0.3" transform="translate(3,3)"/><ellipse fill="none" stroke="black" cx="218.6" cy="-60" rx="39.1741" ry="18" style="fill: url(#none);stroke: black;"/><text text-anchor="middle" x="218.6" y="-57.2" font-family="Times,serif" font-size="11.00" style="font-size:10px; font-family:sans-serif;">PENDING</text></g><g id="edge1" class="edge"><polygon fill="black" stroke="black" points="173.568,-72.534 182.669,-67.1098 172.172,-65.6747 173.568,-72.534" style="fill: black; stroke: none; fill-opacity:0.3" transform="translate(3,3)"/><path fill="none" stroke="black" d="M140.044,-75.7858C150.344,-73.6892 161.734,-71.3709 172.541,-69.1713" style="fill: none; stroke: black; stroke-opacity:0.3" transform="translate(3,3)"/><polygon fill="black" stroke="black" points="173.568,-72.534 182.669,-67.1098 172.172,-65.6747 173.568,-72.534" style="fill: url(#black);stroke: black;"/><path fill="none" stroke="black" d="M140.044,-75.7858C150.344,-73.6892 161.734,-71.3709 172.541,-69.1713"/></g><g id="node3" class="node"><ellipse fill="none" stroke="black" cx="450.6" cy="-72" rx="37.0671" ry="18" style="fill: black; stroke: none; fill-opacity:0.3" transform="translate(3,3)"/><ellipse fill="none" stroke="black" cx="450.6" cy="-72" rx="37.0671" ry="18" style="fill: url(#none);stroke: black;"/><text text-anchor="middle" x="450.6" y="-69.2" font-family="Times,serif" font-size="11.00" fill="red" style="font-size:10px; font-family:sans-serif;">FAILURE</text></g><g id="edge2" class="edge"><polygon fill="black" stroke="black" points="404.685,-80.7273 414.251,-76.1739 403.934,-73.7678 404.685,-80.7273" style="fill: black; stroke: none; fill-opacity:0.3" transform="translate(3,3)"/><path fill="none" stroke="black" d="M143.124,-85.4491C154.833,-86.0871 167.738,-86.6839 179.6,-87 266.736,-89.322 288.737,-87.2675 375.6,-80 384.867,-79.2246 394.773,-78.253 404.225,-77.2566" style="fill: none; stroke: black; stroke-opacity:0.3" transform="translate(3,3)"/><polygon fill="black" stroke="black" points="404.685,-80.7273 414.251,-76.1739 403.934,-73.7678 404.685,-80.7273" style="fill: url(#black);stroke: black;"/><path fill="none" stroke="black" d="M143.124,-85.4491C154.833,-86.0871 167.738,-86.6839 179.6,-87 266.736,-89.322 288.737,-87.2675 375.6,-80 384.867,-79.2246 394.773,-78.253 404.225,-77.2566"/></g><g id="edge4" class="edge"><polygon fill="black" stroke="black" points="403.292,-73.0886 413.461,-70.1145 403.657,-66.0981 403.292,-73.0886" style="fill: black; stroke: none; fill-opacity:0.3" transform="translate(3,3)"/><path fill="none" stroke="black" d="M257.58,-61.9816C297.538,-64.0664 360.457,-67.3491 403.298,-69.5842" style="fill: none; stroke: black; stroke-opacity:0.3" transform="translate(3,3)"/><polygon fill="black" stroke="black" points="403.292,-73.0886 413.461,-70.1145 403.657,-66.0981 403.292,-73.0886" style="fill: url(#black);stroke: black;"/><path fill="none" stroke="black" d="M257.58,-61.9816C297.538,-64.0664 360.457,-67.3491 403.298,-69.5842"/></g><g id="node4" class="node"><ellipse fill="none" stroke="black" cx="334.6" cy="-22" rx="40.7822" ry="18" style="fill: black; stroke: none; fill-opacity:0.3" transform="translate(3,3)"/><ellipse fill="none" stroke="black" cx="334.6" cy="-22" rx="40.7822" ry="18" style="fill: url(#none);stroke: black;"/><text text-anchor="middle" x="334.6" y="-19.2" font-family="Times,serif" font-size="11.00" style="font-size:10px; font-family:sans-serif;">RUNNING</text></g><g id="edge3" class="edge"><polygon fill="black" stroke="black" points="292.914,-39.2513 301.294,-32.7686 290.701,-32.6106 292.914,-39.2513" style="fill: black; stroke: none; fill-opacity:0.3" transform="translate(3,3)"/><path fill="none" stroke="black" d="M250.751,-49.6163C263.377,-45.4078 278.149,-40.4837 291.695,-35.9683" style="fill: none; stroke: black; stroke-opacity:0.3" transform="translate(3,3)"/><polygon fill="black" stroke="black" points="292.914,-39.2513 301.294,-32.7686 290.701,-32.6106 292.914,-39.2513" style="fill: url(#black);stroke: black;"/><path fill="none" stroke="black" d="M250.751,-49.6163C263.377,-45.4078 278.149,-40.4837 291.695,-35.9683"/></g><g id="edge5" class="edge"><polygon fill="black" stroke="black" points="411.711,-59.2039 422.275,-60.0153 414.523,-52.7934 411.711,-59.2039" style="fill: black; stroke: none; fill-opacity:0.3" transform="translate(3,3)"/><path fill="none" stroke="black" d="M364.073,-34.4881C378.819,-40.9556 396.996,-48.9283 412.796,-55.8581" style="fill: none; stroke: black; stroke-opacity:0.3" transform="translate(3,3)"/><polygon fill="black" stroke="black" points="411.711,-59.2039 422.275,-60.0153 414.523,-52.7934 411.711,-59.2039" style="fill: url(#black);stroke: black;"/><path fill="none" stroke="black" d="M364.073,-34.4881C378.819,-40.9556 396.996,-48.9283 412.796,-55.8581"/></g><g id="node5" class="node"><ellipse fill="none" stroke="black" cx="450.6" cy="-18" rx="38.4712" ry="18" style="fill: black; stroke: none; fill-opacity:0.3" transform="translate(3,3)"/><ellipse fill="none" stroke="black" cx="450.6" cy="-18" rx="38.4712" ry="18" style="fill: url(#none);stroke: black;"/><text text-anchor="middle" x="450.6" y="-15.2" font-family="Times,serif" font-size="11.00" fill="green" style="font-size:10px; font-family:sans-serif;">SUCCESS</text></g><g id="edge6" class="edge"><polygon fill="black" stroke="black" points="401.986,-23.1729 411.857,-19.3243 401.741,-16.1772 401.986,-23.1729" style="fill: black; stroke: none; fill-opacity:0.3" transform="translate(3,3)"/><path fill="none" stroke="black" d="M375.472,-20.601C383.963,-20.303 393.014,-19.9855 401.768,-19.6783" style="fill: none; stroke: black; stroke-opacity:0.3" transform="translate(3,3)"/><polygon fill="black" stroke="black" points="401.986,-23.1729 411.857,-19.3243 401.741,-16.1772 401.986,-23.1729" style="fill: url(#black);stroke: black;"/><path fill="none" stroke="black" d="M375.472,-20.601C383.963,-20.303 393.014,-19.9855 401.768,-19.6783"/></g><g id="node6" class="node"><ellipse fill="black" stroke="black" cx="23.6" cy="-83" rx="3.6" ry="3.6" style="fill: black; stroke: none; fill-opacity:0.3" transform="translate(3,3)"/><ellipse fill="black" stroke="black" cx="23.6" cy="-83" rx="3.6" ry="3.6" style="fill: url(#black);stroke: black;"/><text text-anchor="middle" x="10" y="-70.6" font-family="Times,serif" font-size="11.00" fill="green" style="font-size:10px; font-family:sans-serif;">start</text></g><g id="edge7" class="edge"><polygon fill="black" stroke="black" points="53.5965,-86.5001 63.5964,-83 53.5964,-79.5001 53.5965,-86.5001" style="fill: black; stroke: none; fill-opacity:0.3" transform="translate(3,3)"/><path fill="none" stroke="black" stroke-dasharray="1,5" d="M27.5624,-83C32.3405,-83 42.3529,-83 53.5516,-83" style="fill: none; stroke: black; stroke-opacity:0.3" transform="translate(3,3)"/><polygon fill="black" stroke="black" points="53.5965,-86.5001 63.5964,-83 53.5964,-79.5001 53.5965,-86.5001" style="fill: url(#black);stroke: black;"/><path fill="none" stroke="black" stroke-dasharray="1,5" d="M27.5624,-83C32.3405,-83 42.3529,-83 53.5516,-83"/></g></g>
</svg>
